/* XPM */
static char *result[] = {
/* columns rows colors chars-per-pixel */
"66 66 203 2 ",
"   c #313A1D",
".  c #1C1626",
"X  c #1D142C",
"o  c #1F1530",
"O  c #20192B",
"+  c #221C2B",
"@  c #221635",
"#  c #231A35",
"$  c #261B3C",
"%  c #281B3E",
"&  c #1E2D39",
"*  c #2A2C25",
"=  c #26212D",
"-  c #29272B",
";  c #29262D",
":  c #322A23",
">  c #2F3423",
",  c #343C24",
"<  c #343828",
"1  c #2E2B35",
"2  c #282539",
"3  c #312A35",
"4  c #302C3B",
"5  c #23353F",
"6  c #3D3337",
"7  c #413C2F",
"8  c #443B39",
"9  c #364319",
"0  c #3C4B1D",
"q  c #3F5217",
"w  c #3B4722",
"e  c #37742C",
"r  c #42541D",
"t  c #475D1B",
"y  c #485F1B",
"u  c #655917",
"i  c #4F720A",
"p  c #517606",
"a  c #547B07",
"s  c #557A08",
"d  c #4D6817",
"f  c #4B6419",
"g  c #536D1A",
"h  c #547316",
"j  c #587A17",
"k  c #557418",
"l  c #657018",
"z  c #424C25",
"x  c #484438",
"c  c #504637",
"v  c #554B35",
"b  c #5C533B",
"n  c #61563D",
"m  c #6D6221",
"M  c #7A752A",
"N  c #2A1C42",
"B  c #2D2245",
"V  c #282E43",
"C  c #2F2249",
"Z  c #332A44",
"A  c #31254D",
"S  c #33294D",
"D  c #293C48",
"F  c #3C3348",
"G  c #352652",
"H  c #362B54",
"J  c #382C57",
"K  c #3A2F5A",
"L  c #3D315C",
"P  c #3E2A60",
"I  c #3E3161",
"U  c #453F41",
"Y  c #422C67",
"T  c #413264",
"R  c #47346C",
"E  c #4A3574",
"W  c #4D3874",
"Q  c #4E3679",
"!  c #50397D",
"~  c #2C414E",
"^  c #344D4F",
"/  c #2C4452",
"(  c #385865",
")  c #444C41",
"_  c #555644",
"`  c #665A41",
"'  c #5D624E",
"]  c #736A47",
"[  c #6F704F",
"{  c #6F765A",
"}  c #67576F",
"|  c #416572",
" . c #487373",
".. c #6E6C68",
"X. c #6D6376",
"o. c #827D2C",
"O. c #827C36",
"+. c #867D37",
"@. c #807448",
"#. c #827F60",
"$. c #8A727A",
"%. c #5F890D",
"&. c #5D8215",
"*. c #65920B",
"=. c #68970C",
"-. c #6B9B0D",
";. c #6D8312",
":. c #638C13",
">. c #74881B",
",. c #669013",
"<. c #6A9512",
"1. c #6C9B11",
"2. c #729214",
"3. c #729D11",
"4. c #739D1E",
"5. c #6FA00E",
"6. c #73A50F",
"7. c #6FA011",
"8. c #74A710",
"9. c #7BAA1A",
"0. c #4B993B",
"q. c #718C2A",
"w. c #739B22",
"e. c #5EA53D",
"r. c #638C51",
"t. c #52A342",
"y. c #8D8438",
"u. c #91883F",
"i. c #88B428",
"p. c #95B939",
"a. c #8F8A4D",
"s. c #978C47",
"d. c #9D9556",
"f. c #A5994E",
"g. c #A99E53",
"h. c #A69A58",
"j. c #9FA741",
"k. c #AEA258",
"l. c #B4A65B",
"z. c #B5A95C",
"x. c #9D9F6C",
"c. c #A28F6C",
"v. c #A89866",
"b. c #9BB170",
"n. c #ACA463",
"m. c #AFA96E",
"M. c #B4AB65",
"N. c #BBAF61",
"B. c #BCB364",
"V. c #ADAD78",
"C. c #BEB776",
"Z. c #C4BB6B",
"A. c #C7BD7A",
"S. c #ABC653",
"D. c #84CD6C",
"F. c #B7CF7C",
"G. c #CAC473",
"H. c #CBC977",
"J. c #D2CC7A",
"K. c #C7D079",
"L. c #D5D07D",
"P. c #563C87",
"I. c #5A3E8D",
"U. c #5E418D",
"Y. c #5F4094",
"T. c #6B4F8A",
"R. c #735888",
"E. c #604094",
"W. c #64429B",
"Q. c #694A98",
"!. c #6B5192",
"~. c #7D6384",
"^. c #6945A3",
"/. c #558886",
"(. c #A1D983",
"). c #BEDD81",
"_. c #C4DC81",
"`. c #DCD985",
"'. c #D7DD97",
"]. c #DDE687",
"[. c #DDE094",
"{. c #D1EE91",
"}. c #E3E28C",
"|. c #E6E792",
" X c #EAEB94",
".X c #ECEE99",
"XX c #EAF696",
"oX c #EEF19B",
"OX c #F2F49C",
"+X c #F4F89F",
"@X c #DBDAAC",
"#X c #E2DFAA",
"$X c #DCECA7",
"%X c #EDF6A7",
"&X c #EBF0AE",
"*X c #F2F7A1",
"=X c #F6FBA2",
"-X c #FAFFA5",
";X c #F4FAAB",
":X c #FAFFAB",
">X c #E8E6B4",
",X c #F9FDB8",
"<X c #FCFFC7",
/* pixels */
"8.8.8.8.8.8.8.8.8.8.8.8.8.8.8.8.8.8.8.8.8.8.8.8.8.8.5.p =.p 5.8.8.8.8.8.8.5.p =.p 5.8.8.8.8.8.8.8.8.8.8.8.8.8.8.8.8.8.8.8.8.8.8.8.8.",
"8.8.8.8.8.8.8.8.8.8.8.8.8.8.8.8.8.8.8.8.8.8.8.8.8.8.8.5.6.5.6.6.5.6.5.8.8.6.5.5.5.6.6.5.5.5.6.8.8.8.8.8.8.8.8.8.8.8.8.8.8.8.8.8.8.8.",
"8.8.8.8.8.8.8.8.8.8.8.8.8.8.8.8.8.8.8.8.8.8.8.8.8.8.8.8.8.8.6.=.a *.a =.6.8.8.8.8.6.-.a *.a =.6.8.8.8.8.8.8.8.8.8.8.8.8.8.8.8.8.8.8.",
"8.8.8.8.8.8.8.8.8.8.8.8.8.8.8.8.8.8.8.8.8.8.8.8.8.8.8.8.8.8.5.a *.a *.a 5.8.8.8.8.5.a *.%.%.a 5.8.8.8.8.8.8.8.8.8.8.8.8.8.8.8.8.8.8.",
"8.8.8.8.8.8.8.8.8.8.8.8.8.8.8.8.8.8.8.8.8.8.8.8.8.8.8.8.8.8.8.5.6.5.6.5.6.8.8.8.8.8.5.8.5.5.7.8.8.8.8.8.8.8.8.8.8.8.8.8.8.8.8.8.8.8.",
"8.8.8.8.8.8.8.8.8.8.8.8.8.8.8.8.8.8.8.8.8.8.8.8.8.8.8.8.8.8.8.8.8.8.8.8.8.8.8.8.8.8.8.8.8.8.8.8.8.8.8.8.8.8.8.8.8.8.8.8.8.8.8.8.8.8.",
"8.8.8.8.8.8.8.8.8.8.8.8.8.8.8.8.8.8.8.6.8.8.8.8.8.8.8.8.8.8.8.8.8.8.8.8.8.8.8.8.8.8.8.8.8.8.8.8.8.8.8.8.8.8.8.8.8.8.8.8.8.8.8.8.8.8.",
"8.8.8.8.8.8.8.8.8.8.8.8.8.8.8.8.8.8.8.&.X.{ 7.8.8.8.8.8.8.8.8.8.8.8.8.8.8.8.8.8.8.8.8.w...' <.8.8.8.8.8.8.8.8.8.8.8.8.8.8.8.8.8.8.8.",
"8.8.8.8.8.8.8.8.8.8.8.8.8.8.8.8.8.8.8.  R W.{ 8.8.8.8.8.8.8.8.8.8.8.8.8.8.8.8.8.8.8.w.X.Y.C k 8.8.8.8.8.8.8.8.8.8.8.8.8.8.8.8.8.8.8.",
"8.8.8.8.8.8.8.8.8.8.8.8.8.8.8.8.8.8.h 4 H W Q.{ 8.8.8.8.8.8.8.8.8.8.8.8.8.8.8.8.8.w.X.Y.R S < ,.8.8.8.8.8.8.8.8.8.8.8.8.8.8.8.8.8.8.",
"8.8.8.8.8.8.8.8.8.8.8.8.8.8.8.8.8.8.q C K I W.Q.{ 8.8.8.8.8.8.8.8.8.8.8.8.8.8.8.4.X.^.U.K K @ &.8.8.8.8.8.8.8.8.8.8.8.8.8.8.8.8.8.8.",
"8.8.8.8.8.8.8.8.8.8.8.8.8.8.8.8.8.8.0 C K L E W.Q.{ 8.8.8.8.8.8.8.8.8.8.8.8.8.w.X.^.Y.I K L # j 8.8.8.8.8.8.8.8.8.8.8.8.8.8.8.8.8.8.",
"8.8.8.8.8.8.8.8.8.8.8.8.8.8.8.8.8.d = H K K K E ^.^.{ w.4.4.4.4.7.4.4.4.4.4.w.X.^.W.I K K L B * =.8.8.8.8.8.8.8.8.8.8.8.8.8.8.8.8.8.",
"8.8.8.8.8.8.8.8.8.8.8.8.8.8.8.8.8.t @ H K K L T W.^.Q.!.!.!.!.!.!.!.!.!.!.!.!.^.^.I.L K K K C X :.8.8.8.8.8.8.8.8.8.8.8.8.8.8.8.8.8.",
"8.8.8.8.8.8.8.8.8.8.8.8.8.8.8.8.8.t @ H K K L K E ^.W.E.E.E.E.E.W.E.E.Y.Y.Y.Y.^.W.I L K K K C X :.8.8.8.8.8.8.8.8.8.8.8.8.8.8.8.8.8.",
"8.8.8.8.8.8.8.8.8.8.8.8.8.8.8.8.8.t @ H K K H L W Y.Q L K L K L K K L L L L L P.P.R L K K K C X %.8.8.8.8.8.8.8.8.8.8.8.8.8.8.8.8.8.",
"8.8.8.8.8.8.8.8.8.8.8.8.8.8.8.8.8.t @ A H H P T ! K K K K K K K K K K K K K K K Y ! J H K K C X :.8.8.8.8.8.8.8.8.8.8.8.8.8.8.8.8.8.",
"8.8.8.8.8.8.8.8.8.8.8.8.8.8.8.8.8.t @ N A Y Q K K K L K K K K K K K K K K K K K J K K Y H H B X :.8.8.8.8.8.8.8.8.8.8.8.8.8.8.8.8.8.",
"8.8.8.8.8.8.8.8.8.8.6.5.6.6.6.8.8.t @ % N I.T K K K K K K K K K K K J L K K K K K K T Q Y N % X :.8.8.8.8.8.8.8.8.8.8.8.8.8.8.8.8.8.",
"8.8.8.8.8.8.8.8.8.6.-.a *.p -.6.8.,., $ E E I K L K K L ! I.I.I.I.U.I.I.U.R K K L K K E Q N @ t 1.8.8.8.8.8.8.8.8.8.8.8.8.8.8.8.8.8.",
"8.8.8.8.8.8.8.8.8.5.a *.p *.a 3.8.8.0 X K P K K J K W U.$.c.c.c.c.c.c.c.c.R.U.T K K K L ! G X &.8.8.8.8.8.8.8.8.8.8.8.8.8.8.8.8.8.8.",
"8.8.8.8.8.8.8.8.8.6.5.6.6.6.5.8.8.7.w N J K K K R Q.$.c.l.l.l.l.l.l.l.l.l.v.v.R.U.T J L L K @ j 8.8.8.8.8.8.8.8.5.6.5.6.8.8.8.8.8.8.",
"8.8.8.8.8.8.8.8.8.8.8.8.8.8.8.8.8.d 4 J K K K E ~.v.k.l.N.k.g.B.B.B.z.g.k.l.l.h.v.T.T L K K J - :.8.8.8.8.8.8.-.p =.a -.6.8.8.8.8.8.",
"8.8.8.8.8.8.8.8.8.8.8.8.8.8.8.8.1.r C K K K T R.l.z.z.Z.}.f.u.|.+X+XH.y.g.Z.z.l.l.c.U.K K K K $ k 7.8.8.8.8.7.a =.p *.a 5.8.8.8.8.8.",
"8.6.5.6.8.8.8.8.8.8.8.8.6.-.6.1.t B K K J K T R.z.N.`.-X%X=X=X-X-X-X-X+X-X-XL.Z.l.v.U.K K K K J 1 j 8.8.8.8.8.5.6.5.6.5.6.6.-.6.=.5.",
"p =.a -.6.8.8.8.8.8.8.6.-.a *.y B K K K J T } $.G.G.H.K.).&X;X-X-X-X;X:X'.F.K.G.A.A.} G K K K K H 2 k 8.8.8.8.8.8.8.8.8.6.-.p =.%.=.",
"-.p *.a 5.8.8.8.8.8.8.5.a %.9 $ H L K K K F h.`.:X[.a.e.e b.;X-X-X-X:X$Xr.0.e.d.&XOXB.8 G K K K K A ; h 8.8.8.8.8.8.8.8.5.a =.p *.p ",
"6.5.6.5.6.6.5.6.5.6.8.6.5.<.r O $ C H K J 2 k.=X:X,X$XD.e t.(.oX-X-XXXD.e 0.(.;X,X:X X@.% K K G C @ = h 8.8.8.8.8.8.8.8.6.5.6.5.6.5.",
"8.8.8.8.6.-.a *.a -.6.8.8.8.-.h w X $ C C $ b H.;X;X:X{.)._.{.*X<X,XXX).).).%X:X:XOXn.6 % C A @ + f j 8.8.8.8.8.8.8.8.8.8.8.8.8.8.8.",
"8.8.8.8.5.a *.a *.a 5.8.8.8.8.5.i h   X $ % $ v J.-X-X:X-X;X-X.Xa.n.:X-X;X:X-X-XOXn.6 $ N @ X d &.8.8.8.8.8.8.8.8.8.8.8.8.8.8.8.8.8.",
"8.8.8.8.6.5.6.5.6.5.6.8.8.8.8.6.-.6.,.&.> + + = b H..X%X-X-X-X*X].}.-X-X-X-XoX|.n.7 . + + t &.1.8.8.8.8.8.8.8.8.8.8.8.8.8.8.8.8.8.8.",
"8.8.8.8.8.8.8.8.8.8.8.8.8.8.8.8.8.8.8.8.<.,.,.,.j w x x.[.[.[.[.[.[.[.[.[.'.[ x z :.=.,.:.1.8.8.8.8.8.8.8.8.8.8.8.8.8.8.8.8.8.8.8.8.",
"8.8.8.8.8.8.8.8.8.8.8.8.8.8.8.8.8.8.8.8.8.8.8.8.7.4.:.w 3 3 V V 1 1 4 3 3 3 g ,.1.6.6.8.8.8.8.8.8.8.8.8.8.8.8.8.8.8.8.8.8.8.8.8.8.8.",
"8.8.8.8.8.8.8.8.8.8.8.8.8.8.8.8.8.8.8.8.8.8.8.8.8.7.w o $ D / D & & ~ / V % + k 3.8.8.8.8.8.i.p.9.8.8.8.8.8.8.8.8.8.8.8.8.8.8.8.8.8.",
"8.8.8.8.8.8.8.8.8.8.8.8.8.8.8.8.8.8.8.8.8.8.8.8.7.0 o $ D /.| D ) ^ /  .| V N + k 8.8.8.8.i.L.,XS.9.8.8.8.8.8.8.8.8.8.8.8.8.8.8.8.8.",
"8.8.8.8.8.8.8.8.8.8.8.8.8.8.8.8.8.8.8.8.8.8.8.1.r o & &  .~.( w k.a.D | /.^ N N = g 8.8.8.S.XX+X,Xi.8.8.8.8.8.8.8.8.8.8.8.8.8.8.8.8.",
"8.8.8.8.8.8.8.8.8.8.8.8.8.8.8.8.8.8.8.8.8.8.8.&.o B N & ( ( D [ k.d._ ~ | D 2 $ $ * 6.6.8.8.B.OX;X9.8.8.8.8.8.8.8.8.8.8.8.8.8.8.8.8.",
"8.8.8.8.8.8.8.8.8.8.8.8.8.8.8.8.8.8.8.8.8.8.1.w S H N N 5 5 ] z.`.L.d._ 5 & N A G 4 t 6.8.8.j.|.*Xi.8.8.8.8.8.8.8.8.8.8.8.8.8.8.8.8.",
"8.8.8.8.8.8.8.8.8.8.8.8.8.8.8.8.8.8.8.8.8.8.,.= K K J C @ ] l.}.-X+XL.h.x $ A K K G   6.8.8.p.}.K.9.8.8.8.8.8.8.8.8.8.8.8.8.8.8.8.8.",
"8.8.8.8.8.8.8.8.8.8.8.8.8.8.8.8.8.8.8.8.8.1.< S K J J B ` l.}.-X-X-X+XJ.h.8 A J K J 4 t 6.;.Z.XXp.8.8.8.8.8.8.8.8.8.8.8.8.8.8.8.8.8.",
"8.8.8.8.8.8.8.8.8.8.8.8.8.8.8.8.8.8.8.8.8.%.2 J K K B ` l.}.=X-X-X-X-X+XJ.h.8 G J K G : u y.l.y.8.8.8.8.8.8.8.8.8.8.8.8.8.8.8.8.8.8.",
"8.8.8.8.8.8.8.8.8.8.8.8.8.8.8.8.8.8.8.8.6., S K K K N [ }.-X-X-X-X-X-X-X*XJ.8 C J K J B b f.>.2.8.8.8.8.8.8.8.8.8.8.8.8.8.8.8.8.8.8.",
"8.8.8.8.8.8.8.8.8.8.8.8.8.8.8.8.8.8.8.8.7.> H K K J U V..X=X-X-X-X-X-X-XOXOX{ S J K L C v y.2.8.8.8.8.8.8.8.8.8.8.8.8.8.8.8.8.8.8.8.",
"8.8.8.8.8.8.8.8.8.8.8.8.8.8.8.8.8.8.8.8.&.- H K I N #.-XG.|.-X:X X.X:X-XJ.}.OXU H K J A : l 6.8.8.8.8.8.8.8.8.8.8.8.8.8.5.8.8.8.8.8.",
"8.8.6.5.8.5.6.8.8.8.8.8.8.8.8.8.8.8.8.8.> $ J K K C a.-XA.Z.%X,XN.A.<X}.B.}.*XU H J K H @ f 8.8.8.8.8.8.8.8.8.8.6.-.p =.p -.6.8.8.8.",
"8.6.-.p =.a -.6.8.8.8.8.8.8.8.8.8.8.8.h ; N J K K C ..:X}.+.'.>Xs.v.<Xm.f..X*X) H K J H # , :.6.8.8.8.8.8.8.8.8.5.p =.a =.a 5.8.8.8.",
"8.5.a =.p =.a 5.8.8.8.8.8.8.8.8.8.8.h ; N C K K L B #.-X-Xk.v.@Xm a.@Xs.H.-X=XF H J L J C $ > ,.8.8.8.8.8.8.8.8.6.5.6.-.6.5.6.8.8.8.",
"8.6.5.6.5.6.5.6.8.8.8.8.8.8.8.8.8.h ; C H K K K S 8 C.-X-X}.f.s.u m s.B.OX-X*Xd.4 J K K H A $ > :.8.8.8.8.8.8.8.8.8.8.8.8.8.8.8.8.8.",
"8.8.8.8.8.8.8.8.8.8.8.8.8.8.6.7.j 3 G K K H A K A c L.-X-X-X|.k.f.f.Z.OX-X-X*XM.1 H J A L H H N < <.8.8.8.8.8.8.8.8.8.8.8.8.8.8.8.8.",
"8.8.8.8.8.8.8.8.8.8.8.8.8.1.&.* 3 H K J K K H K A c L.-X-X-X-XoX.X.XoX-X-X-X-XM.3 J J J K L J H S - w ,.1.8.8.8.8.8.8.8.5.8.8.8.8.8.",
"8.8.8.8.6.5.6.8.8.8.8.6.&.> ; H J K A H K H K K A c L.-X-X-X-X-X-X-X-X-X-X-X=XM.3 H K J J K G H K H A = w 1.8.8.8.8.8.=.a =.6.8.8.8.",
"8.8.8.6.-.a =.8.8.8.8.,.< H J K K J K K K A J K A c L.-X-X-X-X-X-X-X-X-X-X-X=XM.4 H K H G K K J H K K H S w 7.8.8.8.5.a *.a 5.8.8.6.",
"8.8.8.5.%.*.a 5.8.8.6.f S A K K A G K K J K K K S 8 A.-X-X-X-X:X:X,X:X-X-X-X*Xd.Z J K K H H K K A H J J S 1 *.5.6.8.6.5.8.5.6.6.=.6.",
"5.6.8.5.5.5.5.6.8.5.7.1.q w B B B H K H N J K K H @ #.-X-X-X-X#X#X#X&X-X-X-X*XU N K K K G C J K H N N 4   q *.a -.6.8.8.8.8.8.=.%.=.",
"p -.5.8.5.8.8.8.-.a *.a -.1.q w @ % A N N A A A C @ [ .X-X-X`.u.y.y.g.}.-X-X`.8 % A A A C N C A @ # q f %.*.a *.a 5.8.8.8.8.5.a *.p ",
"-.a 5.8.8.8.8.5.a *.a *.a 7.8.<.f   @ @ % N N N N @ n Z..XOXs.;.;.;.M Z.-X`.z.3 % N N N N @ o X r h 8.8.=.5.5.6.5.6.8.8.8.8.8.5.6.5.",
"6.5.6.8.8.8.8.6.5.6.5.6.5.6.8.8.8.<.j j * X X X X < l s.Z.Z.M 3.6.6.;.u.G.N.o.k = X X X X w j j 5.8.8.8.8.8.8.8.8.8.8.8.8.8.8.8.8.8.",
"8.8.8.8.8.8.8.8.8.8.8.8.8.8.8.8.8.8.6.8.:.j &.&.j 2.;.m.>X#XM 3.6.6.2.h.>X>X+.2.%.&.&.&.&.<.8.8.8.8.8.8.8.8.8.8.8.8.8.8.8.8.8.8.8.8.",
"8.8.8.8.8.8.8.8.8.8.8.8.8.8.8.8.8.8.8.8.8.8.8.8.6.8.1.q.O.O.2.8.6.8.6.>.O.O.2.3.6.8.8.8.8.8.8.8.8.8.8.8.8.8.8.8.8.8.8.8.8.8.8.8.8.8.",
"8.8.8.8.8.8.8.8.8.8.8.8.8.8.8.8.8.8.8.8.8.8.8.8.8.8.8.8.8.8.8.8.8.8.6.6.=.a *.a -.6.8.8.8.8.8.8.8.8.8.8.8.8.8.8.8.8.8.8.8.8.8.8.8.8.",
"8.8.8.8.8.8.8.8.8.8.8.8.8.8.8.8.8.8.8.8.8.8.8.8.8.8.8.8.8.8.8.8.8.8.8.6.s *.a *.%.-.6.8.8.8.8.8.8.8.8.8.8.8.8.8.8.8.8.8.8.8.8.8.8.8.",
"8.8.8.8.8.8.8.8.8.8.8.8.8.8.8.8.8.8.8.8.8.8.8.8.8.8.8.8.8.8.8.8.8.8.8.6.-.8.-.6.5.8.6.6.8.8.8.8.8.8.8.8.8.8.8.8.8.8.8.8.8.8.8.8.8.8.",
"8.8.8.8.8.8.8.8.8.8.8.8.8.8.8.8.8.8.8.8.8.8.8.8.8.8.8.8.8.8.8.8.8.8.8.8.8.8.8.8.8.8.8.8.8.8.8.8.8.8.8.8.8.8.8.8.8.8.8.8.8.8.8.8.8.8.",
"8.8.8.8.8.8.8.8.8.8.8.8.8.8.8.8.8.8.8.8.8.8.8.8.8.8.8.8.8.8.8.8.8.8.8.8.8.8.8.8.8.8.8.8.8.8.8.8.8.8.8.8.8.8.8.8.8.8.8.8.8.8.8.8.8.8.",
"8.8.8.8.8.8.8.8.8.8.8.8.8.8.8.8.8.8.8.8.8.8.8.8.8.8.5.6.5.6.8.8.8.8.8.8.8.8.6.5.6.8.8.8.8.8.8.8.8.8.8.8.8.8.8.8.8.8.8.8.8.8.8.8.8.8.",
"8.8.8.8.8.8.8.8.8.8.8.8.8.8.8.8.8.8.8.8.8.8.8.8.8.5.p =.p 5.8.8.8.8.8.8.8.8.5.p 5.8.8.8.8.8.8.8.8.8.8.8.8.8.8.8.8.8.8.8.8.8.8.8.8.8."
};
