/* XPM */
static char *_69fc85006ce44edd3b993e5cea0ee1efQ8Bj5KvDpG8AdoG[] = {
/* columns rows colors chars-per-pixel */
"66 66 193 2 ",
"   c #2F371E",
".  c #323A1E",
"X  c #191027",
"o  c #1D132D",
"O  c #1F1431",
"+  c #20172E",
"@  c #221C2B",
"#  c #231635",
"$  c #241B35",
"%  c #241738",
"&  c #261A3A",
"*  c #291B3E",
"=  c #1F2333",
"-  c #2A2B23",
";  c #2A242C",
":  c #2B2A2B",
">  c #2E3128",
",  c #363826",
"<  c #292333",
"1  c #252638",
"2  c #24223C",
"3  c #332A36",
"4  c #24333D",
"5  c #3C3233",
"6  c #3C3238",
"7  c #443A37",
"8  c #39461E",
"9  c #3A4523",
"0  c #3B4724",
"q  c #404F1F",
"w  c #41521D",
"e  c #465B1B",
"r  c #485E1B",
"t  c #517606",
"y  c #547B07",
"u  c #4B6419",
"i  c #516F17",
"p  c #516D19",
"a  c #557416",
"s  c #5A7D15",
"d  c #6D621F",
"f  c #657E19",
"g  c #434627",
"h  c #455723",
"j  c #4B4137",
"k  c #554C3C",
"l  c #71682B",
"z  c #7D7933",
"x  c #2B1C42",
"c  c #301F4A",
"v  c #2D2146",
"b  c #2E2348",
"n  c #342943",
"m  c #31254D",
"M  c #32294D",
"N  c #293945",
"B  c #3E354A",
"V  c #332750",
"C  c #352A53",
"Z  c #382D57",
"A  c #3A275B",
"S  c #3A2F5A",
"D  c #3C305D",
"F  c #3F3161",
"G  c #483C57",
"H  c #452D6C",
"J  c #423266",
"K  c #45336B",
"L  c #4D3676",
"P  c #513B77",
"I  c #513A7E",
"U  c #324951",
"Y  c #36555E",
"T  c #385866",
"R  c #4F4948",
"E  c #534E47",
"W  c #58524B",
"Q  c #645942",
"!  c #615C4E",
"~  c #6C6846",
"^  c #6F7E4F",
"/  c #75734C",
"(  c #707F4D",
")  c #776D50",
"_  c #58427A",
"`  c #406665",
"'  c #81742D",
"]  c #867F36",
"[  c #84794D",
"{  c #886F7F",
"}  c #91797C",
"|  c #5C8115",
" . c #65920B",
".. c #68970D",
"X. c #6B9A0D",
"o. c #608614",
"O. c #6D8712",
"+. c #648D14",
"@. c #738B19",
"#. c #679113",
"$. c #6A9512",
"%. c #6D9C11",
"&. c #6FA00E",
"*. c #73A50F",
"=. c #74A710",
"-. c #7DA91B",
";. c #458E37",
":. c #72932F",
">. c #719032",
",. c #7FAE20",
"<. c #5B9845",
"1. c #6E8244",
"2. c #708346",
"3. c #619E47",
"4. c #5FA44D",
"5. c #66B14C",
"6. c #8C8439",
"7. c #91863D",
"8. c #89A729",
"9. c #96B336",
"0. c #8C8342",
"q. c #938948",
"w. c #9C954A",
"e. c #928854",
"r. c #968E5A",
"t. c #9C9457",
"y. c #A09C4F",
"u. c #A99E58",
"i. c #83A248",
"p. c #ADA358",
"a. c #B3A55B",
"s. c #B4AA5C",
"d. c #998E6C",
"f. c #AB9A64",
"g. c #ADA565",
"h. c #B7AD64",
"j. c #BDB364",
"k. c #BDB86A",
"l. c #A4A474",
"z. c #A9A977",
"x. c #C1B667",
"c. c #C4BB6B",
"v. c #C8BF6F",
"b. c #C2B771",
"n. c #80CA5F",
"m. c #A7C85B",
"M. c #85CE65",
"N. c #B5D16F",
"B. c #C6C56C",
"V. c #CAC674",
"C. c #CFC876",
"Z. c #D4CF7C",
"A. c #D7D27F",
"S. c #533A82",
"D. c #5B3E8E",
"F. c #5E4588",
"G. c #7B5E8F",
"H. c #6A4C92",
"J. c #644599",
"K. c #6B5290",
"L. c #715390",
"P. c #785990",
"I. c #6844A2",
"U. c #8C7282",
"Y. c #528284",
"T. c #BDBF82",
"R. c #BDC989",
"E. c #BBE495",
"W. c #C8D48E",
"Q. c #D7D684",
"!. c #DDDA86",
"~. c #DEDD8A",
"^. c #D9D696",
"/. c #E1DF8B",
"(. c #D8E287",
"). c #E2E28C",
"_. c #E5E791",
"`. c #E7E993",
"'. c #EBEC95",
"]. c #EEF49B",
"[. c #EBF89D",
"{. c #F1F59C",
"}. c #F5F89F",
"|. c #D9D8A8",
" X c #CCEAA3",
".X c #E3E2AC",
"XX c #F5FBA3",
"oX c #FAFFA5",
"OX c #F6FBAB",
"+X c #F9FEAB",
"@X c #F9FEB3",
"#X c #F8FDB4",
"$X c #F7F8C5",
/* pixels */
"=.=.=.=.=.=.=.=.=.=.=.=.=.=.=.=.=.=.=.=.=.=.=.=.=.=.X.t ..t X.=.=.=.=.=.=.X.t ..t X.=.=.=.=.=.=.=.=.=.=.=.=.=.=.=.=.=.=.=.=.=.=.=.=.",
"=.=.=.=.=.=.=.=.=.=.=.=.=.=.=.=.=.=.=.=.=.=.=.=.=.=.*.&.*.&.*.*.&.*.&.*.=.*.&.*.&.*.*.&.*.&.*.=.=.=.=.=.=.=.=.=.=.=.=.=.=.=.=.=.=.=.",
"=.=.=.=.=.=.=.=.=.=.=.=.=.=.=.=.=.=.=.=.=.=.=.=.=.=.=.=.=.=.*.X.y  .y X.*.=.=.=.=.*.X.y  .y X.*.=.=.=.=.=.=.=.=.=.=.=.=.=.=.=.=.=.=.",
"=.=.=.=.=.=.=.=.=.=.=.=.=.=.=.=.=.=.=.=.=.=.=.=.=.=.=.=.=.=.&.y  .y  .y &.=.=.=.=.&.y  .y  .y &.=.=.=.=.=.=.=.=.=.=.=.=.=.=.=.=.=.=.",
"=.=.=.=.=.=.=.=.=.=.=.=.=.=.=.=.=.=.=.=.=.=.=.=.=.=.=.=.=.=.*.&.*.&.*.&.*.=.=.=.=.*.&.*.&.*.&.*.=.=.=.=.=.=.=.=.=.=.=.=.=.=.=.=.=.=.",
"=.=.=.=.=.=.=.=.=.=.=.=.=.=.=.=.=.=.=.=.=.=.=.=.=.=.=.=.=.=.=.=.=.=.=.=.=.=.=.=.=.=.=.=.=.=.=.=.=.=.=.=.=.=.=.=.=.=.=.=.=.=.=.=.=.=.",
"=.=.=.=.=.=.=.=.=.=.=.=.=.=.=.=.=.=.=.=.=.=.=.=.=.=.=.=.=.=.=.=.=.=.=.=.=.=.=.=.=.=.=.=.=.=.=.=.=.=.=.=.=.=.=.=.=.=.=.=.=.=.=.=.=.=.",
"=.=.=.=.=.=.=.=.=.=.=.=.=.=.=.=.=.=.=.=.=.=.=.=.=.=.=.=.=.=.=.=.=.=.=.=.=.=.=.=.=.=.=.=.=.=.=.=.=.=.=.=.=.=.=.=.=.=.=.=.=.=.=.=.=.=.",
"=.=.=.=.=.=.=.=.=.=.=.=.=.=.=.=.=.=.=.=.=.=.=.=.=.=.=.=.=.=.=.=.=.=.=.=.=.=.=.=.=.=.=.=.=.=.=.=.=.=.=.=.=.=.=.=.=.=.=.=.=.=.=.=.=.=.",
"=.=.=.=.=.=.=.=.=.=.=.=.=.=.=.=.=.=.=.=.=.=.=.=.=.=.=.=.=.=.=.=.=.=.=.=.=.=.=.=.=.=.=.=.=.=.=.=.=.=.=.=.=.=.=.=.=.=.=.=.=.=.=.=.=.=.",
"=.=.=.=.=.=.=.=.=.=.=.=.=.=.=.=.=.=.=.=.=.=.=.=.=.=.=.=.=.=.=.=.=.=.=.=.=.=.=.=.=.=.=.=.=.=.=.=.=.=.=.=.=.=.=.=.=.=.=.=.=.=.=.=.=.=.",
"=.=.=.=.=.=.=.=.=.=.=.=.=.=.=.=.=.=.=.%.=.=.=.=.=.=.=.=.=.=.=.=.=.=.=.=.=.=.=.=.=.=.=.=.=.=.%.=.=.=.=.=.=.=.=.=.=.=.=.=.=.=.=.=.=.=.",
"=.=.=.=.=.=.=.=.=.=.=.=.=.=.=.=.=.=.a G ^ =.=.=.=.=.=.=.=.=.=.=.=.=.=.=.=.=.=.=.=.=.=.=.=.1.G i =.=.=.=.=.=.=.=.=.=.=.=.=.=.=.=.=.=.",
"=.=.=.=.=.=.=.=.=.=.=.=.=.=.=.=.=.=.i A J.( =.=.=.=.=.=.=.=.=.=.=.=.=.=.=.=.=.=.=.=.=.=.2.F.v u =.=.=.=.=.=.=.=.=.=.=.=.=.=.=.=.=.=.",
"=.=.=.=.=.=.=.=.=.=.=.=.=.=.=.=.=.%.e v I J.( :.=.=.=.=.=.=.=.=.=.=.=.=.=.=.=.=.=.=.:.1.F.S.v w %.=.=.=.=.=.=.=.=.=.=.=.=.=.=.=.=.=.",
"=.=.=.=.=.=.=.=.=.=.=.=.=.=.=.=.=.s o m S I D.H.2.>.=.=.=.=.=.=.=.=.=.=.=.=.=.=.>.2.H.S.S S V O a =.=.=.=.=.=.=.=.=.=.=.=.=.=.=.=.=.",
"=.=.=.=.=.=.=.=.=.=.=.=.=.=.=.=.=.s o m S S S S.I.K.^ ( ( ( ( ( ( ( ( ( ( ( ( ( K.D.S.D S S m O a =.=.=.=.=.=.=.=.=.=.=.=.=.=.=.=.=.",
"=.=.=.=.=.=.=.=.=.=.=.=.=.=.=.=.=.s o m S S S D S.I.J.I I I I I I I I I I I I J.I.K S S S S m O a =.=.=.=.=.=.=.=.=.=.=.=.=.=.=.=.=.",
"=.=.=.=.=.=.=.=.=.=.*.&.*.&.*.=.=.s o m S S m S S.L K S S S S S S S S S S S S K L S.F S S S m O a =.=.=.=.=.=.=.=.=.=.=.=.=.=.=.=.=.",
"=.=.=.=.=.=.=.=.=.*.X.y  .y X.*.=.s o x C m L J K S S S S S S S S S S S S S S S S K S m S S m O a =.=.=.=.=.=.=.=.=.=.=.=.=.=.=.=.=.",
"=.=.=.=.=.=.=.=.=.&.y  .y  .y &.=.s o x x L L S S S S S S S S S S S S S S S S S S S F L V C x O a =.=.=.=.=.=.=.=.=.=.=.=.=.=.=.=.=.",
"=.=.=.=.=.=.=.=.=.*.&.*.&.*.&.*.=.| @ * x S.K S S S S S D F F F F F F F F D S S S S S K I x * @ s =.=.=.=.=.=.*.&.*.&.*.=.=.=.=.=.=.",
"=.=.=.=.=.=.=.=.=.=.=.=.=.=.=.=.=.=.u O H K S S S S D J _ L.L.L.L.L.L.L.L._ J D S S S J S.c # e =.=.=.=.=.=.*.X.y  .y X.*.=.=.=.=.=.",
"=.=.=.=.=.=.=.=.=.=.=.=.=.=.=.=.=.=.i o m S S S S K P P.} a.a.a.a.a.a.a.a.d.P._ K D S S K K o u =.=.=.=.=.=.&.y  .y  .y &.=.=.=.=.=.",
"X.*.&.*.=.=.=.=.=.=.=.=.*.&.*.=.=.%.h v S S S S L G.U.a.s.a.a.a.a.a.a.a.a.a.a.} G.P S S S D b h %.=.=.=.=.=.*.&.*.&.*.&.*.*.&.*.&.*.",
"t  .y X.*.=.=.=.=.=.=.*.X.y X.*.=.s & S S S S L { a.a.a.x.C.C.C.C.C.C.C.c.a.a.a.a.{ P S D D S * a =.=.=.=.=.=.=.=.=.=.=.*.X.y  .y X.",
"X.y  .y &.=.=.=.=.=.=.&.y  .y &.$.0 b S S S D H.f.a.j.A.`.oXoXoXoXoXoXoX'.A.c.a.a.f.H.F D S S m 0 $.=.=.=.=.=.=.=.=.=.=.&.y  .y  .t ",
"*.&.*.&.*.*.&.*.&.*.=.*.&.*.&.$.0 b S S S S D H.f.j.).oXoXV.w._.oXoX`.y.k.oX`.!.j.f.H.F S S S S m 9 $.=.=.=.=.=.=.=.=.=.*.&.*.&.*.X.",
"=.=.=.=.*.X.y  .y X.*.=.=.=.%.9 M S S S S S ) f.~.`.oXoXoX).C.].oXoX{.C.~.oXoXoX`.~.d.n S S S S S M 9 $.=.=.=.=.=.=.=.=.=.=.=.=.=.=.",
"=.=.=.=.&.y  .y  .y &.=.=.=.8 & b S S D S * e.).+X.X6.i.n. X@XoXoXoXoX+X Xn.i.6.(.oX~.[ * S S S S b & 9 %.=.=.=.=.=.=.=.=.=.=.=.=.=.",
"=.=.=.=.*.&.*.&.*.&.*.=.=.=.o.- @ x m Z Z # [ _.oXOXW.5.;.<. XOXoXoXOX X4.;.5.R.$X+X`.e.$ Z Z m x @ - | =.=.=.=.=.=.=.=.=.=.=.=.=.=.",
"=.=.=.=.=.=.=.=.=.=.=.=.=.=.=.$.s - ; * x * 3 r.`.oX@XE.<.3.M.`.+X+X[.M.4.<.E.@X+X'.t.3 * x * < - s $.=.=.=.=.=.=.=.=.=.=.=.=.=.=.=.",
"=.=.=.=.=.=.=.=.=.=.=.=.=.=.=.=.=.%.a - < & % ; r.`.oXXX[.[.[.XX.X.XXX[.[.[.XXoX'.t.3 & & < - i %.=.=.=.=.=.=.=.=.=.=.=.=.=.=.=.=.=.",
"=.=.=.=.=.=.=.=.=.=.=.=.=.=.=.=.=.=.=.=.u       0 e.T.^.oXoXoXXXy.w.{.oXoXoX^.R.r.g       e =.=.=.=.=.=.=.=.=.=.=.=.=.=.=.=.=.=.=.=.",
"=.=.=.=.=.=.=.=.=.=.=.=.=.=.=.=.=.=.=.=.=.=.=.=.%.8 X R z.z.z.z.z.z.z.z.z.z.W X . $.=.=.=.=.=.=.=.=.=.=.=.=.=.=.=.=.=.=.=.=.=.=.=.=.",
"=.=.=.=.=.=.=.=.=.=.=.=.=.=.=.=.=.=.=.=.=.=.=.=.%.w # & 4 U N = k k 1 N U N # # q %.=.=.=.=.=.=.=.=.=.=.=.=.=.=.=.=.=.=.=.=.=.=.=.=.",
"=.=.=.=.=.=.=.=.=.=.=.=.=.=.=.=.=.=.=.=.=.=.=.%.w $ x 2 Y Y.T N r.t.N T Y.` 2 x $ 8 %.=.*.=.*.*.=.m.N.,.=.=.=.=.=.=.=.=.=.=.=.=.=.=.",
"=.=.=.=.=.=.=.=.=.=.=.=.=.=.=.=.=.=.=.=.=.=.=.%.; * x 2 U Y N ~ u.p./ N Y U 2 x x @ #.*.*.*.*.m.(.XX@XW.-.=.=.=.=.=.=.=.=.=.=.=.=.=.",
"=.=.=.=.=.=.=.=.=.=.=.=.=.=.=.=.=.=.=.=.=.=.=.9 M C m x 2 4 ~ p.~.).s./ 4 1 x m C M 9 %.*.*.8.Q.+XXXC.k.-.=.=.=.=.=.=.=.=.=.=.=.=.=.",
"=.=.=.=.=.=.=.=.=.=.=.=.=.=.=.=.=.=.=.=.=.=.$.: C S S m $ ~ a./.XXXX).a.~ $ m S D Z : #.=.8.B.].{.B.8.-.=.=.=.=.=.=.=.=.=.=.=.=.=.=.",
"=.=.=.=.=.=.=.=.=.=.=.=.=.=.=.=.=.=.=.=.=.=.8 M S S S n Q a./.XXoXoXXX).a.~ n Z S S M , O.] a.s.9.-.=.=.=.=.=.=.=.=.=.=.=.=.=.=.=.=.",
"=.=.=.=.=.=.=.=.=.=.=.=.=.=.=.=.=.=.=.=.=.#.> C S S m j s.~.XXoXoXoXoXXX).h.k b S S C ; d u.6.@.=.=.=.=.=.=.=.=.=.=.=.=.=.=.=.=.=.=.",
"=.=.=.=.=.=.=.=.=.=.=.=.=.=.=.=.=.=.=.=.=.. m S S S m k !.oXoXoXoXoXoXoXoX/.Q b S S S M 5 6.O.=.=.=.=.=.=.=.=.=.=.=.=.=.=.=.=.=.=.=.",
"=.=.=.=.=.=.=.=.=.=.=.=.=.=.=.=.=.=.=.=.=.. m S S Z B d.].{.oXoXoXoXoXoX{.'.l.B Z S S M - O.=.=.=.=.=.=.=.=.=.=.=.*.&.*.&.*.=.=.=.=.",
"=.=.*.&.*.&.*.=.=.=.=.=.=.=.=.=.=.=.=.=.s : V S S m E oXQ.!.oX@X/./.@XoX).Z.oX! m S S C : s =.=.=.=.=.=.=.=.=.=.*.X.y  .y X.*.=.=.=.",
"=.*.X.y  .y X.*.=.=.=.=.=.=.=.=.=.=.=.=.8 % C S S M E oXQ.p.).$Xb.k.$X_.p.Z.oX! m S S C & 8 =.=.=.=.=.=.=.=.=.=.&.y  .y  .y &.=.=.=.",
"=.&.y  .y  .y &.=.=.=.=.=.=.=.=.=.=.=.a : * C S S M E oX].w.W.$Xq.q.$X^.6.'.oX! m S S C * ; i =.=.=.=.=.=.=.=.=.*.&.*.&.*.&.*.=.=.=.",
"=.*.&.*.&.*.&.*.=.=.=.=.=.=.=.=.=.=.=.r # m S D S M E oXoXB.q.|.z l |.q.k.oXoX! m S S S m % w =.=.=.=.=.=.=.=.=.=.=.=.=.=.=.=.=.=.=.",
"=.=.=.=.=.=.=.=.=.=.=.=.=.=.=.=.=.=.=.h m S S S C 6 g.oXoX{.j.0.d d 0.j.{.oXoXh.6 C S S S m < p =.=.=.=.=.=.=.=.=.=.=.=.=.=.=.=.=.=.",
"=.=.=.=.=.=.=.=.=.=.=.=.=.=.=.=.=.=.i 3 S S m Z C 5 c.oXoXoX{.c.a.a.j.{.oXoXoXV.5 M Z m S S C < s &.*.=.=.=.=.=.=.=.=.*.&.*.=.=.=.=.",
"=.=.=.=.*.&.*.=.=.=.=.=.=.=.=.=.=.i 1 C S S S S C 5 c.oXoXoXoX}.{.{.}.oXoXoXoXV.5 M S S S S Z * e t X.*.=.=.=.=.=.=.*.X.y X.*.=.=.=.",
"=.=.=.*.X.y X.*.=.=.=.=.=.=.=.=.o.$ C V S C S S C 5 c.oXoXoXoXoXoXoXoXoXoXoXoXV.5 M S S C S C V $ a y &.=.=.=.=.=.=.&.y  .y &.=.=.=.",
"=.=.=.&.y  .y &.=.=.=.=.=.=.=.%.u & S S S m C S C 5 c.oXoXoXoXoXoXoXoXoXoXoXoXV.7 C S Z m S S S * r ..*.*.&.*.&.*.=.*.&.*.&.*.*.&.*.",
"X.*.=.*.&.*.&.*.*.&.*.&.*.=.=.+.@ m S S C Z S S C 3 r.oXoXoXoX@X#X#X@XoXoXoXoXf.n C S S Z C S S V + +.*.X.y  .y X.*.=.=.=.=.*.X.y X.",
"t X.*.=.=.=.=.*.X.y  .y X.*.=.#.< V S C x C S S Z & E oXoXoXoX^.^.^.^.oXoXoXoX! & C S S C x C S C & +.&.y  .y  .y &.=.=.=.=.&.y  .t ",
"X.y &.=.=.=.=.&.y  .y  .y &.=.+.@ # m x x v m m b & 7 !.oXoX!.7.' ' 7.Q.oXoX/.k & b m m v x x m $ + +.*.&.*.&.*.&.*.=.=.=.=.*.&.*.X.",
"*.&.*.=.=.=.=.*.&.*.&.*.&.*.=.=.| u o o % x x x x & 7 h.v.v.7.@.$.$.@.6.v.v.j.j & x x x x & o o e s %.=.=.=.=.=.=.=.=.=.=.=.=.=.=.=.",
"=.=.=.=.=.=.=.=.=.=.=.=.=.=.=.=.=.%.o.o.9 @ @ @ @ > f t..X.X0.$.=.=.$.] .X.Xu.f > @ @ @ @ , o.o.%.=.=.=.=.=.=.=.=.=.=.=.=.=.=.=.=.=.",
"=.=.=.=.=.=.=.=.=.=.=.=.=.=.=.=.=.=.=.=.%.+.+.+.+.#.=.@.z z @.=.=.=.=.@.z z @.X.#.+.+.+.+.$.*.=.=.=.=.=.=.=.=.=.=.=.=.=.=.=.=.=.=.=.",
"=.=.=.=.=.=.=.=.=.=.=.=.=.=.=.=.=.=.=.=.=.=.=.=.=.=.=.=.=.=.=.=.=.=.=.*...y  .y X.*.=.=.=.*.*.=.=.=.=.=.=.=.=.=.=.=.=.=.=.=.=.=.=.=.",
"=.=.=.=.=.=.=.=.=.=.=.=.=.=.=.=.=.=.=.=.=.=.=.=.=.=.*.*.=.=.=.=.=.=.=.&.y  .y  .y &.=.=.=.=.=.=.=.=.=.=.=.=.=.=.=.=.=.=.=.=.=.=.=.=.",
"=.=.=.=.=.=.=.=.=.=.=.=.=.=.=.=.=.=.=.=.=.=.=.=.=.=.=.*.=.=.=.=.=.=.=.*.&.*.&.=.&.*.=.=.=.=.=.=.=.=.=.=.=.=.=.=.=.=.=.=.=.=.=.=.=.=.",
"=.=.=.=.=.=.=.=.=.=.=.=.=.=.=.=.=.=.=.=.=.=.=.=.=.=.=.=.=.=.=.=.=.=.=.=.=.=.=.=.=.=.=.=.=.=.=.=.=.=.=.=.=.=.=.=.=.=.=.=.=.=.=.=.=.=.",
"=.=.=.=.=.=.=.=.=.=.=.=.=.=.=.=.=.=.=.=.=.=.=.=.=.=.=.=.=.=.=.=.=.=.=.=.=.=.=.=.=.=.=.=.=.=.=.=.=.=.=.=.=.=.=.=.=.=.=.=.=.=.=.=.=.=.",
"=.=.=.=.=.=.=.=.=.=.=.=.=.=.=.=.=.=.=.=.=.=.=.=.=.*.&.*.&.*.=.=.=.=.=.=.=.=.*.&.*.=.=.=.=.=.=.=.=.=.=.=.=.=.=.=.=.=.=.=.=.=.=.=.=.=.",
"=.=.=.=.=.=.=.=.=.=.=.=.=.=.=.=.=.=.=.=.=.=.=.=.=.X.t ..t X.=.=.=.=.=.=.=.=.X.t X.=.=.=.=.=.=.=.=.=.=.=.=.=.=.=.=.=.=.=.=.=.=.=.=.=."
};
