/* XPM */
static char *a24748f6fe7d45e4fd555f7417b61bccVvtmsjt9ELOlPov4[] = {
/* columns rows colors chars-per-pixel */
"66 66 151 2 ",
"   c #3D331C",
".  c #353B1E",
"X  c #1C1325",
"o  c #1D122D",
"O  c #1E1430",
"+  c #251B25",
"@  c #231B2E",
"#  c #211634",
"$  c #261B35",
"%  c #281F35",
"&  c #241738",
"*  c #271A3B",
"=  c #281B3E",
"-  c #262426",
";  c #2A2B24",
":  c #26222C",
">  c #29252D",
",  c #2B2A2A",
"<  c #2D3221",
"1  c #343C22",
"2  c #272030",
"3  c #2C2333",
"4  c #2B223D",
"5  c #2D293A",
"6  c #302C3C",
"7  c #313133",
"8  c #37431C",
"9  c #3C441E",
"0  c #3C4C1D",
"q  c #3F511D",
"w  c #3A4524",
"e  c #3E4B23",
"r  c #5A4E15",
"t  c #415913",
"y  c #41531C",
"u  c #465B1A",
"i  c #5E5214",
"p  c #655C15",
"a  c #635718",
"s  c #6B5E1A",
"d  c #4A6A0C",
"f  c #5C620E",
"g  c #517606",
"h  c #547B07",
"j  c #537A08",
"k  c #4F6C17",
"l  c #4C651A",
"z  c #4E6A18",
"x  c #516D17",
"c  c #516D19",
"v  c #557517",
"b  c #577915",
"n  c #5A7C15",
"m  c #537118",
"M  c #646711",
"N  c #6A6B16",
"B  c #687312",
"V  c #73771D",
"C  c #4F4420",
"Z  c #524721",
"A  c #435420",
"S  c #5E502F",
"D  c #6F6220",
"F  c #716523",
"G  c #2A1C42",
"H  c #2C2245",
"J  c #2E2349",
"K  c #2B2E4A",
"L  c #302A43",
"P  c #31244C",
"I  c #33284F",
"U  c #3E3047",
"Y  c #332650",
"T  c #362A54",
"R  c #382C57",
"E  c #3A2F5A",
"W  c #2D3650",
"Q  c #3C305D",
"!  c #3F3162",
"~  c #43385A",
"^  c #452F6B",
"/  c #403264",
"(  c #4B3674",
")  c #4E3879",
"_  c #513A7F",
"`  c #32475D",
"'  c #33495E",
"]  c #374A63",
"[  c #3A566D",
"{  c #4B405A",
"}  c #6F7D4F",
"|  c #70645A",
" . c #6F7A54",
".. c #6F755C",
"X. c #5E5570",
"o. c #665E66",
"O. c #655C75",
"+. c #68577D",
"@. c #6D676E",
"#. c #7F786B",
"$. c #6D6676",
"%. c #7B7577",
"&. c #847F2E",
"*. c #857836",
"=. c #887B56",
"-. c #5D8214",
";. c #678B0E",
":. c #65920B",
">. c #68970C",
",. c #6B9B0D",
"<. c #648D13",
"1. c #679113",
"2. c #6A9512",
"3. c #6D9C11",
"4. c #719A10",
"5. c #6FA00E",
"6. c #73A50F",
"7. c #74A710",
"8. c #73A316",
"9. c #729C20",
"0. c #708445",
"q. c #70804B",
"w. c #8D803A",
"e. c #988B43",
"r. c #9E9046",
"t. c #8E8156",
"y. c #A5974C",
"u. c #A7994E",
"i. c #AEA154",
"p. c #B4A65A",
"a. c #8E8A7B",
"s. c #98947B",
"d. c #C2B768",
"f. c #533A81",
"g. c #6C5B83",
"h. c #604096",
"j. c #684C95",
"k. c #6A4E96",
"l. c #66469A",
"z. c #64429C",
"x. c #65439D",
"c. c #6A4B9B",
"v. c #6744A1",
"b. c #6944A3",
"n. c #ACA9A2",
"m. c #D7D482",
"M. c #E9EA93",
"N. c #D7D8B1",
"B. c #FAFFA5",
"V. c #FAFEAB",
"C. c #FBFFB4",
/* pixels */
"7.7.7.7.7.7.7.7.7.7.7.7.7.7.7.7.7.7.7.7.7.7.7.7.7.7.5.j >.h 5.7.7.7.7.7.7.5.g >.h ,.7.6.7.7.7.7.7.7.7.7.7.7.7.7.7.7.7.7.7.7.7.7.7.7.",
"7.7.7.7.7.7.7.7.7.7.7.7.7.7.7.7.7.7.7.7.7.7.7.7.7.7.7.5.5.5.5.7.5.6.5.7.7.7.5.5.,.6.6.6.6.5.6.7.7.7.7.7.7.7.7.7.7.7.7.7.7.7.7.7.7.7.",
"7.7.7.7.7.7.7.7.7.7.7.7.7.7.7.7.7.7.7.7.7.7.7.7.7.7.7.7.7.7.7.,.h :.h >.7.7.7.7.7.6.>.h :.h >.6.7.7.7.7.7.7.7.7.7.7.7.7.7.7.7.7.7.7.",
"7.7.7.7.7.7.7.7.7.7.7.7.7.7.7.7.7.7.7.7.7.7.7.7.7.7.7.7.7.7.5.j :.h :.h 5.7.7.7.7.6.h :.h :.h 5.7.7.7.7.7.7.7.7.7.7.7.7.7.7.7.7.7.7.",
"7.7.7.7.7.7.7.7.7.7.7.7.7.7.7.7.7.7.7.7.7.7.7.7.7.7.7.7.7.7.7.5.6.5.6.5.7.7.7.7.7.7.5.6.5.5.5.7.7.7.7.7.7.7.7.7.7.7.7.7.7.7.7.7.7.7.",
"7.7.7.7.7.7.7.7.7.7.7.7.7.7.7.7.7.7.7.7.7.7.7.7.7.7.7.7.7.7.7.7.7.7.7.7.7.7.7.7.7.7.7.7.7.7.7.7.7.7.7.7.7.7.7.7.7.7.7.7.7.7.7.7.7.7.",
"7.7.7.7.7.7.7.7.7.7.7.7.7.7.7.7.7.7.7.7.3.8.7.7.7.7.7.7.7.7.7.7.7.7.7.7.7.7.7.7.7.7.7.7.7.9.7.7.7.7.7.7.7.7.7.7.7.7.7.7.7.7.7.7.7.7.",
"7.7.7.7.7.7.7.7.7.7.7.7.7.7.7.7.7.7.7.2.+. .8.6.7.7.7.7.7.7.7.7.7.7.7.7.7.7.7.7.7.7.7.8.0.+.1.7.7.7.7.7.7.7.7.7.7.7.7.7.7.7.7.7.7.7.",
"7.7.7.7.7.7.7.7.7.7.7.7.7.7.7.7.7.7.7.0 ^ x.q.8.7.7.7.7.7.7.7.7.7.7.7.7.7.7.7.7.7.7.7.0.j.( < 7.7.7.7.7.7.7.7.7.7.7.7.7.7.7.7.7.7.7.",
"7.7.7.7.7.7.7.7.7.7.7.7.7.7.7.7.7.7.-.w I ) l. .8.7.7.7.7.7.7.7.7.7.7.7.7.7.7.7.7.7.0.j._ R 7 n 7.7.7.7.7.7.7.7.7.7.7.7.7.7.7.7.7.7.",
"7.7.7.7.7.7.7.7.7.7.7.7.7.7.7.7.7.7.u H Q Q h.c. .8.7.7.7.7.7.7.7.7.7.7.7.7.7.7.7.q.k.z.Q Q Y 8 7.7.7.7.7.7.7.7.7.7.7.7.7.7.7.7.7.7.",
"7.7.7.7.7.7.7.7.7.7.7.7.7.7.7.7.7.7.u H E E ) z.k...7.7.7.7.7.7.7.7.7.7.7.7.7.7. .k.b.) Q Q I 8 7.7.7.7.7.7.7.7.7.7.7.7.7.7.7.7.7.7.",
"7.7.7.7.7.7.7.7.7.7.7.7.7.7.7.7.7.n , I E E E ) v.k...8.7.7.7.7.7.7.7.7.7.7.7.q.k.b.( Q Q Q Y > m 7.7.7.7.7.7.7.7.7.7.7.7.7.7.7.7.7.",
"7.7.7.7.7.7.7.7.7.7.7.7.7.7.7.7.6.c # P E E E E ( x.k.g.g.g.g.g.g.g.g.g.g.g.g.k.v.) Q R Q R T & q 7.7.7.7.7.7.7.7.7.7.7.7.7.7.7.7.7.",
"7.7.7.7.7.7.7.7.7.7.7.7.7.7.7.7.7.z O Y E E E E ! / ) x.x.x.x.l.l.x.x.x.x.x.x.f./ Q Q Q R Q I $ y 7.7.7.7.7.7.7.7.7.7.7.7.7.7.7.7.7.",
"7.7.7.7.7.7.7.7.7.7.7.7.7.7.7.7.7.z # J E E E E E E E ! / / ! ! ! ! ! ! ! ! / Q Q Q Q R Q R T O y 7.7.7.7.7.7.7.7.7.7.7.7.7.7.7.7.7.",
"7.7.7.7.7.7.7.7.7.7.7.7.7.7.7.7.7.x # P R R Q R T E Q E E E E E E E E E E E E E E E E E E Q T # y 7.7.7.7.7.7.7.7.7.7.7.7.7.7.7.7.7.",
"7.7.7.7.7.7.7.7.7.7.7.7.7.7.7.7.7.k O G P R T G J E E E E E E E E E E E E E E E E E P G Y T P * y 7.7.7.7.7.7.7.7.7.7.7.7.7.7.7.7.7.",
"7.7.7.7.7.7.7.7.7.7.6.5.6.5.6.7.7.x # G G G H P R E E E E E E E E E E E E E E E E E E G G G G # t 7.7.7.7.7.7.7.7.7.7.7.7.7.7.7.7.7.",
"7.7.7.7.7.7.7.7.7.6.>.h :.h >.6.7.-.< = G J R R E E Q E E E E E E E E E E E E E E E E E J G = 3 b 7.7.7.7.7.7.7.7.7.7.7.7.7.7.7.7.7.",
"7.7.7.7.7.7.7.7.7.6.h :.h :.h 5.7.7.l o G R Q R E E E E E E E E E E E E E E E E E E E E R P = A 7.7.7.7.7.7.7.7.7.7.7.7.7.7.7.7.7.7.",
"7.7.7.7.7.7.7.7.7.6.5.6.,.6.6.6.7.7.u O R R Q Q E E E E E E E Q E E E E E E E E E E E E Q T J w 7.7.7.7.7.7.7.7.,.6.6.6.7.7.7.7.7.7.",
"7.7.7.7.7.7.7.7.7.7.7.7.7.7.7.7.7.-.7 T R Q R Q E E E E E E Q R E E E E E E E E E E E E E E T 5 k 7.7.7.7.7.7.>.h :.h >.7.7.7.7.7.7.",
"7.7.7.7.7.7.7.7.7.7.7.7.7.7.6.6.6.l 4 R Q R Q Q E E E E E E E E Q E E E E E E E E E E E E Q E J q 7.7.7.7.7.,.h :.h :.h 6.7.7.7.7.7.",
"7.6.5.6.7.7.7.7.7.7.7.7.6.5.6.8.b : J E Q E E E E E E E Q Q E E E E E E E E E E E E E E E E E T 5 l 8.7.7.7.6.6.6.5.6.5.6.7.6.6.5.6.",
"h :.h ,.6.7.7.7.7.7.7.6.>.h >.b : = G I R Q E E E E E E R Q E E E E E E E E E E R E E E E E T G G > k 5.7.7.6.7.7.7.7.7.6.>.h :.h >.",
",.h :.h 5.7.7.6.7.7.7.5.h :.t : = G G G Y R R R E E Q E R Q E E E E E E E E Q E E E R T Y G G G G * @ c 8.6.7.7.7.7.7.7.5.h :.h :.g ",
"6.5.6.5.6.6.5.6.5.7.7.6.5.2.1 & & G G G G G Y R T T E E Q E E E E E E E E E T E T T G G G G G G G = & < 1.7.7.7.7.7.7.7.6.5.6.,.6.5.",
"6.6.7.7.6.,.h :.h ,.6.7.7.7.>.8 ; & = G G G G G G G T T Y T Y Y Y Y Y Y T Y P G G G G G G G G * & , . <.7.7.7.7.7.7.7.7.7.7.7.7.7.7.",
"7.7.7.7.5.h :.h :.h 5.7.7.7.7.5.d 8 ; # = = G G G G G G G = = G G G G G G G G G G G G G G G # , 0 n 7.7.7.7.7.7.7.7.7.7.7.7.7.7.7.7.",
"7.7.7.7.6.5.6.5.6.5.6.7.7.7.7.6.5.6.n u , O O O # G G G G = G G G G G G G G G G G # O O O : u b 7.7.7.7.7.7.7.7.7.7.7.7.7.7.7.7.7.7.",
"7.7.7.7.7.7.7.7.6.7.7.7.7.7.7.7.7.7.7.7.n z z z u O o # G G G G G G * G G G & o O y z z z b 7.7.7.7.7.7.7.7.7.7.7.7.7.7.7.7.7.7.7.7.",
"7.7.7.7.7.7.7.7.7.7.7.7.7.7.7.7.7.7.7.7.7.7.7.7.3.b b y o o o o o o o o o o w b v 3.7.7.7.7.7.7.7.7.7.7.7.7.7.7.7.7.7.7.7.7.7.7.7.7.",
"7.7.7.7.7.7.7.7.7.7.7.7.7.7.7.7.7.7.7.7.7.7.7.7.7.7.-., K ` ' ' ` ' ' ] ' W : m 7.7.7.7.7.7.7.7.7.7.7.7.7.7.7.7.7.7.7.7.7.7.7.7.7.7.",
"7.7.7.7.7.7.7.7.7.7.7.7.7.7.7.7.7.7.7.7.7.7.7.7.7.-.- = H J ] [ [ [ [ ] J H = : v 7.7.7.7.7.7.7.7.7.7.7.7.7.7.7.7.7.7.7.7.7.7.7.7.7.",
"7.7.7.7.7.7.7.7.7.7.7.7.7.7.7.7.7.7.7.7.7.7.7.6.-., = G G G G H J J J H G G G = : b 5.7.7.7.7.7.7.7.7.7.7.7.7.7.7.7.7.7.7.7.7.7.7.7.",
"7.7.7.7.7.7.7.7.7.7.7.7.7.7.7.7.7.7.7.7.7.7.7.2., G G G G G G G = G G G G G G G H O 1.7.7.7.7.7.7.7.7.7.7.7.7.7.7.7.7.7.7.7.7.7.7.7.",
"7.7.7.7.7.7.7.7.7.7.7.7.7.7.7.7.7.7.7.7.7.7.6.b % = G G G G G G G G G G G G G G J o v 5.7.7.7.7.7.7.7.7.7.7.7.7.7.7.7.7.7.7.7.7.7.7.",
"7.7.7.7.7.7.7.7.7.7.7.7.7.7.7.7.7.7.7.7.7.7.3.; T Q Q T H J G G G G G G G H H T Q T 2 1.7.7.7.7.7.7.7.7.7.7.7.7.7.7.7.7.7.7.7.7.7.7.",
"7.7.7.7.7.7.7.7.7.7.7.7.7.7.7.7.7.7.7.7.7.7.c 5 R E E E Q Q J L P G P P Q Q Q R Q R H l 6.7.7.7.7.7.7.7.7.7.7.7.7.7.7.7.7.7.7.7.7.7.",
"7.7.7.7.7.7.7.7.7.7.7.7.7.7.7.7.7.7.7.7.7.6.; T E E E E E E ! E E E E E Q E E E E E R : 2.7.7.7.7.7.7.7.7.7.7.7.7.7.7.7.7.7.7.7.7.7.",
"7.7.7.7.7.7.7.7.7.7.7.7.7.7.7.7.7.7.7.7.7.l 5 E E E E E E E E E E E E E Q X.n.$.E E R L A ,.7.7.7.7.7.7.7.7.7.7.7.7.7.7.7.7.7.7.7.7.",
"7.7.7.7.7.7.7.7.7.7.7.7.7.7.7.7.7.7.7.7.7.1 I E E E E E E E E E E E E E X.N.C.N.$.E E T ; 3.7.7.7.7.7.7.7.7.7.7.7.7.7.7.7.7.7.7.7.7.",
"7.7.7.7.7.7.7.7.7.7.7.7.7.7.7.7.7.7.7.7.6.< I E E E E E E E E E E E E E @.V.B.V.%.E E T ; 3.7.7.7.7.7.7.7.7.7.7.7.7.5.7.5.7.7.7.7.7.",
"7.6.5.5.7.5.5.7.7.7.7.7.7.7.7.7.7.7.7.6.q 2 T E E E E R E E E E Q E Q Q @.B.B.m.o.R E R 3 8 7.7.7.7.7.7.7.7.7.7.5.:.g :.-.>.6.7.7.7.",
"7.6.>.g >.-.5.5.7.7.7.7.7.7.7.7.7.7.7.3.1 & R E E E E ! E E E E E E R Q @.B.B.s.Q E E R G < 2.7.7.7.7.7.7.7.7.7.5.-.:.-.:.g 5.7.7.7.",
"7.5.-.:.-.:.-.5.7.7.7.7.7.7.7.7.7.7.3.e * G R E E E E E E E E E E E E Q @.B.B.a.R Q E R H = 1 1.7.7.7.7.7.7.7.7.6.5.6.5.6.5.6.7.7.7.",
"7.6.5.5.5.5.5.5.7.7.7.7.7.7.7.7.7.2.q = H T R E E E E E E E E E E E Q R @.B.B.a.Q R E E T G = w >.7.7.7.7.7.7.7.6.6.7.7.7.7.7.7.7.7.",
"7.7.7.7.7.7.7.7.7.7.7.7.7.7.7.7.3.A = R R E E E E E E E E E E E E E E E @.B.B.%.E T E E E R H = 8 >.7.7.7.7.7.7.7.7.7.7.7.7.7.7.7.7.",
"7.7.7.7.7.6.7.7.7.7.7.7.7.7.5.g y J E E ! R E E E E E R R R ! R E E E Q o.M.B.n.E P R E R E E T 4 e c 2.7.7.7.7.7.7.7.7.5.6.7.7.7.7.",
"7.7.7.7.5.5.6.6.7.7.7.7.5.z q 4 H E ~ T E E E E E E E R T E R / E E Q ~ =.d.m.=.E E E E ! E E E E J 4 e l ,.7.7.7.7.6.>.h >.6.7.7.7.",
"7.7.7.6.>.-.>.5.7.7.7.6.u 4 K W E E E Q E E R Y E E R Y E R E E E I J ~ p.i.p.| E E E P R E E R E Q T K H q 3.7.7.7.5.h :.h 6.7.7.7.",
"7.7.7.5.-.:.-.5.7.7.7.t L E E R P R Q E E E J R E E R R R E E R L # 3 =.p.p.t.~ ! E R R R E T T E E Q Q T K e ,.6.7.6.5.6.5.6.6.5.6.",
"5.6.7.6.5.5.5.6.7.,.7.n , $ H J R T E E E R R E E T J J R E R P @ C =.p.p.t.U T R R E R P R E P Y E Q T $ @ k j >.6.7.7.7.7.7.>.h >.",
"g :.5.6.6.7.7.6.>.h :.h -.b - $ G P E E P T E R T H H R Y G H # r N i.p.y.S $ & G R R R T P R E J G 3 : q h h :.h 6.7.7.7.7.5.h :.g ",
"5.-.5.6.7.7.7.5.h >.h :.h ,.1.b - $ G G G G G G H = = G $ + + Z e.u.p.p.i.*.  X $ G G J G = G G 4 - l 1.,.7.5.7.5.6.7.7.7.6.6.6.6.5.",
"6.5.6.7.7.7.7.6.,.7.5.6.5.6.7.7.5.c ; ; % & = * * $ + +   r a *.y.y.u.u.*.p a   4 = $ = * 2 ; ; u 2.7.7.7.7.7.7.7.7.7.7.7.7.7.7.7.7.",
"7.7.7.7.7.7.7.7.7.7.7.7.7.7.7.7.7.6.4.4.y < < < <   a F F s M N N N N s w.D p p 9 < < < < w 3.3.8.7.7.7.7.7.7.7.7.7.7.7.7.7.7.7.7.7.",
"7.7.7.7.7.7.7.7.7.7.7.7.7.7.7.7.7.7.7.7.6.7.7.7.6.4.V e.y.&.4.6.8.7.4.V w.y.&.;.6.6.7.7.7.7.7.7.7.7.7.7.7.7.7.7.7.7.7.7.7.7.7.7.7.7.",
"7.7.7.7.7.7.7.7.7.7.7.7.7.7.7.7.7.7.7.7.6.7.7.7.6.6.4.B B ;.7.7.7.7.7.4.N f B h ,.6.7.7.7.7.7.7.7.7.7.7.7.7.7.7.7.7.7.7.7.7.7.7.7.7.",
"7.7.7.7.7.7.7.7.7.7.7.7.7.7.7.7.7.7.7.7.7.7.7.7.7.7.7.7.7.7.7.7.7.7.6.6.h >.h :.h 5.7.7.7.7.7.7.7.7.7.7.7.7.7.7.7.7.7.7.7.7.7.7.7.7.",
"7.7.7.7.7.7.7.7.7.7.7.7.7.7.7.7.7.7.7.7.7.7.7.7.7.7.7.7.7.7.7.7.7.7.6.6.6.6.6.6.5.6.7.7.7.7.7.7.7.7.7.7.7.7.7.7.7.7.7.7.7.7.7.7.7.7.",
"7.7.7.7.7.7.7.7.7.7.7.7.7.7.7.7.7.7.7.7.7.7.7.7.7.7.7.7.7.7.7.7.7.7.7.7.7.6.6.6.7.7.7.7.7.7.7.7.7.7.7.7.7.7.7.7.7.7.7.7.7.7.7.7.7.7.",
"7.7.7.7.7.7.7.7.7.7.7.7.7.7.7.7.7.7.7.7.7.7.7.7.7.7.7.7.7.7.7.7.7.7.7.7.7.6.6.6.7.7.7.7.7.7.7.7.7.7.7.7.7.7.7.7.7.7.7.7.7.7.7.7.7.7.",
"7.7.7.7.7.7.7.7.7.7.7.7.7.7.7.7.7.7.7.7.7.7.7.7.7.7.5.6.5.6.6.7.7.7.7.7.7.7.6.5.6.7.7.7.7.7.7.7.7.7.7.7.7.7.7.7.7.7.7.7.7.7.7.7.7.7.",
"7.7.7.7.7.7.7.7.7.7.7.7.7.7.7.7.7.7.7.7.7.7.7.7.7.5.g ,.g 5.7.7.7.7.7.7.7.7.,.h 5.7.7.7.7.7.7.7.7.7.7.7.7.7.7.7.7.7.7.7.7.7.7.7.7.7."
};
