/* XPM */
static char *result[] = {
/* columns rows colors chars-per-pixel */
"66 66 209 2 ",
"   c #2F361F",
".  c #333D1E",
"X  c #393C1C",
"o  c #1A1127",
"O  c #1E142E",
"+  c #1F1431",
"@  c #221E27",
"#  c #221B29",
"$  c #221635",
"%  c #241B34",
"&  c #251738",
"*  c #261A3B",
"=  c #281C3E",
"-  c #1F2234",
";  c #2B2C25",
":  c #26222D",
">  c #29252C",
",  c #2B2A29",
"<  c #2E3226",
"1  c #333A24",
"2  c #31352A",
"3  c #242133",
"4  c #2D2334",
"5  c #28263C",
"6  c #322937",
"7  c #2A3235",
"8  c #353434",
"9  c #3C363D",
"0  c #473E39",
"q  c #37421D",
"w  c #38441F",
"e  c #3D4C1D",
"r  c #36702A",
"t  c #404F1E",
"y  c #41521B",
"u  c #475E1A",
"i  c #665A18",
"p  c #517606",
"a  c #547B07",
"s  c #577A0C",
"d  c #4B631A",
"f  c #4E691A",
"g  c #516C19",
"h  c #5B7D15",
"j  c #567518",
"k  c #6B681A",
"l  c #71711D",
"z  c #454C28",
"x  c #4A463C",
"c  c #53483C",
"v  c #5B513B",
"b  c #5A7524",
"n  c #787824",
"m  c #6E7139",
"M  c #2B1C42",
"N  c #2F1E49",
"B  c #301F4B",
"V  c #2C2144",
"C  c #2E2448",
"Z  c #352A46",
"A  c #32254D",
"S  c #283C48",
"D  c #332750",
"F  c #362B54",
"G  c #382D57",
"H  c #382758",
"J  c #3A2F5A",
"K  c #3D305D",
"L  c #3E2A61",
"P  c #3E3161",
"I  c #443950",
"U  c #422D66",
"Y  c #413265",
"T  c #443369",
"R  c #482F71",
"E  c #4A3673",
"W  c #4F367A",
"Q  c #4F397B",
"!  c #50397C",
"~  c #2D444D",
"^  c #324144",
"/  c #344F5F",
"(  c #484542",
")  c #4B4944",
"_  c #524C43",
"`  c #4B5344",
"'  c #5B5447",
"]  c #776D47",
"[  c #7D764C",
"{  c #6F7758",
"}  c #564665",
"|  c #5E5173",
" . c #446A6D",
".. c #4B7578",
"X. c #6E7162",
"o. c #6D6278",
"O. c #81742D",
"+. c #877C3A",
"@. c #836B7D",
"#. c #947B7B",
"$. c #5D8215",
"%. c #608A0D",
"&. c #65920B",
"*. c #68960C",
"=. c #6B9A0D",
"-. c #608614",
";. c #6D8711",
":. c #648E13",
">. c #728318",
",. c #679212",
"<. c #6A9311",
"1. c #6D9D11",
"2. c #709610",
"3. c #719D10",
"4. c #6FA00E",
"5. c #73A50F",
"6. c #74A710",
"7. c #77A21B",
"8. c #7A8626",
"9. c #729926",
"0. c #6A8B31",
"q. c #738A35",
"w. c #57AB45",
"e. c #79B663",
"r. c #75C75F",
"t. c #8A8337",
"y. c #96883F",
"u. c #969D39",
"i. c #93A434",
"p. c #8CB633",
"a. c #96BA36",
"s. c #93BB3C",
"d. c #958B46",
"f. c #9C9448",
"g. c #8D8750",
"h. c #968D52",
"j. c #9B9759",
"k. c #A3984D",
"l. c #A69B56",
"z. c #ABA254",
"x. c #ACA15F",
"c. c #B4A65B",
"v. c #B6A95C",
"b. c #B9AB5E",
"n. c #8C8A64",
"m. c #97966B",
"M. c #988273",
"N. c #A28E6D",
"B. c #A49567",
"V. c #AC9C62",
"C. c #9DBB6B",
"Z. c #AAA86A",
"A. c #B7AE64",
"S. c #BDB367",
"D. c #ABA372",
"F. c #BAB574",
"G. c #C3B869",
"H. c #C5BC6C",
"J. c #C6BC79",
"K. c #91D377",
"L. c #ACCD6F",
"P. c #B1E07B",
"I. c #C8C06F",
"U. c #CCC574",
"Y. c #CBC877",
"T. c #D0C977",
"R. c #D3CD7B",
"E. c #D5D27F",
"W. c #533A82",
"Q. c #5A3D8D",
"!. c #5D3F91",
"~. c #5A4182",
"^. c #644A83",
"/. c #675582",
"(. c #6B5786",
"). c #735787",
"_. c #664798",
"`. c #6743A0",
"'. c #896E89",
"]. c #C0BE89",
"[. c #BACE8C",
"{. c #B7E388",
"}. c #CECB8E",
"|. c #DAD682",
" X c #D8D885",
".X c #DEDC87",
"XX c #C9C693",
"oX c #E1DF8A",
"OX c #D4EB8D",
"+X c #D3EF91",
"@X c #E4E38D",
"#X c #E6E692",
"$X c #EBEC95",
"%X c #E9ED9B",
"&X c #E0F299",
"*X c #EEF19B",
"=X c #F1F59C",
"-X c #F5F89F",
";X c #DEDDAE",
":X c #D4EFA1",
">X c #E8F4AA",
",X c #F0F3A7",
"<X c #F6FBA2",
"1X c #FAFFA5",
"2X c #F9FEAA",
"3X c #EAF1B2",
"4X c #F8FCB7",
"5X c #EEEFC3",
"6X c #F9FBC4",
/* pixels */
"6.6.6.6.6.6.6.6.6.6.6.6.6.6.6.6.6.6.6.6.6.6.6.6.6.6.4.p *.p 4.6.6.6.6.6.6.4.p *.a =.6.6.6.6.6.6.6.6.6.6.6.6.6.6.6.6.6.6.6.6.6.6.6.6.",
"6.6.6.6.6.6.6.6.6.6.6.6.6.6.6.6.6.6.6.6.6.6.6.6.6.6.6.4.5.4.5.6.4.5.4.6.6.5.4.4.4.5.5.4.5.4.5.5.6.6.6.6.6.6.6.6.6.6.6.6.6.6.6.6.6.6.",
"6.6.6.6.6.6.6.6.6.6.6.6.6.6.6.6.6.6.6.6.6.6.6.6.6.6.6.6.6.6.6.=.a &.a *.6.6.6.6.6.5.=.a &.a =.5.6.6.6.6.6.6.6.6.6.6.6.6.6.6.6.6.6.6.",
"6.6.6.6.6.6.6.6.6.6.6.6.6.6.6.6.6.6.6.6.6.6.6.6.6.6.6.6.6.6.4.a &.a &.a 4.6.6.6.6.4.a &.a &.a 4.6.6.6.6.6.6.6.6.6.6.6.6.6.6.6.6.5.6.",
"6.6.6.6.6.6.6.6.6.6.6.6.6.6.6.6.6.6.6.6.6.6.6.6.6.6.6.6.6.6.6.4.4.4.5.4.6.6.6.6.6.6.4.5.4.5.4.6.6.6.6.6.6.6.6.6.6.6.6.6.6.6.6.6.6.6.",
"6.6.6.6.6.6.6.6.6.6.6.6.6.6.6.6.6.6.6.6.6.6.6.6.6.6.6.6.6.6.6.6.6.6.6.6.6.6.6.6.6.6.6.6.6.6.6.6.6.6.6.6.6.6.6.6.6.6.6.6.6.6.6.6.6.6.",
"6.6.6.6.6.6.6.6.6.6.6.6.6.6.6.6.6.6.6.6.6.6.6.6.6.6.6.6.6.6.6.6.6.6.6.6.6.6.6.6.6.6.6.6.6.6.6.6.6.6.6.6.6.6.6.6.6.6.6.6.6.6.6.6.6.6.",
"6.6.6.6.6.6.6.6.6.6.6.6.6.6.6.6.6.6.6.6.6.6.6.6.6.6.6.6.6.6.6.6.6.6.6.6.6.6.6.6.6.6.6.6.6.6.6.6.6.6.6.6.6.6.6.6.6.6.6.6.6.6.6.6.6.6.",
"6.6.6.6.6.6.6.6.6.6.6.6.6.6.6.6.6.6.6.6.6.6.6.6.6.6.6.6.6.6.6.6.6.6.6.6.6.6.6.6.6.6.6.6.6.6.6.6.6.6.6.6.6.6.6.6.6.6.6.6.6.6.6.6.6.6.",
"6.6.6.6.6.6.6.6.6.6.6.6.6.6.6.6.6.6.6.6.6.6.6.6.6.6.6.6.6.6.6.6.6.6.6.6.6.6.6.6.6.6.6.6.6.6.6.6.6.6.6.6.6.6.6.6.6.6.6.6.6.6.6.6.6.6.",
"6.6.6.6.6.6.6.6.6.6.6.6.6.6.6.6.6.6.5.5.6.6.6.6.6.6.6.6.6.6.6.6.6.6.6.6.6.6.6.6.6.6.6.6.6.6.6.6.6.6.6.6.6.6.6.6.6.6.6.6.6.6.6.6.6.6.",
"6.6.6.6.6.6.6.6.6.6.6.6.6.6.6.6.6.6.6.5.6.6.6.6.6.6.6.6.6.6.6.6.6.6.6.6.6.6.6.6.6.6.6.6.6.6.6.6.6.6.6.6.6.6.6.6.6.6.6.6.6.6.6.6.6.6.",
"6.6.6.6.6.6.6.6.6.6.6.6.6.6.6.6.6.6.$.0.1.6.6.6.6.6.6.6.6.6.6.6.6.6.6.6.6.6.6.6.6.6.6.6.6.9.b =.6.6.6.6.6.6.6.6.6.6.6.6.6.6.6.6.6.6.",
"6.6.6.6.6.6.6.6.6.6.6.6.6.6.6.6.6.6.q W.X.7.6.6.6.6.6.6.6.6.6.6.6.6.6.6.6.6.6.6.6.6.6.6.q.| 5 $.6.6.6.6.6.6.6.6.6.6.6.6.6.6.6.6.6.6.",
"6.6.6.6.6.6.6.6.6.6.6.6.6.6.6.6.6.6.q P _.X.7.6.6.6.6.6.6.6.6.6.6.6.6.6.6.6.6.6.6.6.6.0.(.Q - $.6.6.6.6.6.6.6.6.6.6.6.6.6.6.6.6.6.6.",
"6.6.6.6.6.6.6.6.6.6.6.6.6.6.6.6.6.g 3 F E _.o.X.6.6.6.6.6.6.6.6.6.6.6.6.6.6.6.6.6.9.o.| Q P M 1 4.6.6.6.6.6.6.6.6.6.6.6.6.6.6.6.6.6.",
"6.6.6.6.6.6.6.6.6.6.6.6.6.6.6.6.6.e $ F K Y E _.(.q.9.7.5.7.7.5.5.7.6.7.1.7.7.9.o.(.!.Y J J V @ ,.6.6.6.6.6.6.6.6.6.6.6.6.6.6.6.6.6.",
"6.6.6.6.6.6.6.6.6.6.6.6.6.6.6.6.6.y $ F J K K E `._.(.(./././.(././././././.(.(._.T Y J J J N @ ,.6.6.6.6.6.6.6.6.6.6.6.6.6.6.6.6.6.",
"6.6.6.6.6.6.6.6.6.6.5.4.5.4.5.5.6.y $ F K J G K ! _.! P P P P P P P P P P P Y ~.Q.Y J J K J N o ,.6.6.6.6.6.6.6.6.6.6.6.6.6.6.6.6.6.",
"6.6.6.6.6.6.6.6.6.5.=.a &.a =.5.6.y $ F G G H T ! K K J J J J J J P J J K K J K Y W.G G J J N @ ,.6.6.6.6.6.6.6.6.6.6.6.6.6.6.6.6.6.",
"6.6.6.6.6.6.6.6.6.4.a &.a &.a 4.5.y $ M A L W.J J J J J K J J J J J J J J K J J J J J H G F N @ :.6.6.6.6.6.6.6.6.6.6.6.6.6.6.6.6.6.",
"6.6.6.6.6.6.6.6.6.5.4.5.4.5.4.5.6.e $ M N Q.K J J J J J G J J J J J J J J K J J J J T W H N = @ ,.6.6.6.6.6.6.5.4.4.4.6.6.6.6.6.6.6.",
"6.6.6.6.6.6.6.6.6.6.6.6.6.6.6.6.6.j , M U W K K J K J K E Q Q Q Q Q Q Q Q P J J J J J W R M & e *.6.6.6.6.6.5.=.a &.a =.6.6.6.6.6.6.",
"6.6.6.6.6.6.6.6.6.6.6.6.6.6.6.6.6.6.q O T K J J J G E W.@.#.#.#.#.#.#.#.#.^.W.P J J J T W B o -.6.6.6.6.6.6.4.a &.a &.a 4.6.6.6.6.6.",
"6.6.4.5.6.6.6.6.6.6.6.6.5.=.6.6.6.6.q 5 H J J J T Q.@.M.x.v.c.v.v.v.c.v.c.N.M.^.W.J J J T H O -.6.6.6.6.6.6.6.4.5.4.5.4.6.5.4.4.4.6.",
"a &.a =.5.6.6.6.6.6.6.6.=.a =.5.6.f 6 H J J J T ).B.V.c.v.b.v.v.v.v.v.v.v.c.c.N.#.| J J J J F 1 *.6.6.6.6.6.6.6.6.6.6.6.5.=.a &.a =.",
"*.a &.a 4.6.6.6.6.6.6.4.a &.s 4.6.e C K J J U _.V.c.b.b..X$X$X%X%X$X$X*XU.b.v.v.c.#.W.J J J J % $.6.6.6.6.6.6.6.6.6.6.6.4.a &.a &.p ",
"5.4.5.4.5.6.4.4.4.5.6.5.4.6.4.4.d 5 G K J J T '.c.b.|.=X<X$X$X1X1X1X*X#X$X*XH.S.b.N.!.J J J J F 2 :.6.6.6.6.6.6.6.6.6.6.6.4.5.4.5.4.",
"6.6.6.6.6.=.a &.a =.5.6.6.6.4.f V G J K G K } '.G.E.1X1X-Xl.f.&X1X1XY.t.E.1X-X$XH.D.^.H J J G G F 2 :.6.6.6.6.6.6.6.6.6.6.6.6.6.6.6.",
"6.6.6.6.4.a &.a &.a 4.6.6.4.f % F K G K G I l.T.2X$XE.OXOX<X<X<X1X1X1X>X&X+X X.X<X$Xl.6 F G K K J A < :.6.6.6.6.6.6.6.6.6.6.6.6.6.6.",
"6.6.6.6.5.4.5.4.5.4.5.6.6.&.1 $ V D G K F 6 A.<X2X}.m w.w.[.4X2X1X1X2X>Xe.w.0.j.,X1X@X] 5 J K F D $ 3 u 6.6.6.6.6.6.6.6.6.6.6.6.6.6.",
"6.6.6.6.6.6.6.6.6.6.6.6.6.6.,.e < % V A A 4 [ OX1X4X:Xr.r w.{.<X1X1X&XK.r w.K.3X4X=XF.x M D D $ % e d 5.6.6.6.6.6.6.6.6.6.6.6.6.6.6.",
"6.6.6.6.6.6.6.6.6.6.6.6.6.6.6.6.-.u , + & M 4 [ @X1X4XOXC.L.{.<X4X4X+XP.C.L.3X2X=XG.0 & M & $ t d 5.5.5.6.6.6.6.6.6.6.6.6.6.6.6.6.6.",
"6.6.6.6.6.6.6.6.6.6.6.6.6.6.6.6.6.6.$.g : + O @ ] .X<X1X1X1X<X%Xj.F.1X1X1X1X1X-XF.0 O O O t j <.5.5.6.6.6.6.6.6.6.6.6.6.6.6.6.6.6.6.",
"6.6.6.6.6.6.6.6.6.6.6.6.6.6.6.6.6.6.6.6.-.h $.h f x _ [.1X<X<X*X|..X<X1X1X,X{ _ z h h h h <.6.6.6.6.6.6.6.6.6.6.6.6.6.6.6.6.6.6.6.6.",
"6.6.6.6.6.6.6.6.6.6.6.6.6.6.6.6.6.6.6.6.6.6.6.6.<.e + 9 ) ) ) ) ) ) ( ) ) ( 4 @ h 5.6.6.6.6.6.6.6.6.6.6.6.6.6.6.6.6.6.6.6.6.6.6.6.6.",
"6.6.6.6.6.6.6.6.6.6.6.6.6.6.6.6.6.6.6.6.6.6.6.6.j # M 3  .../ 9 h.] S  ...~ 5 = 1 *.6.6.6.6.6.6.6.6.6.6.6.6.6.6.6.6.6.6.6.6.6.6.6.6.",
"6.6.6.6.6.6.6.6.6.6.6.6.6.6.6.6.6.6.6.6.6.6.6.$.# M M 5  . .~ ` z.g.^ / ..~ = = * 1 6.6.6.6.6.6.6.6.6.5.6.6.6.6.6.6.6.6.6.6.6.6.6.6.",
"6.6.6.6.6.6.6.6.6.6.6.6.6.6.6.6.6.6.6.6.6.6.4.f $ N M - S S ` l.H.S.[ ^ ~ 5 = N = < &.5.6.6.6.p.s.s.a.5.6.6.6.6.6.6.6.6.6.6.6.6.6.6.",
"6.6.6.6.6.6.6.6.6.6.6.6.6.6.6.6.6.6.6.6.6.6.$.- J J D N - ) l.U.1X#XS.[ 7 * C G G A . 5.4.p.a.%X6X6X>Xs.6.6.6.6.6.6.6.6.6.6.6.6.6.6.",
"6.6.6.6.6.6.6.6.6.6.6.6.6.6.6.6.6.6.6.6.6.4.d V J J J M 0 l.T.<X1X1X#XG.] 6 F J J F 2 $.2.u.R.oX.XoX#X%Xs.6.6.6.6.6.6.6.6.6.6.6.6.6.",
"6.6.6.6.6.6.6.6.6.6.6.6.6.6.6.6.6.6.6.6.6.<.: J J J C ) k.R.<X1X1X1X1X#XG.] 6 G J J C X O.k.y.u.i.u.f.|.L.6.6.6.6.6.6.6.6.6.6.6.6.6.",
"6.6.6.6.6.6.6.6.6.6.6.6.6.6.6.6.6.6.6.6.4.e C J J J M +.R.<X1X1X1X1X1X1X#XS.8 F J J F 6 m y.l 6.6.3.>.O.>.6.6.6.6.6.6.6.6.6.6.6.6.6.",
"6.6.6.6.6.6.6.6.6.6.6.6.6.6.6.6.6.6.6.6.1.; F J J J M m.<X1X1X1X1X1X1X1X1X#X0 A J J J V z >.5.6.5.6.3.2.3.6.6.6.6.6.4.6.4.6.6.6.6.6.",
"6.6.4.4.6.=.4.6.6.6.6.6.6.6.6.6.6.6.6.6.<., G J J C X.%XR.$X1X2X-X1X2X1X|.$XXX9 F J J V y =.6.6.6.6.6.6.6.6.6.6.5.=.a &.a =.5.6.6.6.",
"6.6.=.a *.%.=.6.6.6.6.6.6.6.6.6.6.6.6.5.w = J J J V m.1XH.oX2X5XG.}.4X*XI.#X%X0 G J K A : j 6.6.6.6.6.6.6.6.6.6.4.a &.a &.a 4.6.6.6.",
"6.4.a &.a &.a 4.6.6.6.6.6.6.6.6.6.6.6.,., M G J J V m.1XT.t.%X3Xk.J.6XA.k.$X%X9 G J J D $ d 1.6.6.6.6.6.6.6.6.6.5.4.5.4.5.4.5.6.5.6.",
"6.6.4.6.4.4.4.6.6.6.6.6.6.6.6.6.6.6.6.1 $ M J J H M m.1X<Xd.XX;Xk h.5XV.U.1X%X9 F J J D M # $.6.6.6.6.6.6.6.6.6.6.5.6.6.6.6.6.6.6.6.",
"6.6.6.6.6.6.6.6.6.6.6.6.6.6.6.6.6.6.6.1 M G J J F Z D.1X1XU.d.F.i +.Z.k.#X1X,X' A J J J D $ d 1.6.6.6.6.6.6.6.6.6.6.6.6.6.6.6.6.6.6.",
"6.6.6.6.6.6.6.6.6.6.6.6.6.6.6.6.6.6.$.9 F J D J C v |.1X1X<XI.+.O.O.k.@X1X1X-Xl.4 G J F K D M u 3.4.5.6.6.6.6.6.6.6.6.5.4.5.6.6.6.6.",
"6.6.6.6.5.4.5.5.6.6.6.6.6.6.6.6.6.h 2 F J J D J C v |.1X1X1X=X|.|.|.@X1X1X1X-Xc.4 G G D J J J # s a =.5.6.6.6.6.6.6.6.=.a =.5.6.6.6.",
"6.6.6.5.*.a *.5.6.6.6.6.6.6.6.6.h 8 C G J J J J C v |.1X1X1X1X1X1X1X1X1X1X1X=XZ.4 G J J J J D V q %.a 4.6.6.6.6.6.6.4.a &.a 5.6.6.5.",
"6.6.6.4.a &.%.=.6.6.6.6.6.6.6.6.d V F G G Z G J C v |.1X1X1X1X1X1X1X1X1X1X1X<Xl.> G K F D J F F : <.1.5.5.4.5.=.5.6.5.4.5.4.5.5.=.4.",
"4.5.6.5.5.4.4.6.6.4.4.4.5.6.5.%., A G J J F J G C v |.1X1X1X2X2X1X2X1X1X1X1X*XZ.Z G K F F J J J 5 w 4.6.=.a &.a =.5.6.6.5.5.5.=.%.*.",
"p =.6.6.6.6.6.4.=.a &.a =.6.5.j * F K H A H G Y D 4 m.1X1X1X2X4X5X4X4X1X1X1X*Xc V J J J A D J J A ; 1.4.a &.a &.a 4.6.6.6.6.4.a &.p ",
"*.a 4.6.6.6.6.4.a &.a &.a 4.6.j * A F C = F G G A $ n.<X1X1X$XA.x.A.U.-X1X1X#X9 = F G F A M D F M 8 3.6.4.5.4.5.4.5.6.6.6.6.5.4.6.4.",
"6.4.6.6.6.6.6.6.4.4.4.6.4.6.6.$.; > = * = M = M = $ ] |.$X#Xz.l k k +.U.$X$XS.6 = M M N M & & * ; w 5.6.6.6.6.6.6.6.6.6.6.6.6.6.6.6.",
"6.6.6.6.6.6.6.6.6.6.6.6.6.6.6.4.5.f     * & * * & @ m S.].G.n 4.6.6.;.f.U.J.k.1 % % & & & , 1 . ,.5.6.6.6.6.6.6.6.6.6.6.6.6.6.6.6.6.",
"6.6.6.6.6.6.6.6.6.6.6.6.6.6.6.6.6.6.6.5.y q q q X g ;.Z.XX].8.5.6.6.;.j.XXXXt.&.e q q q q $.6.6.6.6.6.6.6.6.6.6.6.6.6.6.6.6.6.6.6.6.",
"6.6.6.6.6.6.6.6.6.6.6.6.6.6.6.6.6.6.6.6.6.6.6.6.6.5.6.3.3.3.5.6.6.6.6.6.&.p &.p =.6.6.6.6.6.6.6.6.6.6.6.6.6.6.6.6.6.6.6.6.6.6.6.6.6.",
"6.6.6.6.6.6.6.6.6.6.6.6.6.6.6.6.6.6.6.6.6.6.6.6.6.6.6.6.6.6.6.6.6.6.5.5.a &.a &.a 4.6.6.6.6.6.6.6.6.6.6.6.6.6.6.6.6.6.6.6.6.6.6.6.6.",
"6.6.6.6.6.6.6.6.6.6.6.6.6.6.6.6.6.6.6.6.6.6.6.6.6.6.6.6.6.6.6.6.6.6.5.5.4.5.=.5.4.6.6.6.6.6.6.6.6.6.6.6.6.6.6.6.6.6.6.6.6.6.6.6.6.6.",
"6.6.6.6.6.6.6.6.6.6.6.6.6.6.6.6.6.6.6.6.6.6.6.6.6.6.6.6.6.6.6.6.6.6.6.6.6.6.5.6.6.6.6.6.6.6.6.6.6.6.6.6.6.6.6.6.6.6.6.6.6.6.6.6.6.6.",
"6.6.6.6.6.6.6.6.6.6.6.6.6.6.6.6.6.6.6.6.6.6.6.6.6.6.6.6.6.6.6.6.6.6.6.6.6.6.6.6.6.6.6.6.6.6.6.6.6.6.6.6.6.6.6.6.6.6.6.6.6.6.6.6.6.6.",
"6.6.6.6.6.6.6.6.6.6.6.6.6.6.6.6.6.6.6.6.6.6.6.6.6.6.4.4.4.4.6.6.6.6.6.6.6.6.6.4.4.6.6.6.6.6.6.6.6.6.6.6.6.6.6.6.6.6.6.6.6.6.6.6.6.6.",
"6.6.6.6.6.6.6.6.6.6.6.6.6.6.6.6.6.6.6.6.6.6.6.6.6.4.p =.a 4.6.6.6.6.6.6.6.6.4.a 4.6.6.6.6.6.6.6.6.6.6.6.6.6.6.6.6.6.6.6.6.6.6.6.6.6."
};
