/* XPM */
static char *_aecadff7ee44af0c150e914c015863fzTW1odKt24Mcubi2[] = {
/* columns rows colors chars-per-pixel */
"66 66 191 2 ",
"   c #2F361F",
".  c #38381F",
"X  c #181227",
"o  c #1C132B",
"O  c #251C24",
"+  c #281F2B",
"@  c #211634",
"#  c #271D35",
"$  c #261A38",
"%  c #26193B",
"&  c #291B3E",
"*  c #1E2B37",
"=  c #2B2D23",
"-  c #262428",
";  c #2B252C",
":  c #2A292B",
">  c #2D3321",
",  c #303523",
"<  c #343C24",
"1  c #343A29",
"2  c #2F2731",
"3  c #302732",
"4  c #2C3734",
"5  c #35411D",
"6  c #3C4C1D",
"7  c #3A4622",
"8  c #3A4525",
"9  c #544D19",
"0  c #42531D",
"q  c #455A1A",
"w  c #5E5315",
"e  c #655C17",
"r  c #4A6A0C",
"t  c #517606",
"y  c #547B07",
"u  c #5C7C0E",
"i  c #4C6519",
"p  c #5A7C16",
"a  c #6A7912",
"s  c #4C5727",
"d  c #5A4F32",
"f  c #54493B",
"g  c #675F33",
"h  c #52622E",
"j  c #536335",
"k  c #6F6527",
"l  c #7B7128",
"z  c #2B1C42",
"x  c #2C2145",
"c  c #2F2149",
"v  c #322A46",
"b  c #32254D",
"n  c #33294E",
"m  c #342750",
"M  c #362A54",
"N  c #382D57",
"B  c #3A2F5A",
"V  c #3C305E",
"C  c #3F2D62",
"Z  c #3F3162",
"A  c #433D40",
"S  c #463948",
"D  c #423366",
"F  c #443369",
"G  c #4A3672",
"H  c #4E387A",
"J  c #324F59",
"K  c #36555B",
"L  c #555753",
"P  c #66574E",
"I  c #526846",
"U  c #6F7F4A",
"Y  c #6E7756",
"T  c #51426D",
"R  c #574C6C",
"E  c #5E5172",
"W  c #68587E",
"Q  c #6D6D66",
"!  c #6E6D68",
"~  c #6D6474",
"^  c #847934",
"/  c #957E79",
"(  c #5D8215",
")  c #65920B",
"_  c #68970C",
"`  c #6B9A0D",
"'  c #648D13",
"]  c #678B15",
"[  c #669113",
"{  c #6A9612",
"}  c #6D9C11",
"|  c #709610",
" . c #719910",
".. c #739D1E",
"X. c #6FA00E",
"o. c #73A50F",
"O. c #74A710",
"+. c #78A715",
"@. c #7DA51B",
"#. c #77A919",
"$. c #458837",
"%. c #7A9725",
"&. c #729B22",
"*. c #6E8839",
"=. c #718C38",
"-. c #659237",
";. c #719032",
":. c #71A54A",
">. c #71A563",
",. c #78C862",
"<. c #8A843B",
"1. c #93873D",
"2. c #94953D",
"3. c #86A725",
"4. c #82B025",
"5. c #96A736",
"6. c #95AC35",
"7. c #9BA63D",
"8. c #8DB734",
"9. c #95BC34",
"0. c #91B93A",
"q. c #9AC03A",
"w. c #8C8748",
"e. c #938841",
"r. c #8E9956",
"t. c #AB9E59",
"y. c #9FA741",
"u. c #97BD42",
"i. c #9ABF47",
"p. c #ADA257",
"a. c #B7BC5D",
"s. c #9C8772",
"d. c #AC9B7C",
"f. c #86B367",
"g. c #B2A862",
"h. c #B4A864",
"j. c #A2B46C",
"k. c #BDB767",
"l. c #B7AA7C",
"z. c #C4BC6E",
"x. c #C3B97A",
"c. c #A5C548",
"v. c #A2C452",
"b. c #AFCE52",
"n. c #B5C668",
"m. c #B6D170",
"M. c #C7C26F",
"N. c #C9C06F",
"B. c #CDC775",
"V. c #CCC97A",
"C. c #D3CE7D",
"Z. c #C7D97A",
"A. c #D5D27E",
"S. c #553A84",
"D. c #5A3E8D",
"F. c #5F3F93",
"G. c #5F4788",
"H. c #5F4094",
"J. c #674C88",
"K. c #73578B",
"L. c #614393",
"P. c #64429B",
"I. c #6B4D98",
"U. c #6A45A5",
"Y. c #826792",
"T. c #5D8F88",
"R. c #C2CD85",
"E. c #D9D885",
"W. c #DBD79F",
"Q. c #E1DD92",
"!. c #DFE18B",
"~. c #D7E490",
"^. c #E5E58F",
"/. c #E5F18E",
"(. c #E5E795",
"). c #E7E79D",
"_. c #E9EB9A",
"`. c #EEF098",
"'. c #F1F59E",
"]. c #D9F0B7",
"[. c #E9EFA4",
"{. c #EAEEAF",
"}. c #F6FAA2",
"|. c #FAFFA5",
" X c #FAFFAA",
".X c #EEF4B8",
"XX c #F7FBB5",
"oX c #FBFFB3",
"OX c #FBFFBB",
"+X c #FCFFC3",
"@X c #F9FBC9",
/* pixels */
"O.O.O.O.O.O.O.O.O.O.O.O.O.O.O.O.O.O.O.O.O.O.O.O.O.O.X.t _ t X.O.O.O.o.o.O.X.t _ t ` O.o.O.O.O.O.O.O.O.O.O.O.O.O.O.O.O.O.O.O.O.O.O.O.",
"O.O.O.O.O.O.O.O.O.O.O.O.O.O.O.O.O.O.O.O.O.O.O.O.O.O.o.X.o.X.o.o.X.X.X.o.O.o.X.o.X.o.O.o.o.X.o.O.O.O.O.O.O.O.O.O.O.O.O.O.O.O.O.O.O.O.",
"O.O.O.O.O.O.O.O.O.O.O.O.O.O.O.O.O.O.O.O.O.O.O.O.O.O.O.O.O.O.O._ y ) y _ o.O.O.O.O.o._ y ) y ` o.O.O.O.O.O.O.O.O.O.O.O.O.O.O.O.O.O.O.",
"O.O.O.O.O.O.O.O.O.O.O.O.O.O.O.O.O.O.O.O.O.O.O.O.O.O.O.O.O.O.X.y ) y ) ( X.O.O.O.O.X.y ) y ) y ` O.O.O.O.O.O.O.O.O.O.O.O.O.O.O.O.O.O.",
"O.O.O.O.O.O.O.O.O.O.O.O.O.O.O.O.O.O.O.O.O.O.O.O.O.O.O.O.O.O.O.X.o.X.o.X.o.O.O.O.O.O.o.o.` O.X.O.O.O.O.O.O.O.O.O.O.O.O.O.O.O.O.O.O.O.",
"O.O.O.O.O.O.O.O.O.O.O.O.O.O.O.O.O.O.O.O.O.O.O.O.O.O.O.O.O.O.O.O.o.O.O.O.O.O.O.O.O.O.O.O.O.O.O.O.O.O.O.O.O.O.O.O.O.O.O.O.O.O.O.O.O.O.",
"O.O.O.O.O.O.O.O.O.O.O.O.O.O.O.O.O.O.O.O.O.O.O.O.O.O.O.O.O.O.O.O.O.O.O.O.O.O.O.O.O.O.O.O.O.O.O.O.O.O.O.O.O.O.O.O.O.O.O.O.O.O.O.O.O.O.",
"O.O.O.O.O.O.O.O.O.O.O.O.O.O.O.O.O.O.O.O.O.O.O.O.O.O.O.O.O.O.O.O.O.O.O.O.O.O.O.O.O.O.O.O.O.O.O.O.O.O.O.O.O.O.O.O.O.O.O.O.O.O.O.O.O.O.",
"O.O.O.O.O.O.O.O.O.O.O.O.O.O.O.O.O.O.O.O.O.O.O.O.O.O.O.O.O.O.O.O.O.O.O.O.O.O.O.O.O.O.O.O.O.O.O.O.O.O.O.O.O.O.O.O.O.O.O.O.O.O.O.O.O.O.",
"O.O.O.O.O.O.O.O.O.O.O.O.O.O.O.O.O.O.O.O.O.O.O.O.O.O.O.O.O.O.O.O.O.O.O.O.O.O.O.O.O.O.O.O.O.o.O.O.O.O.O.O.O.O.O.O.O.O.O.O.O.O.O.O.O.O.",
"O.O.O.O.O.O.O.O.O.O.O.O.O.O.O.O.O.O.O.O.O.O.O.O.O.O.O.O.O.O.O.O.O.O.O.O.O.O.O.Y I Q ! ! Q *.O.O.O.O.O.O.O.O.O.O.O.O.O.O.O.O.O.O.O.O.",
"O.O.O.O.O.O.O.O.O.O.O.O.O.O.O.O.O.O.O.O.O.O.O.O.O.O.O.O.O.O.O.O.O.O.O.O.O.Y L L.D.G G G D h O.O.O.O.O.O.O.O.O.O.O.O.O.O.O.O.O.O.O.O.",
"O.O.O.O.O.O.O.O.O.O.O.O.O.O.O.O.O.O.O.O.O.O.O.O.O.O.O.O.O.O.O.O.O.O.#.U R G.H.G F B V N x q O.O.O.O.O.O.O.O.O.O.O.O.O.O.O.O.O.O.O.O.",
"O.O.O.O.O.O.O.O.O.O.O.O.O.O.O.O.O.O.O.O.O.O.O.O.O.O.O.O.O.O.O.O.} ;.E R H.G Z V B B N m % i O.O.O.O.O.O.O.O.O.O.O.O.O.O.O.O.O.O.O.O.",
"O.O.O.O.O.O.O.O.O.O.O.O.O.O.O.O.O.O.O.O.O.O.O.O.O.O.O.O.@.&.&.=.J.T H.H Z V B B B N M % 7 ` O.O.O.O.O.O.O.O.O.O.O.O.O.O.O.O.O.O.O.O.",
"O.O.O.O.O.O.O.O.O.O.O.O.O.O.O.O.O.O.O.O.O.O.O.O.O.o...;.W I.I.I.P.H Z V B B B B N M z # q o.O.O.O.O.O.O.O.O.O.O.O.O.O.O.O.O.O.O.O.O.",
"O.O.O.O.O.O.O.O.O.O.O.O.O.O.O.O.O.O.O.O.O.O.O.O...;.~ L.L.H.P.F.S.b m N B B M n x z $ < X.O.O.O.O.O.O.O.O.O.O.O.O.O.O.O.O.O.O.O.O.O.",
"O.O.O.O.O.O.O.O.O.O.O.O.O.O.O.O.O.O.O.O.O.O.O.#.Q H.D.F B B B B B B m m M M z z z & # q O.O.O.O.O.O.O.O.O.O.O.O.O.O.O.O.O.O.O.O.O.O.",
"O.O.O.O.O.O.O.O.O.O.o.X.o.X.o.O.O.O.O.O.O.o...Q P.G B N B B B B B B B B m z z z z $ > O.O.O.O.O.O.O.O.O.O.O.O.O.O.O.O.O.O.O.O.O.O.O.",
"O.O.O.O.O.O.O.O.O.O._ y ) y _ O.O.O.O.O.O.o.=.U.L.F B N B B B B B B B B B m x z z $ > O.O.O.O.O.O.O.O.O.O.O.O.O.O.O.O.O.O.O.O.O.O.O.",
"O.O.O.O.O.O.O.O.O.X.y ) y ) y X.O.O.O.O.O.O...Y / K.S.D B B C N B B B B B B M b z z = O.O.O.O.O.O.O.O.O.O.O.O.O.O.O.O.O.O.O.O.O.O.O.",
"O.O.O.O.O.O.O.O.O.o.X.o.X.o.X.o.O.O.O.O.O.O.3.a.!.x.s.K.D.C B N B B B B B B B B b - p O.O.O.O.O.O.O.O.O.O.O.O.O.X.o.X.O.O.O.O.O.O.O.",
"O.O.O.O.O.O.O.O.O.O.O.O.O.O.O.O.O.O.O.O.O.o.3.V.XX_.(.W.d.J.D S B B B B B B B B B v 6 O.O.O.O.O.O.O.O.O.O.O.O._ y ) y _ O.O.O.O.O.O.",
"O.O.O.O.O.O.O.O.O.O.O.O.O.O.O.O.O.O.O.O.O.o.9.V.e.p.^.|.).Y.D M B B B B B B B B B n > X.O.O.O.O.O.O.O.O.O.O.o.y ) y ) y X.O.O.O.O.O.",
"X.o.X.o.O.O.O.O.O.O.O.O.o.X.o.O.O.O.O.O.O.O.9.'.!.(.}.|.}.l.J.D B B B B B B B B B M $ 6 O.O.O.O.O.O.O.O.O.O.o.X.o.X.o.X.o.o.X.o.X.o.",
"t ) y ` o.O.O.O.O.O.O.o.` y _ O.O.O.O.O.O.O.q.|.E.R.).!.'.[.I.D B B B B B B B B Z M & , ` O.O.O.O.O.O.O.O.O.O.O.O.O.O.O.o._ y ) y _ ",
"_ y ) y X.O.O.O.O.O.O.X.y ) y X.O.O.O.O.O.O.9.|.j.$.-.=.Q.'.Y.D M B B B B B B B B B m z 8 ` O.O.O.O.O.O.O.O.O.O.O.O.O.O.X.y ) y ) t ",
"o.X.o.X.o.o.X.o.X.o.O.o.X.o.X.o.o.` o.o.o.#.b.|.j.$.,.].XX'.z.K.D m B B B B B B B V M B x 7 { O.O.O.O.O.O.O.O.O.O.O.O.O.o.X.o.X.o.X.",
"O.O.O.O.o._ y ) y ` o.O.O.O.O.o.` y ) y _ %.C.oXR.f.].+X+X X`.h.K.C B B B B B B B B M b z $ 7 _ O.O.O.O.O.O.O.O.O.O.O.O.O.O.O.O.O.O.",
"O.O.O.O.o.y ) y ) y X.O.O.O.O.X.y ) y ) u <.z.oX|.oX+X X|.}.E.t.P D M B B B B B B B b z z $ < [ O.O.O.O.O.O.O.O.O.O.O.O.O.O.O.O.O.O.",
"O.O.O.O.o.X.o.X.o.X.o.O.O.O.O.o.o.o.o.o.@.z.'.|.|.|.|.|.|.E.t.f $ m B B B B B B b z z z % < ' O.O.O.O.O.O.O.O.O.O.O.O.O.O.O.O.O.O.O.",
"O.O.O.O.O.O.o.O.O.O.O.O.O.O.O.O.o.o.o.o.O.5.A.'.|.|.|.|.C.p.f & m B B B B B B z z z % o < ' O.O.O.O.O.O.O.O.O.O.O.O.O.O.O.O.O.O.O.O.",
"O.O.O.O.O.O.O.O.O.O.O.O.O.O.O.O.O.o.O.O.o.#.6.E.|.}.|.C.p.f & M B B B B m z z z % o > ( [ O.O.O.O.O.O.O.O.O.O.O.O.O.O.O.O.O.O.O.O.O.",
"O.O.O.O.O.O.O.O.O.O.O.O.O.O.O.O.O.O.O.O.o.O.O.4.i.k.k.j 3 $ & z z z z z z z & @ - ( [ O.O.O.O.O.O.O.O.O.O.O.O.O.O.O.O.O.O.O.O.O.O.O.",
"O.O.O.O.O.O.O.O.O.O.O.O.O.O.O.O.O.O.O.O.o.O.O.O.+.3.s o o o o o o o o X o - - p [ o.O.O.O.O.O.O.O.O.O.O.O.O.O.O.O.O.O.O.O.O.O.O.O.O.",
"O.O.O.O.O.O.O.O.O.O.O.O.O.O.O.O.O.O.O.O.O.O.O.O.o.+.j J * o $ % z & & @ q [ { O.O.O.O.O.O.O.O.O.O.O.O.O.O.O.O.O.O.O.O.O.O.O.O.O.O.O.",
"O.O.O.O.O.O.O.O.O.O.O.O.O.O.O.O.O.O.O.O.O.O.O.O.#.>.T.J 2 o $ z z z z z o p O.O.O.O.O.O.O.O.O.O.O.O.O.O.O.O.O.O.O.O.O.O.O.O.O.O.O.O.",
"O.O.O.O.O.O.O.O.O.O.O.O.O.O.O.O.O.O.O.O.O.O.O.O.:.T.K 4 9 O & z z z z z @ i } O.O.O.O.O.O.O.O.O.O.O.O.O.O.O.O.O.O.O.O.O.O.O.O.O.O.O.",
"O.O.O.O.O.O.O.O.O.O.O.O.O.O.O.O.O.O.O.O.O.O.O.O.-.K 4 9 e O & b m z z z z o ( O.O.O.O.O.O.O.O.O.O.O.O.O.O.O.O.O.O.O.O.O.O.O.O.O.O.O.",
"O.O.O.O.O.O.O.O.O.O.O.O.O.O.O.O.O.O.O.O.O.O.O.O.( j w.1.e O & B N z M m z @ 0 } O.O.O.O.O.O.O.O.O.O.O.O.O.O.O.O.O.O.O.O.O.O.O.O.O.O.",
"O.O.O.O.O.O.O.O.O.O.O.O.O.O.O.O.O.O.O.O.O.O.O.O.O.5.!.N.1.; & B N m m B c c @ ' o.O.O.O.O.O.O.O.O.O.O.O.O.O.O.O.O.O.O.O.O.O.O.O.O.O.",
"O.O.O.O.O.O.O.O.O.O.O.O.O.O.O.O.O.O.O.O.O.O.O.O.O.5.W._.h.d + N B M c B M N n 7 { O.O.O.O.O.O.O.O.O.O.O.O.O.O.O.O.O.O.O.O.O.O.O.O.O.",
"O.O.O.O.O.O.O.O.O.O.O.O.O.O.O.O.O.O.O.O.O.O.O.O.O.n.@XoX^.k O M B N N B B B N - [ O.O.O.O.O.O.O.O.O.O.O.O.O.O.O.O.O.O.O.O.O.O.O.O.O.",
"O.O.O.O.O.O.O.O.O.O.O.O.O.O.O.O.O.O.O.O.O.O.O.O.v..XOX}.N.k + M B M m B B B B n 8 } O.O.O.O.O.O.O.O.O.O.O.O.O.O.O.o.` O.o.o.O.O.O.O.",
"o.o.o.X.o.o.o.o.O.O.O.O.O.O.O.O.O.O.O.O.O.O.O.#.m.+X}.B.l w - M B N B B B B B B - ' o.O.O.O.O.O.O.O.O.O.O.O.O.O.o.` y ) y ` o.O.O.O.",
"o.o.` y ) y ` o.O.O.O.O.O.O.O.O.O.O.O.O.O.O.O.u..XOXC.t.^ e O N B B B B B B B B M 1 [ O.O.O.O.O.O.O.O.O.O.O.O.O.` y ) y ) y ` O.O.O.",
"O.o.y ) y ) y X.O.O.O.O.O.O.O.O.O.O.O.O.O.O.O.3.E._.k.<.E.l - N B B B B B B B B B n 1 [ O.O.O.O.O.O.O.O.O.O.O.O.o.o.o.o.o.o.o.O.O.O.",
"o.o.X.o.X.o.X.o.O.O.O.O.O.O.O.O.O.O.O.O.O.O.O.3.z.B.^ E.}.h.3 N B B B B B B B B B B b 1 [ O.O.O.O.#.0.u.u.8.O.O.O.o.O.O.o.O.O.O.O.O.",
"O.O.O.O.O.O.O.O.O.O.O.O.O.O.O.O.O.O.O.O.O.O.O.| 2.e.1.^.'.h.3 N B B B B B V B B M V M n 1 ] O.O.O.v..X+X+X[.0.O.O.O.O.O.O.O.O.O.O.O.",
"O.O.O.O.O.o.O.O.O.O.O.O.O.O.O.O.O.O.O.O.O.O.O.O.{ a e.^.}.g.3 N B B B B B B B B V n V V n 1 ' o.v.{. X|.|. XZ.O.O.O.O.O.` O.O.O.O.O.",
"O.O.O.O.o.X.o.o.O.O.O.O.O.O.O.O.O.O.O.O.O.O.O.O.O.O.y./.}.g.2 M B M m V m M B B M m N V N n 1 r ~. X|.|.|./.9.O.O.O.O.` y ` o.O.O.O.",
"O.O.O.o.` y ` o.O.O.O.O.O.O.O.O.O.O.O.O.O.O.O.O.O.O.y.^.}.P v B B N M B M B B B V N b V V N $ r.B.B.M.c.c.9.+.o.O.O.o.y ) y ` O.O.O.",
"O.O.O.o.y ) y o.o.o.O.O.O.O.O.O.O.O.O.O.O.O.O.O.O.O.7.^.'.f M V B M n B B v M B V N n b N m @ g l l ..+.o.` o.X.o.O.o.o.O.X.o.o.X.o.",
"o.o.O.o.` o.` o.o.o.o.` o.O.O.O.O.O.O.O.O.O.O.O.O.O.y.^.`.A M B B M c B V c M B N V N b x $ . e e ] o.o.` y ) y ` o.o.O.O.O.o.` y _ ",
"t _ o.o.O.O.O.o.` y ) y ` o.O.O.O.O.O.O.O.O.O.O.O.O.5.^._.A m N B B n m V M c M B B m z $ q {  . .o.O.o.y ) y ) y ` O.O.O.O.` y ) t ",
"_ y o.o.O.O.O.o.y ) y ) y o.O.O.O.O.O.O.O.O.O.O.O.O.+.Z.z.S M B B B b c M c & & & & # - 0 } O.o.O.O.O.o.X.o.X.o.o.o.O.O.O.O.o.o.o.X.",
"o.o.o.O.O.o.O.o.X.o.` o.o.o.O.O.O.O.O.O.O.O.O.O.#.4.0.a.k.S z M M m z & & $ : = = = 6 } } O.O.O.O.O.O.O.O.O.O.O.O.O.O.O.O.O.O.O.O.O.",
"o.O.O.O.O.O.O.O.O.O.O.O.O.O.O.O.O.O.O.O.O.O.O.O.4.m.{.).Q.S $ $ % $ -   >   ( O.O.o.o.O.O.O.O.O.O.O.O.O.O.O.O.O.O.O.O.O.O.O.O.O.O.O.",
"O.O.O.O.O.O.O.O.O.O.O.O.O.O.O.O.O.O.O.O.O.O.O.O.i.n.y.y.y.s 5 5 5 5 i O.o.X.o.X.o.O.O.O.O.O.O.O.O.O.O.O.O.O.O.O.O.O.O.O.O.O.O.O.O.O.",
"O.O.O.O.O.O.O.O.O.O.O.O.O.O.O.O.O.O.O.O.O.O.O.O.O.O.O.O.o.X.O.O.O.O.O.o.` y ) y ` o.O.O.O.O.O.O.O.O.O.O.O.O.O.O.O.O.O.O.O.o.O.O.O.O.",
"O.O.O.O.O.O.O.O.O.O.O.O.O.O.O.O.O.O.O.O.O.O.O.O.O.O.O.O.O.O.O.O.O.O.O.X.y ) y ) y X.o.O.O.O.O.O.O.O.O.O.O.O.O.O.O.O.O.O.O.O.O.O.O.O.",
"O.O.O.O.O.O.O.O.O.O.O.O.O.O.O.O.O.O.O.O.O.O.O.O.O.O.O.O.O.O.O.O.O.O.O.o.X.o.X.o.o.o.O.O.O.O.O.O.O.O.O.O.O.O.O.O.O.O.O.O.O.O.O.O.O.O.",
"O.O.O.O.O.O.O.O.O.O.O.O.O.O.O.O.O.O.O.O.O.O.O.O.O.O.O.O.O.O.O.O.O.O.O.O.O.O.O.O.O.O.O.O.O.O.O.O.O.O.O.O.O.O.O.O.O.O.O.O.O.O.O.O.O.O.",
"O.O.O.O.O.O.O.O.O.O.O.O.O.O.O.O.O.O.O.O.O.O.O.O.O.O.O.O.O.O.O.O.O.O.O.O.O.O.O.O.O.O.O.O.O.O.O.O.O.O.O.O.O.O.O.O.O.O.O.O.O.O.O.O.O.O.",
"O.O.O.O.O.O.O.O.O.O.O.O.O.O.O.O.O.O.O.O.O.O.O.O.O.o.X.o.` o.O.O.O.O.O.O.O.O.O.X.o.O.O.O.O.O.O.O.O.O.O.O.O.O.O.O.O.O.O.O.O.O.O.O.O.O.",
"O.O.O.O.O.O.O.O.O.O.O.O.O.O.O.O.O.O.O.O.O.O.O.O.O.X.t ` y ` O.O.O.O.O.O.O.O.` y X.O.O.O.O.O.O.O.O.O.O.O.O.O.O.O.O.O.O.O.O.O.O.O.O.O."
};
