/* XPM */
static char *_c489acca47241d7c4313821a147bd357Ze0gD6ZRHnyeb8L[] = {
/* columns rows colors chars-per-pixel */
"66 66 197 2 ",
"   c #313A1E",
".  c #1A1225",
"X  c #1D142D",
"o  c #1F1430",
"O  c #1D1B30",
"+  c #241C2C",
"@  c #211534",
"#  c #251B34",
"$  c #241738",
"%  c #271A3C",
"&  c #281B3E",
"*  c #2A2B24",
"=  c #272529",
"-  c #362C2D",
";  c #2D3123",
":  c #2F3128",
">  c #343B24",
",  c #33362D",
"<  c #272739",
"1  c #2C243C",
"2  c #342A36",
"3  c #392F32",
"4  c #23343F",
"5  c #333335",
"6  c #453C38",
"7  c #3A4C17",
"8  c #38461D",
"9  c #3C4C1D",
"0  c #3F511B",
"q  c #3A4623",
"w  c #356E2A",
"e  c #465C1A",
"r  c #44581C",
"t  c #515117",
"y  c #675B19",
"u  c #517606",
"i  c #547B07",
"p  c #577609",
"a  c #4F6B17",
"s  c #4C6519",
"d  c #506D17",
"f  c #526F18",
"g  c #557416",
"h  c #577916",
"j  c #5A7C15",
"k  c #666117",
"l  c #6A7911",
"z  c #737A1C",
"x  c #424429",
"c  c #455622",
"v  c #4B433A",
"b  c #554B3A",
"n  c #535137",
"m  c #635B30",
"M  c #427832",
"N  c #6F6E26",
"B  c #716B24",
"V  c #2A1C42",
"C  c #2F1E48",
"Z  c #2D2245",
"A  c #2F2349",
"S  c #312943",
"D  c #31254D",
"F  c #33294E",
"G  c #293A46",
"H  c #3C3245",
"J  c #342651",
"K  c #382757",
"L  c #352A53",
"P  c #382D57",
"I  c #3A2F5A",
"U  c #353A52",
"Y  c #3D305E",
"T  c #3F3161",
"R  c #472F6F",
"E  c #413265",
"W  c #44336A",
"Q  c #493672",
"!  c #4E3874",
"~  c #4E387A",
"^  c #503879",
"/  c #334047",
"(  c #335055",
")  c #375663",
"_  c #3E606E",
"`  c #4F4A44",
"'  c #514A45",
"]  c #5B5F47",
"[  c #675C42",
"{  c #716946",
"}  c #76714B",
"|  c #767457",
" . c #59427A",
".. c #4A7572",
"X. c #767562",
"o. c #6D6279",
"O. c #837C32",
"+. c #857D40",
"@. c #91797B",
"#. c #5E8314",
"$. c #65920B",
"%. c #69960D",
"&. c #6B9B0D",
"*. c #648D13",
"=. c #6A8A11",
"-. c #659010",
";. c #699612",
":. c #6D9C11",
">. c #719D10",
",. c #739218",
"<. c #6FA00E",
"1. c #73A50F",
"2. c #74A710",
"3. c #7BAB19",
"4. c #4C903B",
"5. c #729A23",
"6. c #718F34",
"7. c #568F46",
"8. c #708248",
"9. c #789F53",
"0. c #5EAE47",
"q. c #69AE50",
"w. c #7DCA63",
"e. c #8C8538",
"r. c #8AB42B",
"t. c #8D824F",
"y. c #968B41",
"u. c #9B8E44",
"i. c #9B9147",
"p. c #948A54",
"a. c #999052",
"s. c #9C945C",
"d. c #A4974C",
"f. c #A69A55",
"g. c #A79D57",
"h. c #92B14F",
"j. c #AAA357",
"k. c #B4A55B",
"l. c #B4AA5D",
"z. c #878663",
"x. c #9F8B6D",
"c. c #9C8873",
"v. c #AA996A",
"b. c #ABA467",
"n. c #B9AF62",
"m. c #BEB465",
"M. c #B9B26C",
"N. c #B4B277",
"B. c #C3BB6B",
"V. c #C3BD78",
"C. c #B8D45C",
"Z. c #92D374",
"A. c #B0CD64",
"S. c #C4C06F",
"D. c #CDC574",
"F. c #CBC678",
"G. c #CAD673",
"H. c #D6D17E",
"J. c #553A84",
"K. c #5A3D8C",
"L. c #5B4185",
"P. c #6F5389",
"I. c #6B538E",
"U. c #654597",
"Y. c #725390",
"T. c #7A5B90",
"R. c #6A45A4",
"E. c #896E81",
"W. c #548585",
"Q. c #BEBF83",
"!. c #BAC588",
"~. c #B6E295",
"^. c #C6C68A",
"/. c #D9D583",
"(. c #DDDA85",
"). c #DBDC95",
"_. c #E1DF8A",
"`. c #DCEB92",
"'. c #DCF195",
"]. c #E3E28C",
"[. c #EAEC95",
"{. c #E6EC99",
"}. c #E6F69A",
"|. c #EEF199",
" X c #F2F59D",
".X c #DCDCAD",
"XX c #D3E7A6",
"oX c #EFF7AB",
"OX c #F5FBA2",
"+X c #FAFFA5",
"@X c #F7FBAF",
"#X c #FAFFAD",
"$X c #ECECB4",
"%X c #EAEBBA",
"&X c #E9F4B3",
"*X c #F5F8B8",
"=X c #FBFEC6",
/* pixels */
"2.2.2.2.2.2.2.2.2.2.2.2.2.2.2.2.2.2.2.2.2.2.2.2.2.2.<.u %.u <.2.2.2.2.2.2.<.u %.#.&.<.1.1.2.2.2.2.2.2.2.2.2.2.2.2.2.2.2.2.2.2.2.2.1.",
"2.2.2.2.2.2.2.2.2.2.2.2.2.2.2.2.2.2.2.2.2.2.2.2.2.2.2.<.1.<.1.1.<.1.<.2.2.1.<.<.<.1.1.<.1.<.1.2.2.2.2.2.2.2.2.2.2.2.2.2.2.2.2.2.2.2.",
"2.2.2.2.2.2.2.2.2.2.2.2.2.2.2.2.2.2.2.2.2.2.2.2.2.2.2.2.2.2.1.&.i $.i %.2.2.2.2.1.1.$.#.$.#.$.<.2.2.2.2.2.2.2.2.2.2.2.2.2.2.2.2.2.2.",
"2.2.2.2.2.2.2.2.2.2.2.2.2.2.2.2.2.2.2.2.2.2.2.2.2.2.2.2.2.2.<.i $.i $.i <.2.2.2.<.&.#.$.#.$.#.$.2.2.2.2.2.2.2.2.2.2.2.2.2.2.2.2.2.2.",
"2.2.2.2.2.2.2.2.2.2.2.2.2.2.2.2.2.2.2.2.2.2.2.2.2.2.2.2.2.2.2.<.1.<.1.<.2.2.2.2.2.2.<.1.:.1.:.2.2.2.2.2.2.2.2.2.2.2.2.2.2.2.2.2.2.2.",
"2.2.2.2.2.2.2.2.2.2.2.2.2.2.2.2.2.2.2.2.2.2.2.2.2.2.2.2.2.2.2.2.2.2.2.2.2.2.2.2.2.2.2.2.2.2.2.2.2.2.2.2.2.2.2.2.2.2.2.2.2.2.2.2.2.2.",
"2.2.2.2.2.2.2.2.2.2.2.2.2.2.2.2.2.2.2.2.2.2.2.2.2.2.2.2.2.2.2.2.2.2.2.2.2.2.2.2.2.2.2.2.2.2.2.2.2.2.2.2.2.2.2.2.2.2.2.2.2.2.2.2.2.2.",
"2.2.2.2.2.2.2.2.2.2.2.2.2.2.2.2.2.2.2.2.2.2.2.2.2.2.2.2.2.2.2.2.2.2.2.2.2.2.2.2.2.2.2.2.2.2.2.2.2.2.2.2.2.2.2.2.2.2.2.2.2.2.2.2.2.2.",
"2.2.2.2.2.2.2.2.2.2.2.2.2.2.2.2.2.2.2.2.| 6.2.2.2.2.2.2.2.2.2.2.2.2.2.2.2.2.2.2.2.2.2.2.5.X.:.2.2.2.2.2.2.2.2.2.2.2.2.2.2.2.2.2.2.2.",
"2.2.2.2.2.2.2.2.2.2.2.2.2.2.2.2.2.2.2.s Q I.6.<.2.2.2.2.2.2.2.2.2.2.2.2.2.2.2.2.2.2.2.5.P.L.9 2.2.2.2.2.2.2.2.2.2.2.2.2.2.2.2.2.2.2.",
"2.2.2.2.2.2.2.2.2.2.2.2.2.2.2.2.2.2.:.0 L L.I.6.2.2.2.2.2.2.2.2.2.2.2.2.2.2.2.2.2.2.5.o.U.Y : ;.2.2.2.2.2.2.2.2.2.2.2.2.2.2.2.2.2.2.",
"2.2.2.2.2.2.2.2.2.2.2.2.2.2.2.2.2.2.d < P Y U.I.6.2.2.2.2.2.2.2.2.2.2.2.2.2.2.2.2.5.o.R.T U A 8 2.2.2.2.2.2.2.2.2.2.2.2.2.2.2.2.2.2.",
"2.2.2.2.2.2.2.2.2.2.2.2.2.2.2.2.2.2.s Z I I J.R.I.6.2.2.2.2.2.2.2.2.2.2.2.2.2.2.5.P.R.L.T I F > 2.2.2.2.2.2.2.2.2.2.2.2.2.2.2.2.2.2.",
"2.2.2.2.2.2.2.2.2.2.2.2.2.2.2.2.2.:.q Z I I I K.R.I.6.2.2.2.2.2.2.2.2.2.2.2.2.5.o.R.U.T I I L * $.2.2.2.2.2.2.2.2.2.2.2.2.2.2.2.2.2.",
"2.2.2.2.2.2.2.2.2.2.2.2.2.2.2.2.2.g o D I I I T U.R.I.8.8.8.8.8.8.8.8.8.8.8.8.o.R.R.T T I I L $ 7 2.2.2.2.2.2.2.2.2.2.2.2.2.2.2.2.2.",
"2.2.2.2.2.2.2.2.2.2.2.2.2.2.2.2.2.f o D I I I Y J.R.R.R.R.R.R.R.R.R.R.R.R.R.R.R.R.L.T T I I P $ 7 2.2.2.2.2.2.2.2.2.2.2.2.2.2.2.2.2.",
"2.2.2.2.2.2.2.2.2.2.2.2.2.2.2.2.2.g @ D Y P I I E R.U.~ ~ ~ ~ ~ ~ ~ ~ ! ~ ~ ^ L.R.Q I I I I L $ 7 2.2.2.2.2.2.2.2.2.2.2.2.2.2.2.2.2.",
"2.2.2.2.2.2.2.2.2.2.2.2.2.2.2.2.2.g X D I Y D Y J.Q W I I I I I Y P Y I Y Y Y E Q J.E I I I L $ 0 2.2.2.2.2.2.2.2.2.2.2.2.2.2.2.2.2.",
"2.2.2.2.2.2.2.2.2.2.1.<.1.<.1.1.2.g X C J J ! T W I I I I I I I P Y I I I I I I I W I J P I L $ 7 2.2.2.2.2.2.1.2.2.2.2.2.2.2.2.2.2.",
"2.2.2.2.2.2.2.2.2.1.&.i $.i &.1.2.g X V V ~ Q I I I I I I I I I I P I Y I I I I I I I ^ K L C $ 0 2.2.2.2.2.2.1.2.2.2.2.2.2.2.2.2.2.",
"2.2.2.2.2.2.2.2.2.<.i $.i $.i <.2.g + % C J.W I I I I I T T T T T T T E E T Y I I I I E J.C V $ w <.2.2.2.2.1.1.2.1.1.1.2.2.2.2.2.2.",
"2.2.2.2.2.2.2.2.2.1.<.1.<.1.<.1.2.2.r o R W I I I I I W ^ Y.Y.Y.Y.Y.Y.Y.Y.L.E T Y I Y Y J.J $ : <.1.2.2.2.2.1.1.<.1.<.<.2.2.2.2.2.2.",
"2.2.2.2.2.2.2.2.2.2.2.2.2.2.2.2.2.2.s X J I I I I R ! T.@.b.k.k.b.k.k.k.k.x.T. .W Y I I T ~ O   1.1.2.2.2.2.1.%.#.$.u <.2.2.2.2.2.2.",
"2.2.2.2.2.2.2.2.2.2.2.2.2.2.2.2.2.;.c A I I I Y Q E.E.k.k.k.k.l.k.l.k.k.k.k.k.c.T. .Y I I I L , -.1.2.2.2.2.<.#.$.#.$.#.1.2.2.2.2.1.",
"1.1.<.1.2.2.2.2.2.2.2.2.1.<.1.1.2.h & Y I I I ! @.k.k.k.m.l.y.m.D.D.B.i.i.k.k.k.k.@. .Y K I I A 7 2.2.2.2.2.1.<.<.&.1.<.1.<.<.1.<.1.",
"i $.i &.1.2.2.2.2.2.2.1.&.i &.1.;.q Z Y I I Y I.x.k.n.H.].H.j.].+X+X|.l.n.H.S.k.k.k.E.R I I I L q #.2.2.2.2.2.2.1.<.2.2.1.<.#.$.i &.",
"%.i $.i <.2.2.2.2.2.2.<.i $.i *.q S Y P I I E U.v.m._.+X#X+X+X+X+X+X+X+X+X+X|.H.B.k.T.E I I I I L 4 #.2.2.2.2.2.1.2.2.2.&.#.$.#.$.u ",
"1.<.1.<.1.1.<.1.<.1.2.1.<.<.*.q D Y P Y Y Y | c./.G.i.d.9.!.@X+X+X+X+X+X.X9.h.i.V.].v.H K I I I I F : $.2.2.2.2.1.2.2.2.<.&.<.&.1.<.",
"2.2.2.2.1.&.i $.i &.1.2.2.&.8 % A I I Y P % p.].+X=X!.0.4.7.XX#X+X+X+X&Xq.w 0.Z.%X#X[.p.2 P I I I L % : $.1.2.2.2.2.2.2.2.2.2.2.2.2.",
"2.2.2.2.<.i $.i $.i <.2.2.1.h = O Z D P P # +.{.OX@X*X~.4.4.w.'.+X+X}.Z.q.M Z.*X#X+XOXb.2 L P L Z O O s <.2.2.2.2.2.2.2.2.2.2.2.2.2.",
"2.2.2.2.1.<.1.<.1.<.1.2.2.2.1.*.d = # & V % 2 f.[.+X+XOX'.'.'. X$X%XOX}.`.`. X#X+X XM.6 % V V % = r -.<.2.2.2.2.2.2.2.2.2.2.2.2.2.2.",
"2.2.2.2.2.2.2.2.2.2.2.2.2.2.2.2.1.;.s * < $ $ - s.[.+X+X+X+X+X+Xj.i.[.+X+X+X+X+X XM.6 $ % # * 8 ;.:.2.2.2.2.2.2.2.2.2.2.2.2.2.2.2.2.",
"2.2.2.2.2.2.2.2.2.2.2.2.2.2.2.2.2.2.1.<.r * ; ; x a.^.).+X+XOXOX X}.OX+X+X+X{.^.b.n ; ; ; 7 :.2.2.2.2.2.2.2.2.2.2.2.2.2.2.2.2.2.2.2.",
"2.2.2.2.2.2.2.2.2.2.2.2.2.2.2.2.2.2.2.2.2.2.2.2.;.  . ` Q.Q.!.!.Q.!.Q.Q.Q.^.X.. * #.1.1.2.2.h.r.2.2.2.2.2.2.2.2.2.2.2.2.2.2.2.2.2.2.",
"2.2.2.2.2.2.2.2.2.2.2.2.2.2.2.2.2.2.2.2.2.2.2.2.>.s + X < G G O 6 6 = G U U # o q :.2.2.3.A.*X{.r.2.2.2.2.2.2.2.2.2.2.2.2.2.2.2.2.2.",
"2.2.2.2.2.2.2.2.2.2.2.2.2.2.2.2.2.2.2.2.2.2.2.:.e # & < ) W._ G p.f.5 ) W...< V $ q ;.2.r.oX+X+XG.2.2.2.2.2.2.2.2.2.2.2.2.2.2.2.2.2.",
"2.2.2.2.2.2.2.2.2.2.2.2.2.2.2.2.2.2.2.2.2.2.2.:.= % V 1 / ) G ] s.j.{ / ) ( # V & X #.2.3.C.OX|.A.1.2.2.2.2.2.2.2.2.2.2.2.2.2.2.2.2.",
"2.2.2.2.2.2.2.2.2.2.2.2.2.2.2.2.2.2.2.2.2.2.1.0 S D A V < G ] s.H.(.l.} 4 4 % A L A > ;.2.r.[.n.,.1.2.2.2.2.2.2.2.2.2.2.2.2.2.2.2.2.",
"2.2.2.2.2.2.2.2.2.2.2.2.2.2.2.2.2.2.2.2.2.2.:.* P I I A $ n f./. X+X_.b.{ O A L I I + *.2.r.m.u.l 1.1.2.2.2.2.2.2.2.2.2.2.2.2.2.2.2.",
"2.2.2.2.2.2.2.2.2.2.2.2.2.2.2.2.2.2.2.2.2.2.q S I I I A b f.H.OX+X+X+X_.j.{ Z I I I L > ;.d.d.z >.1.2.2.2.2.2.2.2.2.2.2.2.2.2.2.2.2.",
"2.2.2.2.2.2.2.2.2.2.2.2.2.2.2.2.2.2.2.2.2.;.: L I I F 6 g.H.OX+X+X+X+X+X].k.[ C I I P # y g.u.l 2.2.2.2.2.2.2.2.2.2.2.2.2.2.2.2.2.2.",
"2.2.2.2.2.2.2.2.2.2.2.2.2.2.2.2.2.2.2.2.2.8 S P I I D v H. X+X+X+X+X+X+X+X_.} V I I Y F 3 e.z >.2.2.2.2.2.2.2.2.2.2.2.2.2.2.2.2.2.2.",
"2.2.2.2.2.2.2.2.2.2.2.2.2.2.2.2.2.2.2.2.1.  L I I P H X. X X+X+X+X+X+X+XOX[.N.H L I I L + k >.2.2.2.2.2.2.2.2.2.2.2.2.1.2.2.2.2.2.2.",
"2.2.2.2.2.2.2.2.2.2.2.2.2.2.2.2.2.2.2.2.*.; F I Y L ` OX(.H.+X#X[.[.#X+X[.D.+Xz.Z I Y L # t 2.2.2.2.2.2.2.2.2.2.2.2.1.1.1.1.2.2.2.2.",
"2.2.1.<.2.<.2.2.2.2.2.2.2.2.2.2.2.2.2.2.8 $ L I I L ` +X(.B.{.=XV.n.*XOXB.V.+Xz.Z I I P & * <.2.2.2.2.2.2.2.2.2.1.&.i $.i &.1.1.2.2.",
"2.1.%.i &.i &.2.2.2.2.2.2.2.2.2.2.2.2.#.: & L I I L ` +X[.i.N.=Xg.i.$X.XO._.+Xz.Z I I I V = g 2.2.2.2.2.2.2.2.2.<.i $.i $.i <.1.2.2.",
"2.<.i $.i $.i <.2.2.2.2.2.2.2.2.2.2.2.c & A I I I D ' +X+XB.f.%X+.B .Xb.g.+X+Xz.Z I I I D V , 2.2.2.2.2.2.2.2.2.1.<.1.<.1.<.1.2.2.2.",
"2.2.<.1.<.1.<.1.2.2.2.2.2.2.2.2.2.2.j 5 J P I I I 2 s.+X+X[.k.a.B y t.f.].+X+XM.v F I I I D < s 2.2.2.2.2.2.2.2.2.1.2.2.2.2.2.2.2.2.",
"2.2.2.2.2.2.2.2.2.2.2.2.2.2.2.2.2.#., L I I A I L 3 m.+X+X+X Xk.d.u.g.].+X+X+XH.b A P D P P A   2.2.2.2.2.2.2.2.2.2.2.2.2.2.2.2.2.2.",
"2.2.2.2.2.2.2.2.2.2.2.2.2.2.2.2.<.g & I I I P I L 3 B.+X+X+X+X|.[.[.[.+X+X+X+X/.b D I P I I P 1 e &.2.2.2.2.2.2.2.2.1.1.<.1.2.2.2.2.",
"2.2.2.2.1.<.1.2.2.2.2.2.2.2.2.1.j < D L I I I I L 3 M.+X+X+X+X+X+X+X+X+X+X+X+XH.b Z P I P I P D S 7 %.2.2.2.2.2.2.2.1.&.i &.1.2.2.2.",
"2.2.2.1.%.i &.2.2.2.2.2.2.2.<.j 2 L P P I A L I L 3 B.+X+X+X+X+X+X+X+X+X+X+X+XH.b F Y P D P I P P 1 7 &.2.2.2.2.2.2.1.i $.i <.2.2.2.",
"2.2.2.<.i $.i <.2.1.2.2.2.2.j < D D I P P P I I L 2 k.+X+X+X+X+X#X@X@X+X+X+X+XF.' F I I P P I I L A 1 s :.&.1.&.1.2.1.1.1.<.1.1.<.1.",
"<.1.2.1.<.1.<.1.1.<.1.&.2.&.q S C P I P C L I I P % ' +X+X+X+X$X$X$X$X+X+X+X+Xz.$ L I I P C L I P A A : #.i $.i &.1.1.2.1.2.1.&.u &.",
"u &.1.2.2.2.2.1.&.i $.i &.1.;.> $ & J A V D J L F % ` [.+X+X[.B.k.n.n.].+X+X XX.$ D L J F V C F C % * j i $.i $.i <.2.2.2.2.<.i $.u ",
"%.i <.2.2.2.2.<.i $.i $.i 1.1.;.0 > $ $ $ V V % V $ - f.[.OXF.u.+.e.e.n.(.(.D.m @ V & V V % @ $ * 9 *.2.<.1.<.1.<.1.2.2.2.2.1.<.1.<.",
"1.1.2.2.2.2.2.2.<.1.<.1.<.1.2.2.2.=.e e : @ @ @ @ = a z e.j.d.,.O.l k e.H.D.d.N ; @ @ O @ + e e j 2.2.2.2.2.2.2.2.2.2.2.2.2.2.2.2.2.",
"1.2.2.2.2.2.2.2.2.2.2.2.1.2.2.2.2.2.2.2.#.d d d d h 1.1.,.=.1.2.1.1.z F.=X*Xb.l #.d d d d h 2.2.2.2.2.2.2.2.2.2.2.2.2.2.2.2.2.2.2.2.",
"2.2.2.2.2.2.2.2.2.2.2.2.2.2.2.2.2.2.2.2.2.2.2.2.2.2.2.2.2.2.2.2.1.1.>.d.@X).6.%.1.2.2.2.1.2.2.2.2.2.2.2.2.2.2.2.2.2.2.2.2.2.2.2.2.2.",
"2.2.2.2.2.2.2.2.2.2.2.2.2.2.2.2.2.2.2.2.2.2.2.2.2.2.2.2.2.2.2.2.2.2.1.e.O.z =.p &.1.2.2.1.2.2.2.2.2.2.2.2.2.2.2.2.2.2.2.2.2.2.2.2.2.",
"2.2.2.2.2.2.2.2.2.2.2.2.2.2.2.2.2.2.2.2.2.2.2.2.2.2.2.2.2.2.2.2.2.2.2.&.p =.i $.i <.2.2.2.2.2.2.2.2.2.2.2.2.2.2.2.2.2.2.2.2.2.2.2.2.",
"2.2.2.2.2.2.2.2.2.2.2.2.2.2.2.2.2.2.2.2.2.2.2.2.2.2.2.2.2.2.2.2.2.2.2.1.>.1.<.1.1.2.2.2.2.2.2.2.2.2.2.2.2.2.2.2.2.2.2.2.2.2.2.2.2.2.",
"2.2.2.2.2.2.2.2.2.2.2.2.2.2.2.2.2.2.2.2.2.2.2.2.2.2.2.2.2.2.2.2.2.2.2.2.2.2.1.2.2.2.2.2.2.2.2.2.2.2.2.2.2.2.2.2.2.2.2.2.2.2.2.2.2.2.",
"2.2.2.2.2.2.2.2.2.2.2.2.2.2.2.2.2.2.2.2.2.2.2.2.2.2.2.2.2.2.2.2.2.2.2.2.2.2.2.2.2.2.2.2.2.2.2.2.2.2.2.2.2.2.2.2.2.2.2.2.2.2.2.2.2.2.",
"2.2.2.2.2.2.2.2.2.2.2.2.2.2.2.2.2.2.2.2.2.2.2.2.2.2.<.1.&.1.2.2.2.2.2.2.2.2.1.<.2.2.2.2.2.2.2.2.2.2.2.2.2.2.2.2.2.2.2.2.2.2.2.2.2.2.",
"2.2.2.2.2.2.2.2.2.2.2.2.2.2.2.2.2.2.2.2.2.2.2.2.2.<.u &.u <.2.2.2.2.2.2.2.2.<.u <.2.2.2.2.2.2.2.2.2.2.2.2.2.2.2.2.2.2.2.2.2.2.2.2.2."
};
