/* XPM */
static char *c0c4d11d96d14cf0e19f21c0893b9f6aBN8atTT3cnZoBDRd[] = {
/* columns rows colors chars-per-pixel */
"66 66 193 2 ",
"   c #170F24",
".  c #1B1727",
"X  c #1C132B",
"o  c #1F1530",
"O  c #251C26",
"+  c #231A2E",
"@  c #211534",
"#  c #251B34",
"$  c #2A1F36",
"%  c #26193B",
"&  c #281B3E",
"*  c #1E2A38",
"=  c #292023",
"-  c #292B23",
";  c #262229",
":  c #26222C",
">  c #312725",
",  c #2E3323",
"<  c #363323",
"1  c #343B26",
"2  c #353C28",
"3  c #2E2237",
"4  c #372D37",
"5  c #28393D",
"6  c #393033",
"7  c #40361A",
"8  c #38431F",
"9  c #3C4A1E",
"0  c #394522",
"q  c #394228",
"w  c #3A4C33",
"e  c #39762D",
"r  c #48491B",
"t  c #564A15",
"y  c #45591D",
"u  c #625613",
"i  c #685C18",
"p  c #517606",
"a  c #547B07",
"s  c #4B6614",
"d  c #4B631A",
"f  c #516F17",
"g  c #577816",
"h  c #696418",
"j  c #6A7912",
"k  c #4E472B",
"l  c #507431",
"z  c #6E6122",
"x  c #787923",
"c  c #7D732D",
"v  c #657036",
"b  c #2B1C42",
"n  c #2D2246",
"m  c #2F2942",
"M  c #2F2149",
"N  c #32254D",
"B  c #33294E",
"V  c #273948",
"C  c #342651",
"Z  c #362A54",
"A  c #382C57",
"S  c #3A275A",
"D  c #3A2F5A",
"F  c #3D305E",
"G  c #3F2B62",
"H  c #3F3161",
"J  c #4A3C45",
"K  c #462E6C",
"L  c #413266",
"P  c #433268",
"I  c #48316C",
"U  c #4D3877",
"Y  c #523A7A",
"T  c #395961",
"R  c #514C46",
"E  c #504C48",
"W  c #746844",
"Q  c #6F7A54",
"!  c #6B527F",
"~  c #43696B",
"^  c #6D6A6C",
"/  c #736D6D",
"(  c #6D6673",
")  c #837B2F",
"_  c #887E36",
"`  c #847753",
"'  c #5D8214",
"]  c #65920B",
"[  c #68970C",
"{  c #6B9A0D",
"}  c #628614",
"|  c #638C14",
" . c #6D8D11",
".. c #738619",
"X. c #679112",
"o. c #6A9412",
"O. c #6D9D11",
"+. c #6D941F",
"@. c #709611",
"#. c #779B17",
"$. c #739E1D",
"%. c #6FA00E",
"&. c #73A50F",
"*. c #6FA010",
"=. c #74A710",
"-. c #79A716",
";. c #76A813",
":. c #7DA51C",
">. c #7CAC1B",
",. c #6A9C2E",
"<. c #729C21",
"1. c #729629",
"2. c #719033",
"3. c #73A633",
"4. c #708149",
"5. c #64954C",
"6. c #75A548",
"7. c #6BBE54",
"8. c #83832C",
"9. c #8A8537",
"0. c #91863C",
"q. c #85AA24",
"w. c #8AA729",
"e. c #88B326",
"r. c #8CB62A",
"t. c #93A733",
"y. c #9AAD3B",
"u. c #8CB633",
"i. c #9DC13D",
"p. c #968C47",
"a. c #9A9152",
"s. c #A09248",
"d. c #A3A445",
"f. c #A5A748",
"g. c #A1B043",
"h. c #ABA658",
"j. c #B4A859",
"k. c #B4B258",
"l. c #B7AA65",
"z. c #BDB465",
"x. c #BAAC7E",
"c. c #C0BA66",
"v. c #C2BA6B",
"b. c #9BC049",
"n. c #ADC44F",
"m. c #CCC775",
"M. c #D1CB7B",
"N. c #C9D87C",
"B. c #D5D27D",
"V. c #CBE072",
"C. c #D4E67D",
"Z. c #573C87",
"A. c #5A3C8D",
"S. c #5E3D93",
"D. c #674D84",
"F. c #6B5689",
"G. c #715781",
"H. c #745A82",
"J. c #614295",
"K. c #64429B",
"L. c #68499A",
"P. c #6844A2",
"I. c #8E7480",
"U. c #886E90",
"Y. c #84699D",
"T. c #649786",
"R. c #A28E87",
"E. c #BCDA97",
"W. c #B8E39A",
"Q. c #CCC88F",
"!. c #C7D985",
"~. c #D7D583",
"^. c #DCDA85",
"/. c #E1DF89",
"(. c #DBEA89",
"). c #E4E48E",
"_. c #E2ED8A",
"`. c #E6F18F",
"'. c #E6E594",
"]. c #EAEB96",
"[. c #EBF394",
"{. c #EEF199",
"}. c #F4FA9F",
"|. c #DCEAA7",
" X c #EFF6AE",
".X c #F7FBA4",
"XX c #FAFFA5",
"oX c #F5FCAC",
"OX c #FAFEAD",
"+X c #E8ECB5",
"@X c #F9FDB6",
"#X c #FCFFC4",
"$X c #FBFFC9",
/* pixels */
"=.=.=.=.=.=.=.=.=.=.=.=.=.=.=.=.=.=.=.=.=.=.=.=.=.=.%.p [ p %.=.=.=.=.=.=.%.p [ p %.=.=.=.=.=.=.=.=.=.=.=.=.=.=.=.=.=.=.=.=.=.=.=.=.",
"=.=.=.=.=.=.=.=.=.=.=.=.=.=.=.=.=.=.=.=.=.=.=.=.=.=.=.%.&.%.&.&.%.%.%.&.=.&.%.&.%.&.&.%.%.%.&.=.=.=.=.=.=.=.=.=.=.=.=.=.=.=.=.=.=.=.",
"=.=.=.=.=.=.=.=.=.=.=.=.=.=.=.=.=.=.=.=.=.=.=.=.=.=.=.=.=.=.&.{ a ] a { &.=.=.=.=.=.{ a ] a { =.=.=.=.=.=.=.=.=.=.=.=.=.=.=.=.=.=.=.",
"=.=.=.=.=.=.=.=.=.=.=.=.=.=.=.=.=.=.=.=.=.=.=.=.=.=.=.=.=.=.%.a ] a ] a %.=.=.=.=.%.a ] a ] a %.=.=.=.=.=.=.=.=.=.=.=.=.=.=.=.=.=.=.",
"=.=.=.=.=.=.=.=.=.=.=.=.=.=.=.=.=.=.=.=.=.=.=.=.=.=.=.=.=.=.&.%.&.%.&.%.&.=.=.=.=.=.%.%.*.=.*.=.=.=.=.=.=.=.=.=.=.=.=.=.=.=.=.=.=.=.",
"=.=.=.=.=.=.=.=.=.=.=.=.=.=.=.=.=.=.=.=.=.=.=.=.=.=.=.=.=.=.=.=.=.=.=.=.=.=.=.=.=.=.=.=.=.=.=.=.=.=.=.=.=.=.=.=.=.=.=.=.=.=.=.=.=.=.",
"=.=.=.=.=.=.=.=.=.=.=.=.=.=.=.=.=.=.=.=.=.=.=.=.=.=.=.=.=.=.=.=.=.=.=.=.=.=.=.=.=.=.=.=.=.=.=.=.=.=.=.=.=.=.=.=.=.=.=.=.=.=.=.=.=.=.",
"=.=.=.=.=.=.=.=.=.=.=.=.=.=.=.=.=.=.=.=.=.=.=.=.=.,.=.=.<.<.=.=.=.=.=.=.=.=.=.=.=.=.=.=.=.=.=.=.=.=.=.=.=.=.=.=.=.=.=.=.=.=.=.=.=.=.",
"=.=.=.=.=.=.=.=.=.=.=.=.=.=.=.=.=.=.=.=.=.=.=.=.<.F.2.=.Q ^ <.=.=.=.=.=.=.=.=.=.=.=.=.=.=.=.=.=.=.=.=.=.=.=.=.=.=.=.=.=.=.=.=.=.=.=.",
"=.=.=.=.=.=.=.=.=.=.=.=.=.=.=.=.=.=.=.=.=.=.=.=.+.Y F.v R K.^ <.=.=.=.=.=.=.=.=.=.=.=.=.=.=.=.=.=.=.=.=.=.=.=.=.=.=.=.=.=.=.=.=.=.=.",
"=.=.=.=.=.=.=.=.=.=.=.=.=.=.=.=.=.=.=.=.=.=.=.*.y B Z.S.A P K.( <.=.=.=.=.=.=.=.=.=.=.=.=.=.=.=.=.=.=.=.=.=.=.=.=.=.=.=.=.=.=.=.=.=.",
"=.=.=.=.=.=.=.=.=.=.=.=.=.=.=.=.=.=.=.=.=.=.=.X.; D H Z.S.G H S.( $.=.=.=.=.=.=.=.=.=.=.=.=.=.=.=.=.=.=.=.=.=.=.=.=.=.=.=.=.=.=.=.=.",
"=.=.=.=.=.=.=.=.=.=.=.=.=.=.=.=.=.=.=.=.=.=.=.X.- Z D H Z.S.A.K J.( $.&.&.=.=.=.=.=.=.=.=.=.=.=.=.=.=.=.=.=.=.=.=.=.=.=.=.=.=.=.=.=.",
"=.=.=.=.=.=.=.=.=.=.=.=.=.=.=.=.=.=.=.=.=.=.*.8 3 D D D H A.P.S.K.I ( $.=.=.&.&.=.=.=.=.=.=.=.=.=.=.=.=.=.=.=.=.=.=.=.=.=.=.=.=.=.=.",
"=.=.=.=.=.=.=.=.=.=.=.=.=.=.=.=.=.=.=.=.=.=.O.- b Z D H D H H A.K.S.K.F.F.^ -.$.=.=.=.=.=.=.=.=.=.=.=.=.=.=.=.=.=.=.=.=.=.=.=.=.=.=.",
"=.=.=.=.=.=.=.=.=.=.=.=.=.=.=.=.=.=.=.=.=.=.O.- b M Z D D D F C C S.K.K.K.J.F.Q <.*.=.=.=.=.=.=.=.=.=.=.=.=.=.=.=.=.=.=.=.=.=.=.=.=.",
"=.=.=.=.=.=.=.=.=.=.=.=.=.=.=.=.=.=.=.=.=.=.%.- b b b Z A A N A A F H H H H U J.L.4.-.*.=.=.=.=.=.=.=.=.=.=.=.=.=.=.=.=.=.=.=.=.=.=.",
"=.=.=.=.=.=.=.=.&.=.=.=.=.=.=.=.=.=.=.=.=.=.{ - % b b b b N D D D D D D D D D F Y K.4.-.=.=.=.=.=.=.=.=.=.=.=.=.=.=.=.=.=.=.=.=.=.=.",
"=.=.=.=.=.=.=.=.=.=.&.%.&.%.&.=.=.=.=.=.=.=.O.- % b b b C D D D D D D F D D D D H K.L.1.=.=.=.=.=.=.=.=.=.=.=.=.=.=.=.=.=.=.=.=.=.=.",
"=.=.=.=.=.=.=.=.=.&.{ a ] a { &.=.=.=.=.=.&.O.- b b M C D D D D D D D D D D P U ! U./ <.=.=.=.=.=.=.=.=.=.=.=.=.=.=.=.=.=.=.=.=.=.=.",
"=.=.=.=.=.=.=.=.=.%.a ] a ] a %.=.=.=.=.=.=.*.d : N D D D D D D D D D D H Y ! I.x.B.g.-.=.=.=.=.=.=.=.=.=.=.&.=.=.=.=.=.=.=.=.=.=.=.",
"=.=.=.=.=.=.=.=.=.&.%.&.%.&.%.&.=.=.=.=.=.=.O.y m D D D D D D D D D F H D.R.Q.^.{.@Xv.>.=.=.=.=.=.=.=.=.=.=.&.&.%.&.%.&.=.=.=.=.=.=.",
"=.=.=.=.=.=.=.=.=.=.=.=.=.=.=.=.=.=.=.=.=.=.O.- Z D D D D D D D D D D P Y.].oX^.h.p.M.e.=.=.=.=.=.=.=.=.=.=.=.[ ' ] p [ =.=.=.=.=.=.",
"=.=.=.=.=.=.=.=.=.=.=.=.=.=.=.=.=.=.=.=.=.=.9 3 A D D D D H D D D F H D.x.XXXX.X~.~.[.r.=.=.=.=.=.=.=.=.=.=.%.' ] p ] ' %.=.=.=.=.=.",
"&.&.%.&.=.=.=.=.=.=.=.=.&.%.&.=.=.=.=.=.=.O.- b A D D D D D D D D D L Y.]..X{. XQ.'.}.r.=.=.=.=.=.=.=.=.=.=.&.%.%.%.%.%.=.%.%.%.%.&.",
"p ] a { &.=.=.=.=.=.=.&.{ a { &.=.=.=.=.O.0 3 Z A D D D D D D D D A L U..X~._ 6.l !.}.r.=.=.=.=.=.=.=.=.=.=.=.=.=.=.=.=.=.%.' ] a [ ",
"[ a ] a %.=.=.&.=.=.=.%.a ] a %.=.=.=.o.0 m A D F D D D D D D D A S H.x.oX@XE.7.e N.}.i.=.=.=.=.=.=.=.=.=.=.=.=.=.=.=.=.%.' ] p ] p ",
"&.%.&.%.&.&.%.&.%.&.=.&.%.&.%.&.=.%.o.0 @ b C D D D D D D D D A A G.l..XoX$X$XW.5.!.oXB.:.=.=.=.=.=.=.=.=.=.=.=.=.=.=.=.%.%.%.%.&.%.",
"=.=.=.=.&.{ a ] a { &.=.=.=.=.&.{ a s : % b b C D D D D D D D N Y ` l.'.XXXX@X#XOXXX@Xa...=.=.=.=.=.=.=.=.=.=.=.=.=.=.=.&.=.=.=.=.=.",
"=.=.=.=.%.a ] a ] a %.=.=.=.=.%.a ] a s : % b b N Z D D D D D D N 3 W j.'..XXXXXXXXXXX.Xk.=.=.=.=.=.=.=.=.=.=.=.=.=.=.=.=.=.=.=.=.=.",
"=.=.=.=.&.%.&.%.&.%.&.=.=.=.=.&.%.%.%.=.f : @ % b b C D D D D D D N 3 W z.).XXXXXXXX.X^.y.=.=.=.=.=.=.=.=.=.=.=.=.=.=.=.=.=.=.=.=.=.",
"=.=.=.=.=.=.=.=.=.=.=.=.=.=.=.=.=.=.=.=.=.g d : o b b N N Z D D D D N $ W z.).XXXXXXB.y.=.=.=.=.=.=.=.=.=.=.=.=.=.=.=.=.=.=.=.=.=.=.",
"=.=.=.=.=.=.=.=.=.=.=.=.=.=.=.=.=.=.=.=.=.=.=.g d + @ b b b M M n n M & 3 J ` m.m.n.u.-.=.=.=.=.=.=.=.=.=.=.=.=.=.=.=.=.=.=.=.=.=.=.",
"=.=.=.=.=.=.=.=.=.=.=.=.=.=.=.=.=.=.=.=.=.=.=.=.&.' d . X X X X X @ X X X   ; h >.-.=.=.=.=.=.=.=.=.=.=.=.=.=.=.=.=.=.=.=.=.=.=.=.=.",
"=.=.=.=.=.=.=.=.=.=.=.=.=.=.=.=.=.=.=.=.=.=.=.=.=.=.*.} } 0 @ % % % % @   * V l ;.=.=.=.=.=.=.=.=.=.=.=.=.=.=.=.=.=.=.=.=.=.=.=.=.=.",
"=.=.=.=.=.=.=.=.=.=.=.=.=.=.=.=.=.=.=.=.=.=.=.=.=.=.=.&.f # % b & & b % . 5 T T.6.-.=.=.=.=.=.=.=.=.=.=.=.=.=.=.=.=.=.=.=.=.=.=.=.=.",
"=.=.=.=.=.=.=.=.=.=.=.=.=.=.=.=.=.=.=.=.=.=.=.=.=.=.=.O.y @ b b b b & % = r 5 ~ T.3.=.=.=.=.=.=.=.=.=.=.=.=.=.=.=.=.=.=.=.=.=.=.=.=.",
"=.=.=.=.=.=.=.=.=.=.=.=.=.=.=.=.=.=.=.=.=.=.=.=.=.=.=.g @ b b b b C M % = u r 5 ~ ,.=.=.=.=.=.=.=.=.=.=.=.=.=.=.=.=.=.=.=.=.=.=.=.=.",
"=.=.=.=.=.=.=.=.=.=.=.=.=.=.=.=.=.=.=.=.=.=.=.=.=.=.O.y o b n Z M S A % O z ) v w | =.=.=.=.=.=.=.=.=.=.=.=.=.=.=.=.=.=.=.=.=.=.=.=.",
"=.=.=.=.=.=.=.=.=.=.=.=.=.=.=.=.=.=.=.=.=.=.=.=.=.=.' X M N D Z N A S & > _ m.~.w.=.=.=.=.=.=.=.=.=.=.=.=.=.=.=.=.=.=.=.=.=.=.=.=.=.",
"=.=.=.=.=.=.=.=.=.=.=.=.=.=.=.=.=.=.=.=.=.=.=.=.=.O.9 n Z Z D M Z D Z $ k c.'.~.t.=.=.=.=.=.=.=.=.=.=.=.=.=.=.=.=.=.=.=.=.=.=.=.=.=.",
"=.=.=.=.=.=.=.=.=.=.=.=.=.=.=.=.=.=.=.=.=.=.=.=.=.' * A D D D Z A D B = c ).@X+Xg.-.=.=.=.=.=.=.=.=.=.=.=.=.=.=.=.=.=.=.=.=.=.=.=.=.",
"=.=.=.=.=.=.=.=.=.=.=.=.=.;.;.=.=.=.=.=.=.=.=.=.[ q N D D D F M A D B = c ~.OX$X|.u.=.=.=.=.=.=.=.=.=.=.&.=.=.=.=.=.=.=.=.=.=.=.=.=.",
"=.=.=.=.=.=.=.=.=.=.=.=.>.!.|.N.;.=.=.=.=.=.=.=.| : D D D D D A A D Z = i 0.^.XX$Xb.=.=.=.=.=.=.=.=.=.=.=.=.=.=.=.=.O.=.{ &.=.=.=.=.",
"=.&.%.%.=.%.%.%.=.=.=.=.!.oX@XoX!.=.=.=.=.=.=.X.q B D D D D D D D D Z = u ) k./.#X+Xu.=.=.=.=.=.=.=.=.=.=.=.=.=.&.{ a ] a { =.=.=.=.",
"=.&.[ p [ ' %.=.=.=.=.=.(..XXXXX(.>.=.=.=.=.X.2 Z D D D D D D D D D Z = 9.z.0.M..X~.q.=.=.=.=.=.=.=.=.=.=.=.=.=.{ a ] a ] a { =.=.=.",
"=.%.' ] ' [ p %.=.=.=.=.e.C.`.{.oXN.=.=.=.o.2 B D D D D D D D D D D Z 6 z..Xz.p.^.z.:.=.=.=.=.=.=.=.=.=.=.=.=.=.&.&.&.%.&.%.=.=.=.=.",
"=.&.%.%.%.%.%.&.=.=.=.=.=.;.e.z.[.V.=.=.X.2 B D D D D D D D D D D D Z 6 z.OX~._ h.9.#.=.=.=.=.=.=.=.=.=.=.=.=.=.=.=.=.=.=.=.=.=.=.=.",
"=.=.=.=.=.=.=.=.=.=.=.=.=.=.=.g.v.m.&.X.1 B D D A D D D D D D D D D A 6 c.XXB._ j @.=.=.=.=.=.=.=.=.=.=.=.=.=.=.=.=.=.=.=.=.=.=.=.=.",
"=.=.=.=.=.=.=.=.=.=.=.=.=.=.;.p.s.g.] 0 B D D D M D D D A Z D Z D D C 4 v.XX/.t.&.=.=.=.=.=.&.%.&.%.&.=.=.=.=.=.=.=.=.&.%.&.=.=.=.=.",
"=.=.=.=.%.%.&.&.=.=.=.=.=.=.=.j h 8.r & D D D C D D D D Z Z D C A D A 4 a..X/.t.&.=.=.=.=.=.%.a ] a { &.=.=.=.=.=.=.&.{ a { =.=.=.=.",
"=.=.=.&.[ ' [ &.=.=.=.=.=.=.=.@.u u 7 % Z D B N D D D A C D D C A D S C E XX/.t.=.=.=.=.=.=.=.{ a ] a %.=.=.=.=.=.=.%.a ] a %.=.=.&.",
"=.=.&.%.' ] ' %.=.=.=.=.=.=.=.=.j u t > & N B A D D D C M F A M A D D N R XX/.t.=.=.=.=.=.=.=.=.%.&.%.&.&.%.&.{ &.=.&.%.&.%.&.&.%.&.",
"%.&.&.&.%.%.%.&.&.&.&.{ &.=.=.=.=.o. .} 1 & n A D D A M A D B C A D D Z R .X~.t.=.=.=.=.=.=.=.=.=.=.=.&.{ a ] a { &.=.=.&.=.&.{ a [ ",
"p ] %.&.&.=.=.&.{ a ] a { &.=.=.=.=.=.=.| < + & n b b b B D n Z D D A Z E c.s...&.=.=.=.=.=.=.=.=.=.=.%.a ] a ] a &.=.=.=.=.%.a ] a ",
"%.' %.&.&.=.=.%.a ] a ] a { =.=.=.=.=.=.=.[ } , ; ; ; . b b % b Z A A b J p.i h #.q.;.=.=.=.=.=.=.=.=.&.%.&.%.&.%.&.=.=.=.=.&.%.&.%.",
"&.&.=.=.=.=.=.&.{ &.&.&.{ &.=.=.=.=.=.=.=.=.=.@.[ [ } r O O O % % & & % 6 h i 9.B.`.r.=.=.=.=.=.=.=.=.=.=.=.=.=.&.=.=.=.=.=.=.=.=.=.",
"&.=.=.=.=.=.=.=.=.=.=.=.=.=.=.=.=.=.=.=.=.=.=.=.-.=.&. .i z z < - - - - 9  .) j.B._.r.=.=.=.=.=.=.=.=.=.=.=.=.=.=.=.=.=.=.=.=.=.=.=.",
"=.=.=.=.=.=.=.=.=.=.=.=.=.=.=.=.=.=.=.=.=.=.=.=.&.&.=.=.w.d.d.x @.=.=.=.&.%.w.d.f.q.=.=.=.=.=.=.=.=.=.=.=.=.=.=.=.=.=.=.=.=.=.=.=.=.",
"=.=.=.=.=.=.=.=.=.=.=.=.=.=.=.=.=.=.=.=.=.=.=.=.=.=.=.=.=.&.=.=.=.=.=.&.[ a ] a { =.=.=.=.=.=.=.=.=.=.=.=.=.=.=.=.=.=.=.=.=.=.=.=.=.",
"=.=.=.=.=.=.=.=.=.=.=.=.=.=.=.=.=.=.=.=.=.=.=.=.=.=.=.=.=.=.=.=.=.=.=.%.a ] a ] a %.=.=.=.=.=.=.=.=.=.=.=.=.=.=.=.=.=.=.=.=.=.=.=.=.",
"=.=.=.=.=.=.=.=.=.=.=.=.=.=.=.=.=.=.=.=.=.=.=.=.=.=.=.=.=.=.=.=.=.=.=.&.%.&.%.&.%.=.=.=.=.=.=.=.=.=.=.=.=.=.=.=.=.=.=.=.=.=.=.=.=.=.",
"=.=.=.=.=.=.=.=.=.=.=.=.=.=.=.=.=.=.=.=.=.=.=.=.=.=.=.=.=.=.=.=.&.=.=.=.=.=.&.=.=.=.=.=.=.=.=.=.=.=.=.=.=.=.=.=.=.=.=.=.=.=.=.=.=.=.",
"=.=.=.=.=.=.=.=.=.=.=.=.=.=.=.=.=.=.=.=.=.=.=.=.=.=.=.=.=.=.=.=.=.=.=.=.=.=.=.=.=.=.=.=.=.=.=.=.=.=.=.=.=.=.=.=.=.=.=.=.=.=.=.=.=.=.",
"=.=.=.=.=.=.=.=.=.=.=.=.=.=.=.=.=.=.=.=.=.=.=.=.=.&.%.&.%.&.=.=.=.=.=.=.=.=.&.%.&.=.=.=.=.=.=.=.=.=.=.=.=.=.=.=.=.=.=.=.=.=.=.=.=.=.",
"=.=.=.=.=.=.=.=.=.=.=.=.=.=.=.=.=.=.=.=.=.=.=.=.=.%.p { p { =.=.=.=.=.=.=.=.%.a { =.=.=.=.=.=.=.=.=.=.=.=.=.=.=.=.=.=.=.=.=.=.=.=.=."
};
