/* XPM */
static char *d21596bb46c14834b3788c0d19b153b7IAqfFQ9l1fV6olbH[] = {
/* columns rows colors chars-per-pixel */
"66 66 202 2 ",
"   c #393B1F",
".  c #191027",
"X  c #1E152B",
"o  c #1F1430",
"O  c #1E1A31",
"+  c #221D2B",
"@  c #221635",
"#  c #241B33",
"$  c #241739",
"%  c #261A3B",
"&  c #291B3D",
"*  c #252425",
"=  c #26222C",
"-  c #2A2A28",
";  c #312C20",
":  c #2E3323",
">  c #353A26",
",  c #2B2532",
"<  c #292737",
"1  c #342A33",
"2  c #302C3B",
"3  c #2D323E",
"4  c #3D3537",
"5  c #433B39",
"6  c #3C4B1D",
"7  c #3A4422",
"8  c #3C4824",
"9  c #3C782F",
"0  c #475E19",
"q  c #45581C",
"w  c #665B19",
"e  c #517606",
"r  c #547B07",
"t  c #557908",
"y  c #4B6419",
"u  c #4E6918",
"i  c #53611F",
"p  c #516D19",
"a  c #567616",
"s  c #5B7D16",
"d  c #547318",
"f  c #726E1E",
"g  c #6B7B13",
"h  c #757E1C",
"j  c #425222",
"k  c #4B4A39",
"l  c #504637",
"z  c #52483D",
"x  c #61563A",
"c  c #6A6823",
"v  c #79722A",
"b  c #2A1C42",
"n  c #2D2246",
"m  c #222F40",
"M  c #2F2349",
"N  c #352C42",
"B  c #31254C",
"V  c #33294D",
"C  c #243843",
"Z  c #333643",
"A  c #352652",
"S  c #362A53",
"D  c #382D57",
"F  c #3A2F5A",
"G  c #3D315E",
"H  c #3E3161",
"J  c #453F41",
"K  c #432D69",
"L  c #413264",
"P  c #48366C",
"I  c #4A3573",
"U  c #4E3579",
"Y  c #4D3878",
"T  c #513C76",
"R  c #2B414A",
"E  c #31474C",
"W  c #3A5A65",
"Q  c #485145",
"!  c #5A5554",
"~  c #655941",
"^  c #636446",
"/  c #70684D",
"(  c #797659",
")  c #574578",
"_  c #705E6A",
"`  c #446C71",
"'  c #6D6377",
"]  c #847F2F",
"[  c #867B32",
"{  c #847A4F",
"}  c #827F60",
"|  c #8E7778",
" . c #5C830E",
".. c #5D8116",
"X. c #65920B",
"o. c #69960D",
"O. c #6B9B0D",
"+. c #608714",
"@. c #638B14",
"#. c #6E8C11",
"$. c #728B17",
"%. c #669113",
"&. c #699512",
"*. c #6C9A11",
"=. c #719D10",
"-. c #739B1B",
";. c #6FA00E",
":. c #73A50F",
">. c #6FA011",
",. c #74A710",
"<. c #76A813",
"1. c #489239",
"2. c #72942D",
"3. c #718B39",
"4. c #62A33F",
"5. c #708248",
"6. c #689147",
"7. c #56A841",
"8. c #77C860",
"9. c #888F31",
"0. c #86A725",
"q. c #8C844B",
"w. c #9A8C43",
"e. c #958E4C",
"r. c #9C9248",
"t. c #968D52",
"y. c #9C9254",
"u. c #9F965B",
"i. c #A3974D",
"p. c #A69D58",
"a. c #ACA25B",
"s. c #ACA85A",
"d. c #B4A65B",
"f. c #B3AA5D",
"g. c #B9AB5E",
"h. c #A7B157",
"j. c #898765",
"k. c #97817F",
"l. c #AA9964",
"z. c #A69468",
"x. c #B6AB63",
"c. c #BCB264",
"v. c #B5B16C",
"b. c #A5A573",
"n. c #B2AD73",
"m. c #C3B969",
"M. c #C6BD6C",
"N. c #C5BD7A",
"B. c #B1CA5D",
"V. c #8ED273",
"C. c #AAD26D",
"Z. c #B9D373",
"A. c #CBC473",
"S. c #CAC676",
"D. c #D2CB7A",
"F. c #D5D17D",
"G. c #593C8B",
"H. c #5D3F90",
"J. c #5D418E",
"K. c #61468E",
"L. c #664B8C",
"P. c #6B5686",
"I. c #76598D",
"U. c #604291",
"Y. c #674897",
"T. c #7B6183",
"R. c #6A45A4",
"E. c #836883",
"W. c #578B88",
"Q. c #B7C084",
"!. c #B8E398",
"~. c #C8C985",
"^. c #D4D581",
"/. c #DAD582",
"(. c #DDDA86",
"). c #D1D48E",
"_. c #DEDD88",
"`. c #DAD997",
"'. c #E1DF8A",
"]. c #D3E58D",
"[. c #CBEB94",
"{. c #D9E795",
"}. c #DBF293",
"|. c #E3E28C",
" X c #EAEB94",
".X c #E9EB96",
"XX c #EFF19A",
"oX c #EBF99E",
"OX c #F3F69D",
"+X c #F3F89E",
"@X c #DEDAA3",
"#X c #CDEBA3",
"$X c #ECF4AA",
"%X c #E8F2AF",
"&X c #F2F7A1",
"*X c #F6FBA2",
"=X c #FAFFA5",
"-X c #F1F8AD",
";X c #FAFFAC",
":X c #EAE8B5",
">X c #F6F9B7",
",X c #FCFFC8",
/* pixels */
",.,.,.,.,.,.,.,.,.,.,.,.,.,.,.,.,.,.,.,.,.,.,.,.,.,.>.e O.e ;.,.,.,.,.,.,.;.e o.e ;.:.:.,.,.:.:.,.,.,.,.,.,.,.,.,.,.,.,.,.,.,.,.,.,.",
",.,.,.,.,.,.,.,.,.,.,.,.,.,.,.,.,.,.,.,.,.,.,.,.,.,.,.;.;.;.:.:.;.:.;.;.,.:.;.:.;.:.:.;.:.;.:.;.,.,.,.,.,.,.,.,.,.,.,.,.,.,.,.,.,.,.",
",.,.,.,.,.,.,.,.,.,.,.,.,.,.,.,.,.,.,.,.,.,.,.,.,.,.,.,.,.,.:.O.r X.r O.:.,.,.,.:.:.X. .X. .X.;.,.,.,.,.,.,.,.,.,.,.,.,.,.,.,.,.,.,.",
",.,.,.,.,.,.,.,.,.,.,.,.,.,.,.,.<.,.,.,.,.,.,.,.,.,.,.,.,.,.;.r X.r X.r ;.,.,.,.;.;. .X. .X. .;.,.,.,.,.,.,.,.,.,.,.,.,.,.,.,.,.,.,.",
",.,.,.,.,.,.,.,.,.,.,.,.,.,.,.,.,.,.,.,.,.,.,.,.,.,.,.,.,.,.:.;.:.;.:.;.:.,.,.,.,.:.;.:.;.:.;.,.,.,.,.,.,.,.,.,.,.,.,.,.,.,.,.,.,.,.",
",.,.,.,.,.,.,.,.,.,.,.,.,.,.,.,.,.,.,.,.,.,.,.,.,.,.,.,.,.,.,.,.,.,.,.,.,.,.,.,.,.,.,.,.,.,.,.,.,.,.,.,.,.,.,.,.,.,.,.,.,.,.,.,.,.,.",
",.,.,.,.,.,.,.,.,.,.,.,.,.,.,.,.,.,.,.,.,.,.,.,.,.,.,.,.,.,.,.,.,.,.,.,.,.,.,.,.,.,.,.,.,.,.,.,.,.,.,.,.,.,.,.,.,.,.,.,.,.,.,.,.,.,.",
",.,.,.,.,.,.,.,.,.,.,.,.,.,.,.,.,.,.,.,.,.,.,.,.,.,.,.,.,.,.,.,.,.,.,.,.,.,.,.,.,.,.,.,.,.,.,.,.,.,.,.,.,.,.,.,.,.,.,.,.,.,.,.,.,.,.",
",.,.,.,.,.,.,.,.,.,.,.,.,.,.,.,.,.,.,.,.,.,.,.,.,.,.,.,.,.,.,.,.,.,.,.,.,.,.,.,.,.,.,.,.,.,.,.,.,.,.,.,.,.,.,.,.,.,.,.,.,.,.,.,.,.,.",
",.,.,.,.,.,.,.,.,.,.,.,.,.,.,.,.,.,.,.,.,.,.,.,.,.,.,.,.,.,.,.,.,.,.,.,.,.,.,.,.,.,.,.,.,.,.,.,.,.,.,.,.,.,.,.,.,.,.,.,.,.,.,.,.,.,.",
",.,.,.,.,.,.,.,.,.,.,.,.,.,.,.,.,.,.<.<.,.,.,.,.,.,.,.,.,.,.,.,.,.,.,.,.,.,.,.,.,.,.,.,.,.,.,.<.,.,.,.,.,.,.,.,.,.,.,.,.,.,.,.,.,.,.",
",.,.,.,.,.,.,.,.,.,.,.,.,.,.,.,.,.,.,.<.,.,.,.,.,.,.,.,.,.,.,.,.,.,.,.,.,.,.,.,.,.,.,.,.,.,.,.<.,.,.,.,.,.,.,.,.,.,.,.,.,.,.,.,.,.,.",
",.,.,.,.,.,.,.,.,.,.,.,.,.,.,.,.,.,.u ! 2.,.,.<.,.,.,.,.,.,.,.,.,.,.,.,.,.,.,.,.,.,.,.,.,.5.k ..,.,.,.,.,.,.,.,.,.,.,.,.,.,.,.,.,.,.",
",.,.,.,.,.,.,.,.,.,.,.,.,.,.,.,.,.,.6 Y P.2.,.<.,.,.,.,.,.,.,.,.,.,.,.,.,.,.,.,.,.,.,.,.5.) % ..,.,.,.,.,.,.,.,.,.,.,.,.,.,.,.,.,.,.",
",.,.,.,.,.,.,.,.,.,.,.,.,.,.,.,.,.>.6 S J.P.2.>.,.<.,.,.,.,.,.,.,.,.,.,.,.,.,.,.,.,.-.5.L.Y % d ,.,.,.,.,.,.,.,.,.,.,.,.,.,.,.,.,.,.",
",.,.,.,.,.,.,.<.,.,.,.,.,.,.,.,.,.y = V G J.L.' 2.-.,.,.,.,.,.<.,.,.,.,.,.,.,.,.-.6.P.) H H n * X.,.,.,.,.,.,.,.,.,.,.,.,.,.,.,.,.,.",
",.,.,.,.,.,.,.,.,.,.,.,.,.,.,.,.,.0 @ S F F K U.Y.' 2.2.2.2.2.2.2.2.2.2.2.2.2.3.P.U.G.F F F b + X.,.,.,.,.,.,.,.,.,.,.,.,.,.,.,.,.,.",
",.,.,.,.,.,.,.,.,.,.,.,.,.,.,.,.:.y @ S F F G L J.R.Y.J.J.J.J.J.J.J.J.J.J.J.J.R.Y.L F F F F M X @.,.,.,.,.,.,.,.,.,.,.,.,.,.,.,.,.,.",
",.,.,.,.,.,.,.,.,.,.:.;.:.;.:.:.,.0 @ S F F S H Y J.I F F F F F F F F F G F G Y G.K F F F F M X  .,.,.,.,.,.,.,.,.,.,.,.,.,.,.,.,.,.",
",.,.,.,.,.,.,.,.,.:.O.r X.r O.:.,.0 @ M D S K H Y D G D F F F F F F F F F F F F H U F A F F M X @.,.,.,.,.,.,.,.,.,.,.,.,.,.,.,.,.,.",
",.,.,.,.,.,.,.,.,.;.r X.r X.r ;.,.0 @ b M I I F G D F G F F F F F F G D G D G D F F H K A A n X @.,.,.,.,.,.,.,.,.,.,.:.,.,.,.,.,.,.",
",.,.,.,.,.,.,.,.,.:.;.:.;.:.;.:.,.0 @ b b G.L F D G F F F G F F F F F F F G D G F F H U K b b + @.,.,.,.,.,.,.:.;.:.;.;.,.,.,.,.,.,.",
",.,.,.,.,.,.,.,.,.,.,.,.,.,.,.,.,.&.> $ U I F F G D G G T U.U.U.U.U.U.U.U.P F G F G F I U b @ y >.,.,.,.,.,.,.X. .X.e O.:.,.,.,.:.,.",
",.,.,.,.,.,.,.,.,.,.,.,.,.,.,.,.,.,.6 . D H F F G G T L.| z.z.z.z.z.z.z.z.T.K.L G F F H U A . ..,.,.,.,.,.,.>. .X.e X. .;.,.,.,.:.:.",
":.:.;.,.,.,.,.,.,.,.,.,.:.;.:.:.,.=.7 n F F F F I L.| l.d.f.d.d.f.f.d.d.d.a.l.T.L.K L N L S $ a :.,.,.,.,.,.:.;.;.;.:.;.:.;.;.:.O.;.",
"e X.r O.:.,.,.,.,.,.,.:.O.r O.:.,.y < G F F G I E.a.d.x.c.c.m.m.m.m.m.m.c.d.d.a.z.P.L L L D D , X.,.,.,.,.,.,.,.,.,.,.,.:.;. .X. .X.",
"o.r X.r ;.,.,.,.,.,.,.;.r X.r ;.*.6 M G F F H I.a.d.c.M..X*X*X*X+X*X*X*X'.M.x.d.d.z.H.A S D D , p ;.,.,.,.,.,.,.,.,.,.,.;. .X.e X. .",
":.;.:.;.:.:.;.:.;.:.,.:.;.:.;.*.j n D G F G H I.d.c.'.=X=XF.D.+X=X=X.XS.|.=XF.M.g.z.H.L D L D D < d :.,.,.,.,.,.,.,.,.,.;.;.;.;.:.;.",
",.,.,.,.:.O.r X.r O.:.,.,.,.*.j M G F F F G _ k.D.'.*X=X=Xc.s.XX=X=X(.s./.;X=X*X^.N._ M D G F F D 3 u >.,.,.,.,.,.,.,.,.:.,.,.,.,.,.",
",.,.,.,.;.r X.r X.r ;.,.,.O.8 % S F F F G N p.(.;X`.p.C.C.%X;X*X=X=X*X>X[.C.h.f.OX+XN.Q n D G F D M = u ,.,.,.,.,.,.,.,.:.,.,.,.,.,.",
",.,.,.,.:.;.:.;.:.;.:.,.,.O.y X # M A D D , a.&X;X:Xh.7.1.8.%X;X=X=X>X#X4.7.7.Q.>X=X.X{ < F F B M O - s ,.,.,.,.,.,.,.,.,.,.,.,.,.,.",
",.,.,.,.,.,.,.,.,.,.,.,.,.,.*...q X % M n % z A.=X;X%XV.9 7.V.$X=X=X}.8.9 1.!.>X>X.Xp.1 b b n # O d ..>.,.,.,.,.,.,.,.,.,.,.,.,.,.,.",
",.,.,.,.,.,.,.,.,.,.,.,.,.,.,.,.*.+.6 + % % % k N.*X;XoX].{.}.&X>X>XoX}.].].*X;X.Xl.1 $ % # + p @.,.,.,.,.,.,.,.,.,.,.,.,.,.,.,.,.,.",
",.,.,.,.,.,.,.,.,.,.,.,.,.,.,.,.,.:.*.@.> * * * x m.{.-X*X=X=X.Xe.a.=X=X=X=X.X`.p.5 * * * y %.=.,.,.,.,.,.,.,.,.,.,.,.,.,.,.,.,.,.,.",
",.,.,.,.,.,.,.,.,.,.,.,.,.,.,.,.,.,.,.,.*.*.o.*.s : , j.).).).).Q.~.).).).).Q 1 7 &.&.&.&.=.,.,.,.,.,.,.,.,.,.,.,.,.,.,.,.,.,.,.,.,.",
",.,.,.,.,.,.,.,.,.,.,.,.,.,.,.,.,.,.,.,.,.,.<.<.*.q O = 3 Z 2 - 5 4 = 3 Z < $ + p ,.,.,.,.,.,.,.,.,.,.,.,.,.,.,.,.,.,.,.,.,.,.,.,.,.",
",.,.,.,.,.,.,.,.<.,.,.,.,.,.,.,.,.,.,.,.,.,.,.,.0 @ b % ` W.W E p.j.C ` W.E < b + s ,.,.,.,.:.,.,.,.,.,.,.,.,.,.,.,.,.,.,.,.,.,.,.,.",
",.,.,.,.,.,.,.,.,.,.,.,.,.,.,.,.,.,.,.,.,.,.,...X b b < W W R ^ a.u.Q R ` R n b $ ; ,.,.,.,.<.<.,.,.,.,.,.,.,.,.,.,.,.,.,.,.,.,.,.,.",
",.,.,.,.,.,.,.,.,.,.,.,.,.,.,.,.,.,.,.,.,.,.*.6 n B b b m C ^ d.F.S.y.Q C 3 % B B 2 p ,.,.,.=.B.Z.Z.B.<.,.,.,.,.,.,.,.,.,.,.,.,.,.,.",
",.,.,.,.,.,.,.,.,.,.,.,.,.,.,.,.,.,.,.:.,.<.%.= F F A M O ~ d.'.*XOXD.y.4 O n D F B   ,.<.0.B.&X>X>X>XZ.,.,.,.,.,.,.,.,.,.,.,.,.,.,.",
",.,.,.,.,.,.,.,.,.,.,.,.,.,.,.,.,.,.,.,.,.*.7 V D F G b x a.'.+X=X=XOXD.y.4 B F F F N 0 #.9.m.m.m.m.D.-XZ.,.,.,.,.,.,.,.,.,.,.,.,.,.",
",.,.,.,.,.,.,.,.,.,.,.,.,.,.,.,.,.,.,.,.,.%.- D F F n x a.|.=X=X=X=X=XOXA.y.4 A F F M ; 9.i.[ 0.0.0.9.m.h.,.,.,.,.,.,.,.,.,.,.,.,.,.",
",.,.,.,.,.,.,.,.,.,.,.,.,.,.,.,.,.,.,.,.O.6 V F F F n / '.+X=X=X=X=X=X=XOXA.5 V D D D n x [ $.,.=.:.#.f #.:.,.,.,.,.,.,.,.,.,.,.,.,.",
",.,.,.,.,.,.,.,.,.,.,.,.,.,.,.,.,.,.,.,.>.- S G F D Z b.XX+X=X=X=X=X=X=X&XXX/ S D G G n > #.:.,.,.:.:.=.;.:.,.,.,.,.O.,.>.,.,.,.,.,.",
":.:.:.;.:.;.;.:.,.,.,.,.,.,.,.,.,.,.,.,...- S F F n ( &XA. X;X*X.XOX;X=XF.|..XJ S G F M 6 %.,.,.,.,.,.,.,.,.,.,.:.O.r X.r O.:.,.,.,.",
":.:.O.e X. .;.:.,.,.,.,.,.,.,.,.,.,.,.,.: & D G F n j.=XA.S.&X,Xc.N.,X|.M.|.&XJ S F F V X y ,.,.,.,.,.,.,.,.,.,.;.r X.r X.r ;.,.,.,.",
",.;.r X. .X.r ;.,.,.,.,.,.,.,.,.,.,.,...- b D F F n j.=X(.[ @X:Xr.x.,Xv.i..X&XJ V F G S $ 7 @.,.,.,.,.,.,.,.,.,.:.;.,.;.;.;.,.,.,.,.",
",.:.;.;.;.:.;.;.,.,.,.,.,.,.,.,.,.,.,.  $ M D F F n } *X*Xp.n.@Xw q.:Xu.A.=X&XJ S F D D M @ a ,.,.,.,.,.,.,.,.,.,.,.,.,.,.,.,.,.,.,.",
",.,.,.,.,.,.,.,.,.,.,.,.,.,.,.,.,.,.,.7 B D F F S 5 n.;X=X|.i.t.w c y.g.XX=X&X} 2 D F F D b > @.,.:.,.,.,.,.,.,.,.,.,.,.,.,.,.,.,.,.",
",.,.,.,.,.:.,.,.,.,.,.,.,.,.,.,.:.:.u N D D M D B k F.=X=X=X|.i.r.w.g.XX=X=X*Xx., D D B F S B > X.:.:.,.,.,.,.,.,.,.,.:.;.:.,.,.,.,.",
",.,.,.,.;.;.:.,.,.,.,.,.,.,.,.,.:.u 2 D G D A G B l F.=X=X=X*X X.X XXX=X=X=X*Xx.1 S F S F F F # a r O.:.,.,.,.,.,.,.,.O.r O.:.,.:.:.",
",.,.,.:.X. .;.;.,.,.,.,.,.,.,.,.s < B S G D G D B l F.=X=X=X=X=X=X=X=X=X=X=X*Xx.1 F F D F F B B -  .r O.,.,.,.,.,.,.;.r X.r ;.,.:.:.",
",.,.,.:. .X. .;.,.,.:.;.,.,.,.;.y b D F D B D F n l F.=X=X=X=X=X=X;X=X=X=X=X*Xx.1 D F A B F F D = s O.,.:.;.:.O.:.,.:.;.:.;.:.:.O.;.",
";.:.:.:.;.;.;.:.:.;.;.;.:.,.,. .# B F D D D F F V 5 A.=X=X=X;X;X;X;X;X=X=X=X*Xu.N D F F D S F F b : *.<.O.r X.r O.:.,.,.,.,.:.O. .X.",
"e X.:.:.:.:.,.:.;.e X. .o.,.,. .$ D F D b D F F S % j.*X=X=X*X:X:X:X-X=X=X=XXXQ b D F F B B F F S - *.*.r X.r X.r ;.,.,.,.,.;.r X. .",
";. .;.:.:.:.,.;. .X.e X. .;.,...% b S b b B A S B @ / OX=X=X_.i.w.w.d. X=X=X|.4 & A A A B b B V $ 1 *.,.O.,.;.:.;.:.,.,.,.,.:.;.:.;.",
",.;.,.,.,.,.,.,.;.;.;.:.;.:.,.X.q : @ @ & & b b b % ~ M./.^.w.h g g h d.F.F.c.1 % b b b b $ @ @ 6 y ,.,.,.,.,.,.,.,.,.,.,.,.,.,.,.,.",
",.,.,.,.,.,.,.,.:.:.,.,.,.,.,.,.:.@.y y - @ X @ @ : c n.@X`.v =.:.:.$.t.@X@Xr.i = X @ X o 7 y u &.,.,.,.,.,.,.,.,.,.,.,.,.,.,.,.,.,.",
",.,.,.,.,.,.,.,.:.,.,.,.,.,.,.,.,.,.,.,.s a a a d ..*.9.t.e.$.,.:.,.=.9.t.t.$.*.a a a a a @.,.,.,.,.,.,.,.,.,.,.,.,.,.,.,.,.,.,.,.,.",
",.,.,.,.,.,.,.,.,.,.,.,.,.,.,.,.,.,.,.,.,.,.:.,.,.,.,.,.=.,.,.,.:.:.,.:.&.t X.r O.,.,.,.,.,.,.,.,.,.,.,.,.,.,.,.,.,.,.,.,.,.,.,.,.,.",
",.,.,.,.,.,.,.,.,.,.,.,.,.,.,.,.,.,.,.,.,.,.,.,.,.,.,.,.,.,.,.,.,.,.:.:.t X.t X.r ;.,.,.,.,.,.,.,.,.,.,.,.,.,.,.,.,.,.,.,.,.,.,.,.,.",
",.,.,.,.,.,.,.,.,.,.,.,.,.,.,.,.,.,.,.,.,.,.,.,.,.,.,.,.,.,.,.,.,.,.,.:.:.:.O.:.;.:.,.,.,.,.,.,.,.,.,.,.,.,.,.,.,.,.,.,.,.,.,.,.,.,.",
",.,.,.,.,.,.,.,.,.,.,.,.,.,.,.,.,.,.,.,.,.,.,.,.,.,.,.,.,.,.,.,.,.,.,.,.,.,.:.:.,.,.,.,.,.,.,.,.,.,.,.,.,.,.,.,.,.,.,.,.,.,.,.,.,.,.",
",.,.,.,.,.,.,.,.,.,.,.,.,.,.,.,.,.,.,.,.,.,.,.,.,.,.,.,.,.,.,.,.,.,.,.,.,.,.:.<.,.,.,.,.,.,.,.,.,.,.,.,.,.,.,.,.,.,.,.,.,.,.,.,.,.,.",
",.,.,.,.,.,.,.,.,.,.,.,.,.,.,.,.,.,.,.,.,.,.,.,.,.,.;.;.;.;.:.,.,.,.,.,.,.,.;.;.:.:.,.,.,.,.,.,.,.,.,.,.,.,.,.,.,.,.,.,.,.,.,.,.,.,.",
",.,.,.,.,.,.,.,.,.,.,.,.,.,.,.,.,.,.,.,.,.,.,.,.,.;. .X.e ;.,.,.,.,.,.,.,.,.O. .;.:.,.,.,.,.,.,.,.,.,.,.,.,.,.,.,.,.,.,.,.,.,.,.,.,."
};
