/* XPM */
static char *_fcb828572f441e7fb333aeb5b34a64cJwrOhMd3YABWUmiG[] = {
/* columns rows colors chars-per-pixel */
"66 66 193 2 ",
"   c #30381E",
".  c #1C122C",
"X  c #1F1430",
"o  c #1F1A33",
"O  c #20172D",
"+  c #221C2B",
"@  c #211534",
"#  c #241B35",
"$  c #251937",
"%  c #261B3B",
"&  c #281B3E",
"*  c #252425",
"=  c #282629",
"-  c #2B2B29",
";  c #2D3123",
":  c #343825",
">  c #2C2A34",
",  c #282638",
"<  c #362D36",
"1  c #2C313C",
"2  c #3B3337",
"3  c #443B34",
"4  c #473E3A",
"5  c #3C4C1D",
"6  c #394521",
"7  c #3A4421",
"8  c #3C792F",
"9  c #42541D",
"0  c #45591B",
"q  c #495F1B",
"w  c #695D1C",
"e  c #517606",
"r  c #547B07",
"t  c #577C0C",
"y  c #4C6519",
"u  c #4E6918",
"i  c #536B1A",
"p  c #516C1A",
"a  c #557516",
"s  c #597B16",
"d  c #527018",
"f  c #6A7B11",
"g  c #727D1A",
"h  c #42472B",
"j  c #4B443A",
"k  c #564D38",
"l  c #5F543F",
"z  c #726726",
"x  c #747329",
"c  c #2A1C42",
"v  c #2D2245",
"b  c #2F2249",
"n  c #362C44",
"m  c #31254C",
"M  c #342A4C",
"N  c #253845",
"B  c #313B42",
"V  c #342751",
"C  c #352A53",
"Z  c #382D57",
"A  c #3A2F5A",
"S  c #3C305E",
"D  c #3E3161",
"F  c #462E6C",
"G  c #413265",
"H  c #48376D",
"J  c #4B3575",
"K  c #4E3976",
"L  c #52397E",
"P  c #314E55",
"I  c #3B5B6A",
"U  c #3E626C",
"Y  c #4C4844",
"T  c #4D5545",
"R  c #59524B",
"E  c #655D51",
"W  c #696148",
"Q  c #6D6956",
"!  c #716E57",
"~  c #5A477A",
"^  c #736279",
"/  c #827836",
"(  c #8B7E4C",
")  c #8A7876",
"_  c #5E8314",
"`  c #65920B",
"'  c #69960D",
"]  c #6B9B0D",
"[  c #608714",
"{  c #648C13",
"}  c #618519",
"|  c #728819",
" . c #6A9412",
".. c #6D9B11",
"X. c #729D15",
"o. c #6FA00E",
"O. c #73A50F",
"+. c #6FA011",
"@. c #74A710",
"#. c #76A813",
"$. c #499239",
"%. c #7A8C26",
"&. c #769921",
"*. c #72932E",
"=. c #718B39",
"-. c #588F41",
";. c #75AD50",
":. c #898734",
">. c #908639",
",. c #87A726",
"<. c #87AB25",
"1. c #95AB35",
"2. c #9A8C43",
"3. c #918849",
"4. c #9B934B",
"5. c #8E8759",
"6. c #948C52",
"7. c #9E9454",
"8. c #A3984E",
"9. c #A99C54",
"0. c #A59A58",
"q. c #96BD41",
"w. c #86B75E",
"e. c #A2BE44",
"r. c #AAA355",
"t. c #A9A35A",
"y. c #B4A65B",
"u. c #B9AC5F",
"i. c #98976B",
"p. c #AC9C62",
"a. c #A89865",
"s. c #A69468",
"d. c #9DB26D",
"f. c #ABA365",
"g. c #B9AE63",
"h. c #BEB767",
"j. c #BCB369",
"k. c #BBB974",
"l. c #C3BA6A",
"z. c #C4BA6A",
"x. c #C4BD78",
"c. c #9AC048",
"v. c #AAC956",
"b. c #8CD16A",
"n. c #99D67E",
"m. c #CBC877",
"M. c #CBCD74",
"N. c #D0CE77",
"B. c #D1CB79",
"V. c #5A3D8B",
"C. c #5D418E",
"Z. c #5E4092",
"A. c #654A8D",
"S. c #6A5688",
"D. c #725589",
"F. c #604290",
"G. c #684896",
"H. c #725390",
"J. c #6A45A4",
"K. c #806680",
"L. c #588C88",
"P. c #B5C581",
"I. c #B2E094",
"U. c #C5C682",
"Y. c #CFD28C",
"T. c #DAD682",
"R. c #DDDA85",
"E. c #D1D48E",
"W. c #DADC88",
"Q. c #DADC93",
"!. c #E0DE88",
"~. c #D4E78E",
"^. c #DEE395",
"/. c #DAF294",
"(. c #E4E48E",
"). c #EAEC95",
"_. c #EBED99",
"`. c #E7F79A",
"'. c #EDF19A",
"]. c #F2F59D",
"[. c #F4F99F",
"{. c #DED9A0",
"}. c #DFDEB0",
"|. c #ECF7A7",
" X c #F5FAA2",
".X c #FAFFA5",
"XX c #FAFFAB",
"oX c #ECEAB3",
"OX c #E8E8BB",
"+X c #EDF7B2",
"@X c #F9FEB5",
"#X c #F3F5BB",
"$X c #F8FBC7",
/* pixels */
"@.@.@.@.@.@.@.@.@.@.@.@.@.@.@.@.@.@.@.@.@.@.@.@.@.@...e ] e o.@.@.@.@.@.@.o.e ' _ ] o.@.@.@.@.@.@.@.@.@.@.@.@.@.@.@.@.@.@.@.@.@.@.@.",
"@.@.@.@.@.@.@.@.@.@.@.@.@.@.@.@.@.@.@.@.@.@.@.@.@.@.@.O.O.] o.@.o.@.o.@.@.O.o.o.o.O.o.o.O.o.O.O.@.@.@.@.@.@.@.@.@.@.@.@.@.@.@.@.@.@.",
"@.@.@.@.@.@.@.@.@.@.@.@.@.@.@.@.@.@.@.@.@.@.@.@.@.@.@.@.@.@.O.] r ` r ' @.@.@.@.O.O.` _ ` _ ` o.@.@.@.@.@.@.@.@.@.@.@.@.@.@.@.@.@.@.",
"@.@.@.@.@.@.@.@.@.@.@.@.@.@.@.@.@.@.@.@.@.@.@.@.@.@.@.@.@.@.O.r ` r ` r o.@.@.@.o.o._ ` _ ` _ ` @.@.@.@.@.@.@.@.@.@.@.@.@.@.@.@.@.@.",
"@.@.@.@.@.@.@.@.@.@.@.@.@.@.@.@.@.@.@.@.@.@.@.@.@.@.@.@.@.@.O.] @.o.o.o.@.@.@.@.@.@.o.o.o.@.o.@.@.@.@.@.@.@.@.@.@.@.@.@.@.@.@.@.@.@.",
"@.@.@.@.@.@.@.@.@.@.@.@.@.@.@.@.@.@.@.@.@.@.@.@.@.@.@.@.@.@.@.@.@.@.@.@.@.@.@.@.@.@.@.@.@.@.@.@.@.@.@.@.@.@.@.@.@.@.@.@.@.@.@.@.@.@.",
"@.@.@.@.@.@.@.@.@.@.@.@.@.@.@.@.@.@.@.@.@.@.@.@.@.@.@.@.@.@.@.@.@.@.@.@.@.@.@.@.@.@.@.@.@.@.@.@.@.@.@.@.@.@.@.@.@.@.@.@.@.@.@.@.@.@.",
"@.@.@.@.@.@.@.@.@.@.@.@.@.@.@.@.@.@.@.@.@.@.@.@.@.@.@.@.@.@.@.@.@.@.@.@.@.@.@.@.@.@.@.@.@.@.@.@.@.@.@.@.@.@.@.@.@.@.@.@.@.@.@.@.@.@.",
"@.@.@.@.@.@.@.@.@.@.@.@.@.@.@.@.@.@.@.@.@.@.@.@.@.@.@.@.@.@.@.@.@.@.@.@.@.@.@.@.@.@.@.@.@.@.@.@.@.@.@.@.@.@.@.@.@.@.@.@.@.@.@.@.@.@.",
"@.@.@.@.@.@.@.@.@.@.@.@.@.@.@.@.@.@.@.@.@.@.@.@.@.@.@.@.@.@.@.@.@.@.@.@.@.@.@.@.@.@.@.@.@.@.@.@.@.@.@.@.@.@.@.@.@.@.@.@.@.@.@.@.@.@.",
"@.@.@.@.@.@.@.@.@.@.@.@.@.@.@.@.@.@.@.O.@.@.@.@.@.@.@.@.@.@.@.@.@.@.@.@.@.@.@.@.@.@.@.@.@.@.@.@.@.@.@.@.@.@.@.@.@.@.@.@.@.@.@.@.@.@.",
"@.@.@.@.@.@.@.#.@.@.@.@.@.@.@.@.@.@.@.#.@.@.@.@.@.@.@.@.@.@.@.@.@.@.@.@.@.@.@.@.@.@.@.@.@.@.@.@.@.@.@.@.@.@.@.@.@.@.@.@.@.@.@.@.@.@.",
"@.@.@.@.@.@.@.#.@.@.@.@.@.@.@.@.@.@.p R *.@.@.#.@.@.@.@.@.@.@.@.@.@.@.@.@.@.@.@.@.@.@.@.@.=.j _ @.@.@.@.@.@.@.@.@.@.@.@.@.@.@.@.@.@.",
"@.@.@.@.@.@.@.#.@.@.@.@.@.@.@.@.@.@.0 J S.*.@.#.@.@.@.@.@.@.@.@.@.@.@.@.@.@.@.@.@.@.@.@.=.~ v s @.@.@.@.@.@.@.@.@.@.@.@.@.@.@.@.@.@.",
"@.@.@.@.@.@.@.@.@.@.@.@.@.@.@.@.@.@.5 C V.S.*.X.@.@.@.@.@.@.@.@.@.@.@.@.@.@.@.@.@.@.+.=.A.V.o d @.@.@.@.@.@.@.@.@.@.@.@.@.@.@.@.@.@.",
"@.@.@.@.@.@.@.@.@.@.@.@.@.@.@.@.O.p = C S V.S.S.*.X.@.@.@.@.@.@.@.@.@.@.@.@.@.@.&.=.S.C.D D b + ` @.@.@.@.@.@.@.@.@.@.@.@.@.@.@.@.@.",
"@.@.@.@.@.@.@.@.@.@.@.@.@.@.@.@.@.e o V A S G V.G.S.*.*.*.*.*.*.*.*.*.*.*.*.*.=.S.F.V.D A A b . [ O.O.O.@.@.@.@.@.@.@.@.@.@.@.@.@.@.",
"@.@.@.@.@.@.@.@.@.@.@.@.@.@.@.@.O.u X V A A A G C.J.G.F.C.C.C.C.C.C.Z.Z.C.C.C.G.G.G Z A A A b . [ O.@.@.@.@.@.@.@.@.@.@.@.@.@.@.@.@.",
"@.@.@.@.@.@.@.@.@.@.O.o.O.o.o.@.O.u o V A Z Z A K V.K A S Z A A Z S A A A A A L V.J D A A A m X [ @.@.@.@.@.@.@.@.@.@.@.@.@.@.@.@.@.",
"@.@.@.@.@.@.@.@.O.O.] e ` _ ` O.O.u o v Z V F G K A A A S S A A A A A A D A A D A J A V A A b . [ @.@.@.@.@.@.@.@.@.@.@.@.@.@.@.@.@.",
"@.@.@.@.@.@.@.@.@.o._ ` e ` _ o.O.u @ c c J J S A A A A A A A A A A A A A A A A A A A F V C c X [ o.@.@.@.@.@.@.@.@.@.o.@.@.@.@.@.@.",
"@.@.@.@.@.@.@.@.@.O.o.o.o.o.o.@.O.u @ c c V.F A A A A A A A A Z A A A A A A A A A A G J F c c X [ O.@.@.@.@.@.O.o.O.o.o.@.@.@.@.@.@.",
"@.@.@.@.@.@.@.@.@.@.@.@.@.@.@.@.@. .7 $ J J A A A A A A V.V.F.F.F.C.C.F.G.H A Z A A A F L c @ y o.@.@.@.@.@.o.` _ ` _ ` @.@.@.@.@.@.",
"@.@.@.@.@.@.@.@.@.@.@.@.@.@.@.@.@.@.9 . Z A A A A G K A.) a.s.s.s.s.a.a.s.^ G.H D A A D J Z . s @.@.@.@.@.@.o._ ` e ` _ o.@.@.@.@.@.",
"o.O.o.O.@.@.@.@.@.@.@.@.O.o.O.@.@...9 v A A A D H D.) s.y.y.y.y.y.y.y.y.y.y.p.D.A.G A A D A & i O.@.@.@.@.@.O.o.o.o.@.o.o.@.o.o.o.o.",
"e ` r ] O.@.@.@.@.@.@.O.] r ] o.@.d , Z A A A H ) s.p.p.g.l.z.l.z.z.l.l.u.y.y.y.p.D.G A A A A + ` @.@.@.@.@.@.@.@.@.@.@.@.] _ ` r ] ",
"] r ` r o.@.O.O.@.@.@.o.r ` r +...9 b Z A A H H.y.u.g.z.(. X.X X X X.X.X!.z.g.y.y.s.A.A A A A c u ] @.@.@.@.@.@.@.@.@.@.] _ ` e ` e ",
"O.o.O.o.O.O.o.O.o.O.@.O.o.O.o.+.0 v S S D A G G.p.u.!..X.XT.M.]..X.X).M.(..XB.m.u.p.F.A A A A A = 8 o.@.@.@.@.@.@.@.@.@.o.o.o.o.O.o.",
"O.O.@.@.O.] e ` _ ` O.@.@.@.O.0 v S Z S S A E ) B.R..X.X.Xh.r._..X.X^.r.B..X.X.XT.x.^ v Z S A A C 1 y +.@.@.@.@.@.@.@.@.@.@.@.@.@.@.",
"@.O.@.@.o._ ` _ ` _ o.@.O.o.5 o m S S S A n 0.T.XX_.t.B..X.X.X.X.X.X X@X@X.Xh.y.).[.M.R v A A S Z m , y @.@.@.@.@.@.@.@.@.@.@.@.@.@.",
"@.@.@.@.o.o.O.o.o.o.O.@.@.o.u . $ v C Z Z , 0.].XXoXd.;.;.Q..X.X.X.X@X@XP.w.;.k.#XXX).( $ S S m v o * a @.@.@.@.@.@.@.@.@.@.@.@.@.@.",
"@.@.@.@.O.@.O.@.O.O.O.@.@.@.o._ q . % v v % 4 l. X X+Xn.8 ;.b.`..X.X/.b.-.$.I.+XXX'.f.2 % v v O o u _ +.@.@.@.@.@.@.@.@.@.@.@.@.@.@.",
"@.@.@.@.@.@.@.@.@.@.@.#.@.@.@.@.o._ 5 o % & % j x. XXX|.~.~./.|.#X#X X/.~.~. XXX].p.2 $ c $ + u { +.@.@.@.@.@.@.@.@.@.@.@.@.@.@.@.@.",
"@.@.@.@.@.@.@.@.@.@.@.@.@.@.@.@.#.@.o.{ 7 * * * k j.Q.|..X.XXX_.4.r..X.X.X.X).Q.p.h * * * 9 { ..@.@.@.@.@.@.@.@.@.@.@.@.@.@.@.@.@.@.",
"@.@.@.@.@.@.@.@.@.@.@.@.@.@.@.@.@.@.@.@...' ...._ : > ( Y.E.Y.Y.P.U.E.E.E.E.R > 7 {  . . .@.O.@.@.@.@.@.@.@.@.@.@.@.@.@.@.@.@.@.@.@.",
"@.@.@.@.@.@.@.@.@.@.@.@.@.@.#.@.@.@.@.@.@.@.@.@...0 @ $ 1 B N , 3 2 = N B > $ # i @.@.@.O.@.@.@.@.@.@.@.@.@.@.@.@.@.@.@.@.@.@.@.@.@.",
"@.@.@.@.@.@.@.@.@.@.@.@.@.@.@.@.@.@.@.@.@.@.@.+.y X c , U L.U 7 7.6.N U L.P , c + a @.@.@.@.@.@.@.q.q.#.@.@.@.@.@.@.@.@.@.@.@.@.@.@.",
"@.@.@.@.@.@.@.@.@.@.@.@.@.@.@.@.@.@.@.@.@.@.@._ + c c % P I P T r.7.T P I P % c & = ..@.@.O.O.e.v.+X+Xv.@.@.@.@.@.@.@.@.@.@.@.@.@.@.",
"@.@.@.@.@.@.@.@.@.@.@.@.@.@.@.@.@.@.@.@.@.@.+.5 v m v v 1 N W t.B.m.7.T N , c m m < y @.@.@.,.!.XX[.R.M.@.@.@.@.@.@.@.@.@.@.@.@.@.@.",
"@.@.@.@.@.@.@.@.@.@.@.@.@.@.@.@.@.@.@.@.#.#...= C A C v # W 0.R. X XE.7.j % v A A M ; @.@.,.M.]..XN.1.,.@.@.@.@.@.@.@.@.@.@.@.@.@.@.",
"@.@.@.@.@.@.@.@.@.@.@.@.@.@.@.@.@.@.@.@.@.+.7 M Z A A v l 9.R. X.X.X].B.7.4 m A A Z v 9 ' >.h.z.q.<.@.@.@.@.@.@.@.@.@.@.@.@.@.@.@.@.",
"@.@.@.@.@.@.@.@.@.@.@.@.@.@.@.@.@.@.@.@.@.] - C S A v l 9.T. X.X.X.X.X XB.8.3 V A A M - x 9./ ,.#.@.@.@.@.@.@.@.@.@.@.@.@.@.@.@.@.@.",
"@.@.@.@.@.@.@.@.@.@.@.@.@.@.@.@.@.@.@.@.@.6 M Z A A v W R. X.X.X.X.X.X.X[.B.4 m A A Z v k >.| @.#.#.@.@.@.@.@.@.@.@.@.@.@.@.@.@.@.@.",
"@.@.@.@.@.@.@.@.@.@.@.@.@.@.@.@.@.@.@.@.@.; M S S Z n i.'. X.X.X.X.X.X.X[.'.! M A A Z m ; | ..@.@.#.@.@.@.@.@.@.@.@...@.] O.@.@.@.@.",
"@.O.o.o.@.o.o.@.@.@.@.@.@.@.@.@.@.@.@.@._ - C S S m Q [.B.(..XXX_.'.XX.XT.!.].Y M A A M : ' @.@.#.@.@.@.@.@.@.@.O.] r ` r ] @.@.@.@.",
"@.@.` _ ` _ ] @.@.@.@.@.@.@.@.@.@.@.@.@.  , V S Z m ! .XB.m.].#Xl.x.$X).z.W..XY m S S C @ 0 @.@.@.@.@.@.@.@.@.@.] r ` r ` r o.@.@.@.",
"@.o.e ` _ ` _ ] @.@.@.@.@.@.@.@.@.@.@._ - % Z S A m ! .XR./ Q.$X7.p.$Xx.4.)..XY M A A C % 7 { @.@.@.@.@.@.@.@.@.O.o.O.o.O.o.O.@.@.@.",
"@.O.o.o.o.o.o.o.@.@.@.@.@.@.@.@.@.@.@.7 # v Z Z Z m ! .X.X9.f.}.z / OXp.l..X.XY C S A C c @ u @.@.@.@.@.@.@.@.@.@.@.@.@.@.@.@.@.@.@.",
"@.@.@.@.@.@.@.@.@.@.@.@.@.@.@.@.@.@.@.h v S A S M 2 f.XX.X).8.6.w z 8.y.)..X.X5.1 Z A A A c : } @.O.O.@.@.@.@.@.@.@.@.@.@.O.@.@.@.@.",
"@.@.@.@.@.@.@.@.@.@.@.@.@.@.@.@.@.@.d 1 Z A m Z m 3 m..X.X.X(.9.2.2.y.)..X.X.Xj.< C Z m A A v : ` X.O.@.@.@.@.@.@.@.O.O.O.O.@.@.@.@.",
"@.@.@.@.o.o.@.o.@.@.@.@.@.@.@.@.O.a > C S Z C Z m 3 B..X.X.X.X).).).]..X.X.X.Xj.< C A C A A Z # a t ] O.@.@.@.@.@.@.O.] r ] O.@.@.@.",
"@.@.@.O.` _ ] o.@.@.@.@.@.@.@.@._ > m C A Z A S m 3 B..X.X.X.X.X.XXX.X.X.X.X.Xj.< C A A A A V V = t e O.@.@.@.O.@.@.O.r ` r o.@.@.O.",
"@.@.@.o._ ` _ o.@.@.@.O.@.@.@.o.y % S Z A b A Z m 4 B..X.X.X.X.X.X.X.X.X.X.X.Xj.< C A C m Z Z A # s ] O.O.O.O.] O.@.O.O.O.] O.O.] o.",
"o.O.@.O.o.o.o.O.O.o.o.` O.@.O.` + b S A Z Z A D m 2 k..X.X.X.XXXXX@XXX.X.X.X.X0.n Z A A Z Z A A v *  .O.] r ` r ] O.O.@.@.@.O.] _ ] ",
"e ` o.@.O.@.@.O.] _ ` _ ] @.O._ & Z A A c Z Z A C $ ! .X.X.X.XoXoXoXoX.X.X.X.XY & A A A C m Z Z C =  ...r ` r ` r O.@.@.@.@.O.r ` e ",
"o._ o.O.@.@.@.o._ ` e ` _ o.#._ @ c C c c m V V m $ W _..X.X(.8.2.>.9.)..X.X).4 & m Z M v c m C & >  .@.O.O.] O.] O.@.@.@.@.O.] o.o.",
"O.O.@.@.@.@.@.@.` O.o.O.o.O.@.` 5 7 o o & c c c c % k z.W.B.2.g g f g 0.T.B.z.4 $ c c c c $ @ @ 7 q +.@.@.@.@.@.@.@.@.@.@.@.@.@.@.@.",
"@.@.@.@.@.@.@.@.O.O.@.@.@.@.@.@.@.{ y y = X X X . - w g.{.Q./ X.O.@. .3.Q.{.8.i = . . @ . : y y ..@.@.@.@.@.@.@.@.@.@.@.@.@.@.@.@.@.",
"@.@.@.@.@.@.@.@.O.@.@.@.@.@.@.@.@.@.@.@._ a a s a [ X.:.0.6.| #.@.#.@.%.6.6.%.{ s s a s a { @.@.O.#.@.@.@.@.@.@.@.@.@.@.@.@.@.@.@.@.",
"@.@.@.@.@.@.@.@.@.@.@.@.@.@.@.@.@.@.@.@.@.@.@.@.@.@.O.O.X.@.O.@.#.@.@.O. .e ` t ] O.O.O.#.#.@.@.@.O.@.@.@.@.@.@.@.@.@.@.@.@.@.@.@.@.",
"@.@.@.@.@.@.@.@.@.@.@.@.@.@.@.@.@.@.@.@.@.@.@.@.@.@.@.@.@.@.@.@.@.@.O.O.r ` r ` r o.@.#.@.@.@.@.@.@.@.@.@.@.@.@.@.@.@.@.@.@.@.@.@.@.",
"@.@.@.@.@.@.@.@.@.@.@.@.@.@.@.@.@.@.@.@.@.@.@.@.@.@.@.@.@.@.@.@.@.@.@.O.X.O.] O.o.O.@.@.@.@.@.@.@.@.@.@.@.@.@.@.@.@.@.@.@.@.@.@.@.@.",
"@.@.@.@.@.@.@.@.@.@.@.@.@.@.@.@.@.@.@.@.@.@.@.@.@.@.@.@.@.@.@.@.@.@.@.@.@.@.O.O.@.@.@.@.@.@.@.@.@.@.#.@.@.@.@.@.@.@.@.@.@.@.@.@.@.@.",
"@.@.@.@.@.@.@.@.@.@.@.@.@.@.@.@.@.@.@.@.@.@.@.@.@.@.@.@.@.@.@.@.@.@.@.@.@.@.@.@.@.@.@.@.@.@.@.@.@.@.@.@.@.@.@.@.@.@.@.@.@.@.@.@.@.@.",
"@.@.@.@.@.@.@.@.@.@.@.@.@.@.@.@.@.@.@.@.@.@.@.@.@.O.] o.o.@.@.@.@.@.@.@.@.@.O.o.@.@.@.@.@.@.@.@.@.@.@.@.@.@.@.@.@.@.@.@.@.@.@.@.@.@.",
"@.@.@.@.@.@.@.@.@.@.@.@.@.@.@.@.@.@.@.@.@.@.@.@.@.o._ ` e o.@.@.@.@.@.@.@.@.o.e o.@.@.@.@.@.@.@.@.@.@.@.@.@.@.@.@.@.@.@.@.@.@.@.@.@."
};
