/* XPM */
static char *_1831d4fbafb42fc80cd5b7b56185603HM8qIBy12wOKmqaG[] = {
/* columns rows colors chars-per-pixel */
"66 66 201 2 ",
"   c #2D321F",
".  c #1B1426",
"X  c #1E152B",
"o  c #1F1731",
"O  c #221C2A",
"+  c #221635",
"@  c #251C34",
"#  c #251739",
"$  c #261A3C",
"%  c #281C3E",
"&  c #1E2335",
"*  c #2A2C24",
"=  c #282628",
"-  c #352E23",
";  c #2E3321",
":  c #2F3229",
">  c #343B22",
",  c #313429",
"<  c #353B2B",
"1  c #232537",
"2  c #2B2233",
"3  c #2E253D",
"4  c #342A36",
"5  c #24353D",
"6  c #3B3834",
"7  c #3D363D",
"8  c #403F1A",
"9  c #463C37",
"0  c #3A471D",
"q  c #3F501D",
"w  c #394322",
"e  c #40521B",
"r  c #455A1B",
"t  c #685C19",
"y  c #517606",
"u  c #547B07",
"i  c #547A08",
"p  c #4B631A",
"a  c #4D6819",
"s  c #516D19",
"d  c #577816",
"f  c #587816",
"g  c #557319",
"h  c #6B761D",
"j  c #53493B",
"k  c #525230",
"l  c #5B513B",
"z  c #615637",
"x  c #716624",
"c  c #7C7929",
"v  c #7F7E36",
"b  c #2A1C42",
"n  c #2D2145",
"m  c #2B2C41",
"M  c #2E2349",
"N  c #352746",
"B  c #302A41",
"V  c #31244D",
"C  c #33294D",
"Z  c #293A46",
"A  c #342651",
"S  c #362A53",
"D  c #382D57",
"F  c #3A2F5A",
"G  c #3D305E",
"H  c #3E3160",
"J  c #453B52",
"K  c #462E6D",
"L  c #403264",
"P  c #443369",
"I  c #4A386E",
"U  c #4B3474",
"Y  c #4E3B72",
"T  c #4E3679",
"R  c #4F397B",
"E  c #51367E",
"W  c #2C424A",
"Q  c #36454A",
"!  c #334E5D",
"~  c #34525A",
"^  c #395963",
"/  c #575844",
"(  c #6D6242",
")  c #7F774B",
"_  c #6E7855",
"`  c #797457",
"'  c #5A4D6D",
"]  c #59437A",
"[  c #406470",
"{  c #4D7B7B",
"}  c #72626E",
"|  c #847B34",
" . c #857C3C",
".. c #847D4E",
"X. c #867B55",
"o. c #8A7C6F",
"O. c #5D850E",
"+. c #5E8215",
"@. c #65920B",
"#. c #68970C",
"$. c #6B9B0D",
"%. c #638C13",
"&. c #6A8813",
"*. c #728318",
"=. c #669112",
"-. c #6A9512",
";. c #6D9C11",
":. c #739914",
">. c #6FA00E",
",. c #73A50F",
"<. c #6FA011",
"1. c #74A710",
"2. c #7AA71A",
"3. c #7A8828",
"4. c #729629",
"5. c #718D38",
"6. c #719033",
"7. c #7FAE20",
"8. c #708444",
"9. c #82802E",
"0. c #8C843B",
"q. c #91893D",
"w. c #84AA23",
"e. c #82B020",
"r. c #898347",
"t. c #948A45",
"y. c #928A54",
"u. c #9F985D",
"i. c #A89B4F",
"p. c #A59A54",
"a. c #AA9D5A",
"s. c #98BE44",
"d. c #A3B84F",
"f. c #ABA155",
"g. c #ADA25D",
"h. c #ACA85A",
"j. c #B5A75A",
"k. c #B3AB5D",
"l. c #B8AB5E",
"z. c #92916A",
"x. c #9C8870",
"c. c #AE9F60",
"v. c #A3906B",
"b. c #AB9B79",
"n. c #A9A264",
"m. c #A8A268",
"M. c #B2A761",
"N. c #BAAF62",
"B. c #B9B266",
"V. c #B6B67E",
"C. c #C5BC6C",
"Z. c #C8BF6F",
"A. c #C0BE7A",
"S. c #ABCA60",
"D. c #BFC165",
"F. c #CBC372",
"G. c #CBC777",
"H. c #CDC97C",
"J. c #D3CD7B",
"K. c #CAD57D",
"L. c #D5D37E",
"P. c #543B82",
"I. c #5A3D8C",
"U. c #5E3F92",
"Y. c #624884",
"T. c #6A558A",
"R. c #735789",
"E. c #604293",
"W. c #6E4F90",
"Q. c #66459B",
"!. c #795B90",
"~. c #6A45A5",
"^. c #836886",
"/. c #578C88",
"(. c #BFBC80",
"). c #C5C383",
"_. c #CBD789",
"`. c #DAD683",
"'. c #DBDB86",
"]. c #D0CC90",
"[. c #DCD79C",
"{. c #E1DF8A",
"}. c #DAE782",
"|. c #E3E28D",
" X c #E7E893",
".X c #EAEC94",
"XX c #EAEE9C",
"oX c #EEF29A",
"OX c #F2F69D",
"+X c #F5F99F",
"@X c #D9D7A5",
"#X c #E5E7A9",
"$X c #EFF2A1",
"%X c #F6FAA1",
"&X c #FAFFA5",
"*X c #F5F8AD",
"=X c #FAFFAB",
"-X c #E8E7B4",
";X c #FBFFB4",
":X c #F9FEB6",
">X c #FCFFC7",
/* pixels */
"1.1.1.1.1.1.1.1.1.1.1.1.1.1.1.1.1.1.1.1.1.1.1.1.1.1.$.y #.y $.1.1.1.1.1.1.$.y #.y $.1.1.1.1.1.1.1.1.1.1.1.1.1.1.1.1.1.1.1.1.1.1.1.1.",
"1.1.1.1.1.1.1.1.1.1.1.1.1.1.1.1.1.1.1.1.1.1.1.1.1.1.,.>.,.>.,.,.>.,.>.,.1.,.>.,.>.,.,.>.,.>.,.1.1.1.1.1.1.1.1.1.1.1.1.1.1.1.1.1.1.1.",
"1.1.1.1.1.1.1.1.1.1.1.1.1.1.1.1.1.1.1.1.1.1.1.1.1.1.1.1.1.1.,.$.u @.u $.,.1.1.1.1.,.$.u @.u $.,.1.1.1.1.1.1.1.1.1.1.1.1.1.1.1.1.1.1.",
"1.1.1.1.1.1.1.1.1.1.1.1.1.1.1.1.1.1.1.1.1.1.1.1.1.1.1.1.1.1.>.u @.u @.u >.1.1.1.1.>.u @.u @.u >.1.1.1.1.1.1.1.1.1.1.1.1.1.1.1.1.1.1.",
"1.1.1.1.1.1.1.1.1.1.1.1.1.1.1.1.1.1.1.1.1.1.1.1.1.1.1.1.1.1.,.>.,.>.,.>.,.1.1.1.1.,.>.,.>.,.>.,.1.1.1.1.1.1.1.1.1.1.1.1.1.1.1.1.1.1.",
"1.1.1.1.1.1.1.1.1.1.1.1.1.1.1.1.1.1.1.1.1.1.1.1.1.1.1.1.1.1.1.1.1.1.1.1.1.1.1.1.1.1.1.1.1.1.1.1.1.1.1.1.1.1.1.1.1.1.1.1.1.1.1.1.1.1.",
"1.1.1.1.1.1.1.1.1.1.1.1.1.1.1.1.1.1.1.1.1.1.1.1.1.1.1.1.1.1.1.1.1.1.1.1.1.1.1.1.1.1.1.1.1.1.1.1.1.1.1.1.1.1.1.1.1.1.1.1.1.1.1.1.1.1.",
"1.1.1.1.1.1.1.1.1.1.1.1.1.1.1.1.1.1.1.1.1.1.1.1.1.1.1.1.1.1.1.1.1.1.1.1.1.1.1.1.1.1.1.1.1.1.1.1.1.1.1.1.1.1.1.1.1.1.1.1.1.1.1.1.1.1.",
"1.1.1.1.1.1.1.1.1.1.1.1.1.1.1.1.1.1.1.1.1.1.1.1.1.1.1.1.1.1.1.1.1.1.1.1.1.1.1.1.1.1.1.1.1.1.1.1.1.1.1.1.1.1.1.1.1.1.1.1.1.1.1.1.1.1.",
"1.1.1.1.1.1.1.1.1.1.1.1.1.1.1.1.1.1.1.1.1.1.1.1.1.1.1.1.1.1.1.1.1.1.1.1.1.1.1.1.1.1.1.1.1.1.1.1.1.1.1.1.1.1.1.1.1.1.1.1.1.1.1.1.1.1.",
"1.1.1.1.1.1.1.1.1.1.1.1.1.1.1.1.1.1.1.1.1.1.1.1.1.1.1.1.1.1.1.1.1.1.1.1.1.1.1.1.1.1.1.1.1.1.1.1.1.1.1.1.1.1.1.1.1.1.1.1.1.1.1.1.1.1.",
"1.1.1.1.1.1.1.1.1.1.1.1.1.1.1.1.1.1.1.1.1.1.1.1.1.1.1.1.1.1.1.1.1.1.1.1.1.1.1.1.1.1.1.1.1.1.1.1.1.1.1.1.1.1.1.1.1.1.1.1.1.1.1.1.1.1.",
"1.1.1.1.1.1.1.1.1.1.1.1.1.1.1.1.1.1.e ' 6.1.1.1.1.1.1.1.1.1.1.1.1.1.1.1.1.1.1.1.1.1.1.1.1._ 7 %.1.1.1.1.1.1.1.1.1.1.1.1.1.1.1.1.1.1.",
"1.1.1.1.1.1.1.1.1.1.1.1.1.1.1.1.1.1.0 T T.6.1.1.1.1.1.1.1.1.1.1.1.1.1.1.1.1.1.1.1.1.1.<._ Y + %.1.1.1.1.1.1.1.1.1.1.1.1.1.1.1.1.1.1.",
"1.1.1.1.1.1.1.1.1.1.1.1.1.1.1.1.1.-.> S I.T.5.4.1.1.1.1.1.1.1.1.1.1.1.1.1.1.1.1.1.1.6._ E.U @ s 1.1.1.1.1.1.1.1.1.1.1.1.1.1.1.1.1.1.",
"1.1.1.1.1.1.1.1.1.1.1.1.1.1.1.1.1.e + S G I.E.T.5.4.1.1.1.1.1.1.1.1.1.1.1.1.1.1.6._ Q.R F F M O %.1.1.1.1.1.1.1.1.1.1.1.1.1.1.1.1.1.",
"1.1.1.1.1.1.1.1.1.1.1.1.1.1.1.1.1.e + S F F L I.~.} 8.8.8.8.8.8.8.8.8.8.8.8.8._ Q.I.R F F F n O %.1.1.1.1.1.1.1.1.1.1.1.1.1.1.1.1.1.",
"1.1.1.1.1.1.1.1.1.1.1.1.1.1.1.1.1.e + S F F F L I.~.U.P.P.P.P.P.P.P.P.P.P.P.P.Q.E.G F F F F n O %.1.1.1.1.1.1.1.1.1.1.1.1.1.1.1.1.1.",
"1.1.1.1.1.1.1.1.1.1.,.>.,.>.,.1.1.e + S F F V L P.R P F F F F F F F F F F F F U R R F F F F n O %.1.1.1.1.1.1.1.1.1.1.1.1.1.1.1.1.1.",
"1.1.1.1.1.1.1.1.1.,.$.u @.u $.,.1.e + n S A T H P F F F F F F F F F F F F F F F G P S A F F n O %.1.1.1.1.1.1.1.1.1.1.1.1.1.1.1.1.1.",
"1.1.1.1.1.1.1.1.1.>.u @.u @.u >.1.e + b V E P F F F F F F F F F F F F F F F F F F F P K S V b O %.1.1.1.1.1.1.1.1.1.1.1.1.1.1.1.1.1.",
"1.1.1.1.1.1.1.1.1.,.>.,.>.,.>.,.1.r @ b V I.H F F F F F G H H H H H H H H F F F F F G T K b % = =.1.1.1.1.1.1.,.>.,.>.,.1.1.1.1.1.1.",
"1.1.1.1.1.1.1.1.1.1.1.1.1.1.1.1.1.;.> # T P F F F F G L Y.W.W.W.W.W.W.W.W.Y L F F F F U U b X d 1.1.1.1.1.1.,.$.u @.u $.,.1.1.1.1.1.",
"1.1.1.1.1.1.1.1.1.1.1.1.1.1.1.1.1.1.0 X S F F F G P ] R.v.c.c.c.c.c.c.c.c.^.W.I L F F F T A . %.1.1.1.1.1.1.>.u @.u @.u >.1.1.1.1.1.",
"$.,.>.,.1.1.1.1.1.1.1.1.,.>.,.1.1.=.< C F F F G ] !.x.j.j.j.j.j.j.j.j.j.j.j.a.^.R.P F F F F % s 1.1.1.1.1.1.,.>.,.>.,.>.,.,.>.,.>.,.",
"y @.u $.,.1.1.1.1.1.1.,.$.u $.,.1.e M F F F G ] o.j.j.j.Z.F.F.F.F.F.F.F.N.j.j.j.c.R.P F F F F O %.1.1.1.1.1.1.1.1.1.1.1.,.$.u @.u $.",
"$.u @.u >.1.1.1.1.1.1.>.u @.u >.%.< C F F F P !.j.j.C.J.OX&X&X&X&X&X&X&X{.J.N.j.j.v.I.F F F F 3 p <.1.1.1.1.1.1.1.1.1.1.>.u @.u @.y ",
",.>.,.>.,.,.>.,.>.,.1.,.>.,.>.%.< C F F F F P !.j.C..X&X&XB.k.OX&X&X`.f.'.&X{.L.l.v.I.F F F F F B r 1.1.1.1.1.1.1.1.1.1.,.>.,.>.,.$.",
"1.1.1.1.,.$.u @.u $.,.1.1.1.%.< C F F F F J X.b.|..X&X&X&XJ.H.%X&X&X|.F. X&X&X%X|.].} n F F F F D B r 1.1.1.1.1.1.1.1.1.1.1.1.1.1.1.",
"1.1.1.1.>.u @.u @.u >.1.1.=.; $ V F F F D 4 M..X&X&X&X&X&X&X&X&X&X&X&X&X&X&X&X&X&X%XH./ n F F F D n @ r 1.1.1.1.1.1.1.1.1.1.1.1.1.1.",
"1.1.1.1.,.>.,.>.,.>.,.1.1.1.s O @ b S F S 4 n.+X&X&X'.|.oXoX+X&X&X&X&XOXoXoXJ.OX&X&X'.( b F F M b O ; =.1.1.1.1.1.1.1.1.1.1.1.1.1.1.",
"1.1.1.1.1.1.1.1.1.1.1.1.1.1.1.=.p = @ b b % 9 B.+X&X+Xh.0.q.Z.%X=X=X|.f.0.0.'.&X&X|...2 b b b = ; +.-.1.1.1.1.1.1.1.1.1.1.1.1.1.1.1.",
"1.1.1.1.1.1.1.1.1.1.1.1.1.1.1.1.1.-.q * @ # @ 9 B.OX&XOX.X.XOX%X#X#X%XoX.X.X%X&X|...O # $ = * +.;.1.1.1.1.1.1.1.1.1.1.1.1.1.1.1.1.1.",
"1.1.1.1.1.1.1.1.1.1.1.1.1.1.1.1.1.1.1.;.0 ; ; ; k m.).XX&X&X&X Xt.h.&X&X&X&X].(...>   ; ; d 1.1.1.1.1.1.1.1.1.1.1.1.1.1.1.1.1.1.1.1.",
"1.1.1.1.1.1.1.1.1.1.1.1.1.1.1.1.1.1.1.1.1.1.1.1.+.* . X.V.V.V.V.V.V.V.V.V.V.7 . 0 1.1.1.1.1.1.1.1.1.1.1.1.1.1.1.1.1.1.1.1.1.1.1.1.1.",
"1.1.1.1.1.1.1.1.1.1.1.1.1.1.1.1.1.1.1.1.1.1.1.1.=.w # o Z Q m 2 j 9 & Z Q 1 # O s 1.1.1.1.s.S.e.1.1.1.1.1.1.1.1.1.1.1.1.1.1.1.1.1.1.",
"1.1.1.1.1.1.1.1.1.1.1.1.1.1.1.1.1.1.1.1.1.1.1.=.w # b 1 { { ! Q g.r.Z [ /.W % % 2 a 1.1.s.#X;XK.7.1.1.1.1.1.1.1.1.1.1.1.1.1.1.1.1.1.",
"1.1.1.1.1.1.1.1.1.1.1.1.1.1.1.1.1.1.1.1.1.1.1.+.X b b 1 ~ ! W ) j.p./ W ^ Z % b $ ; 1.1.d.H.oX=X_.2.1.1.1.1.1.1.1.1.1.1.1.1.1.1.1.1.",
"1.1.1.1.1.1.1.1.1.1.1.1.1.1.1.1.1.1.1.1.1.1.=., V S M % 1 5 ..N.|.`.p./ 5 1 b A S B r 1.2.w.}.&XoXe.1.1.1.1.1.1.1.1.1.1.1.1.1.1.1.1.",
"1.1.1.1.1.1.1.1.1.1.1.1.1.1.1.1.1.1.1.1.1.1.+.@ F F D n @ ) N. X&X%XL.p.j # A F F C > 1.1.*.L.OXD.2.1.1.1.1.1.1.1.1.1.1.1.1.1.1.1.1.",
"1.1.1.1.1.1.1.1.1.1.1.1.1.1.1.1.1.1.1.1.1.-.: S F F D 3 ) N. X&X&X&X+XJ.p.9 C F F F B r *.q.`.D.w.1.1.1.1.1.1.1.1.1.1.1.1.1.1.1.1.1.",
"1.1.1.1.1.1.1.1.1.1.1.1.1.1.1.1.1.1.1.1.1.+.2 F F F b ( N. X&X&X&X&X&X%XJ.a.4 S F F V - | i.9.:.1.1.1.1.1.1.1.1.1.1.1.1.1.1.1.1.1.1.",
"1.1.1.1.1.1.1.1.1.1.1.1.1.1.1.1.1.1.1.1.;.* S F F F % X. X&X&X&X&X&X&X&X%XG.6 S F F F n z c -.1.1.1.1.1.1.1.1.1.1.1.1.1.1.1.1.1.1.1.",
"1.1.1.1.1.1.1.1.1.1.1.1.1.1.1.1.1.1.1.1.;.= D F F S J )..X%X&X&X&X&X&X&X.XOX` C F F F n 8 -.1.1.1.1.1.1.1.1.1.1.1.,.>.,.>.,.1.1.1.1.",
"1.1.,.>.,.>.,.1.1.1.1.1.1.1.1.1.1.1.1.1.g 2 D F F n z.&XZ..X&X*X{. X;X&XG. XXX7 D F F n w =.1.1.1.1.1.1.1.1.1.1.,.$.u @.u $.,.1.1.1.",
"1.,.$.u @.u $.,.1.1.1.1.1.1.1.1.1.1.1.1.* b F F F n z.&XZ.N.$X-Xl.).>XL.j. XXX7 D F F A + s 1.1.1.1.1.1.1.1.1.1.>.u @.u @.u >.1.1.1.",
"1.>.u @.u @.u >.1.1.1.1.1.1.1.1.1.1.1.p 2 b F F F n z.&X|.| #X-X| n.>Xn.k.OXXX7 D F F A # > %.1.1.1.1.1.1.1.1.1.,.>.,.>.,.>.,.1.1.1.",
"1.,.>.,.>.,.>.,.1.1.1.1.1.1.1.1.1.1.1.; $ S F F F n z.&X&Xh.u.@Xt y.].t.`.&XXX7 D F F D M X f 1.1.1.1.1.1.1.1.1.1.1.1.1.1.1.1.1.1.1.",
"1.1.1.1.1.1.1.1.1.1.1.1.1.1.1.1.1.1.1.6 V F F F V j H.&X&X Xf. .t x t.F.+X&XOXy.3 F F F D b : %.1.1.1.1.1.1.1.1.1.1.1.1.1.1.1.1.1.1.",
"1.1.1.1.1.1.1.1.1.1.1.1.1.1.1.1.1.;.e C F D V F M l `.&X&X&X Xj.f.f.F.+X&X&X%Xg.2 D S V F D S : =.>.,.1.1.1.1.1.1.1.1.,.>.,.1.1.1.1.",
"1.1.1.1.,.>.,.1.1.1.1.1.1.1.1.1.;.e n D F F D F M l `.&X&X&X&XOXOXOX+X&X&X&X%Xg.2 D F F F F D @ s i $.,.1.1.1.1.1.1.,.$.u $.,.1.1.1.",
"1.1.1.,.$.u $.,.1.1.1.1.1.1.1.1.a 3 V S F D F F M l `.&X&X&X&X&X&X&X&X&X&X&X%Xg.2 D F F D F V S = O.u >.1.1.1.1.1.1.>.u @.u >.1.1.1.",
"1.1.1.>.u @.u >.1.1.1.1.1.1.1.-.q n F F F V F F M l `.&X&X&X&X&X&X&X&X&X&X&X%Xg.3 F F S S F F D 2 d $.,.,.>.,.>.,.1.,.>.,.>.,.,.>.,.",
"$.,.1.,.>.,.>.,.,.>.,.>.,.1.1.d + S F F S F F F V 9 A.&X&X&X&X;X;X;X=X&X&X&XOXX.N F F F S D F F M * ;.,.$.u @.u $.,.1.1.1.1.,.$.u $.",
"y $.,.1.1.1.1.,.$.u @.u $.,.1.g % S F A b D F F S + z.&X&X&X%X[.[.[.#X&X&X&XXX7 b F F F V M D F V : ;.>.u @.u @.u >.1.1.1.1.>.u @.y ",
"$.u >.1.1.1.1.>.u @.u @.u >.1.g o % V b b M V V M + ` .X&X%XG.0.| | p. X&X&XH.4 % V V V b b M M + : ;.,.>.,.>.,.>.,.1.1.1.1.,.>.,.$.",
",.>.,.1.1.1.1.,.>.,.>.,.>.,.1.-.d > X X $ b b b b + ( C.F.Z.| &.&.&.*.p.F.F.g.4 % b b b b + X O a f 1.1.1.1.1.1.1.1.1.1.1.1.1.1.1.1.",
"1.1.1.1.1.1.1.1.1.1.1.1.1.1.1.1.1.=.+.f * X X X X w h (.-X@Xc ;.1.1.&.m.-X#Xr.g = X X X X r +.+.1.1.1.1.1.1.1.1.1.1.1.1.1.1.1.1.1.1.",
"1.1.1.1.1.1.1.1.1.1.1.1.1.1.1.1.1.1.1.1.%.%.%.%.%.-.;.3.| v :.1.1.,.,.3.| v :.$.%.%.%.%.%.;.1.1.1.1.1.1.1.1.1.1.1.1.1.1.1.1.1.1.1.1.",
"1.1.1.1.1.1.1.1.1.1.1.1.1.1.1.1.1.1.1.1.1.1.1.1.1.1.1.1.1.1.1.1.1.,.,.,.#.i @.u $.,.1.1.1.1.1.1.1.1.1.1.1.1.1.1.1.1.1.1.1.1.1.1.1.1.",
"1.1.1.1.1.1.1.1.1.1.1.1.1.1.1.1.1.1.1.1.1.1.1.1.1.1.1.1.1.1.1.1.1.1.1.>.u @.u @.u >.1.1.1.1.1.1.1.1.1.1.1.1.1.1.1.1.1.1.1.1.1.1.1.1.",
"1.1.1.1.1.1.1.1.1.1.1.1.1.1.1.1.1.1.1.1.1.1.1.1.1.1.1.1.1.1.1.1.1.1.1.,.$.,.>.,.>.,.1.1.1.1.1.1.1.1.1.1.1.1.1.1.1.1.1.1.1.1.1.1.1.1.",
"1.1.1.1.1.1.1.1.1.1.1.1.1.1.1.1.1.1.1.1.1.1.1.1.1.1.1.1.1.1.1.1.1.1.1.1.1.1.1.1.1.1.1.1.1.1.1.1.1.1.1.1.1.1.1.1.1.1.1.1.1.1.1.1.1.1.",
"1.1.1.1.1.1.1.1.1.1.1.1.1.1.1.1.1.1.1.1.1.1.1.1.1.1.1.1.1.1.1.1.1.1.1.1.1.1.1.1.1.1.1.1.1.1.1.1.1.1.1.1.1.1.1.1.1.1.1.1.1.1.1.1.1.1.",
"1.1.1.1.1.1.1.1.1.1.1.1.1.1.1.1.1.1.1.1.1.1.1.1.1.,.>.,.>.,.1.1.1.1.1.1.1.1.,.>.,.1.1.1.1.1.1.1.1.1.1.1.1.1.1.1.1.1.1.1.1.1.1.1.1.1.",
"1.1.1.1.1.1.1.1.1.1.1.1.1.1.1.1.1.1.1.1.1.1.1.1.1.$.y #.y $.1.1.1.1.1.1.1.1.$.y $.1.1.1.1.1.1.1.1.1.1.1.1.1.1.1.1.1.1.1.1.1.1.1.1.1."
};
