/* XPM */
static char *_28483e4c53244b9c049a979b4be330eOJLDBeIrbip9ATDF[] = {
/* columns rows colors chars-per-pixel */
"61 61 173 2 ",
"   c None",
".  c #0C0813",
"X  c #100B1A",
"o  c #17111B",
"O  c #251D1E",
"+  c #160E22",
"@  c #181026",
"#  c #1C122B",
"$  c #1F1530",
"%  c #221A28",
"&  c #201532",
"*  c #211833",
"=  c #261A3B",
"-  c #281D3F",
";  c #1D2634",
":  c #1F303C",
">  c #332A2A",
",  c #2C2037",
"<  c #23233B",
"1  c #222D3D",
"2  c #362B37",
"3  c #3D3537",
"4  c #21333F",
"5  c #463D0E",
"6  c #443A33",
"7  c #346C29",
"8  c #564D1C",
"9  c #5C521B",
"0  c #625717",
"q  c #4A413C",
"w  c #514730",
"e  c #655B22",
"r  c #766A24",
"t  c #686131",
"y  c #756B2B",
"u  c #2B1C42",
"i  c #2E2046",
"p  c #2F2148",
"a  c #31254C",
"s  c #32284E",
"d  c #233642",
"f  c #2B3F4C",
"g  c #362A54",
"h  c #382D56",
"j  c #3A255A",
"k  c #3A2F5A",
"l  c #382456",
"z  c #3D305F",
"x  c #2C3F51",
"c  c #433C41",
"v  c #423367",
"b  c #45346B",
"n  c #48356F",
"m  c #4D3577",
"M  c #50347C",
"N  c #50397D",
"B  c #482F70",
"V  c #3F4942",
"C  c #2B4151",
"Z  c #2F4A53",
"A  c #334A5D",
"S  c #324E56",
"D  c #355263",
"F  c #3E616F",
"G  c #4E4A44",
"H  c #484B48",
"J  c #585349",
"K  c #51554A",
"L  c #53524F",
"P  c #655B42",
"I  c #6F6345",
"U  c #6E6D49",
"Y  c #786E57",
"T  c #71714D",
"R  c #4C787A",
"E  c #42676F",
"W  c #887C4B",
"Q  c #867E58",
"!  c #8F7877",
"~  c #3E8031",
"^  c #4D9D3D",
"/  c #49853B",
"(  c #58A941",
")  c #5EB747",
"_  c #6DB159",
"`  c #50807C",
"'  c #69C355",
"]  c #7AC963",
"[  c #878037",
"{  c #8D8139",
"}  c #888037",
"|  c #8A8244",
" . c #8C854D",
".. c #988D47",
"X. c #8F8854",
"o. c #988C56",
"O. c #9B9254",
"+. c #9F965C",
"@. c #979154",
"#. c #879643",
"$. c #A2944A",
"%. c #A6994E",
"&. c #AA9D56",
"*. c #83B558",
"=. c #A8A456",
"-. c #ADA55A",
";. c #B5A75A",
":. c #B8AD5F",
">. c #888973",
",. c #94936D",
"<. c #A28E6C",
"1. c #A89667",
"2. c #ABA56A",
"3. c #B5AD6F",
"4. c #C5BC6B",
"5. c #C1B667",
"6. c #C7BD78",
"7. c #C6BD70",
"8. c #83CD64",
"9. c #A7DC7E",
"0. c #C9C06F",
"q. c #CDC67E",
"w. c #D5D07D",
"e. c #543B82",
"r. c #573988",
"t. c #583989",
"y. c #5C3F90",
"u. c #5E4092",
"i. c #725688",
"p. c #604095",
"a. c #624099",
"s. c #4E7C81",
"d. c #7F6190",
"f. c #6A45A5",
"g. c #558886",
"h. c #B9BB80",
"j. c #C4BF89",
"k. c #AED288",
"l. c #B4E196",
"z. c #BFC0A1",
"x. c #C8C789",
"c. c #CBD888",
"v. c #D5D383",
"b. c #DAD682",
"n. c #D9DB86",
"m. c #D8D98C",
"M. c #D1CF9A",
"N. c #D5CF88",
"B. c #CFE78B",
"V. c #DFE18B",
"C. c #D4EF8F",
"Z. c #DDF396",
"A. c #E6E690",
"S. c #EAEA93",
"D. c #EEEF98",
"F. c #EFF39B",
"G. c #EFFA9F",
"H. c #E0E08B",
"J. c #DAD8A8",
"K. c #DAF1AE",
"L. c #EBEDAE",
"P. c #F5F9A0",
"I. c #FAFFA5",
"U. c #FBFFAD",
"Y. c #EBE9B7",
"T. c #E5E4B2",
"R. c #FBFFB1",
"E. c #FCFFBF",
"W. c #F0FAB2",
"Q. c #E8F7AD",
"!. c #FCFFCA",
"~. c #F2F3C0",
"^. c #FDFFD3",
/* pixels */
"                                                                                                                          ",
"                                                                                                                          ",
"                                                                                                                          ",
"                                                                                                                          ",
"                            M j                                                         M j                               ",
"                            B a.j                                                     r.t.#                               ",
"                            j f.a.M j                                               r.a.k X                               ",
"                            a e.f.f.a.j                                         M r.f.y.a X                               ",
"                          @ a z N f.f.a.j                                     r.f.y.b b g $ .                             ",
"                          $ u k z b N f.a.M j                             M r.f.p.v k k g = X                             ",
"                          # a k h z z N f.f.a.M M M M M M M M M N M M N r.f.a.b b k k k g & X                             ",
"                          # p k z h z z N f.u.b b b b b b n b b b b b b N f.y.k k k k k g = X                             ",
"                          # u k h g a b e.b v z z k k k k k k k k k k h z b M e.k k k k g = X                             ",
"                          # u a g k M z v z z h k k k k k k k k k k z h k k z b g a k k g = X                             ",
"                          # u u k e.v z z h k k k k k k k k k k k k z k k k k k v m a g u = X                             ",
"                          # u u j u.h z k k k k k k k k k k k k h z h k k k k k k M M u u = X                             ",
"                            & l e.v k k z h z z v u.u.u.u.u.u.u.p.u.N z h z z h z b e.u = X                               ",
"                            @ - v k k k h z v u.i.<.<.<.1.<.<.<.<.<.! p.N h h z h z N B # X                               ",
"                            & s k k k k b u.i.<.1.;.;.;.;.;.;.;.;.;.;.<.! u.e.z h z z z u X                               ",
"                          # s k k k k b i.<.1.;.;.;.;.;.;.;.;.;.;.;.;.;.;.<.! e.h h z z k < .                             ",
"                          * k k k k b i.1.;.;.;.4.S.A.S.S.A.S.S.S.w.;.;.;.;.1.! e.z k k k a X                             ",
"                        # g k k k k B d.;.;.4.A.D.I.I.I.I.I.I.I.I.I.S.b.;.;.;.<.u.h k k z h i .                           ",
"                      # g h k k k j n d.;.4.D.I.I.n.[ =.I.I.I.n.} =.I.P.S.w.;.<.u.k k k h z g < .                         ",
"                    # s k k k k k L <.3.A.D.I.I.I.F.w.V.I.I.I.F.w.H.I.I.I.I.S.N.Y < k k z h h h u .                       ",
"                  @ - a h k k k g 6 4.D.I.m.{ #.8.9.E.G.I.I.I.I.R.K.8.*.[ =.P.P.v.I - k k k k g u $ .                     ",
"                    & & i a k k s 6 7.I.U.~.k.( ( / k.E.I.I.I.U.K._ ~ ) _ T.!.I.A.W * k k g p - # @                       ",
"                        # * i u u , P w.U.U.W.l.^ 7 ' 9.I.I.I.Z.] ^ 7 ] Q.R.U.S.+.2 = u p u # +                           ",
"                            & & u - , P w.I.I.Q.B.c.C.Z.U.!.E.G.C.B.c.D.U.I.D.&.2 = u = # +                               ",
"                                # & @ % P v.I.I.I.I.I.I.n.| =.I.I.I.I.U.I.S.&.> @ # # +                                   ",
"                                        % 6 G Q I.I.I.I.F.v.V.I.I.I.I.x.G G , X                                           ",
"                                          + # , G G G G K L K H G G G c & + X                                             ",
"                                            $ u * d A A Z ; d A A x ; = = X                                               ",
"                                          @ = - f ` R D H X.T Z E g.F ; = & .                                             ",
"                                        @ = u < Z g.E C q ;. .: D s.R 1 u - & .                                           ",
"                                        # u u - 4 D x V O.;.&.T d S Z ; - u = X                                           ",
"                                      # s g a u < : V @.4.S.b.&.U : 1 - i g s < .           z.M.M.>.                      ",
"                                      $ k k k s = 3 @.4.D.I.P.w.&.U # i h k z a X       @.N.R.R.R.L.>.                    ",
"                                    # g k k k s 3 O.4.D.I.I.I.P.b.&.I = k k h g i .   e :.7.4.4.4.v.L.>.                  ",
"                                    $ k k k s 6 ..4.D.I.I.I.I.I.P.b.&.I - z h z a O e %.$.e       { 7.X.                  ",
"                                  # g k k k a 6 5.D.I.I.I.I.I.I.I.P.v.W * k z h h < w $.9           r 8                   ",
"                                  * k k k k p G D.I.I.I.I.I.I.I.I.I.P.3.* h k k z a > 9                                   ",
"                                  & k k k g H m.S.w.I.I.I.I.I.I.I.S.v.D.,.- k k z a o                                     ",
"                                @ u k k k s J I.A.7.I.U.L.4.N.E.I.A.0.I.3.< k k h g & .                                   ",
"                                # p k k k p J I.A.&.=.U.Y.;.x.!.n...0.I.h.* k k h g = .                                   ",
"                              @ - p k k z a J I.P.4.| !.J.r %.^.M.} F.I.h.* z k k l = & .                                 ",
"                              # u h k k h a J I.I.H...2.M.0  .J.| :.I.I.h.* h z k k s = X                                 ",
"                            @ u g k k k s 6 2.I.I.P.v...y 0 r | :.D.I.I.m.I = k k k h a * .                               ",
"                          @ s h k h a k a 6 0.I.I.I.P.w.$...$.:.D.I.I.I.A.W * k h a k k g < .                             ",
"                        # s z k k h h k a q 0.P.I.I.I.P.S.A.S.D.I.I.I.I.A.W $ z k g k k k h - .                           ",
"                      # s h p k h z k k a 3 0.I.I.I.I.I.I.I.I.I.I.I.I.I.A.W $ z k k k k h a h u .                         ",
"                    @ g z h h k h p z k i 6 0.I.I.I.I.I.I.I.I.I.I.I.I.I.A.W $ z k h a k k g k h - .                       ",
"                  # g g p z z h h h k k a 6 0.I.I.I.I.I.I.I.I.I.I.I.I.I.A. .i h k k l k k k k k h < .                     ",
"                  * k h g k k h a k k k s , T I.I.I.I.U.!.!.!.!.I.I.I.I.x.2 p k k k l a k k k k k a X                     ",
"                    = i a k h u i k k k g = J I.I.I.I.D.6.6.7.v.I.I.I.I.3.$ p k k k g u a k h i u #                       ",
"                      # & a i u u p i i i * q w.I.I.S.;.r r r { w.I.I.S.X.# i i i i u u u p - # X                         ",
"                          # # & u u u u - = 6 :.4.4.-.9         { 4.0.3. .# u u u u u = # # +                             ",
"                                # # # # # +   O.Y.Y.j.5         | Y.Y.x.8   # # # # # +                                   ",
"                                                W { t             | W t                                                   ",
"                                                                                                                          ",
"                                                                                                                          ",
"                                                                                                                          "
};
