/* XPM */
static char *_4d106c02e8a4c7cf08dba466a9b19c0gl09aQKEoUXA3hP4[] = {
/* columns rows colors chars-per-pixel */
"66 66 209 2 ",
"   c #323C1E",
".  c #170F24",
"X  c #1E1A22",
"o  c #1C132C",
"O  c #1F1430",
"+  c #251C2A",
"@  c #211533",
"#  c #251B34",
"$  c #271B38",
"%  c #261A3B",
"&  c #281B3E",
"*  c #292628",
"=  c #2A292B",
"-  c #2E3322",
";  c #2F3129",
":  c #333B23",
">  c #323629",
",  c #282437",
"<  c #352B34",
"1  c #342C3C",
"2  c #26353D",
"3  c #383535",
"4  c #443B37",
"5  c #35401D",
"6  c #39461D",
"7  c #3D4C1D",
"8  c #3F511B",
"9  c #3A4425",
"0  c #3A413B",
"q  c #39772D",
"w  c #42531E",
"e  c #455A1A",
"r  c #4D6E0B",
"t  c #517606",
"y  c #547B07",
"u  c #567708",
"i  c #4C6718",
"p  c #4E6918",
"a  c #506D17",
"s  c #516D1A",
"d  c #5A7C16",
"f  c #587819",
"g  c #6C7019",
"h  c #435520",
"j  c #524D32",
"k  c #736828",
"l  c #7B7627",
"z  c #7D7837",
"x  c #2B1C42",
"c  c #2D2244",
"v  c #2F2249",
"b  c #332A46",
"n  c #31254C",
"m  c #33284D",
"M  c #273B49",
"N  c #383A40",
"B  c #352652",
"V  c #362A53",
"C  c #382C57",
"Z  c #3C265D",
"A  c #3A2F5A",
"S  c #3D305E",
"D  c #3F3162",
"F  c #453C50",
"G  c #422C67",
"H  c #413265",
"J  c #443369",
"K  c #493672",
"L  c #4E387A",
"P  c #50367D",
"I  c #51397D",
"U  c #384645",
"Y  c #304955",
"T  c #324A59",
"R  c #344C60",
"E  c #3F6364",
"W  c #3E6070",
"Q  c #4C4443",
"!  c #414B41",
"~  c #514B42",
"^  c #565147",
"/  c #595345",
"(  c #665D44",
")  c #605C53",
"_  c #596252",
"`  c #78774D",
"'  c #6E6E50",
"]  c #6D6A54",
"[  c #716E57",
"{  c #6F7956",
"}  c #5B437F",
"|  c #654D7E",
" . c #6B5D7D",
".. c #456D77",
"X. c #6E6D67",
"o. c #6E7260",
"O. c #6D6476",
"+. c #817C2B",
"@. c #84794C",
"#. c #897C57",
"$. c #927A7B",
"%. c #5E8314",
"&. c #658D0E",
"*. c #65920B",
"=. c #68960C",
"-. c #6B9B0D",
";. c #638C13",
":. c #6A8B13",
">. c #669112",
",. c #6B9411",
"<. c #6D9C11",
"1. c #709710",
"2. c #729D10",
"3. c #739E1D",
"4. c #6FA00E",
"5. c #73A50F",
"6. c #6FA011",
"7. c #74A710",
"8. c #79A916",
"9. c #73A118",
"0. c #408533",
"q. c #4A983B",
"w. c #72932E",
"e. c #6E8D34",
"r. c #708445",
"t. c #5DB048",
"y. c #60B64B",
"u. c #74C75E",
"i. c #7FCB68",
"p. c #89922E",
"a. c #8A8339",
"s. c #93893D",
"d. c #8FAB2F",
"f. c #91BA3A",
"g. c #898347",
"h. c #968C46",
"j. c #948F4B",
"k. c #8A8557",
"l. c #9B9555",
"z. c #A89B52",
"x. c #86AD5D",
"c. c #AAA658",
"v. c #B5A75A",
"b. c #B6A95B",
"n. c #B9AD5F",
"m. c #9A8A70",
"M. c #A18E6D",
"N. c #A79468",
"B. c #8CB962",
"V. c #B5AA65",
"C. c #BCB267",
"Z. c #BCB369",
"A. c #B5AE73",
"S. c #B9B67D",
"D. c #C1B768",
"F. c #C4BB6B",
"G. c #C6BE72",
"H. c #C8BF7B",
"J. c #A8C859",
"K. c #97CD71",
"L. c #A1DA72",
"P. c #C6C16F",
"I. c #CBC473",
"U. c #CBC878",
"Y. c #D2CC7B",
"T. c #CFD77D",
"R. c #553B85",
"E. c #5E3F92",
"W. c #5C408C",
"Q. c #644A83",
"!. c #6D5385",
"~. c #755989",
"^. c #624293",
"/. c #6A4E95",
"(. c #64429C",
"). c #6A4A9C",
"_. c #6A45A4",
"`. c #8A6E85",
"'. c #548683",
"]. c #BBB781",
"[. c #ACDB8E",
"{. c #B8E397",
"}. c #C9C989",
"|. c #D2CF81",
" X c #DBD987",
".X c #DDDC87",
"XX c #CBC997",
"oX c #DCDD92",
"OX c #E0DE89",
"+X c #DFE48D",
"@X c #CBEB97",
"#X c #DFE793",
"$X c #DEF395",
"%X c #E3E28D",
"&X c #EAEB94",
"*X c #E9ED99",
"=X c #E5F49A",
"-X c #EFF199",
";X c #F2F59D",
":X c #F4F89F",
">X c #CFECA6",
",X c #E9F6AB",
"<X c #F6FBA2",
"1X c #FAFFA5",
"2X c #FAFEAA",
"3X c #E7F1B5",
"4X c #F8FBB6",
"5X c #F6F8C4",
"6X c #FBFFC5",
/* pixels */
"7.7.7.7.7.7.7.7.7.7.7.7.7.7.7.7.7.7.7.7.7.7.7.7.7.7.-.t =.t -.7.7.7.7.7.7.-.t =.t -.7.7.7.7.7.7.7.7.7.7.7.7.7.7.7.7.7.7.7.7.7.7.7.7.",
"7.7.7.7.7.7.7.7.7.7.7.7.7.7.7.7.7.7.7.7.7.7.7.7.7.7.5.4.5.4.5.5.4.5.4.5.7.5.4.5.4.5.5.4.5.4.5.7.7.7.7.7.7.7.7.7.7.7.7.7.7.7.7.7.7.7.",
"7.7.7.7.7.7.7.7.7.7.7.7.7.7.7.7.7.7.7.7.7.7.7.7.7.7.7.7.7.7.5.-.y *.y -.5.7.7.7.7.5.-.y *.y -.5.7.7.7.7.7.7.7.7.7.7.7.7.7.7.7.7.7.7.",
"7.7.7.7.7.7.7.7.7.7.7.7.7.7.7.7.7.7.7.7.7.7.7.7.7.7.7.7.7.7.4.y *.y *.y 4.7.7.7.7.4.y *.y *.y 4.7.7.7.7.7.7.7.7.7.7.7.7.7.7.7.7.7.7.",
"7.7.7.7.7.7.7.7.7.7.7.7.7.7.7.7.7.7.7.7.7.7.7.7.7.7.7.7.7.7.5.4.5.4.5.4.5.7.7.7.7.5.4.5.4.5.4.5.7.7.7.7.7.7.7.7.7.7.7.7.7.7.7.7.7.7.",
"7.7.7.7.7.7.7.7.7.7.7.7.7.7.7.7.7.7.7.7.7.7.7.7.7.7.7.7.7.7.7.7.7.7.7.7.7.7.7.7.7.7.7.7.7.7.7.7.7.7.7.7.7.7.7.7.7.7.7.7.7.7.7.7.7.7.",
"7.7.7.7.7.7.7.7.7.7.7.7.7.7.7.7.7.7.7.7.7.7.7.7.7.7.7.7.7.7.7.7.7.7.7.7.7.7.7.7.7.7.7.7.7.7.7.7.7.7.7.7.7.7.7.7.7.7.7.7.7.7.7.7.7.7.",
"7.7.7.7.7.7.7.7.7.7.7.7.7.7.7.7.7.7.7.7.7.7.7.7.7.7.7.7.7.7.7.7.7.7.7.7.7.7.7.7.7.7.7.7.7.7.7.7.7.7.7.7.7.7.7.7.7.7.7.7.7.7.7.7.7.7.",
"7.7.7.7.7.7.7.7.7.7.7.7.7.7.7.7.7.7.7.7.7.7.7.7.7.7.7.7.7.7.7.7.7.7.7.7.7.7.7.7.7.7.7.7.7.7.7.7.7.7.7.7.7.7.7.7.7.7.7.7.7.7.7.7.7.7.",
"7.7.7.7.7.7.7.7.7.7.7.7.7.7.7.7.7.7.7.7.7.7.7.7.7.7.7.7.7.7.7.7.7.7.7.7.7.7.7.7.7.7.7.7.7.7.7.7.7.7.7.7.7.7.7.7.7.7.7.7.7.7.7.7.7.7.",
"7.7.7.7.7.7.7.7.7.7.7.7.7.7.7.7.7.7.9.w.3.7.7.7.7.7.7.7.7.7.7.7.7.7.7.7.7.7.7.7.7.7.7.7.7.9.w.3.7.7.7.7.7.7.7.7.7.7.7.7.7.7.7.7.7.7.",
"7.7.7.7.7.7.7.7.7.7.7.7.7.7.7.7.7.7.e.^.X.3.7.7.7.7.7.7.7.7.7.7.7.7.7.7.7.7.7.7.7.7.7.7.9.{ ^.' 7.7.7.7.7.7.7.7.7.7.7.7.7.7.7.7.7.7.",
"7.7.7.7.7.7.7.7.7.7.7.7.7.7.7.7.7.7.f G _.X.r.3.7.7.7.7.7.7.7.7.7.7.7.7.7.7.7.7.7.7.7.9.{ (.G e 7.7.7.7.7.7.7.7.7.7.7.7.7.7.7.7.7.7.",
"7.7.7.7.7.7.7.7.7.7.7.7.7.7.7.7.7.7.f Z ^._._.o.3.7.7.7.7.7.7.7.7.7.7.7.7.7.7.7.7.7.r.o.).E.c e 7.7.7.7.7.7.7.7.7.7.7.7.7.7.7.7.7.7.",
"7.7.7.7.7.7.7.7.7.7.7.7.7.7.7.7.7.>.9 n J ^._._.X.9.7.7.7.7.7.7.7.7.7.7.7.7.7.7.7.{ ).(.I K n ; %.7.7.7.7.7.7.7.7.7.7.7.7.7.7.7.7.7.",
"7.7.7.7.7.7.7.7.7.7.7.7.7.7.7.7.7.%.o n A J K (.).O.{ 7.7.7.7.7.7.7.7.7.7.7.7.` O.).(.K A A B @ p 7.7.7.7.7.7.7.7.7.7.7.7.7.7.7.7.7.",
"7.7.7.7.7.7.7.7.7.7.7.7.7.7.7.7.7.%.o n A A A J (._.). . . . . . . . . . . . ./._.L J A A A B @ p 7.7.7.7.7.7.7.7.7.7.7.7.7.7.7.7.7.",
"7.7.7.7.7.7.7.7.7.7.7.7.7.7.7.7.7.%.o n A A A A K (.E.J J J J J J J J J J J H R.(.J A A A A B @ p 7.7.7.7.7.7.7.7.7.7.7.7.7.7.7.7.7.",
"7.7.7.7.7.7.7.7.7.7.5.4.5.4.5.7.7.%.o v A A B A R.J D A A A A A A A A A A A A D H R.D C A A B @ p 7.7.7.7.7.7.7.7.7.7.7.7.7.7.7.7.7.",
"7.7.7.7.7.7.7.7.7.5.-.y *.y -.5.7.%.o x n B P H S A A A A A A A A A A A A A A A A S A B C A n @ p 7.7.7.7.7.7.7.7.7.7.7.7.7.7.7.7.7.",
"7.7.7.7.7.7.7.7.7.4.y *.y *.y 4.7.%.o x x P J A A A A A A A A A A A A A A A A A A A S R.Z n x @ p 7.7.7.7.7.7.7.7.7.7.7.7.7.7.7.7.7.",
"7.7.7.7.7.7.7.7.7.5.4.5.4.5.4.5.7.;.- % B P J A A A A A D K K K K K K K K J A A A A A H R.x & = d 7.7.7.7.7.7.5.4.5.4.5.7.7.7.7.7.7.",
"7.7.7.7.7.7.7.7.7.7.7.7.7.7.7.7.7.7.d o Z J A A A A D L | `.`.`.`.`.`.`.`.~.L H A A A D P Z o e 7.7.7.7.7.7.5.-.y *.y -.5.7.7.7.7.7.",
"7.7.7.7.7.7.7.7.7.7.7.7.7.7.7.7.7.7.d o n A A A S I Q.$.M.v.v.v.v.v.v.v.v.N.$.!.R.H A A D J @ e 7.7.7.7.7.7.4.y *.y *.y 4.7.7.7.7.7.",
"-.5.4.5.7.7.7.7.7.7.7.7.5.4.5.7.7.>.> m A A A A } $.M.v.v.v.v.v.v.v.v.v.v.v.v.N.m.Q.D A A A V 3 d 7.7.7.7.7.5.4.5.4.5.4.5.5.4.5.4.5.",
"t *.y -.5.7.7.7.7.7.7.5.-.y -.5.7.%.@ A A A A W.m.v.v.b.I.&X&X&X&X&X&X&X Xb.v.v.v.M.Q.D A A A c i 7.7.7.7.7.7.7.7.7.7.7.5.-.y *.y -.",
"-.y *.y 4.7.7.7.7.7.7.4.y *.y -.;.> V A A A A ^.N.b.F.&X;X<X;X<X1X1X<X;X-X&XY.n.b.v.~.D A A A C < d 7.7.7.7.7.7.7.7.7.7.4.y *.y *.t ",
"5.4.5.4.5.5.4.5.4.5.7.5.4.5.-.;.> V A A A A F !.V.F.-X1X1XP.a..X1X1X&Xh.c.1X:X-XI.V.~.S A A A A C , d 7.7.7.7.7.7.7.7.7.5.4.5.4.5.-.",
"7.7.7.7.5.-.y *.y -.5.7.7.7.;.; m A A A A C #.A.&X-X%X+X$X=X*X<X1X1X<X-X*X$X#X+X-X;XA.4 V A A A A V = d 7.7.7.7.7.7.7.7.7.7.7.7.7.7.",
"7.7.7.7.4.y *.y *.y 4.7.7.7.7 # & V C A A # @.&X1X*Xg.e.y.K.,X2X1X1X1X4X{.t.e.z oX1X-Xl., A A C C x % : <.7.7.7.7.7.7.7.7.7.7.7.7.7.",
"7.7.7.7.5.4.5.4.5.4.5.7.7.7.<.7 - % x V V % ( |.<X6X3Xi.q.0.[.,X1X1X<X{.q.q u.>X6X2X.X@.% V V c % -   >.7.7.7.7.7.7.7.7.7.7.7.7.7.7.",
"7.7.7.7.7.7.7.7.7.7.7.7.7.7.7.7.,.8 : @ % x @ ( Y.<X2X,XB.B.L.$X4X4X=XL.K.x.@X2X1X.X` # x & @ ; 7 ;.7.7.7.7.7.7.7.7.7.7.7.7.7.7.7.7.",
"7.7.7.7.7.7.7.7.7.7.7.7.7.7.7.7.7.7.>.e > @ @ o ( Y.<X1X1X1X1X1XS.S.;X1X1X1X1X1XOX` + O @ = e %.7.7.7.7.7.7.7.7.7.7.7.7.7.7.7.7.7.7.",
"7.7.7.7.7.7.7.7.7.7.7.7.7.7.7.7.7.7.7.7.;.a a i * j ] m.1X1X1X1XU.I.:X1X1X1XS.] / * e a a d 7.7.7.7.7.7.7.7.7.7.7.7.7.7.7.7.7.7.7.7.",
"7.7.7.7.7.7.7.7.7.7.7.7.7.7.7.7.7.7.7.7.7.7.7.7.f X o 1 ^ ^ ^ ^ _ _ ^ ^ ^ ^ N o . i <.7.7.7.7.7.7.7.7.7.7.7.7.7.7.7.7.7.7.7.7.7.7.7.",
"7.7.7.7.7.7.7.7.7.7.7.7.7.7.7.7.7.7.7.7.7.7.7.7.7.a o & , M R T 2 2 T R Y , & O e <.7.7.7.7.7.7.7.7.7.7.7.7.7.7.7.7.7.7.7.7.7.7.7.7.",
"7.7.7.7.7.7.7.7.7.7.7.7.7.7.7.7.7.7.7.7.7.7.7.7.;.- & & Y '...M @.k.U W '.E , & * d 7.7.5.7.5.5.7.7.7.7.7.7.7.7.7.7.7.7.7.7.7.7.7.7.",
"7.7.7.7.7.7.7.7.7.7.7.7.7.7.7.7.7.7.7.7.7.7.7.<.- % x & Y ..T N l.z.! Y ..E , x & * ;.7.7.7.5.5.7.7.7.7.7.7.7.7.7.7.7.7.7.7.7.7.7.7.",
"7.7.7.7.7.7.7.7.7.7.7.7.7.7.7.7.7.7.7.7.7.7.7.;.= x x & M M U k.C.D.l.U M M , x c # f 5.7.7.5.d.f.f.f.8.7.7.7.7.7.7.7.7.7.7.7.7.7.7.",
"7.7.7.7.7.7.7.7.7.7.7.7.7.7.7.7.7.7.7.7.7.7.7.- V A C x % 3 g.D.-X:XI.l.0 # x V S C * ,.7.8.d.T.6X6X5XJ.8.7.7.7.7.7.7.7.7.7.7.7.7.7.",
"7.7.7.7.7.7.7.7.7.7.7.7.7.7.7.7.7.7.7.7.7.7.d < V A A m < @.F.&X1X1X;XI.j.3 v A A A , s 2.p.F.OXOXOXOX,XJ.8.7.7.7.7.7.7.7.7.7.7.7.7.",
"7.7.7.7.7.7.7.7.7.7.7.7.7.7.7.7.7.7.7.7.7.7.  m A A C 1 @.F.&X1X1X1X1X;XI.j.4 m A A C * g s.z.s.d.d.s.I.}.8.7.7.7.7.7.7.7.7.7.7.7.7.",
"7.7.7.7.7.7.7.7.7.7.7.7.7.7.7.7.7.7.7.7.7.a 1 C A A m 4 F.&X1X1X1X1X1X1X;XI.( c A A A c j z.l 1.7.7.:.+.+.7.7.7.7.7.7.7.7.7.7.7.7.7.",
"7.7.7.7.7.7.7.7.7.7.7.7.7.7.7.7.7.7.7.7.7.6 n A A A m ~ &X1X1X1X1X1X1X1X1X;X#.c A A A V * l 1.7.7.7.7.,.,.7.7.7.7.5.4.5.4.5.7.7.7.7.",
"7.7.5.4.5.4.5.7.7.7.7.7.7.7.7.7.7.7.7.7.7.6 n A A V F oX%XOX1X1X<X<X1X1X&X X#X) m A A V * ,.7.7.7.7.7.7.7.7.7.7.5.-.y *.y -.5.7.7.7.",
"7.5.-.y *.y -.5.7.7.7.7.7.7.7.7.7.7.7.7.i # V A A V Q 1X.XY.:X6XU.G.4X<X XU.1X[ n A A C % 7 7.7.7.7.7.7.7.7.7.7.4.y *.y *.y 4.7.7.7.",
"7.4.y *.y *.y 4.7.7.7.7.7.7.7.7.7.7.7.<.7 % V A A V Q 1X%Xh.U.6XZ.v.5XoX+.Y.1X[ n A A C & - <.7.7.7.7.7.7.7.7.7.5.4.5.4.5.4.5.7.7.7.",
"7.5.4.5.4.5.4.5.7.7.7.7.7.7.7.7.7.7.7.a # x C A A V Q 1X<XV.A.5Xg.k 3X}.h.<X1X[ n A A C x # 7 7.7.7.7.7.7.7.7.7.7.7.7.7.7.7.7.7.7.7.",
"7.7.7.7.7.7.7.7.7.7.7.7.7.7.7.7.7.7.<.w % V A A A b ( 1X1X.Xh.].z k S.s.Y.1X1Xk.b C A A C & : >.7.7.7.7.7.7.7.7.7.7.7.7.7.7.7.7.7.7.",
"7.7.7.7.7.7.7.7.7.7.7.7.7.7.7.7.7.<.h & V A V A V < Z.1X1X1X.Xs.l l a.Y.1X1X1XY.4 n A V A C x 9 ;.4.5.7.7.7.7.7.7.7.7.5.4.5.7.7.7.7.",
"7.7.7.7.5.4.5.7.7.7.7.7.7.7.7.7.<.h c A A A B C V < Z.1X1X1X1X.XY.Y. X<X1X1X1XY.4 n A B A A A n 9 r -.5.7.7.7.7.7.7.5.-.y -.5.7.7.7.",
"7.7.7.5.-.y -.5.7.7.7.7.7.7.7.<.h v C V A A A A V < Z.1X1X1X1X1X1X1X1X1X1X1X1XY.4 n A A A A C V n : r 4.7.7.7.7.7.7.4.y *.y 4.7.7.7.",
"7.7.7.4.y *.y 4.7.7.7.7.7.7.6.9 b A C C A n C A V < Z.1X1X1X1X1X1X1X1X1X1X1X1XY.4 n A C n A C C A n : >.5.4.5.4.5.7.5.4.5.4.5.5.4.5.",
"-.5.7.5.4.5.4.5.5.4.5.4.5.7.7 b C n A A A C A A V < C.1X1X1X1X1X1X1X1X1X1X1X1XI.Q V A A C A A A A A m : &.y *.y -.5.7.7.7.7.5.-.y -.",
"t -.5.7.7.7.7.5.-.y *.y -.5.: m C C A A n V A A C & ( 1X1X1X1X4X5X5X4X1X1X1X1Xk., C A A C n A A A A V = r *.y *.y 4.7.7.7.7.4.y *.t ",
"-.y 4.7.7.7.7.4.y *.y *.y -.;.> & c C n x n C C C & Q ;X1X1X:XG.V.V.Z.-X1X1X<X] % V C C V x n C v x = d -.5.4.5.4.5.7.7.7.7.5.4.5.-.",
"5.4.5.7.7.7.7.5.4.5.4.5.4.5.7.;.: = & & & x x x x & 3 P.&X&XF.l g g l n.&X&XY.j % x x x x & & & = - %.7.7.7.7.7.7.7.7.7.7.7.7.7.7.7.",
"7.7.7.7.7.7.7.7.7.7.7.7.7.7.7.7.7.;.- - = % % % % # j c.H.H.a.:.7.7.1.l H.H.V.j , % % % % # - - f 7.7.7.7.7.7.7.7.7.7.7.7.7.7.7.7.7.",
"7.7.7.7.7.7.7.7.7.7.7.7.7.7.7.7.7.7.7.7.a     5 5 8 ,.a.XXXXj.1.7.7.2.w.XXXXl.:.e 5 5 5 5 e 7.7.7.7.7.7.7.7.7.7.7.7.7.7.7.7.7.7.7.7.",
"7.7.7.7.7.7.7.7.7.7.7.7.7.7.7.7.7.7.7.7.7.7.7.5.7.7.7.7.2.2.7.7.7.7.7.5.*.u &.y -.5.7.7.7.7.7.7.7.7.7.7.7.7.7.7.7.7.7.7.7.7.7.7.7.7.",
"7.7.7.7.7.7.7.7.7.7.7.7.7.7.7.7.7.7.7.7.7.7.7.7.7.7.7.7.7.7.7.7.7.7.7.4.y *.y *.y 4.7.7.7.7.7.7.7.7.7.7.7.7.7.7.7.7.7.7.7.7.7.7.7.7.",
"7.7.7.7.7.7.7.7.7.7.7.7.7.7.7.7.7.7.7.7.7.7.7.7.7.7.5.5.7.7.7.7.7.7.7.5.5.5.4.5.4.5.7.7.7.7.7.7.7.7.7.7.7.7.7.7.7.7.7.7.7.7.7.7.7.7.",
"7.7.7.7.7.7.7.7.7.7.7.7.7.7.7.7.7.7.7.7.7.7.7.7.7.7.7.7.7.7.7.7.7.7.7.7.7.7.7.7.7.7.7.7.7.7.7.7.7.7.7.7.7.7.7.7.7.7.7.7.7.7.7.7.7.7.",
"7.7.7.7.7.7.7.7.7.7.7.7.7.7.7.7.7.7.7.7.7.7.7.7.7.7.7.7.7.7.7.7.7.7.7.7.7.7.7.7.7.7.7.7.7.7.7.7.7.7.7.7.7.7.7.7.7.7.7.7.7.7.7.7.7.7.",
"7.7.7.7.7.7.7.7.7.7.7.7.7.7.7.7.7.7.7.7.7.7.7.7.7.5.4.5.4.5.7.7.7.7.7.7.7.7.5.4.5.7.7.7.7.7.7.7.7.7.7.7.7.7.7.7.7.7.7.7.7.7.7.7.7.7.",
"7.7.7.7.7.7.7.7.7.7.7.7.7.7.7.7.7.7.7.7.7.7.7.7.7.-.t =.t -.7.7.7.7.7.7.7.7.-.t -.7.7.7.7.7.7.7.7.7.7.7.7.7.7.7.7.7.7.7.7.7.7.7.7.7."
};
