/* XPM */
static char *_35b71a7a4e7474c9aca01357a6eff47sgRvF9nJcS2djspy[] = {
/* columns rows colors chars-per-pixel */
"66 66 210 2 ",
"   c #2C311F",
".  c #323B1E",
"X  c #191226",
"o  c #1E142C",
"O  c #1F1431",
"+  c #211B29",
"@  c #221634",
"#  c #241C32",
"$  c #261A36",
"%  c #261B3C",
"&  c #281B3E",
"*  c #1C2C36",
"=  c #242225",
"-  c #25212C",
";  c #2A2928",
":  c #2A292A",
">  c #312E22",
",  c #313624",
"<  c #343D23",
"1  c #363929",
"2  c #262533",
"3  c #2A2333",
"4  c #29283A",
"5  c #332B34",
"6  c #332A37",
"7  c #23333D",
"8  c #373334",
"9  c #3E373D",
"0  c #463C3A",
"q  c #38461C",
"w  c #394422",
"e  c #3E4B22",
"r  c #3F422E",
"t  c #356E2A",
"y  c #435D0F",
"u  c #41531B",
"i  c #465C1A",
"p  c #485F1A",
"a  c #675B19",
"s  c #4F720A",
"d  c #517606",
"f  c #547B07",
"g  c #4B641A",
"h  c #4F6A19",
"j  c #526E19",
"k  c #547315",
"l  c #5A7D16",
"z  c #567418",
"x  c #597819",
"c  c #687B16",
"v  c #414D23",
"b  c #4C443C",
"n  c #584E3E",
"m  c #5C513A",
"M  c #605B3B",
"N  c #78712B",
"B  c #797829",
"V  c #2A1C42",
"C  c #2F1E49",
"Z  c #2D2145",
"A  c #2B2C43",
"S  c #2F2348",
"D  c #322943",
"F  c #31254C",
"G  c #342A4D",
"H  c #293C46",
"J  c #3D3345",
"K  c #332650",
"L  c #362B54",
"P  c #382D57",
"I  c #3A2F5A",
"U  c #3D305E",
"Y  c #3F2F62",
"T  c #3E3161",
"R  c #423952",
"E  c #412C66",
"W  c #413265",
"Q  c #45336B",
"!  c #4A3673",
"~  c #4E3676",
"^  c #4E3877",
"/  c #2B434D",
"(  c #354445",
")  c #2E4755",
"_  c #324C57",
"`  c #34525D",
"'  c #3C5D6A",
"]  c #475044",
"[  c #545A45",
"{  c #597043",
"}  c #716643",
"|  c #7E774B",
" . c #6F7659",
".. c #787357",
"X. c #6E5F62",
"o. c #6A5977",
"O. c #466E71",
"+. c #6D6573",
"@. c #82792F",
"#. c #867A35",
"$. c #877D3A",
"%. c #887E53",
"&. c #927B76",
"*. c #5C840E",
"=. c #5D8215",
"-. c #618A0F",
";. c #65920B",
":. c #68970C",
">. c #6B9B0D",
",. c #608614",
"<. c #638C13",
"1. c #6D8811",
"2. c #738119",
"3. c #669112",
"4. c #6A9612",
"5. c #6D9B11",
"6. c #729813",
"7. c #6FA00E",
"8. c #73A50F",
"9. c #74A710",
"0. c #7CA91A",
"q. c #4E9F3E",
"w. c #718D2A",
"e. c #729925",
"r. c #729629",
"t. c #50A03F",
"y. c #5AAB43",
"u. c #79C963",
"i. c #8C8439",
"p. c #8FA92F",
"a. c #958B47",
"s. c #9B9448",
"d. c #868E50",
"f. c #928A54",
"g. c #9E955C",
"h. c #A5974C",
"j. c #A59A55",
"k. c #A69B56",
"l. c #ACA354",
"z. c #ADA35C",
"x. c #B4A65A",
"c. c #B5AA5C",
"v. c #B8AB5D",
"b. c #B0B858",
"n. c #92916A",
"m. c #A18D6D",
"M. c #AD9C62",
"N. c #A59369",
"B. c #A8A466",
"V. c #B4AB64",
"C. c #B9AE62",
"Z. c #BDB364",
"A. c #BAB76A",
"S. c #B3B377",
"D. c #C3B96A",
"F. c #C4BC6C",
"G. c #C3BD77",
"H. c #90CC74",
"J. c #B2C76E",
"K. c #B9D678",
"L. c #CAC573",
"P. c #CBC677",
"I. c #CECA7A",
"U. c #D3CD7B",
"Y. c #CFD57D",
"T. c #563C85",
"R. c #5B3E8D",
"E. c #5E3F92",
"W. c #5F4190",
"Q. c #6B4E8C",
"!. c #6C5984",
"~. c #765A8A",
"^. c #664894",
"/. c #63429B",
"(. c #6B4C9A",
"). c #4E7C80",
"_. c #6945A3",
"`. c #866C81",
"'. c #558985",
"]. c #9A8481",
"[. c #B1E092",
"{. c #C4C683",
"}. c #C8D48C",
"|. c #DAD683",
" X c #D3D68F",
".X c #DED89E",
"XX c #E0DD88",
"oX c #D3EA8D",
"OX c #D7EA93",
"+X c #E3E38D",
"@X c #E6E993",
"#X c #EAEA93",
"$X c #EAED9B",
"%X c #EDF097",
"&X c #ECF299",
"*X c #F2F59D",
"=X c #F5F89F",
"-X c #D9D7A2",
";X c #E0DEAB",
":X c #D6F0A8",
">X c #E5E4AA",
",X c #F0F3A1",
"<X c #F6FAA1",
"1X c #FAFFA5",
"2X c #F4FBAB",
"3X c #FAFFAD",
"4X c #EBF0B3",
"5X c #F5FBB6",
"6X c #FBFFB5",
"7X c #FBFEC7",
/* pixels */
"9.9.9.9.9.9.9.9.9.9.9.9.9.9.9.9.9.9.9.9.9.9.9.9.9.9.>.d :.d >.9.9.9.9.9.9.>.d :.d >.9.9.9.9.9.9.9.9.9.9.9.9.9.9.9.9.9.9.9.9.9.9.9.9.",
"9.9.9.9.9.9.9.9.9.9.9.9.9.9.9.9.9.9.9.9.9.9.9.9.9.9.8.7.8.7.8.8.7.8.7.8.9.8.7.8.7.8.8.7.8.7.8.9.9.9.9.9.9.9.9.9.9.9.9.9.9.9.9.9.9.9.",
"9.9.9.9.9.9.9.9.9.9.9.9.9.9.9.9.9.9.9.9.9.9.9.9.9.9.9.9.9.9.8.>.f ;.f >.8.9.9.9.9.8.>.f ;.f >.8.9.9.9.9.9.9.9.9.9.9.9.9.9.9.9.9.9.9.",
"9.9.9.9.9.9.9.9.9.9.9.9.9.9.9.9.9.9.9.9.9.9.9.9.9.9.9.9.9.9.7.f ;.f ;.f 7.9.9.9.9.7.f ;.f ;.f 7.9.9.9.9.9.9.9.9.9.9.9.9.9.9.9.9.9.9.",
"9.9.9.9.9.9.9.9.9.9.9.9.9.9.9.9.9.9.9.9.9.9.9.9.9.9.9.9.9.9.8.7.8.7.8.7.8.9.9.9.9.8.7.8.7.8.7.8.9.9.9.9.9.9.9.9.9.9.9.9.9.9.9.9.9.9.",
"9.9.9.9.9.9.9.9.9.9.9.9.9.9.9.9.9.9.9.9.9.9.9.9.9.9.9.9.9.9.9.9.9.9.9.9.9.9.9.9.9.9.9.9.9.9.9.9.9.9.9.9.9.9.9.9.9.9.9.9.9.9.9.9.9.9.",
"9.9.9.9.9.9.9.9.9.9.9.9.9.9.9.9.9.9.9.9.9.9.9.9.9.9.9.9.9.9.9.9.9.9.9.9.9.9.9.9.9.9.9.9.9.9.9.9.9.9.9.9.9.9.9.9.9.9.9.9.9.9.9.9.9.9.",
"9.9.9.9.9.9.9.9.9.9.9.9.9.9.9.9.9.9.9.z o. .9.9.9.9.9.9.9.9.9.9.9.9.9.9.9.9.9.9.9.9.9.r.+.[ 4.9.9.9.9.9.9.9.9.9.9.9.9.9.9.9.9.9.9.9.",
"9.9.9.9.9.9.9.9.9.9.9.9.9.9.9.9.9.9.9., Q ^. .9.9.9.9.9.9.9.9.9.9.9.9.9.9.9.9.9.9.9.r.o.R.V l 9.9.9.9.9.9.9.9.9.9.9.9.9.9.9.9.9.9.9.",
"9.9.9.9.9.9.9.9.9.9.9.9.9.9.9.9.9.9.g 5 I ! ^. .9.9.9.9.9.9.9.9.9.9.9.9.9.9.9.9.9.r.!.R.W G 1 3.9.9.9.9.9.9.9.9.9.9.9.9.9.9.9.9.9.9.",
"9.9.9.9.9.9.9.9.9.9.9.9.9.9.9.9.9.9.q F I W /.(. .9.9.9.9.9.9.9.9.9.9.9.9.9.9.9.r.!._.T.I I # ,.9.9.9.9.9.9.9.9.9.9.9.9.9.9.9.9.9.9.",
"9.9.9.9.9.9.9.9.9.9.9.9.9.9.9.9.9.5.. F I I ! /.(. .9.9.9.9.9.9.9.9.9.9.9.9.9.r.!._.R.T I I @ l 9.9.9.9.9.9.9.9.9.9.9.9.9.9.9.9.9.9.",
"9.9.9.9.9.9.9.9.9.9.9.9.9.9.9.9.9.p # L I I I ! _.(. .e.e.e.e.e.e.e.e.e.e.e.r.!._./.T I I I C ; 3.9.9.9.9.9.9.9.9.9.9.9.9.9.9.9.9.9.",
"9.9.9.9.9.9.9.9.9.9.9.9.9.9.9.9.9.u @ L I I I Q /._.(.(.(.(.(.(.(.(.(.(.(.(.(._._.T.I I I I Z + <.9.9.9.9.9.9.9.9.9.9.9.9.9.9.9.9.9.",
"9.9.9.9.9.9.9.9.9.9.9.9.9.9.9.9.9.u @ L I I I I ! _./.E.E.E.E.E.E.E.E.E.E.E.W._./.U I I I I Z + <.9.9.9.9.9.9.9.9.9.9.9.9.9.9.9.9.9.",
"9.9.9.9.9.9.9.9.9.9.9.9.9.9.9.9.9.u @ L I I L U ^ R.! I I I I I I I I I I I U T.T.Q I I I I Z + <.9.9.9.9.9.9.9.9.9.9.9.9.9.9.9.9.9.",
"9.9.9.9.9.9.9.9.9.9.9.9.9.9.9.9.9.u @ F P L E W ^ I I I I I I I I I I I I I I I T ^ L L I I Z + <.9.9.9.9.9.9.9.9.9.9.9.9.9.9.9.9.9.",
"9.9.9.9.9.9.9.9.9.9.9.9.9.9.9.9.9.u @ V F ! ! I I I I I I I I I I I I I I I I I I I Y E L L V + <.9.9.9.9.9.9.9.9.9.9.9.9.9.9.9.9.9.",
"9.9.9.9.9.9.9.9.9.9.8.7.8.7.8.9.9.u @ V C R.T I I I I I I I I I I I I I I I I I I I T ^ E C V + 3.9.9.9.9.9.9.9.9.9.9.9.9.9.9.9.9.9.",
"9.9.9.9.9.9.9.9.9.8.>.f ;.f >.8.9.3., % ~ Q I I I I I I T.W.W.W.W.W.W.W.W.Q I I I I I ^ ! V @ h 9.9.9.9.9.9.9.9.9.9.9.9.9.9.9.9.9.9.",
"9.9.9.9.9.9.9.9.9.7.f ;.f ;.f 7.9.9.q o I I I I I U ^ ^.&.N.N.N.N.N.N.N.N.~.W.W U I I T ^ K X ,.9.9.9.9.9.9.9.9.9.9.9.9.9.9.9.9.9.9.",
"9.9.9.9.9.9.9.9.9.8.7.8.7.8.7.8.9.5.< S I I I I ~ Q.&.M.x.x.x.x.x.x.x.x.x.M.N.~.Q.W I I U I @ x 9.9.9.9.9.9.9.8.7.8.7.8.9.9.9.9.9.9.",
"9.9.9.9.9.9.9.9.9.9.9.9.9.9.9.9.9.i S I I I I ~ `.M.x.x.Z.k.k.Z.D.D.v.h.l.x.x.M.N.Q.W I I I L ; 3.9.9.9.9.9.8.>.f ;.f >.8.9.9.9.9.9.",
"9.9.9.9.9.9.9.9.9.9.9.9.9.9.9.9.4.w F I I I W ~.x.x.Z.F.@Xs.s.%X<X<XL.i.z.F.v.x.x.m.R.I I I I 3 z 9.9.9.9.9.7.f ;.f ;.f 7.9.9.9.9.9.",
">.8.7.8.9.9.9.9.9.9.9.9.8.7.8.4.e S I I I I Q ~.x.Z.+X1X1X1X1X1X1X1X1X1X1X1XU.F.v.N.R.I I I I P 4 z 9.9.9.9.8.7.8.7.8.7.8.8.7.8.7.8.",
"d ;.f >.8.9.9.9.9.9.9.8.>.f -.v S I I I I R X.].U.L.A.K.J.4X3X1X1X1X1X3X{.K.J.A.I.G.o.F I I I I L 5 z 9.9.9.9.9.9.9.9.9.8.>.f ;.f >.",
">.f ;.f 7.9.9.9.9.9.9.7.f *.. % L I I I P J z.XX3X-Xd.y.t H.5X1X1X1X3X:X{ q.t.S.5X*XA.b F I I I I S ; j 9.9.9.9.9.9.9.9.7.f ;.f ;.d ",
"8.7.8.7.8.8.7.8.7.8.9.8.7.5.i o % S L I L 5 V.<X3X6X:XH.t y.H.<X1X1XOXu.t t.[.5X6X1X+X} V I I F Z @ ; l 9.9.9.9.9.9.9.9.8.7.8.7.8.>.",
"9.9.9.9.8.>.f ;.f >.8.9.9.9.5.l q o & Z C % n I.1X1X3XOX}.oXoX2X7X6X&XoX}.oX2X1X1X$Xg.5 V Z Z @ - k ,.9.9.9.9.9.9.9.9.9.9.9.9.9.9.9.",
"9.9.9.9.7.f ;.f ;.f 7.9.9.9.9.7.s k   + % & $ n I.<X1X1X1X1X1X@Xa.V.1X1X1X1X1X1X#Xg.5 % & # + j <.9.9.9.9.9.9.9.9.9.9.9.9.9.9.9.9.9.",
"9.9.9.9.8.7.8.7.8.7.8.9.9.9.9.8.7.8.3.<., = = ; M L.OX*X1X1X1X<X+X#X1X1X1X1X@X Xg.1 = = = g <.9.9.9.9.9.9.9.9.9.9.9.9.9.9.9.9.9.9.9.",
"9.9.9.9.9.9.9.9.9.9.9.9.9.9.9.9.9.9.9.9.5.4.4.4.x 1 r B. X X X X X X X X X X[ r v 3.4.4.4.9.9.9.9.9.9.9.9.9.9.9.9.9.9.9.9.9.9.9.9.9.",
"9.9.9.9.9.9.9.9.9.9.9.9.9.9.9.9.9.9.9.9.9.9.9.9.9.5.<.< # - 2 2 - 2 2 2 # # h 4.9.9.9.9.9.9.9.9.9.9.9.9.9.9.9.9.9.9.9.9.9.9.9.9.9.9.",
"9.9.9.9.9.9.9.9.9.9.9.9.9.9.9.9.9.9.9.9.9.9.9.9.9.4.w % & / ) H * 7 ) ) A & + k 9.9.9.9.9.9.9.9.9.9.9.9.9.9.9.9.9.9.9.9.9.9.9.9.9.9.",
"9.9.9.9.9.9.9.9.9.9.9.9.9.9.9.9.9.9.9.9.9.9.9.9.3.w $ & _ '.' ( [ ] ) ).O.A & + j 9.9.9.9.9.9.9.9.9.9.9.9.9.9.9.9.9.9.9.9.9.9.9.9.9.",
"9.9.9.9.9.9.9.9.9.9.9.9.9.9.9.9.9.9.9.9.9.9.9.4.w % V 2 O.).` ( z.d.H O.'./ & & - h 9.9.9.9.9.9.9.9.9.9.9.9.9.9.9.9.9.9.9.9.9.9.9.9.",
"9.9.9.9.9.9.9.9.9.9.9.9.9.9.9.9.9.9.9.9.9.9.9.=.o V V 2 ` ` H | x.k.[ / ' H & V %   9.9.8.9.8.9.0.K.J.9.9.9.9.9.9.9.9.9.9.9.9.9.9.9.",
"9.9.9.9.9.9.9.9.9.9.9.9.9.9.9.9.9.9.9.9.9.9.3.1 F L S & 7 7 %.C.+XU.k.[ 7 4 V K L D i 9.8.9.9.Y.oX2X2XK.8.8.9.9.9.9.9.9.9.9.9.9.9.9.",
"9.9.9.9.9.9.9.9.9.9.9.9.9.9.9.9.9.9.9.9.9.9.=.# I I P Z # | C.@X1X=XU.k.b % K I I F < 9.9.9.p.$X1X%XF.b.8.8.8.9.9.9.9.9.9.9.9.9.9.9.",
"9.9.9.9.9.9.9.9.9.9.9.9.9.9.9.9.9.9.9.9.9.4., L I I P 4 | C.@X<X1X1X=XU.k.0 G I I L D p 9.p.Y.*X#Xb.p.0.8.8.8.9.9.9.9.9.9.9.9.9.9.9.",
"9.9.9.9.9.9.9.9.9.9.9.9.9.9.9.9.9.9.9.9.9.=.3 I I I V } C.@X<X1X1X1X1X<XU.k.8 L I I F e 2.s.x.b.p.0.9.9.9.9.9.9.9.9.9.9.9.9.9.9.9.9.",
"9.9.9.9.9.9.9.9.9.9.9.9.9.9.9.9.9.9.9.9.5.> L I I I & %.@X<X1X1X1X1X1X1X<XI.8 L I I I 0 #.h.B 6.9.9.9.9.9.9.9.9.9.9.9.9.9.9.9.9.9.9.",
"9.9.9.9.9.9.9.9.9.9.9.9.9.9.9.9.9.9.9.9.5.; L I I L R {.$X<X1X1X1X1X1X1X%X*X..G I I I Z m B 6.9.9.9.9.9.9.9.9.9.9.9.9.9.9.9.9.9.9.9.",
"9.9.9.9.9.9.9.9.9.9.9.9.9.9.9.9.9.9.9.9.k 3 L I I Z n.1XF.$X1X2X+X#X3X1XP.@X$X9 L I I S > c 9.9.9.9.9.9.9.9.9.9.9.8.7.8.7.8.9.9.9.9.",
"9.9.8.7.8.7.8.9.9.9.9.9.9.9.9.9.9.9.9.9.> V I I I Z n.1XF.Z.,X4Xv.{.7XY.c.@X$X9 L I I K @ j 9.9.9.9.9.9.9.9.9.9.8.>.f ;.f >.8.9.9.9.",
"9.8.>.f ;.f >.8.9.9.9.9.9.9.9.9.9.9.9.g 3 V I I I Z n.1X+X$.>X4X$.B.7XB.c.*X$X9 L I I K % < <.9.9.9.9.9.9.9.9.9.7.f ;.f ;.f 7.9.9.9.",
"9.7.f ;.f ;.f 7.9.9.9.9.9.9.9.9.9.9.g 3 V K I I I Z n.1X<Xz.k.-Xa f.-Xa.|.1X$X9 L I I P S % , 3.9.9.9.9.9.9.9.9.8.7.8.7.8.7.8.9.9.9.",
"9.8.7.8.7.8.7.8.9.9.9.9.9.9.9.9.9.g 3 F L I I I F b P.1X1X@Xl.$.a N a.L.*X1X*Xf.4 I I I P S % , 3.9.9.9.9.9.9.9.9.9.9.9.9.9.9.9.9.9.",
"9.9.9.9.9.9.9.9.9.9.9.9.9.9.9.4.h 5 L I I P F I S m |.1X1X1X@Xx.l.l.L.=X1X1X<Xz.3 P L F I P L V , <.5.9.9.9.9.9.9.9.9.9.9.9.9.9.9.9.",
"9.9.9.9.9.9.9.9.9.9.9.9.9.3.z ; 4 L P I I I P I S m |.1X1X1X<X*X*X*X=X1X1X1X<Xz.3 P I I I I P L G ; < 3.4.9.9.9.9.9.9.8.7.8.9.9.9.9.",
"9.9.9.9.8.7.8.9.9.9.9.9.l ; 3 L P I F L I L I I S m |.1X1X1X1X1X1X1X1X1X1X1X<Xz.3 P I I P I F L I L G - e 4.9.9.9.9.8.>.f >.8.9.9.9.",
"9.9.9.8.>.f >.8.9.9.9.,.5 L I I P P I I I F I I S m |.1X1X1X1X1X1X1X1X1X1X1X<Xz.5 I I L L I I I L I I I F e 5.9.9.9.7.f ;.f 7.9.9.9.",
"9.9.9.7.f ;.f 7.9.9.9.g D F I P F L I I L I I I F 0 G.1X1X1X1X6X6X6X3X1X1X1X*X%.D I I I L P I I F L I L S 8 3.7.8.9.8.7.8.7.8.8.7.8.",
">.8.9.8.7.8.7.8.8.7.8.>.p e Z V Z L I L C L I I L @ n.1X1X1X<X.X.X.X>X1X1X1X$X9 V I I I F S P I F V Z 5 q y ;.f >.8.9.9.9.9.8.>.f >.",
"d >.8.9.9.9.9.8.>.f ;.f >.4.g e O V F V V F F F S @ ..$X1X<XI.i.#.#.k.@X1X1XI.5 V F F F C V S F @ - p k f ;.f ;.f 7.9.9.9.9.7.f ;.d ",
">.f 7.9.9.9.9.7.f ;.f ;.f 7.9.4.k < o o % V V V V @ } F.%X*Xi.1.1.1.2.D.1X|.z.5 & V V V V @ o + g l 9.8.7.8.7.8.7.8.9.9.9.9.8.7.8.>.",
"8.7.8.9.9.9.9.8.7.8.7.8.7.8.9.9.9.3.=.l ; o o o o w c h.D.D.N 5.9.9.1.a.F.C.@.z - o o o o i =.=.9.9.9.9.9.9.9.9.9.9.9.9.9.9.9.9.9.9.",
"9.9.9.9.9.9.9.9.9.9.9.9.9.9.9.9.9.9.9.9.<.<.<.<.<.4.c S.>X-XB 9.9.9.1.B.>X;XB 5.<.<.<.<.<.5.9.9.9.9.9.9.9.9.9.9.9.9.9.9.9.9.9.9.9.9.",
"9.9.9.9.9.9.9.9.9.9.9.9.9.9.9.9.9.9.9.9.9.9.9.9.9.9.9.2.B B 6.9.9.8.9.w.B B 6.>.8.9.9.9.9.9.9.9.9.9.9.9.9.9.9.9.9.9.9.9.9.9.9.9.9.9.",
"9.9.9.9.9.9.9.9.9.9.9.9.9.9.9.9.9.9.9.9.9.9.9.9.9.9.9.9.9.9.9.9.8.8.9.8.:.f ;.f >.8.9.9.9.9.9.9.9.9.9.9.9.9.9.9.9.9.9.9.9.9.9.9.9.9.",
"9.9.9.9.9.9.9.9.9.9.9.9.9.9.9.9.9.9.9.9.9.9.9.9.9.9.9.9.9.9.9.9.9.9.9.7.f ;.f ;.f 7.9.9.9.9.9.9.9.9.9.9.9.9.9.9.9.9.9.9.9.9.9.9.9.9.",
"9.9.9.9.9.9.9.9.9.9.9.9.9.9.9.9.9.9.9.9.9.9.9.9.9.9.9.9.9.9.9.9.9.9.9.8.7.8.8.9.7.8.9.9.9.9.9.9.9.9.9.9.9.9.9.9.9.9.9.9.9.9.9.9.9.9.",
"9.9.9.9.9.9.9.9.9.9.9.9.9.9.9.9.9.9.9.9.9.9.9.9.9.9.9.9.9.9.9.9.9.9.9.9.9.9.9.9.9.9.9.9.9.9.9.9.9.9.9.9.9.9.9.9.9.9.9.9.9.9.9.9.9.9.",
"9.9.9.9.9.9.9.9.9.9.9.9.9.9.9.9.9.9.9.9.9.9.9.9.9.9.9.9.9.9.9.9.9.9.9.9.9.9.9.9.9.9.9.9.9.9.9.9.9.9.9.9.9.9.9.9.9.9.9.9.9.9.9.9.9.9.",
"9.9.9.9.9.9.9.9.9.9.9.9.9.9.9.9.9.9.9.9.9.9.9.9.9.8.7.8.7.8.9.9.9.9.9.9.9.9.8.7.8.9.9.9.9.9.9.9.9.9.9.9.9.9.9.9.9.9.9.9.9.9.9.9.9.9.",
"9.9.9.9.9.9.9.9.9.9.9.9.9.9.9.9.9.9.9.9.9.9.9.9.9.>.d :.d >.9.9.9.9.9.9.9.9.>.d >.9.9.9.9.9.9.9.9.9.9.9.9.9.9.9.9.9.9.9.9.9.9.9.9.9."
};
