/* XPM */
static char *result[] = {
/* columns rows colors chars-per-pixel */
"66 66 193 2 ",
"   c #31391E",
".  c #1C132C",
"X  c #1F1430",
"o  c #1F1831",
"O  c #20172D",
"+  c #221C2B",
"@  c #211534",
"#  c #241B33",
"$  c #281F33",
"%  c #241739",
"&  c #261B3B",
"*  c #281B3E",
"=  c #252325",
"-  c #2A2827",
";  c #26232A",
":  c #2E3127",
">  c #33352A",
",  c #2B2533",
"<  c #28273A",
"1  c #342B34",
"2  c #352D38",
"3  c #24333D",
"4  c #3C3334",
"5  c #443B36",
"6  c #3B4A1D",
"7  c #3F501D",
"8  c #3A4621",
"9  c #394522",
"0  c #3C792F",
"q  c #445C15",
"w  c #41531D",
"e  c #45591C",
"r  c #675B19",
"t  c #517606",
"y  c #547B07",
"u  c #537709",
"i  c #4B641A",
"p  c #4E6919",
"a  c #536D19",
"s  c #557516",
"d  c #597A18",
"f  c #6B7918",
"g  c #445720",
"h  c #4C4239",
"j  c #574E3C",
"k  c #546A27",
"l  c #6A6321",
"z  c #2A1C42",
"x  c #2D2246",
"c  c #2F2940",
"v  c #2F2249",
"b  c #322A46",
"n  c #31254C",
"m  c #34294D",
"M  c #283947",
"N  c #342751",
"B  c #362A53",
"V  c #382D57",
"C  c #3A2F5A",
"Z  c #3D305E",
"A  c #3E2F60",
"S  c #3E3161",
"D  c #463743",
"F  c #422B67",
"G  c #453569",
"H  c #46346C",
"J  c #4B3574",
"K  c #4E3778",
"L  c #52387E",
"P  c #2B444B",
"I  c #35525A",
"U  c #385865",
"Y  c #3D5F71",
"T  c #3F6372",
"R  c #4C4644",
"E  c #595B49",
"W  c #645A4C",
"Q  c #6B6747",
"!  c #716E57",
"~  c #7A775B",
"^  c #42696D",
"/  c #6E6B6A",
"(  c #6D6179",
")  c #827937",
"_  c #8A7E4C",
"`  c #8C7579",
"'  c #5F870F",
"]  c #5E8314",
"[  c #65920B",
"{  c #68960C",
"}  c #6B9B0D",
"|  c #608714",
" . c #628A13",
".. c #6C8811",
"X. c #75861B",
"o. c #679113",
"O. c #6A9512",
"+. c #6D9C11",
"@. c #739818",
"#. c #6FA00E",
"$. c #73A50F",
"%. c #6FA011",
"&. c #74A710",
"*. c #7CAB1B",
"=. c #468E37",
"-. c #728A2A",
";. c #729925",
":. c #72932E",
">. c #718A3A",
",. c #57A23E",
"<. c #5EAC41",
"1. c #67A454",
"2. c #7CBA66",
"3. c #7AC962",
"4. c #80A61E",
"5. c #8F8139",
"6. c #968B3F",
"7. c #84A923",
"8. c #95AC35",
"9. c #898242",
"0. c #978C4A",
"q. c #9A924C",
"w. c #918752",
"e. c #9C945A",
"r. c #A5994D",
"t. c #A59A55",
"y. c #A69B59",
"u. c #96BC41",
"i. c #A9A357",
"p. c #AEA25B",
"a. c #B3A55B",
"s. c #B9AC5E",
"d. c #A79964",
"f. c #AC9C62",
"g. c #A69468",
"h. c #9DB36D",
"j. c #A7A168",
"k. c #B6AE67",
"l. c #BCB264",
"z. c #BCB369",
"x. c #BCB869",
"c. c #B9BB78",
"v. c #C3B969",
"b. c #C4BD79",
"n. c #9BC048",
"m. c #A9C95D",
"M. c #90D274",
"N. c #AED46F",
"B. c #CBC876",
"V. c #D2CC7A",
"C. c #CAD178",
"Z. c #D6D27E",
"A. c #553A85",
"S. c #593C8B",
"D. c #5D418F",
"F. c #6A4C8E",
"G. c #6C5C82",
"H. c #6B558C",
"J. c #72558A",
"K. c #614291",
"L. c #684897",
"P. c #7D6285",
"I. c #6744A0",
"U. c #6945A2",
"Y. c #806680",
"T. c #568887",
"R. c #B3E194",
"E. c #CFD38D",
"W. c #D9D581",
"Q. c #DEDB86",
"!. c #D1D48E",
"~. c #E1DF89",
"^. c #D4E78E",
"/. c #D7E798",
"(. c #DAF294",
"). c #E3E48E",
"_. c #E8E996",
"`. c #EBEC95",
"'. c #E9F39B",
"]. c #EEF19A",
"[. c #F1F49C",
"{. c #F3FA9F",
"}. c #E3DFAA",
"|. c #D4EEA8",
" X c #E6E2AD",
".X c #E9E8A8",
"XX c #E8F2AF",
"oX c #F5FAA2",
"OX c #FAFFA5",
"+X c #FAFFAC",
"@X c #F3F8B7",
"#X c #FBFFB1",
"$X c #F7F9C6",
/* pixels */
"&.&.&.&.&.&.&.&.&.&.&.&.&.&.&.&.&.&.&.&.&.&.&.&.&.&.#.t { t #.&.&.&.&.&.&.#.t { t #.&.&.&.&.&.&.&.&.&.&.&.&.&.&.&.&.&.&.&.&.&.&.&.&.",
"&.&.&.&.&.&.&.&.&.&.&.&.&.&.&.&.&.&.&.&.&.&.&.&.&.&.&.#.&.#.&.&.#.#.#.&.&.#.#.&.#.$.$.#.$.#.$.&.&.&.&.&.&.&.&.&.&.&.&.&.&.&.&.&.&.&.",
"&.&.&.&.&.&.&.&.&.&.&.&.&.&.&.&.&.&.&.&.&.&.&.&.&.&.&.&.&.&.#.} y [ y } &.&.&.&.&.&.} y [ y { &.&.&.&.&.&.&.&.&.&.&.&.&.&.&.&.&.&.&.",
"&.&.&.&.&.&.&.&.&.&.&.&.&.&.&.&.&.&.&.&.&.&.&.&.&.&.&.&.&.&.#.y [ y [ y #.&.&.&.&.#.y [ y [ y #.&.&.&.&.&.&.&.&.&.&.&.&.&.&.&.&.&.&.",
"&.&.&.&.&.&.&.&.&.&.&.&.&.&.&.&.&.&.&.&.&.&.&.&.&.&.&.&.&.&.&.#.&.#.&.#.#.&.&.&.&.&.#.#.#.&.#.%.&.&.&.&.&.&.&.&.&.&.&.&.&.&.&.&.&.&.",
"&.&.&.&.&.&.&.&.&.&.&.&.&.&.&.&.&.&.&.&.&.&.&.&.&.&.&.&.&.&.&.&.&.&.&.&.&.&.&.&.&.&.&.&.&.&.&.&.&.&.&.&.&.&.&.&.&.&.&.&.&.&.&.&.&.&.",
"&.&.&.&.&.&.&.&.&.&.&.&.&.&.&.&.&.&.&.&.&.&.&.&.&.&.&.&.&.&.&.&.&.&.&.&.&.&.&.&.&.&.&.&.&.&.&.&.&.&.&.&.&.&.&.&.&.&.&.&.&.&.&.&.&.&.",
"&.&.&.&.&.&.&.&.&.&.&.&.&.&.&.&.&.&.&.&.&.&.&.&.&.&.&.&.&.&.&.&.&.&.&.&.&.&.&.&.&.&.&.&.&.&.&.&.&.&.&.&.&.&.&.&.&.&.&.&.&.&.&.&.&.&.",
"&.&.&.&.&.&.&.&.&.&.&.&.&.&.&.&.&.&.&.&.&.&.&.&.&.&.&.&.&.&.&.&.&.&.&.&.&.&.&.&.&.&.&.&.&.&.&.&.&.&.&.&.&.&.&.&.&.&.&.&.&.&.&.&.&.&.",
"&.&.&.&.&.&.&.&.&.&.&.&.&.&.&.&.&.&.&.&.&.&.&.&.&.&.&.&.&.&.&.&.&.&.&.&.&.&.&.&.&.&.&.&.&.&.&.&.&.&.&.&.&.&.&.&.&.&.&.&.&.&.&.&.&.&.",
"&.&.&.&.&.&.&.&.&.&.&.&.&.&.&.&.&.&.:./ >.&.&.&.&.&.&.&.&.&.&.&.&.&.&.&.&.&.&.&.&.&.&.&.#.;./ >.&.&.&.&.&.&.&.&.&.&.&.&.&.&.&.&.&.&.",
"&.&.&.&.&.&.&.&.&.&.&.&.&.&.&.&.&.%.-.K H.>.&.&.&.&.&.&.&.&.&.&.&.&.&.&.&.&.&.&.&.&.&.&.;.H.A.k &.&.&.&.&.&.&.&.&.&.&.&.&.&.&.&.&.&.",
"&.&.&.&.&.&.&.&.&.&.&.&.&.&.&.&.&.&.] F U.H.G.:.&.&.&.&.&.&.&.&.&.&.&.&.&.&.&.&.&.&.&.:.G.K.B e &.&.&.&.&.&.&.&.&.&.&.&.&.&.&.&.&.&.",
"&.&.&.&.&.&.&.&.&.&.&.&.&.&.&.&.&.%.k B A.I.U.H.:.&.&.&.&.&.&.&.&.&.&.&.&.&.&.&.&.;.( H.I.S.v 7 &.&.&.&.&.&.&.&.&.&.&.&.&.&.&.&.&.&.",
"&.&.&.&.&.&.&.&.&.&.&.&.&.&.&.&.&.' ; v S A.K.U.H.:.;.&.&.&.&.&.&.&.&.&.&.&.&.@.;.( U.D.S S N o s &.&.&.&.&.&.&.&.&.&.&.&.&.&.&.&.&.",
"&.&.&.&.&.&.&.&.&.&.&.&.&.&.&.&.&.] X v C Z S D.U.L.G.:.:.:.:.:.:.:.:.:.:.:.:./ L.L.D.S S C N o p &.&.&.&.&.&.&.&.&.&.&.&.&.&.&.&.&.",
"&.&.&.&.&.&.&.&.&.&.&.&.&.&.&.&.&.] . v C C C S D.L.I.D.D.D.D.D.D.D.D.K.D.D.D.L.U.H C C C C N @ p &.&.&.&.&.&.&.&.&.&.&.&.&.&.&.&.&.",
"&.&.&.&.&.&.&.&.&.&.&.&.&.&.&.&.&.] . n C C B C G D.A.V C V C C C C C C C C C J S.K Z C C C N @ p &.&.&.&.&.&.&.&.&.&.&.&.&.&.&.&.&.",
"&.&.&.&.&.&.&.&.&.&.$.#.$.#.$.&.&.] . x B B A A K Z C C C C C C C C C C C C C C Z K F N C C N @ p &.&.&.&.&.&.&.&.&.&.&.&.&.&.&.&.&.",
"&.&.&.&.&.&.&.&.&.$.} t [ y } $.&.] . * z F K A C C C Z Z C C C C C C C C C C C V Z C H N V z @ p &.&.&.&.&.&.&.&.&.&.&.&.&.&.&.&.&.",
"&.&.&.&.&.&.&.&.&.#.y { t { y } &.] . z z A.H C V V Z V C D B F C C C C C C C C V Z Z H J v z @ p &.&.&.&.&.&.&.&.&.&.&.&.&.&.&.&.&.",
"&.&.&.&.&.&.&.&.&.&.#.$.#.$.#.$.&.+.i o F K A C Z V V Z J K.K.K.K.K.K.K.K.L Z C Z V Z S S.z % 8 { &.&.&.&.&.&.&.#.#.#.$.&.&.&.&.&.&.",
"&.&.&.&.&.&.&.&.&.&.&.&.&.&.&.&.&.&.s . v A C C C F H F.P.g.g.g.g.g.g.g.g.` F.K Z Z V Z H H . w &.&.&.&.&.&.&.{ y [ y } &.&.&.&.&.&.",
"&.&.&.&.&.&.&.&.&.&.&.&.&.&.&.&.&.&.p * V C C C G J.J.d.p.a.a.a.a.a.a.a.a.a.d.` H.H V Z Z F z w %.&.&.&.&.&.#.y [ y [ y #.&.&.&.&.&.",
"$.$.#.$.&.&.&.&.&.&.&.&.$.#.$.&.&.' , V C Z C G J.d.p.a.s.v.v.v.v.v.v.v.l.a.a.a.p.Y.J C C C C < p &.&.&.&.&.$.#.&.#.#.#.&.$.#.#.#.$.",
"t { y } $.&.&.&.&.&.&.$.} y } $.+.p * C C C C K.g.a.s.v.~.{.{.{.OXOXoXOX`.v.l.a.a.f.J.F C C C x g +.&.&.&.&.&.&.&.&.&.&.&.} y { y } ",
"} t [ y #.&.&.&.&.&.&.#.y [ y } p < C C C C C K.g.s.Z.OXOX^.B.`.OXOX].C.W.OX).B.l.p.J.F C C C C x e +.&.&.&.&.&.&.&.&.&.} ' [ y [ t ",
"$.#.$.#.$.$.#.$.#.$.&.$.#.$.} i c V C C C C W ` b.W.OXOXOXC.i./.OXOX`.i.x.OXOX{.~.V.` m C C C C Z x e } &.&.&.&.&.&.&.&.#.#.#.#.#.#.",
"&.&.&.&.$.} y [ y } $.&.&.&.i , v C C C C v w.V.{.`.p.h.N.(.#XOXOXOXOX+XXXN.m.i.~.oXW.W c V C C C B # 7 #.&.&.&.&.&.&.&.&.&.&.&.&.&.",
"&.&.&.&.#.y [ y [ y #.&.&.$.s ; o v n C Z & _ `.OX@Xc.,.<.1.|.#XOXOX+X|.2.=.<.h.@X+XoXy.$ C C N v # o i #.&.&.&.&.&.&.&.&.&.&.&.&.&.",
"&.&.&.&.$.#.$.#.$.#.$.&.&.&.$.] i O # x x * 1 j.[.#X@XR.=.=.3.(.OXOX'.M.<.0 M.@X+XoXv.h * z x & . i ] %.&.&.&.&.&.&.&.&.&.&.&.&.&.&.",
"&.&.&.&.&.&.&.&.&.&.&.&.&.&.&.&.&.] p + # * & 4 f.[.OXoX^.^.^.'.@X@XXX(.^.^.'.+XoXc.h & * * + 7 | +.&.$.&.&.&.&.&.&.&.&.&.&.&.&.&.&.",
"&.&.&.&.&.&.&.&.&.&.&.&.&.&.&.&.&.&.%.o.e = = = 4 f./._.OXOXOXOXt.q.].OXOXOX]./.z.h = = = 9 o.+.&.$.&.&.&.&.&.&.&.&.&.&.&.&.&.&.&.&.",
"&.&.&.&.&.&.&.&.&.&.&.&.&.&.&.&.&.&.&.&.%.O.+.o.  + , E !.E.E.E.E.E.E.!.!.!._ , + : ' } O.+.&.&.&.&.&.&.&.&.&.&.&.&.&.&.&.&.&.&.&.&.",
"&.&.&.&.&.&.&.&.&.&.&.&.&.&.&.&.&.&.&.&.&.&.&.&.O.  . & # < c 3 < 3 3 < < # * X - | &.&.$.&.&.&.&.&.&.&.&.&.&.&.&.&.&.&.&.&.&.&.&.&.",
"&.&.&.&.&.&.&.&.&.&.&.&.&.&.&.&.&.&.&.&.&.&.&.&.#.a O * M U Y U P h I T T M z @ e +.&.&.&.&.&.&.&.&.&.&.&.&.&.&.&.&.&.&.&.&.&.&.&.&.",
"&.&.&.&.&.&.&.&.&.&.&.&.&.&.&.&.&.&.&.&.&.&.&.$.p + z * I T.^ 3 0.t.P U T.^ < z @ e +.&.&.&.&.&.&.n.m.*.&.&.&.&.&.&.&.&.&.&.&.&.&.&.",
"&.&.&.&.&.&.&.&.&.&.&.&.&.&.&.&.&.&.&.&.&.&.&.+.- * * * P U P E t.i.Q P I I < * z +  .$.&.&.&.u.N.'.@XC.*.&.&.&.&.&.&.&.&.&.&.&.&.&.",
"&.&.&.&.&.&.&.&.&.&.&.&.&.&.&.&.&.&.&.&.&.&.$.e c N m * < 3 E t.V.Q.j.Q 3 3 & v m x w } &.&.4.C.OXOXW.B.*.&.&.&.&.&.&.&.&.&.&.&.&.&.",
"&.&.&.&.&.&.&.&.&.&.&.&.&.&.&.&.&.&.&.&.$.$.$.: B C V m % j t.Z.oXoXQ.p.Q o v V C V = } &.4.v.[.OXZ.8.7.*.&.&.&.&.&.&.&.&.&.&.&.&.&.",
"&.&.&.&.&.&.&.&.&.&.&.&.&.&.&.&.&.&.&.&.&.&.7 b V Z V n h t.Z.OXOXOXoX~.p.W 2 V F V m 6 { ) s.l.n.7.&.&.&.&.&.&.&.&.&.&.&.&.&.&.&.&.",
"&.&.&.&.&.&.&.&.&.&.&.&.&.&.&.&.&.&.&.&.&.+.: m C C m 5 t.Z.{.OXOXOXOXoX~.j.j v V V B $ r r.6.X.*.&.&.&.&.&.&.&.&.&.&.&.&.&.&.&.&.&.",
"&.&.&.&.&.&.&.&.&.&.&.&.&.&.&.&.&.&.&.&.$.7 b V C C m 5 Z.{.OXOXOXOXOXOXoXQ.Q z C C V m 5 6.f $.&.&.&.&.&.&.&.&.&.&.&.&.&.&.&.&.&.&.",
"&.&.&.&.&.&.&.&.&.&.&.&.&.&.&.&.&.&.&.&.&.6 b Z Z C m ~ [.[.OXOXOXOXOXOXoX].j.D V C C m - f $.&.&.&.&.&.&.&.&.&.&.&.#.&.#.&.&.&.&.&.",
"&.&.$.#.&.#.&.&.&.&.&.&.&.&.&.&.&.&.&.&.o.> b C C N R OXQ.W.OX#X]._.+XoX_.B.OX! n Z Z m : ' &.&.&.&.&.&.&.&.&.&.$.{ t [ y } &.&.&.&.",
"&.$.} y { y } $.&.&.&.&.&.&.&.&.&.&.&.&.e # B C C m R OX~.z._.$Xb.v.$X].v.B.OX! b V V V & : &.&.&.&.&.&.&.&.&.&.#.y [ ' [ y #.&.&.&.",
"&.#.y [ y [ y #.&.&.&.&.&.&.&.&.&.&.&.| > % B V C B R OX`.q.c.$Xy.0.$X!.) ~.OX! n Z V B < , d $.&.&.&.&.&.&.&.&.$.#.#.#.&.#.#.&.&.&.",
"&.$.#.$.#.$.#.$.&.&.&.&.&.&.&.&.&.&.&.p o v V Z C m R OX{.B.e. X) l }.g.p.OXOX! n V Z V n % 6 $.&.&.&.&.&.&.&.&.&.&.&.&.&.&.&.&.&.&.",
"&.&.&.&.&.&.&.&.&.&.&.&.&.&.&.&.&.&.] - v V C C V 2 e.OXOX[.l.0.l r 9.i.`.OX+Xk.4 B V Z V n ; p &.&.&.&.&.&.&.&.&.&.&.&.&.&.&.&.&.&.",
"&.&.&.&.&.&.&.&.&.&.&.&.&.&.&.&.&.' > N V C v V B 2 k.OXOXOX[.s.r.r.p.`.OXOXOXV.5 m V n V C B 2 s } $.&.&.&.&.&.&.&.&.$.#.$.&.&.&.&.",
"&.&.&.&.$.#.$.&.&.&.&.&.&.&.&.$.| 1 B C C C V C B 1 x.+XOXOXOX[.`.`.].OXOXOXOXB.5 m V B C Z C B , q } $.&.&.&.&.&.&.$.} t } $.&.&.&.",
"&.&.&.$.} y } $.&.&.&.&.&.&.$.' : B B N C V C C B 1 z.OXOXOXOXOXOXOXOXOXOXOX+XB.5 n Z C V V B n B , q } &.&.&.&.&.&.#.y { y #.&.&.&.",
"&.&.&.#.y [ y #.&.&.&.&.&.&.' > B B C C C N V C B 1 z.OXOXOXOXOXOXOXOXOXOXOXOXV.5 m Z V n C C C V V , d &.} &.#.$.&.$.#.$.#.$.$.#.&.",
"#.$.&.$.#.$.#.$.$.#.$.#.$.$.: N B n C C B V C C B 1 e.OXOXOXOX+X#X#X+XOXOXOXOXz.D B Z C V V C C V Z V ; ' y [ t } $.&.&.&.&.$.} y { ",
"t } $.&.&.&.&.$.} y [ y } $.g c N B C C v N C C V * R OXOX+XOX.X}. X.XOXOXOXOX! % B V V B z B Z B N n 8 u [ t [ y #.&.&.&.&.#.y { t ",
"{ y #.&.&.&.&.#.y [ y [ y %.%.e # % N z z n n n n * 5 ).OXOX).r.5.) 0.Q.OXOX`.W % v n m n * x n < @ 6 O.%.&.#.&.#.$.&.&.&.$.$.#.#.#.",
"&.#.$.&.&.&.&.&.#.#.#.$.#.&.&.%.p 7 o o & * z z z * 4 z.V.V.r.X.......6.V.V.v.j & z * z z * . @ 8 p +.&.&.&.&.&.&.&.&.&.&.&.&.&.&.&.",
"&.&.&.&.&.&.&.&.&.&.&.&.&.&.&.&.&.+.s s 8 . . . . ; d q. X}.0.{ &.&.@.) }. Xk.f : . . . . - d s o.&.&.&.&.&.&.&.&.&.&.&.&.&.&.&.&.&.",
"&.&.&.&.&.&.&.&.&.&.&.&.&.&.&.&.&.&.&.&.o.] ] ] f ' +.X.5.9.5.#.&.&.&.X.9.) -.@.| ] ] ] ]  .&.&.&.&.&.&.&.&.&.&.&.&.&.&.&.&.&.&.&.&.",
"&.&.&.&.&.&.&.&.&.&.&.&.&.&.&.&.&.&.&.&.&.&.&.&.&.&.&.&.%.&.&.&.&.&.&.&.O.u [ u } $.&.&.$.&.&.&.&.&.&.&.&.&.&.&.&.&.&.&.&.&.&.&.&.&.",
"&.&.&.&.&.&.&.&.&.&.&.&.&.&.&.&.&.&.&.&.&.&.&.&.&.&.&.&.&.&.&.&.&.&.&.#.y [ y [ y #.&.&.&.&.&.&.&.&.&.&.&.&.&.&.&.&.&.&.&.&.&.&.&.&.",
"&.&.&.&.&.&.&.&.&.&.&.&.&.&.&.&.&.&.&.&.&.&.&.&.&.&.&.&.&.&.&.&.&.&.&.$.$.$.#.$.#.$.&.&.&.&.&.&.&.&.&.&.&.&.&.&.&.&.&.&.&.&.&.&.&.&.",
"&.&.&.&.&.&.&.&.&.&.&.&.&.&.&.&.&.&.&.&.&.&.&.&.&.&.&.&.&.&.&.&.&.&.&.&.&.&.$.&.&.&.&.&.&.&.&.&.&.&.&.&.&.&.&.&.&.&.&.&.&.&.&.&.&.&.",
"&.&.&.&.&.&.&.&.&.&.&.&.&.&.&.&.&.&.&.&.&.&.&.&.&.&.&.&.&.&.&.&.&.&.&.&.&.&.&.&.&.&.&.&.&.&.&.&.&.&.&.&.&.&.&.&.&.&.&.&.&.&.&.&.&.&.",
"&.&.&.&.&.&.&.&.&.&.&.&.&.&.&.&.&.&.&.&.&.&.&.&.&.&.#.$.#.$.&.&.&.&.&.&.&.&.$.#.$.&.&.&.&.&.&.&.&.&.&.&.&.&.&.&.&.&.&.&.&.&.&.&.&.&.",
"&.&.&.&.&.&.&.&.&.&.&.&.&.&.&.&.&.&.&.&.&.&.&.&.&.#.t { t #.&.&.&.&.&.&.&.&.#.t #.&.&.&.&.&.&.&.&.&.&.&.&.&.&.&.&.&.&.&.&.&.&.&.&.&."
};
