/* XPM */
static char *_49bf943772149d2a9d337f469443910ogzz8i6CzTvlnNml[] = {
/* columns rows colors chars-per-pixel */
"48 57 233 2 ",
"   c None",
".  c #161223",
"X  c #171323",
"o  c #171324",
"O  c #181426",
"+  c #211B34",
"@  c #221C35",
"#  c #231D35",
"$  c #221C36",
"%  c #231D36",
"&  c #251F36",
"*  c #241B38",
"=  c #251C39",
"-  c #261D39",
";  c #251C3A",
":  c #271B3C",
">  c #271B3D",
",  c #271C3D",
"<  c #281B3D",
"1  c #281C3D",
"2  c #281C3E",
"3  c #2A1E3E",
"4  c #1E2635",
"5  c #1C2B35",
"6  c #1C2C36",
"7  c #1D2C36",
"8  c #1D2D37",
"9  c #1F2D36",
"0  c #372F2A",
"q  c #202135",
"w  c #222335",
"e  c #262037",
"r  c #212539",
"t  c #21273A",
"y  c #25203D",
"u  c #25213D",
"i  c #21323E",
"p  c #21333F",
"a  c #22343E",
"s  c #40380C",
"d  c #41390D",
"f  c #605413",
"g  c #625613",
"h  c #635714",
"j  c #645815",
"k  c #645915",
"l  c #645916",
"z  c #655916",
"x  c #655917",
"c  c #7B6F2A",
"v  c #7C6F2A",
"b  c #7C6F2B",
"n  c #7E712B",
"m  c #7F722B",
"M  c #7F722C",
"N  c #7F732C",
"B  c #2A1B41",
"V  c #2B1C41",
"C  c #2B1C43",
"Z  c #292240",
"A  c #2A2241",
"S  c #2A2242",
"D  c #2B2441",
"F  c #2C2442",
"G  c #2C2542",
"H  c #2F2149",
"J  c #2F2249",
"K  c #30224A",
"L  c #31284D",
"P  c #32284D",
"I  c #32294E",
"U  c #33294F",
"Y  c #273447",
"T  c #273547",
"R  c #342851",
"E  c #352852",
"W  c #3A2F59",
"Q  c #3A2F5A",
"!  c #3A2F5B",
"~  c #3B2F5B",
"^  c #462D6C",
"/  c #472E6E",
"(  c #482F70",
")  c #493672",
"_  c #4A3672",
"`  c #4A3673",
"'  c #4A3774",
"]  c #2A414F",
"[  c #2A4150",
"{  c #30495A",
"}  c #304A5B",
"|  c #304B5C",
" . c #365366",
".. c #365466",
"X. c #3B5C64",
"o. c #3B5D64",
"O. c #3B5B70",
"+. c #3D5D72",
"@. c #514940",
"#. c #524941",
"$. c #534B42",
"%. c #554C42",
"&. c #564D43",
"*. c #686559",
"=. c #69675A",
"-. c #6A675A",
";. c #6C6A5B",
":. c #4B6E69",
">. c #4C706A",
",. c #476F7A",
"<. c #477270",
"1. c #487370",
"2. c #497471",
"3. c #48707B",
"4. c #80742D",
"5. c #80742E",
"6. c #82774D",
"7. c #83774E",
"8. c #857A4E",
"9. c #867B4F",
"0. c #807C4D",
"q. c #807D4D",
"w. c #827E4E",
"e. c #837F4E",
"r. c #877C4F",
"t. c #8B7E5A",
"y. c #948E43",
"u. c #958E44",
"i. c #958F44",
"p. c #968F45",
"a. c #988A41",
"s. c #988A42",
"d. c #998C42",
"f. c #9A8C43",
"g. c #9B8E44",
"h. c #969045",
"j. c #938C52",
"k. c #948D52",
"l. c #958E53",
"z. c #958E54",
"x. c #979055",
"c. c #979056",
"v. c #B1A458",
"b. c #B2A459",
"n. c #B2A559",
"m. c #B2A45A",
"M. c #B3A55B",
"N. c #B4A659",
"B. c #B4A65A",
"V. c #B5A75A",
"C. c #B4A65B",
"Z. c #B6A85B",
"A. c #B6A95B",
"S. c #B6A95C",
"D. c #9B8573",
"F. c #9C8672",
"G. c #9D8772",
"H. c #9C8673",
"J. c #9D8873",
"K. c #A4A76C",
"L. c #B0B17F",
"P. c #C8C071",
"I. c #CAC271",
"U. c #CAC371",
"Y. c #C8C172",
"T. c #CAC272",
"R. c #CBC372",
"E. c #CCC473",
"W. c #CCC573",
"Q. c #C8C774",
"!. c #C8C775",
"~. c #CDC574",
"^. c #C9C876",
"/. c #543783",
"(. c #553784",
"). c #593D8B",
"_. c #5A3E8C",
"`. c #5B3F8C",
"'. c #6844A2",
"]. c #6944A3",
"[. c #6945A3",
"{. c #6B47A3",
"}. c #6944A4",
"|. c #6945A4",
" X c #6A45A5",
".X c #5D958C",
"XX c #5D968D",
"oX c #5E968E",
"OX c #A9AA8E",
"+X c #B4B581",
"@X c #ABAC90",
"#X c #CDC483",
"$X c #CEC584",
"%X c #DFDE8A",
"&X c #C9C795",
"*X c #CBC896",
"=X c #E0DE8A",
"-X c #E1DF8A",
";X c #E1E08A",
":X c #E2E08B",
">X c #E2E18B",
",X c #E2E08C",
"<X c #E2E18C",
"1X c #E3E18C",
"2X c #E3E28C",
"3X c #E4E28D",
"4X c #E3DFAA",
"5X c #E4E0AB",
"6X c #E5E2AD",
"7X c #E6E2AD",
"8X c #F6FBA3",
"9X c #F7FCA3",
"0X c #F7FCA4",
"qX c #F8FCA3",
"wX c #F8FDA3",
"eX c #F9FDA3",
"rX c #F8FDA4",
"tX c #F9FEA4",
"yX c #F9FEA5",
"uX c #FAFFA5",
"iX c #FAFFA6",
"pX c #FAFEB4",
"aX c #FBFFB5",
"sX c #F9FCC2",
"dX c #FBFEC4",
"fX c #FCFFC5",
"gX c #FCFFC6",
"hX c #FAFCD2",
"jX c #FBFCD3",
"kX c #FBFDD4",
"lX c #FCFDD4",
"zX c #FDFFD5",
"xX c #FDFFD6",
/* pixels */
"                  o '.(                                                 ^ |.O                   ",
"                  + ) |.(                                             ^  X` $                   ",
"                o P W ) |.(                                         ^ |.` ! R o                 ",
"                + W ! ! [.|.(                                     ^ |. X! ! ! $                 ",
"                + W W W ` |. X(                                 ^ |. X' ! W W *                 ",
"              . < W W ! ~ ` |.|.(                             ^ |. X` ! ! ! W , o               ",
"              + B W W ! W W |.|.|.( ( ( ( ( ( ( ^ ( ( ( ( ( ( ].|.|.! ! W ! W B $               ",
"              + B W ! W ! W ) |.|. X|. X|.|.].|.|.|. X|.]. X|.|.|.' ! W ! W W B $               ",
"              + B W W W ! ! W |.|.` ` ) ' ' ' ' ` ` ` ` ` ` ` |. X~ ~ ~ ~ ~ W B $               ",
"              + B W ! W H W ).` ` ! W Q Q W W ! W ~ ! W W ! ~ ) ` ).~ ~ ~ ~ W B $         :.    ",
"              + B H W K (.! ` ! ! ! Q Q Q Q W W W ! W ! ! W W W W ` ! K ~ W W B $       :.  >.  ",
"              + B B H (.` ! W W ~ ~ Q Q Q Q W W ! W ! W W ! W ! ! W W (.J ~ H V $         >.    ",
"              + B B B }.! W W ! W ! W ! ~ ~ W ~ ~ ~ ~ ~ ! ~ ~ ~ ! W ! ) (.K V < $               ",
"                * B /.` ! W ! W W W W )._._.)._._.).).).).~ ~ ~ W ! W ! |.C B ;                 ",
"                + ; ) ! ! W ! ! ! ).).D.H.H.H.H.H.H.F.F.F.`.).~ ~ W W W ) (.; $         :.    :.",
"                + I W W W ! W )._.D.H.M.V.V.V.V.V.V.Z.N.Z.J.F.`.).~ W W ~ ` U $                 ",
"              o P ! W ! W ! ).H.H.C.V.V.Z.N.Z.Z.Z.N.V.V.V.V.V.H.H.`.~ ~ W W ! I o               ",
"              + W W ! W ! ).H.M.C.Z.V.<Xn n ;X;X3X<XN n N.V.V.Z.Z.H.`.~ W W W ! $               ",
"            o P W ! W ! W |.M.N.Z.;X2X0X!.!.uXuXuXuX^.W.<X<XZ.V.N.Z.{.~ W W ! W I o             ",
"          . P ! ! W ! W W |.M.N.;XuXuXuXuXuXuXuXuXuXuXuXuXuX2X;XS.N.{.~ W ! W ! W I o           ",
"        . P W W W ! W ! t.H.-X3XW.uXuXuXuXuXuXuXuXuXuXuXuXuXuX~.;X3XJ.G ! W W W ! W I X         ",
"      . ; J W W ! W W S b.-XuXuX6Xi.y.y.R.tXuXuXuXuXuX~.i.i.y.5XuXuX3X8.G ! W W W ! K < o       ",
"        ; ; H H ~ ! ! + b.qXuXuXaX*X!.!.;XuXuXuXuXuXuX<XQ.Q.&XaXuXuXtXZ.% ~ W W K K ; ;         ",
"            * ; H H K < @.R.uXuXuXaXuXuXuXuXuXfXfXuXuXuXuXuXaXuXuXtX~.&.2 K J K ; ;             ",
"                ; ; < B > @.R.uXuXuXuXuXuXuXuXc.z.uXuXuXuXuXuXuXuX~.&.2 < V ; ;                 ",
"                    ; ; ; + @.R.uXuXuXuXuXuXuX^.Q.uXuXuXuXuXuXuX~.&.$ ; ; ;                     ",
"                              @.-.-.0XuXuXuXiXiXuXuXuXuXuXuX;.-.@.                              ",
"                                    *.-.-.-.=.=.*.*.-.-.-.-.                                    ",
"                                  o > > 4 Y Y 4 4 Y Y 4 2 > o                                   ",
"                                o > B t <. .T 8 5 ]  .1.t B > o               K.OX              ",
"                              . ; B r <.oX:.a ;.w.a O.oX2.t B > o           K.uXaX@X            ",
"                            . > B B 5 .X2.{ a N.N.9 } ,.oX8 B B > o           uXuXlX            ",
"                            + B B B 5 X.{ i ;.A.A.y.a { o.9 B B B +           P.8XaX            ",
"                          . I E E B , Y a ;.Z.;X2XA.q.a i u B E E I o         N.tXuX            ",
"                          + W W W E B 4 y.n.;XtXuX<XZ.j.w 2 I ~ W W $         v.tX~.            ",
"                        o P W W ! W ; 6.v.;XtXtXuX8X%Xv.8.; W ~ ! W I o     s %XtX              ",
"                        + W W ! ~ S 6.N.<XuXuXuXuXuXuX3XZ.8.G ~ W ! ! $ d d d.R.i.              ",
"                      o P W ! W ~ * N.;XuXuXuXuXuXuXuXuX3XZ.% W ! W W I 0 d.N.N                 ",
"                      + W ! W ! W + -XtXuXuXuXuXuXuXuXuXuX3Xe W W ! W ! + N.N                   ",
"                      + W W ! W S L.8X~.tXuXuXuXuXuXuXuX~.tX+XG ! W ! W * b                     ",
"                    . > W W W W ; 8XuXZ.tXuXfX~.E.fXuXuXZ.tXuXe W ! W ! 2 0                     ",
"                    + B W W W ! + 8XuXZ.y.tXlXS.N.lXuXi.N.tXuXe W W ! W B $                     ",
"                  . ; B W W ! W + 0XuX3Xx sXlX5.4.jXfXx -XtXuXe W W W ! B > o                   ",
"                o > B E ! ! W ! + qXuXuXd.k.lXx f hXx.d.tXuXuXe W ! W W E B > o                 ",
"              . , R R W W W ! S 7.qXtXuX3Xg.k.h g k.f.-XtXuXuXr.F ~ ~ ~ W R V , .               ",
"            . I R W ~ W K ! ! + b.tXuXuXuX3Xg.d.d.d.-XuXuXuXuXZ.% ~ ~ H W W R R 2 O             ",
"        o . L ! W ! W W R ~ ! + b.tXuXuXuXuX3X1X1X3XuXuXuXuXuXZ.w W ~ I W ~ ~ ~ E I . X         ",
"    . . L I ~ ! H W ~ ~ ~ ~ ~ * b.tXuXuXuXuXuXuXuXuXuXuXuXuXuXZ.% W ~ ~ ~ W ~ H ~ ~ I I O .     ",
"  . I I W W W W R ~ W H ~ ~ W $ n.0XuXuXuXuXuXuXuXuXuXuXuXuXuXZ.% ~ ! W K W ! E W ! W ! I I o   ",
". I ~ ~ W W K ! ~ ~ W R W W W * N.0XuXuXuXuXuXuXuXuXuXuXuXuXuXZ.3 W W W E ! ! W W K ! W ! W I o ",
"  S S ~ W K E W ~ ~ H W W ! W , @.8XuXuXuXuXdXdXdXfXuXuXuXuXuX&.3 W W W W K W ! W E H W W S S   ",
"      u S B H ! ~ H V W W W ! B $ 0XuXuXuXuX$X$X#X#XtXuXuXuXuX; V ~ W W ! B K W W K V S S       ",
"          ; ; H H V B H H H H B * P.tXuXuX~.N N n n R.tXuXuX~.% B H H H H B B H K ; ;           ",
"              * ; ; B B V B V B + b.R.tXuXN         c tXuX~.Z.e B V V B B B ; ; ;               ",
"                    * ; ; % ; ;   v N.R.!.j         f R.~.Z.n   + ; ; ; ; ;                     ",
"                                  f 4X6X6Xx         f 4X6X6Xx                                   ",
"                                    k.z.z.            j.z.z.                                    "
};
