/* XPM */
static char *_945a2d554c2479b90328c8ae33e0948gP0yuYt0mquhU806[] = {
/* columns rows colors chars-per-pixel */
"47 57 164 2 ",
"   c None",
".  c #120E1D",
"X  c #14101F",
"o  c #211C14",
"O  c #171324",
"+  c #181426",
"@  c #1D162D",
"#  c #1F1930",
"$  c #221B35",
"%  c #261C3B",
"&  c #281B3E",
"*  c #1C2B35",
"=  c #22243A",
"-  c #24293E",
";  c #24213A",
":  c #26323B",
">  c #3A3436",
",  c #382F35",
"<  c #443C0E",
"1  c #423927",
"2  c #40363F",
"3  c #5B511C",
"4  c #625613",
"5  c #42443E",
"6  c #635820",
"7  c #7D712A",
"8  c #696234",
"9  c #766B3D",
"0  c #6F6427",
"q  c #2A1C42",
"w  c #2E1F48",
"e  c #2A2142",
"r  c #2F2348",
"t  c #292D43",
"y  c #32254D",
"u  c #332A4F",
"i  c #253846",
"p  c #3B324A",
"a  c #372456",
"s  c #352A53",
"d  c #382C56",
"f  c #3A2F5A",
"g  c #3B265B",
"h  c #3E2B60",
"j  c #3E3161",
"k  c #453943",
"l  c #423A51",
"z  c #472F6E",
"x  c #44336A",
"c  c #48356F",
"v  c #493A60",
"b  c #4A3673",
"n  c #4F367B",
"m  c #513A7E",
"M  c #2D414B",
"N  c #2F4A4E",
"B  c #314145",
"V  c #2B4252",
"C  c #2F4858",
"Z  c #314C59",
"A  c #3A5869",
"S  c #3E6368",
"D  c #4C4341",
"F  c #424C43",
"G  c #484E40",
"H  c #4E5441",
"J  c #575051",
"K  c #695F48",
"L  c #675E45",
"P  c #605D55",
"I  c #42605C",
"U  c #6B6B48",
"Y  c #6E6448",
"T  c #756C4F",
"R  c #5A447A",
"E  c #466E77",
"W  c #4B7779",
"Q  c #79617E",
"!  c #80752E",
"~  c #807533",
"^  c #847A37",
"/  c #817740",
"(  c #8B7F4F",
")  c #827D5E",
"_  c #91787E",
"`  c #51827D",
"'  c #94883F",
"]  c #8C8549",
"[  c #948D44",
"{  c #9A8C43",
"}  c #948A4B",
"|  c #988E53",
" . c #918759",
".. c #9D9757",
"X. c #A2954A",
"o. c #A1994D",
"O. c #AB9E52",
"+. c #A49D50",
"@. c #AEA558",
"#. c #B5A75A",
"$. c #B3AD5F",
"%. c #858569",
"&. c #979368",
"*. c #A08B6F",
"=. c #A09760",
"-. c #A79468",
";. c #A39F6F",
":. c #A69F67",
">. c #AAA363",
",. c #BBAF61",
"<. c #B6AD6D",
"1. c #BCB364",
"2. c #BEBA6A",
"3. c #AAA772",
"4. c #B3AF76",
"5. c #B7A97A",
"6. c #C4BC6B",
"7. c #C9C06F",
"8. c #CCC473",
"9. c #C9C875",
"0. c #C9C47C",
"q. c #C6C270",
"w. c #D1CE7B",
"e. c #D6D17E",
"r. c #553884",
"t. c #5A3E8C",
"y. c #5C3F90",
"u. c #5F4093",
"i. c #725885",
"p. c #65439E",
"a. c #7F6190",
"s. c #6A45A5",
"d. c #83658C",
"f. c #558887",
"g. c #5B918B",
"h. c #978085",
"j. c #B3B480",
"k. c #BCBE85",
"l. c #CDC483",
"z. c #CDCF86",
"x. c #C9CB8A",
"c. c #D9D581",
"v. c #DDDD8A",
"b. c #D9D886",
"n. c #CAC896",
"m. c #D1CF9E",
"M. c #D5D695",
"N. c #E3E28C",
"B. c #E6E690",
"V. c #ECEC95",
"C. c #EAEB9A",
"Z. c #F3F79E",
"A. c #DCDBA7",
"S. c #E1DEAC",
"D. c #E5E2AD",
"F. c #ECEDA6",
"G. c #FAFFA5",
"H. c #FBFFAC",
"J. c #F4F7A8",
"K. c #FBFFB3",
"L. c #FBFFBD",
"P. c #E8E6B3",
"I. c #EEEFC4",
"U. c #FCFFCA",
/* pixels */
"                  n a                                                   r.&                   ",
"                O b p.a                                               r.p.y                   ",
"                $ s m p.a                                           r.u.x r X                 ",
"              + s f f t.s.a                                       r.s.c d d ;                 ",
"              + u f f m p.s.a                                   r.s.u.x f f ;                 ",
"              @ u f f f m p.s.a                               r.s.u.x f f f r .               ",
"            + & s f f f f u.s.s.a                           r.s.s.c f f f f r $               ",
"            + & s f f f f m p.s.s.s.s.s.s.s.s.s.s.s.s.s.s.s.s.s.u.x f f f f r %               ",
"            + & s f f f f f y.s.u.u.u.u.u.u.u.u.t.t.t.t.u.t.p.s.c f f f f f r $               ",
"            + & s f f s f x r.u.j d u f u f s f f f f f f f m t.m f f f f f r %               ",
"            + & y f s g f m x f f f f f f f f f f f f f f f f f r.x s f f f r %               ",
"            + & q u g r.x f f f f f f f f f f f f f f f f f f f f f g d f s q %             I ",
"            + & q & r.c f f f f f f f f f f f f f f f f f f f f f f m z d q & %               ",
"              $ q a r.x f f f f f f j R b b b b b b b b j f f f f f f y.g q & @               ",
"              + % b x f f f f f x b i.a.d.d.d.d.d.d.d.d.R b j f f f f m z w $                 ",
"              + & s f f f f x b i.d.:.@.#.#.#.#.#.#.#.#._ d.R b j f f f r.d =                 ",
"              # s f f f f c i.d.-.#.#.#.#.#.#.#.#.#.#.#.#.#._ d.R j f f f f r X               ",
"            + s f f f f c i.-.#.#.#.6.+.{ 1.8.8.8.O.' @.#.#.#.#._ R j f f f f e               ",
"            # f f f f f t.*.#.#.6.8.V.$.[ v.G.G.G.$.[ 1.6.6.#.#.#.a.b f f f f r X             ",
"          $ s f f f f f y.*.#.6.V.G.G.G.G.G.G.G.G.G.G.G.G.c.8.$.#.d.c f f f f f r X           ",
"        $ s f f f f f J Q 5.8.v.Z.G.G.G.G.G.G.G.G.G.G.G.G.G.V.w.8.h.v d f f f f f r X         ",
"      @ r d f f f f a  .6.C.G.b.0.9.9.v.Z.G.G.G.G.G.V.w.8.9.0.V.G.c.T p d f f f f s & .       ",
"      $ q r s f f f e ( N.G.G.L.4.[ [ 1.V.G.G.G.G.G.e.+.[ | S.H.G.G.8.D u f f s s e % @       ",
"        O # % r s s q K 0.Z.G.G.L.H.G.G.G.G.K.K.G.G.G.G.G.L.H.G.G.B.=.> y s s q % # O         ",
"            + $ & q q % L 0.Z.G.G.G.G.G.G.G.M.n.F.G.G.G.G.G.G.G.V.+.p q q & & @ O             ",
"                + $ % & $ L 0.Z.G.G.G.G.G.G.>.[ v.G.G.G.G.G.G.V.=.> % & % @ O                 ",
"                    O + + O L 3.j.C.G.G.G.G.G.G.G.G.G.G.G.x.j. ., O O O O                     ",
"                              O O %.j.j.j.j.j.j.4.j.j.j.j.5 + +                               ",
"                                  @ % # - t = = = - = $ % .                                   ",
"                                @ q e M C V * * i C Z t q % .                                 ",
"                              @ q & M ` W C H 5 B A f.S t q % .             x.L.%.            ",
"                            @ % q * W f.S i ] #.5 C W g.N % q % .           B.G.U.            ",
"                          + & q q = I S V F | #.U B Z E M ; q q $           >.Z.K.            ",
"                          $ r r q = i i F | 6.8.1.U B i - q r r e X         T B.G.            ",
"                        O s f f y q = 5 | 6.V.G.c.,.U : q q s f f e         / B.V.            ",
"                        $ s f f f r k | 6.V.H.G.G.c.1.Y , s f f f r O       ..V...            ",
"                      + u f f f s D | 6.V.G.G.G.G.G.c.,.Y p d f f f e o   6 7.w.              ",
"                      $ s f f f q ] 6.V.G.G.G.G.G.G.G.e.6.5 s f f f r 1 0 o.X.3               ",
"                    O u f f f f ; &.V.G.G.G.G.G.G.G.G.G.e.D s f f f f ; ] X.3                 ",
"                    O u f f f s J M.V.J.G.G.G.G.G.G.G.V.Z.&.l f f f f e T 3                   ",
"                    @ s f f f q k.G.7.B.G.K.F.B.J.H.G.7.B.G.P u f f f q 1                     ",
"                  + & s f f f ; k.G.7.6.V.U.6.#.P.K.c.$.N.G.P u f f f r $                     ",
"                  # & s f f f e k.G.c.! z.U.<.{ S.L.] @.V.G.P s f f f y % .                   ",
"                # % r s f f f e k.G.G.o.4.I.} 4 m.A.} b.G.G.P s f f f y q % .                 ",
"              @ q r s f f f s D x.G.G.c.' 5.~ 4 3.} $.V.G.G.) k d f f f y q % X               ",
"            $ r d f f s f f e ( B.G.G.G.c.' ! ! 7 #.V.G.G.G.6.D u f s f f y y & X             ",
"          # s f f f f s d f e ( B.G.G.G.G.c.8.8.8.V.G.G.G.G.8.D s f y s f f f y e X           ",
"      $ e s f s f f f f f f ; ( N.G.G.G.G.G.G.G.G.G.G.G.G.G.8.D u f f f f f s f f r e X       ",
"  $ e d f f f u d f s f f f e ( N.G.G.G.G.G.G.G.G.G.G.G.G.G.6.D u f f s d f u d f f f r e X   ",
"$ s f f f s s f f f y d f f e ( B.G.G.G.G.G.G.G.G.G.G.G.G.G.6.D s f f y s f f f s f f f f r X ",
"e u s f s y s f f d d f f f e L v.G.G.G.G.K.K.L.K.H.G.G.G.G.:.k s f f f s s f f s y f f s u # ",
"  O e u q u f f s q a d f f r % k.G.G.G.G.F.D.D.D.J.G.G.G.G.P & s f f f y y f f s q r u # O   ",
"      O $ q y s q q y s s s r % 3.Z.G.G.B.@.{ { { 8.Z.G.G.B.J % y s y s q q y s q % @ O       ",
"          O $ & & q q q & q & $ ] e.Z.G.,.3 < < < ^ N.G.V.6.D q & q q q q & & & @ O           ",
"              O + $ % & % % & @ 9 O.e.N.^         < 1.N.6.X.1 % & & % & & @ O O               ",
"                    O O O O O   < >.l.l.~         < >.l.l.!     O O O O O                     ",
"                                  ;.n.n.8           ;.n.n.8                                   "
};
