/* XPM */
static char *result[] = {
/* columns rows colors chars-per-pixel */
"66 66 191 2 ",
"   c #333D1E",
".  c #1D132D",
"X  c #1F1431",
"o  c #221A2C",
"O  c #211534",
"+  c #251B35",
"@  c #251738",
"#  c #261A3B",
"$  c #281C3E",
"%  c #2A2B23",
"&  c #26222E",
"*  c #2B2A29",
"=  c #342B29",
"-  c #2D3222",
";  c #2F312A",
":  c #343B22",
">  c #323629",
",  c #2A2135",
"<  c #2E2D32",
"1  c #24213B",
"2  c #33283A",
"3  c #29333B",
"4  c #3C3233",
"5  c #38383C",
"6  c #433A35",
"7  c #39471D",
"8  c #394420",
"9  c #44581A",
"0  c #485F1A",
"q  c #517606",
"w  c #547B07",
"e  c #567609",
"r  c #4C6716",
"t  c #4C6519",
"y  c #516F17",
"u  c #557416",
"i  c #5B7E15",
"p  c #547218",
"a  c #524C2D",
"s  c #435324",
"d  c #4E4538",
"f  c #5D553D",
"g  c #766A27",
"h  c #7F7C28",
"j  c #796F30",
"k  c #2B1C42",
"l  c #2C2144",
"z  c #2F2448",
"x  c #32254D",
"c  c #33294E",
"v  c #293A44",
"b  c #3C3340",
"n  c #352552",
"m  c #352A53",
"M  c #382D57",
"N  c #392658",
"B  c #3A2F5A",
"V  c #3D305E",
"C  c #3F2962",
"Z  c #3F3161",
"A  c #463A4E",
"S  c #412C66",
"D  c #413265",
"F  c #45346C",
"G  c #48356F",
"H  c #4B3775",
"J  c #4D3878",
"K  c #51387D",
"L  c #334142",
"P  c #2C4452",
"I  c #324C58",
"U  c #375659",
"Y  c #395563",
"T  c #3D6162",
"R  c #4B454A",
"E  c #534E47",
"W  c #5E594C",
"Q  c #615B4B",
"!  c #6A654E",
"~  c #756B48",
"^  c #7C7249",
"/  c #736D52",
"(  c #6E7657",
")  c #787559",
"_  c #5D457F",
"`  c #654C7F",
"'  c #4B7577",
"]  c #6D6B69",
"[  c #6E7162",
"{  c #6D6574",
"}  c #817B2D",
"|  c #867B38",
" . c #857949",
".. c #8F767F",
"X. c #947D78",
"o. c #5C840E",
"O. c #5E8315",
"+. c #6A8F0F",
"@. c #65920B",
"#. c #68950C",
"$. c #6B9A0D",
"%. c #668715",
"&. c #638B14",
"*. c #679113",
"=. c #6B9512",
"-. c #6D9C11",
";. c #709311",
":. c #729C10",
">. c #739E1D",
",. c #6FA00E",
"<. c #73A50F",
"1. c #74A710",
"2. c #79A818",
"3. c #428534",
"4. c #688A25",
"5. c #76C75F",
"6. c #79C862",
"7. c #80AF1F",
"8. c #8B8E31",
"9. c #89843B",
"0. c #8EAF30",
"q. c #868248",
"w. c #948941",
"e. c #979546",
"r. c #8B8651",
"t. c #948852",
"y. c #9A9653",
"u. c #A89B4F",
"i. c #85AC5C",
"p. c #96A752",
"a. c #86B55E",
"s. c #A5AD4A",
"d. c #B5A75A",
"f. c #B4AA5D",
"g. c #B8AB5E",
"h. c #B6BA5A",
"j. c #9E8A6F",
"k. c #9A8570",
"l. c #A18C6E",
"z. c #AA9865",
"x. c #90B964",
"c. c #B8AB67",
"v. c #BCB568",
"b. c #ABA774",
"n. c #BFB470",
"m. c #C3B96A",
"M. c #C4BB6B",
"N. c #C8BF77",
"B. c #98D66D",
"V. c #B9D16F",
"C. c #CBC372",
"Z. c #C9C476",
"A. c #D2CC7B",
"S. c #D5D17E",
"D. c #563A86",
"F. c #5C4383",
"G. c #614882",
"H. c #6C5380",
"J. c #72568B",
"K. c #694A96",
"L. c #63429B",
"P. c #876B88",
"I. c #C2BE86",
"U. c #C7C68C",
"Y. c #CCD88A",
"T. c #D9D684",
"R. c #D8D784",
"E. c #DDDC89",
"W. c #D4DF93",
"Q. c #E1DF89",
"!. c #D7E68B",
"~. c #D7E799",
"^. c #E5E58F",
"/. c #E8EA94",
"(. c #EAEC95",
"). c #E4F699",
"_. c #EEF19A",
"`. c #F2F59C",
"'. c #F2F99F",
"]. c #D6D4A3",
"[. c #D6ECA6",
"{. c #DAF1AA",
"}. c #E8EBAE",
"|. c #F1F3A3",
" X c #F6FBA2",
".X c #FAFFA5",
"XX c #FAFEAC",
"oX c #FAFEB9",
"OX c #EEEEC1",
"+X c #F4F6C5",
"@X c #FBFDC5",
/* pixels */
"1.1.1.1.1.1.1.1.1.1.1.1.1.1.1.1.1.1.1.1.1.1.1.1.1.1.,.q @.q ,.1.1.1.<.<.1.,.q $.q ,.1.1.1.1.1.1.1.1.1.1.1.1.1.1.1.1.1.1.1.1.1.1.1.1.",
"1.1.1.1.1.1.1.1.1.1.1.1.1.1.1.1.1.1.1.1.1.1.1.1.1.1.<.,.<.,.1.<.,.<.,.<.1.<.,.<.,.<.<.,.<.,.<.<.1.1.1.1.1.1.1.1.1.1.1.1.1.1.1.1.1.1.",
"1.1.1.1.1.1.1.1.1.1.1.1.1.1.1.1.1.1.1.1.1.1.1.1.1.1.1.1.1.1.<.@.o.@.q @.<.1.<.<.<.<.@.o.@.w $.<.1.1.1.1.1.1.1.1.1.1.1.1.1.1.1.1.1.1.",
"1.1.1.1.1.1.1.1.1.1.1.1.1.1.1.1.1.1.1.1.1.1.1.1.1.1.1.1.1.1.,.o.@.q @.o.,.1.1.<.,.,.o.@.w @.w ,.1.1.1.1.1.1.1.1.1.1.1.1.1.1.1.1.1.1.",
"1.1.1.1.1.1.1.1.1.1.1.1.1.1.1.1.1.1.1.1.1.1.1.1.1.1.1.1.1.1.<.,.<.,.<.,.<.1.1.1.1.1.,.,.,.<.,.1.1.1.1.1.1.1.1.1.1.1.1.1.1.1.1.1.1.1.",
"1.1.1.1.1.1.1.1.1.1.1.1.1.1.1.1.1.1.1.1.1.1.1.1.1.1.1.1.1.1.1.1.1.1.1.1.1.1.1.1.1.1.1.1.1.1.1.1.1.1.1.1.1.1.1.1.1.1.1.1.1.1.1.1.1.1.",
"1.1.1.1.1.1.1.1.1.1.1.1.1.1.1.1.1.1.1.1.1.1.1.1.1.1.1.1.1.1.1.1.1.1.1.1.1.1.1.1.1.1.1.1.1.1.1.1.1.1.1.1.1.1.1.1.1.1.1.1.1.1.1.1.1.1.",
"1.1.1.1.1.1.1.1.1.1.1.1.1.1.1.1.1.1.1.1.1.1.1.1.1.1.1.1.1.1.1.1.1.1.1.1.1.1.1.1.1.1.1.1.1.1.1.1.1.1.1.1.1.1.1.1.1.1.1.1.1.1.1.1.1.1.",
"1.1.1.1.1.1.1.1.1.1.1.1.1.1.1.1.1.1.1.1.1.1.1.1.1.1.1.1.1.1.1.1.1.1.1.1.1.1.1.1.1.1.1.1.1.1.1.1.1.1.1.1.1.1.1.1.1.1.1.1.1.1.1.1.1.1.",
"1.1.1.1.1.1.1.1.1.1.1.1.1.1.1.1.1.1.1.1.1.1.1.1.1.1.1.1.1.1.1.1.1.1.1.1.1.1.1.1.1.1.1.1.1.1.1.1.1.1.1.1.1.1.1.1.1.1.1.1.1.1.1.1.1.1.",
"1.1.1.1.1.1.1.1.1.1.1.1.1.1.1.1.1.1.1.1.1.1.1.1.1.1.1.1.1.1.1.1.1.1.1.1.1.1.1.1.1.1.1.1.1.1.1.1.1.1.1.1.1.1.1.1.1.1.1.1.1.1.1.1.1.1.",
"1.1.1.1.1.1.1.1.1.1.1.1.1.1.1.1.1.1.1.<.1.1.1.1.1.1.1.1.1.1.1.1.1.1.1.1.1.1.1.1.1.1.1.1.1.1.1.1.1.1.1.1.1.1.1.1.1.1.1.1.1.1.1.1.1.1.",
"1.1.1.1.1.1.1.1.1.1.1.1.1.1.1.1.1.1.-.4.>.1.1.1.1.1.1.1.1.1.1.1.1.1.1.1.1.1.1.1.1.1.1.1.1.>.4.*.1.1.1.1.1.1.1.1.1.1.1.1.1.1.1.1.1.1.",
"1.1.1.1.1.1.1.1.1.1.1.1.1.1.1.1.1.1.y C ] >.1.1.1.1.1.1.1.1.1.1.1.1.1.1.1.1.1.1.1.1.1.1.-.( B 0 1.1.1.1.1.1.1.1.1.1.1.1.1.1.1.1.1.1.",
"1.1.1.1.1.1.1.1.1.1.1.1.1.1.1.1.1.1.y m L.[ >.1.1.1.1.1.1.1.1.1.1.1.1.1.1.1.1.1.1.1.1.>.[ L.1 t 1.1.1.1.1.1.1.1.1.1.1.1.1.1.1.1.1.1.",
"1.1.1.1.1.1.1.1.1.1.1.1.1.1.1.1.1.&.8 z G L.{ ( 2.1.1.1.1.1.1.1.1.1.1.1.1.1.1.1.1.1.( [ F.Z z > *.1.1.1.1.1.1.1.1.1.1.1.1.1.1.1.1.1.",
"1.1.1.1.1.1.1.1.1.1.1.1.1.1.1.1.1.i X x M F J L.{ ) 1.1.1.1.1.1.1.1.1.1.1.1.1.1.( { L.H B B x X u 1.1.1.1.1.1.1.1.1.1.1.1.1.1.1.1.1.",
"1.1.1.1.1.1.1.1.1.1.1.1.1.1.1.1.1.i . x B B B G L.K.H.{ { H.{ H.H.H.{ H.{ H.H.{ K.J F B B B x X u 1.1.1.1.1.1.1.1.1.1.1.1.1.1.1.1.1.",
"1.1.1.1.1.1.1.1.1.1.<.$.<.<.<.1.1.i . x B B M B H L.L.D G Z F Z _ I Z F G F F D.L.F B B B B n X u 1.1.1.1.1.1.1.1.1.1.1.1.1.1.1.1.1.",
"1.1.1.1.1.1.1.1.1.<.$.w @.w $.<.1.i . x B B n B K D D B V V V V B B B B B V V Z F D.V B B B n X u 1.1.1.1.1.1.1.1.1.1.1.1.1.1.1.1.1.",
"1.1.1.1.1.1.1.1.1.,.w @.w @.w <.1.i . k x n K S V B B B B B B B B B B B B B B B B V B m m M z X u 1.1.1.1.1.1.1.1.1.1.<.1.1.1.1.1.1.",
"1.1.1.1.1.1.1.1.1.<.,.<.<.<.$.<.1.i . k k D.F B B B B B B B B B B B B B B V B B B B V D.N n k X u 1.1.1.1.1.<.<.,.<.,.<.1.1.1.1.1.1.",
"1.1.1.1.1.1.1.1.1.1.1.1.<.1.1.1.1.%.% @ n D.D B B B B B D G H G H F F F F D B B V B B Z D.k # * o.1.1.1.1.1.<.@.o.@.q #.1.1.1.1.1.1.",
"1.1.1.1.1.1.1.1.1.1.1.1.1.1.1.1.1.1.y . S D B B B B D J ` P.P.P.P.P.P.P.P.H.H Z B B V Z K N X t 1.1.1.1.1.1.,.o.@.q @.o.,.1.1.1.1.1.",
"<.<.,.<.1.1.1.1.1.1.1.1.1.$.1.1.1.1.y O z V B B V J ` ..l.d.d.d.f.f.d.d.d.l...` K D B B D D O t 1.1.1.1.1.1.1.,.,.,.<.,.1.<.,.<.,.<.",
"q @.w $.<.1.1.1.1.1.1.<.$.w $.<.1.&.> c V B B V _ X.j.d.d.d.d.d.d.f.d.d.d.d.d.l.X.G.B B B B m > o.1.1.1.1.1.1.1.1.1.1.1.<.$.o.@.w $.",
"#.w @.w ,.1.1.<.1.1.1.,.w @.w $.1.O.# V B B V F.k.d.d.d.C.^.^.^.^.^.^.^.S.g.d.d.d.j.G.B B B B $ u 1.1.1.1.1.1.1.1.1.1.1.,.o.@.q @.q ",
"<.,.<.,.<.<.,.<.,.1.1.<.$.1.<.1.O.> c B B V V K.z.d.M./.`. X`..X.X.X X'._.(.C.g.d.d.K.V B B B M ; o.<.1.1.1.1.1.1.1.1.1.,.,.,.,.,.,.",
"1.1.1.1.<.$.w @.w $.<.1.1.1.1.O.; m B V m V D J.c.M._. X.Xv.9.!..X.X^.9.h..X`._.N.c.J.D B B B B M 3 O.<.1.1.1.1.1.1.1.1.,.1.1.1.1.1.",
"1.1.1.1.,.w @.w @.w ,.1.1.<.&.; c V B B V m r.c.(._.^./..X_./. X.X.X X/._..X(.^._.(.z.5 m B B B B c * O.1.1.1.1.1.1.1.1.<.<.1.1.1.1.",
"1.1.1.1.<.,.<.,.<.,.<.1.1.,.7 + k m m V M + t./.XX}.q.p.!.)..X.X.X.X.XoX}.W.p.9.~..X(.t.+ B B M m k + 8 ,.1.1.1.1.1.1.1.1.1.1.1.1.1.",
"1.1.1.1.1.1.1.1.1.1.1.1.1.1.-.7 - @ l m m + ~ R. XXX{.6.3.i.!.'..X.XXX[.x.3.5.{.@XXXE.^ + m m l # % 7 =.1.1.1.1.1.1.1.1.1.1.1.1.1.1.",
"1.1.1.1.1.1.1.1.1.1.1.1.1.1.1.1.*.7 - @ # k + ~ R. XXX[.a.a.B.).oXoX).B.x.i.[.XX.XE.^ @ $ $ @ - 7 %.1.1.1.1.1.1.1.1.1.1.1.1.1.1.1.1.",
"1.1.1.1.1.1.1.1.1.1.1.1.1.1.1.1.1.1.&.9 - O X X ! R..X.X.X.X.X XI.n. X.X.X.X X XE.^ o X O * 9 i 1.1.1.1.1.1.1.1.1.1.1.1.1.1.1.1.1.1.",
"1.1.1.1.1.1.1.1.1.1.1.1.1.1.1.1.1.1.1.1.O.t r r t f ) b..X.X.X XZ.V.|..X.X.Xb.) Q 0 r r t i 1.1.1.1.1.1.1.1.1.1.1.1.1.1.1.1.1.1.1.1.",
"1.1.1.1.1.1.1.1.1.1.1.1.1.1.1.1.1.1.1.1.1.1.1.1.1.r . 2 W W W W W W W W W Q b . 0 1.1.1.1.1.1.1.1.1.1.1.1.1.1.1.1.1.1.1.1.1.1.1.1.1.",
"1.1.1.1.1.1.1.1.1.1.1.1.1.1.1.1.1.1.1.1.1.1.1.1.&.> # # P ' Y 3 ^ ^ 3 Y ' U X k - %.<.1.1.1.<.<.1.2.2.1.1.1.1.1.1.1.1.1.1.1.1.1.1.1.",
"1.1.1.1.1.1.1.1.1.1.1.1.1.1.1.1.1.1.1.1.1.1.1.-.: # k 1 Y ' U v y.y.L I ' T 1 k $ - =.1.1.<.<.7.7.Y.{.0.1.1.1.1.1.1.1.1.1.1.1.1.1.1.",
"1.1.1.1.1.1.1.1.1.1.1.1.1.1.1.1.1.1.1.1.1.1.1.O.& k k # v P L  .v.c.r.L P v 1 k k & %.<.1.1.<.V.). X|.W.7.1.1.1.1.1.1.1.1.1.1.1.1.1.",
"1.1.1.1.1.1.1.1.1.1.1.1.1.1.1.1.1.1.1.1.1.1.,.: m m m l 1 5 q.m.(.(.M.r.3 1 k m B c % :.1.1.s.Q..X`.h.s.2.<.1.1.1.1.1.1.1.1.1.1.1.1.",
"1.1.1.1.1.1.1.1.1.1.1.1.1.1.1.1.1.1.1.1.1.1.O.< m V M x 2  .m.(..X X_.m. .4 x S M m < i ,.8.C.^.!.h.7.1.1.1.1.1.1.1.1.1.1.1.1.1.1.1.",
"1.1.1.1.1.1.1.1.1.1.1.1.1.1.1.1.1.1.1.1.1.1.- m B B M 5 ~ m.(..X.X.X.X_.m. .2 M B B m % h 8.u.0.7.<.<.1.1.1.1.1.1.1.1.1.1.1.1.1.1.1.",
"1.1.1.1.1.1.1.1.1.1.1.1.1.1.1.1.1.1.1.1.1.u < m B B x a m.(..X.X.X.X.X.X(.M.f x B M M , a u.} ;.<.1.1.1.1.1.1.1.1.1.1.<.1.1.1.1.1.1.",
"1.1.1.1.1.1.1.1.1.1.1.1.1.1.1.1.1.1.1.1.1.  c V B B x Q ^..X.X.X.X.X.X.X.X(.! x B M S c = } $.1.1.1.1.1.1.1.1.1.1.<.<.<.<.<.1.1.1.1.",
"1.<.<.,.1.<.<.<.1.1.1.1.1.1.1.1.1.1.1.1.1.  c B B c R U.^.^..XXX.X.XXX.X/.Q.Y.R c B V c - #.1.1.1.1.1.1.1.1.1.1.<.#.w @.w $.<.<.1.1.",
"1.<.$.w @.w $.<.1.1.1.1.1.1.1.1.1.1.1.1.r & m B B c E  XT.T..XoXA.A.oX.XQ.A.XXQ x A V m , 9 1.1.1.1.1.1.1.1.1.1.,.w @.w @.w <.<.1.1.",
"1.,.w @.w @.w ,.1.1.1.1.1.1.1.1.1.1.1.<.7 @ m B M c E .XT.w.T.@Xv.c.+XE.w.T..XQ x B B m @   1.<.1.1.1.1.1.1.1.1.<.,.<.<.<.<.<.<.1.1.",
"1.<.,.<.,.<.,.<.1.1.1.1.1.1.1.1.1.1.1.r + k m B S x E .X.Xu.I.+X| | OXU.e.`..XQ c B B m k + 0 <.1.1.1.1.1.1.1.1.1.1.<.<.<.1.1.<.1.1.",
"1.1.1.1.1.1.1.1.1.1.1.1.1.1.1.1.1.1.1.0 k m B B B c !  X.XS.9.U.j g I.9.A..X.X/ c m B B m # 8 -.1.<.1.1.1.1.1.1.1.1.1.1.1.1.1.1.1.1.",
"1.1.1.1.1.1.1.1.1.1.1.1.1.1.1.1.1.1.-.s m B m B m < m..X.X.XS.| g g | A. X.X.XC.4 m B m B m $ 9 $.:.<.1.1.1.1.1.1.1.1.<.,.<.1.1.1.1.",
"1.1.1.1.<.,.<.1.1.1.1.1.1.1.1.1.1.-.9 z B B x B m 4 M..X.X.X.XS.C.C.S..X.X.X.XC.4 c m x B B V # r w $.<.1.1.1.1.1.1.<.$.w $.<.1.1.1.",
"1.1.1.<.$.w $.<.1.1.1.1.1.1.1.1.-.7 k m B B B B m 4 M..X.X.X.X.X.X.X.X.X.X.X.XC.6 c B B B B m l   o.w :.1.1.1.1.1.1.,.w @.w <.1.1.1.",
"1.1.1.,.w @.w ,.1.1.1.1.1.1.1.1.O.+ m m B n B B m 4 M..X.X.X.X.X.X.X.X.X.X.X.XC.4 m V m c B m m + i ,.<.<.,.<.$.<.1.<.,.<.,.<.<.,.1.",
",.<.1.<.,.<.,.1.<.,.1.$.<.1.<.-.8 $ V M B m m B z 4 M..X.X.X.X.X.X.X.X.X.X.X.XC.6 M V M m V B B $   *.1.$.w @.w $.<.1.1.<.1.<.$.w #.",
"q $.<.1.1.1.1.<.$.w @.w $.<.<.*.+ m B B n m B B m # / .X.X.X.X@X@X@X@X.X.X.X.X) 2 M B B m x V M m o &.,.w @.w @.w ,.1.1.1.1.,.w @.q ",
"$.w $.1.1.1.1.,.w @.w @.w ,.1.*., z B z k m B B m k E '..X.X XZ.m.m.Z.'..X.X XW @ m M M m k z V x # %.1.,.<.,.<.,.<.1.1.1.<.<.,.<.,.",
"<.$.1.1.1.1.1.1.,.<.,.<.$.<.1.=.% & k k # k l k k # 6 Z.`.`.C.} g g } M.`.`.A.d @ k l k k k $ $ + % *.1.1.1.1.1.1.1.1.1.1.1.1.1.1.1.",
"1.1.1.1.1.1.1.1.1.1.1.1.1.1.1.1.-.i % % + # # @ # O a c.N.N.| =.:.$.;.j N.N.c.a & # # # # + * * p =.1.1.1.1.1.1.1.1.1.1.1.1.1.1.1.1.",
"1.1.1.1.1.1.1.1.1.1.1.1.1.1.1.1.1.1.-.-.0 - - - - 7 ;.w.].].9.:.1.1.:.9.].].y.+.7 - - - - 9 :.-.,.1.1.1.1.1.1.1.1.1.1.1.1.1.1.1.1.1.",
"1.1.1.1.1.1.1.1.1.1.1.1.1.1.1.1.1.1.1.1.1.1.<.1.1.1.1.1.:.:.<.1.1.1.1.1.+.e @.w $.1.1.1.1.1.1.1.1.1.1.1.1.1.1.1.1.1.1.1.1.1.1.1.1.1.",
"1.1.1.1.1.1.1.1.1.1.1.1.1.1.1.1.1.1.1.1.1.1.1.1.1.1.1.1.1.1.1.1.1.1.<.<.w @.w @.w ,.1.1.1.1.1.1.1.1.1.1.1.1.1.1.1.1.1.1.1.1.1.1.1.1.",
"1.1.1.1.1.1.1.1.1.1.1.1.1.1.1.1.1.1.1.1.1.1.1.1.1.1.1.1.1.1.1.1.1.1.1.<.$.<.$.<.,.1.1.1.1.1.1.1.1.1.1.1.1.1.1.1.1.1.1.1.1.1.1.1.1.1.",
"1.1.1.1.1.1.1.1.1.1.1.1.1.1.1.1.1.1.1.1.1.1.1.1.1.1.1.1.1.1.1.1.1.1.1.1.1.1.1.1.1.1.1.1.1.1.1.1.1.1.1.1.1.1.1.1.1.1.1.1.1.1.1.1.1.1.",
"1.1.1.1.1.1.1.1.1.1.1.1.1.1.1.1.1.1.1.1.1.1.1.1.1.1.1.1.1.1.1.1.1.1.1.1.1.1.1.1.1.1.1.1.1.1.1.1.1.1.1.1.1.1.1.1.1.1.1.1.1.1.1.1.1.1.",
"1.1.1.1.1.1.1.1.1.1.1.1.1.1.1.1.1.1.1.1.1.1.1.1.1.1.,.,.,.<.1.1.1.1.1.1.1.1.<.,.<.1.1.1.1.1.1.1.1.1.1.1.1.1.1.1.1.1.1.1.1.1.1.1.1.1.",
"1.1.1.1.1.1.1.1.1.1.1.1.1.1.1.1.1.1.1.1.1.1.1.1.1.,.w #.w $.1.1.1.1.1.1.1.1.$.w ,.1.1.1.1.1.1.1.1.1.1.1.1.1.1.1.1.1.1.1.1.1.1.1.1.1."
};
