/* XPM */
static char *result[] = {
/* columns rows colors chars-per-pixel */
"66 66 186 2 ",
"   c #32371E",
".  c #323A1E",
"X  c #1B1326",
"o  c #1C122C",
"O  c #1F1530",
"+  c #211A2A",
"@  c #211534",
"#  c #251B35",
"$  c #261A38",
"%  c #261B3B",
"&  c #291A3F",
"*  c #1F2637",
"=  c #252226",
"-  c #2B2B27",
";  c #26222A",
":  c #2A252B",
">  c #2E3223",
",  c #343C22",
"<  c #34362A",
"1  c #2A2432",
"2  c #292535",
"3  c #23243B",
"4  c #342B35",
"5  c #25343C",
"6  c #36373D",
"7  c #473D2F",
"8  c #413736",
"9  c #443A33",
"0  c #36411D",
"q  c #38451C",
"w  c #3D4C1E",
"e  c #384224",
"r  c #394324",
"t  c #43571B",
"y  c #45591B",
"u  c #517606",
"i  c #547B07",
"p  c #496119",
"a  c #4E6918",
"s  c #516D19",
"d  c #557417",
"f  c #597B16",
"g  c #6F631F",
"h  c #424B27",
"j  c #435521",
"k  c #554D3A",
"l  c #655A3F",
"z  c #756927",
"x  c #757527",
"c  c #2B1D42",
"v  c #2F1E49",
"b  c #2D2146",
"n  c #2F2249",
"m  c #342944",
"M  c #31254C",
"N  c #33294D",
"B  c #293B44",
"V  c #3C334B",
"C  c #342751",
"Z  c #362A53",
"A  c #382D57",
"S  c #3A2F5A",
"D  c #3D305D",
"F  c #3F3162",
"G  c #403741",
"H  c #442D6A",
"J  c #423266",
"K  c #45346B",
"L  c #4C3775",
"P  c #4F357A",
"I  c #513B78",
"U  c #523A7E",
"Y  c #2F434F",
"T  c #324A58",
"R  c #35535C",
"E  c #3C5A64",
"W  c #4C4744",
"Q  c #4A434C",
"!  c #544F46",
"~  c #5A5347",
"^  c #685E40",
"/  c #766C49",
"(  c #77754A",
")  c #716E57",
"_  c #6D7852",
"`  c #6F745C",
"'  c #787559",
"]  c #405D61",
"[  c #5A437A",
"{  c #497375",
"}  c #6E7161",
"|  c #817E2B",
" . c #857C36",
".. c #837B4E",
"X. c #867C59",
"o. c #937B7A",
"O. c #5E8314",
"+. c #65920B",
"@. c #68970C",
"#. c #6B9A0D",
"$. c #658615",
"%. c #648C13",
"&. c #718917",
"*. c #6A9512",
"=. c #6A9517",
"-. c #6D9B11",
";. c #719413",
":. c #719B10",
">. c #6FA00E",
",. c #73A50F",
"<. c #74A710",
"1. c #78A31A",
"2. c #718C39",
"3. c #708346",
"4. c #8D853B",
"5. c #908539",
"6. c #8BAF2E",
"7. c #88B42C",
"8. c #938B44",
"9. c #938B49",
"0. c #928953",
"q. c #948B50",
"w. c #9B925A",
"e. c #A59B4F",
"r. c #A59C54",
"t. c #99BE45",
"y. c #ADA75B",
"u. c #B4A65A",
"i. c #B4A95D",
"p. c #908E68",
"a. c #998F6C",
"s. c #A69369",
"d. c #ABA464",
"f. c #BAAE61",
"g. c #BCB264",
"h. c #BDBA65",
"j. c #BCB368",
"k. c #AAA574",
"l. c #C1B667",
"z. c #C4BB6C",
"x. c #C4BB74",
"c. c #C8BF72",
"v. c #BFC165",
"b. c #C4CE6E",
"n. c #C3C270",
"m. c #CAC472",
"M. c #CFC977",
"N. c #D0CA78",
"B. c #D7D27F",
"V. c #543B83",
"C. c #573B88",
"Z. c #5E3F92",
"A. c #684F89",
"S. c #664993",
"D. c #65449B",
"F. c #725390",
"G. c #785A90",
"H. c #7F6090",
"J. c #6945A4",
"K. c #846887",
"L. c #528284",
"P. c #CAC586",
"I. c #D7D586",
"U. c #DEDC87",
"Y. c #DDDC8A",
"T. c #CED494",
"R. c #E0DF8A",
"E. c #E2E38D",
"W. c #E6E691",
"Q. c #EAEC95",
"!. c #EEEF98",
"~. c #EFF199",
"^. c #F2F59C",
"/. c #F4F89F",
"(. c #D8D7A2",
"). c #DFDDAB",
"_. c #DEEBA0",
"`. c #F0F5A0",
"'. c #F7FBA2",
"]. c #FAFFA5",
"[. c #FAFFAD",
"{. c #E9EFB2",
"}. c #FAFDB5",
"|. c #FBFFBC",
" X c #F8FAC4",
".X c #FBFED1",
/* pixels */
"<.<.<.<.<.<.<.<.<.<.<.<.<.<.<.<.<.<.<.<.<.<.<.<.<.<.>.u @.i >.<.<.<.<.<.<.>.u @.u >.<.<.<.<.<.<.<.<.<.<.<.<.<.<.<.<.<.<.<.<.<.<.<.<.",
"<.<.<.<.<.<.<.<.<.<.<.<.<.<.<.<.<.<.<.<.<.<.<.<.<.<.,.>.>.>.>.<.>.<.>.<.<.>.>.<.>.,.,.>.,.>.,.<.<.<.<.<.<.<.<.<.<.<.<.<.<.<.<.<.<.<.",
"<.<.<.<.<.<.<.<.<.<.<.<.<.<.<.<.<.<.<.<.<.<.<.<.<.<.<.<.<.<.<.@.i +.i @.<.<.<.<.<.<.@.i +.i @.<.<.<.<.<.<.<.<.<.<.<.<.<.<.<.<.<.<.<.",
"<.<.<.<.<.<.<.<.<.<.<.<.<.<.<.<.<.<.<.<.<.<.<.<.<.<.<.<.<.<.>.i +.i +.i >.<.<.<.<.>.i +.i +.i >.<.<.<.<.<.<.<.<.<.<.<.<.<.<.<.<.<.<.",
"<.<.<.<.<.<.<.<.<.<.<.<.<.<.<.<.<.<.<.<.<.<.<.<.<.<.<.<.<.<.<.>.>.>.<.>.>.<.<.<.<.,.>.,.>.,.>.,.<.<.<.<.<.<.<.<.<.<.<.<.<.<.<.<.<.<.",
"<.<.<.<.<.<.<.<.<.<.<.<.<.<.<.<.<.<.<.<.<.<.<.<.<.<.<.<.<.<.<.<.<.<.<.<.<.<.<.<.<.<.<.<.<.<.<.<.<.<.<.<.<.<.<.<.<.<.<.<.<.<.<.<.<.<.",
"<.<.<.<.<.<.<.<.<.<.<.<.<.<.<.<.<.<.<.<.<.<.<.<.<.<.<.<.<.<.<.<.<.<.<.<.<.<.<.<.<.<.<.<.<.<.<.<.<.<.<.<.<.<.<.<.<.<.<.<.<.<.<.<.<.<.",
"<.<.<.<.<.<.<.<.<.<.<.<.<.<.<.<.<.<.<.<.<.<.<.<.<.<.<.<.<.<.<.<.<.<.<.<.<.<.<.<.<.<.<.<.<.<.<.<.<.<.<.<.<.<.<.<.<.<.<.<.<.<.<.<.<.<.",
"<.<.<.<.<.<.<.<.<.<.<.<.<.<.<.<.<.<.<.<.<.<.<.<.<.<.<.<.<.<.<.<.<.<.<.<.<.<.<.<.<.<.<.<.<.<.<.<.<.<.<.<.<.<.<.<.<.<.<.<.<.<.<.<.<.<.",
"<.<.<.<.<.<.<.<.<.<.<.<.<.<.<.<.<.<.<.<.<.<.<.<.<.<.<.<.<.<.<.<.<.<.<.<.<.<.<.<.<.<.<.<.<.<.<.<.<.<.<.<.<.<.<.<.<.<.<.<.<.<.<.<.<.<.",
"<.<.<.<.<.<.<.<.<.<.<.<.<.<.<.<.<.<.<.<.<.<.<.<.<.<.<.<.<.<.<.<.<.<.<.<.<.<.<.<.<.<.<.<.<.<.<.<.<.<.<.<.<.<.<.<.<.<.<.<.<.<.<.<.<.<.",
"<.<.<.<.<.<.<.<.<.<.<.<.<.<.<.<.<.<.>.*.,.<.<.<.<.<.<.<.<.<.<.<.<.<.<.<.<.<.<.<.<.<.<.<.<.1.=.>.<.<.<.<.<.<.<.<.<.<.<.<.<.<.<.<.<.<.",
"<.<.<.<.<.<.<.<.<.<.<.<.<.<.<.<.<.<.p [ 3.1.<.<.<.<.<.<.<.<.<.<.<.<.<.<.<.<.<.<.<.<.<.<.-.` V f <.<.<.<.<.<.<.<.<.<.<.<.<.<.<.<.<.<.",
"<.<.<.<.<.<.<.<.<.<.<.<.<.<.<.<.<.<.w K D.3.<.<.<.<.<.<.<.<.<.<.<.<.<.<.<.<.<.<.<.<.<.1.` V.3 O.<.<.<.<.<.<.<.<.<.<.<.<.<.<.<.<.<.<.",
"<.<.<.<.<.<.<.<.<.<.<.<.<.<.<.<.<.*.r n V.D.3.2.<.<.<.<.<.<.<.<.<.<.<.<.<.<.<.<.<.1.2._ Z.L b w >.<.<.<.<.<.<.<.<.<.<.<.<.<.<.<.<.<.",
"<.<.<.<.<.<.<.<.<.<.<.<.<.<.<.<.<.a O N S U Z.S._ 2.<.<.<.<.<.<.<.<.<.<.<.<.<.<.3._ D.I A S b o O.<.<.<.<.<.<.<.<.<.<.<.<.<.<.<.<.<.",
"<.<.<.<.<.<.<.<.<.<.<.<.<.<.<.<.<.a @ C D D D U J.F.` ` ` ` ` ` ` ` ` ` ` ` ` } S.V.P S S S v o O.<.<.<.<.<.<.<.<.<.<.<.<.<.<.<.<.<.",
"<.<.<.<.<.<.<.<.<.<.<.<.<.<.<.<.<.a @ C D A S D U J.Z.L L L L L L P L L L L L D.D.J S S S S M o O.<.<.<.<.<.<.<.<.<.<.<.<.<.<.<.<.<.",
"<.<.<.<.<.<.<.<.<.<.,.>.,.>.,.<.<.a @ C S S n F V.K J S D S S S S S S S S S S K L V.S S S S M @ O.<.<.<.<.<.<.<.<.<.<.<.<.<.<.<.<.<.",
"<.<.<.<.<.<.<.<.<.,.#.i +.i @.,.<.a O c Z C P F J S S S S S S S S S S S S S S S S J A M S A v o O.<.<.<.<.<.<.<.<.<.<.<.<.<.<.<.<.<.",
"<.<.<.<.<.<.<.<.<.>.i +.i +.i >.<.a O c c V.H S S D S S S S S D S S S S S S S S S S J P C C c o O.<.<.<.<.<.,.<.<.<.<.<.<.<.<.<.<.<.",
"<.<.<.<.<.<.<.<.<.,.>.,.>.,.>.<.<.d + c M C.F S S A S S J J J J K J J J K D S S S S S L P c & + O.<.<.<.<.<.,.,.>.,.>.,.<.<.<.<.<.<.",
"<.<.<.<.<.<.<.<.<.<.<.<.<.<.<.<.<.<.t O L K S S S D J K [ H.G.G.G.G.G.G.G.[ K D S S A K P v o d <.<.<.<.<.<.<.@.O.+.u @.<.<.<.<.<.<.",
"<.<.<.<.<.<.<.<.<.<.<.<.<.<.<.<.<.<.t o C S S S J K [ G.s.u.u.u.u.u.u.u.u.o.K.I K S S S K J o f <.<.<.<.<.<.>.O.+.u +.O.>.<.<.<.,.,.",
",.,.>.,.<.<.<.<.<.<.<.<.,.>.,.<.<.%.< N S S S D [ K.a.f.u.u.u.u.u.u.u.u.u.u.u.o.K.L A S S S b t >.<.,.,.<.<.,.>.>.>.,.>.,.,.>.>.>.,.",
"u +.i #.,.<.<.<.<.<.<.,.#.i @.,.<.a b D S S D [ o.u.u.u.m.B.B.B.B.B.B.B.z.u.u.u.u.o.I S S S S @ O.<.,.,.<.<.<.<.,.,.<.<.,.>.O.+.u >.",
"#.i +.i >.<.<.,.<.<.<.>.i +.i >.%.< N S S S H F.u.u.l.R.~.].].].].].].].Q.R.l.u.u.s.A.A S S S M w @.,.,.<.<.<.<.<.<.<.<.@.O.+.u +.u ",
",.>.,.>.,.,.>.,.>.,.<.,.>.,.>.%.< N A D S S J F.d.l.!.'.].y.8.Q.].].Y.4.n.].!.E.i.s.S.J S S S S N e >.<.<.<.<.<.<.<.<.<.>.>.>.>.,.>.",
",.<.<.<.,.#.i +.i #.,.<.<.<.%.< C S S S S D X.k.W.!.].].].R.U.`.].].^.I.Q.].].].!.Y.p.& A D S D A B , =.<.<.<.<.<.<.<.<.<.<.<.<.<.<.",
"<.<.<.<.>.i +.i +.i >.<.<.#., $ b S A S D 2 r.Q.].].'.'.].].].].].].].].].]././.]./.I./ % S S A Z b 3 w <.<.<.<.<.<.<.<.<.<.<.<.<.<.",
"<.<.<.<.,.>.,.>.,.>.,.<.<.,.O.- ; c n Z Z # 0.W.'.].W.B.W.E.!.'.].]./.Q.E.W.N.~.].].U./ # A A b & ; . %.<.<.<.<.<.<.<.<.<.<.<.<.<.<.",
"<.<.<.<.<.<.<.<.<.<.<.<.<.<.<.-.O.> 1 % c % 4 w.Q.[.'.z.4.4.g.^.[.[.Q.i.4.5.B.].].E...# c & & - > %.>.<.<.<.<.<.<.<.<.<.<.<.<.<.<.<.",
"<.<.<.<.<.<.<.<.<.<.<.<.<.<.<.<.<.<.s . # % # - w.Q.].].'.].].'.(.(.]./.].].]./.E...+ $ $ : > O.<.<.<.<.<.<.<.<.<.<.<.<.<.<.<.<.<.<.",
"<.<.<.<.<.<.<.<.<.<.<.<.<.<.<.<.<.<.<.<.p q q q h 0.k.T.].].].^.y.i.].].].].P.k.( r q q q d <.<.<.<.<.<.<.<.<.<.<.<.<.<.<.<.<.<.<.<.",
"<.<.<.<.<.<.<.<.<.<.<.<.<.<.<.<.<.<.<.<.<.<.<.<.*.0 o ~ p.p.p.p.p.p.p.p.p.p.6 X t -.<.<.<.<.<.<.<.<.<.<.<.<.<.<.<.<.<.<.<.<.<.<.<.<.",
"<.<.<.<.<.<.<.<.<.<.<.<.<.<.<.<.<.<.<.<.<.<.<.<.*., $ # Y E B 5 l k * T ] B $ # w -.<.<.<.t.I.7.<.<.<.<.<.<.<.<.<.<.<.<.<.<.<.<.<.<.",
"<.<.<.<.<.<.<.<.<.<.<.<.<.<.<.<.<.<.<.<.<.<.<.=., # c 3 { { R 5 r.0.5 E L.R 3 c % w <.<.t.{.}.Q.7.<.<.<.<.<.<.<.<.<.<.<.<.<.<.<.<.<.",
"<.<.<.<.<.<.<.<.<.<.<.<.<.<.<.<.<.<.<.<.<.<.<.O.O c c 3 Y T B 0.y.y.) B T B % c % - *.,.6.h.W.[._.7.<.<.<.<.<.<.<.<.<.<.<.<.<.<.<.<.",
"<.<.<.<.<.<.<.<.<.<.<.<.<.<.<.<.<.<.<.<.<.<.@.< C Z n c 2 5 ..f.E.R.u.( 5 3 c C Z m r <.1.1.b.].`.7.<.<.<.<.<.<.<.<.<.<.<.<.<.<.<.<.",
"<.<.<.<.<.<.<.<.<.<.<.<.<.<.<.<.<.<.<.<.<.<.O.1 A S A n # ..g.Q.].'.E.i.l $ M S D Z - *.<.&.n./.v.1.<.<.<.<.<.<.<.<.<.<.<.<.<.<.<.<.",
"<.<.<.<.<.<.<.<.<.<.<.<.<.<.<.<.<.<.<.<.<.-.> Z A D Z 6 / f.Q.].].].].R.i.^ m S S S M . &.5.m.h.7.<.<.<.<.<.<.<.<.<.<.<.<.<.<.<.<.<.",
"<.<.<.<.<.<.<.<.<.<.<.<.<.<.<.<.<.<.<.<.<.O.1 A S S b l g.Q.].].].].].].Y.f.8 M S S N : z e.| ;.,.<.<.<.<.<.<.<.<.<.<.<.<.<.<.<.<.<.",
"<.<.<.<.<.<.<.<.<.<.<.<.<.<.<.<.<.<.<.<.<.> N D S S n ) Q.].].].].].].].].Y.k N S S D M 7 | *.<.,.,.<.<.<.<.<.<.<.<.<.<.<.<.<.<.<.<.",
"<.<.<.<.<.<.<.<.<.<.<.<.<.<.<.<.<.<.<.<.<.> N D D A Q j.E.^.].].].].].].Q.~.a.G Z S S M   &.<.<.<.,.<.<.<.<.<.<.<.<.<.<.>.<.<.<.<.<.",
"<.<.>.>.<.>.<.<.<.<.<.<.<.<.<.<.<.<.<.<.a 1 C S S M ) ].N.W.'.}.I.Y.|.].I.R.].W N D S N - f <.<.<.<.<.<.<.<.<.<.>.@.i +.i #.>.<.<.<.",
"<.,.#.i +.i @.<.<.<.<.<.<.<.<.<.<.<.<.<.. % A S S N ) ].N.q.W. Xl.x. XI.e.R.].W N D D C @ y <.<.<.<.<.<.<.<.<.<.>.O.+.i +.i >.<.<.<.",
"<.>.i +.O.+.i >.<.<.<.<.<.<.<.<.<.<.<.p 1 c Z S S n ) ].!. .(.{. .0..Xx.e.^.].W N S S C & : f <.<.<.<.<.<.<.<.<.,.>.>.>.<.>.<.<.<.<.",
"<.,.>.>.>.>.>.<.<.<.<.<.<.<.<.<.<.<.<.q % C S S S N ' ].[.l.9.(.z  .(...N.].].! N D D A M @ p <.<.<.<.<.<.<.<.<.<.,.<.<.<.<.<.<.<.<.",
"<.<.<.<.,.<.<.<.<.<.<.<.<.<.<.<.<.<.-.h C D S S N 6 c.].]./.g. .g z 8.m./.].].d.4 Z D A S n 1 d ,.,.<.<.<.<.<.<.<.<.<.<.<.<.<.<.<.<.",
"<.<.<.<.,.,.<.<.<.<.<.<.<.<.<.<.<.:.j N A A n A N 8 M.].].].^.z.i.i.m./.].].].j.4 Z A n D A Z 1 O.>.,.<.<.<.<.<.<.<.<.,.>.,.<.<.<.<.",
"<.<.<.<.>.>.,.,.<.<.<.<.<.<.<.<.-.y 3 S D S A S N 9 M.].].].].'.].'.].].].].].j.4 Z A S A D A & p u #.,.<.<.<.<.<.<.,.#.i #.,.<.<.<.",
"<.<.<.<.@.O.@.>.<.<.<.<.<.<.<.<.f % Z N S Z S S N 9 M.].].].].].].].].].].].].j.4 Z A A A S N C X i O.>.<.<.<.<.<.<.>.i +.i >.<.,.>.",
"<.<.<.>.i +.O.>.<.<.,.,.<.<.<.>.r b S S S M A A N 9 M.].].].].].].].].].].].].j.6 Z D Z N D S S 3 y @.<.<.#.<.>.,.<.,.>.,.>.,.,.>.>.",
">.,.<.,.>.,.>.,.,.>.,.>.,.<.,.O.O Z S S N A D D C 4 s.].].].].|.|.|.|.].].].].X.m A A D A C S S N = *.,.@.i +.u #.,.<.<.<.<.,.@.O.@.",
"u #.,.<.<.<.<.,.#.i +.i #.,.<.%.% C D C c Z D S Z $ ) ].].].'.I.P.P.Y.].].].].W & A D S C v N D N 1 *.,.i +.i +.i >.<.<.<.<.>.i +.u ",
"@.i >.<.<.<.<.>.O.+.i +.i >.,.O.o @ n c c c b b v $ ! R.].].m. .| z 5.I.].].B.8 $ c b b c c b b @ = *.<.>.<.>.<.>.,.<.<.<.<.,.>.,.>.",
",.>.,.<.<.<.<.<.>.>.>.,.>.,.<.>.$.y + = $ & & & & # k g.c.m. .&.&.;.&.5.m.c.i.9 % & & & & # + + s %.<.<.<.<.<.<.<.<.<.<.<.<.<.<.<.<.",
"<.<.<.<.<.<.<.<.,.,.<.<.<.<.<.,.<.-.%.%.e = = = = , &.d.).(.4.:.,.,.;.9.).).8.f > = = = = t %.%.:.<.<.<.<.<.<.<.<.<.<.<.<.<.<.<.<.<.",
"<.<.<.<.<.<.<.<.<.<.<.<.<.<.<.<.<.<.<.<.#.*.*.*.*.-.,.&.x x ;.<.,.<.,.;.x x ;.:.*.*.*.*.-.-.<.<.<.<.<.<.<.<.<.<.<.<.<.<.<.<.<.<.<.<.",
"<.<.<.<.<.<.<.<.<.<.<.<.<.<.<.<.<.<.<.<.<.<.<.<.<.<.<.,.<.,.<.<.<.<.<.,.;.i @.i #.,.<.<.<.<.<.<.<.<.<.<.<.<.<.<.<.<.<.<.<.<.<.<.<.<.",
"<.<.<.<.<.<.<.<.<.<.<.<.<.<.<.<.<.<.<.<.<.<.<.<.<.<.<.<.<.<.<.<.<.<.,.,.i +.i +.i ,.,.<.<.<.<.<.<.<.<.<.<.<.<.<.<.<.<.<.<.<.<.<.<.<.",
"<.<.<.<.<.<.<.<.<.<.<.<.<.<.<.<.<.<.<.<.<.<.<.<.<.<.<.<.<.<.<.<.<.<.,.,.>.,.>.,.,.,.<.<.<.<.<.<.<.<.<.<.<.<.<.<.<.<.<.<.<.<.<.<.<.<.",
"<.<.<.<.<.<.<.<.<.<.<.<.<.<.<.<.<.<.<.<.<.<.<.<.<.<.<.<.<.<.<.<.<.<.<.<.<.<.,.,.<.<.<.<.<.<.<.<.<.<.<.<.<.<.<.<.<.<.<.<.<.<.<.<.<.<.",
"<.<.<.<.<.<.<.<.<.<.<.<.<.<.<.<.<.<.<.<.<.<.<.<.<.<.<.<.<.<.<.<.<.<.<.<.<.<.<.,.<.<.<.<.<.<.<.<.<.<.<.<.<.<.<.<.<.<.<.<.<.<.<.<.<.<.",
"<.<.<.<.<.<.<.<.<.<.<.<.<.<.<.<.<.<.<.<.<.<.<.<.<.<.>.,.>.,.<.<.<.<.<.<.<.<.,.>.<.<.<.<.<.<.<.<.<.<.<.<.<.<.<.<.<.<.<.<.<.<.<.<.<.<.",
"<.<.<.<.<.<.<.<.<.<.<.<.<.<.<.<.<.<.<.<.<.<.<.<.<.>.u @.u >.<.<.<.<.<.<.<.<.>.u >.<.<.<.<.<.<.<.<.<.<.<.<.<.<.<.<.<.<.<.<.<.<.<.<.<."
};
