/* XPM */
static char *_0d25997b3be44d7d75152075b4575819RUffvTBNgRj2rNm[] = {
/* columns rows colors chars-per-pixel */
"48 57 157 2 ",
"   c None",
".  c #130F1D",
"X  c #14101F",
"o  c #362F0A",
"O  c #39320B",
"+  c #3F380E",
"@  c #151121",
"#  c #1C1823",
"$  c #221C35",
"%  c #261B3B",
"&  c #281D3C",
"*  c #1D2B36",
"=  c #1F2937",
"-  c #1F3039",
";  c #202336",
":  c #2B2437",
">  c #24243C",
",  c #2B213B",
"<  c #2E293A",
"1  c #242A3C",
"2  c #302B3C",
"3  c #233339",
"4  c #423B17",
"5  c #27531E",
"6  c #2D5524",
"7  c #5B5012",
"8  c #695E1B",
"9  c #625613",
"0  c #6C611E",
"q  c #4C4222",
"w  c #635B31",
"e  c #6C6120",
"r  c #2A1B41",
"t  c #2E1E48",
"y  c #2C2444",
"u  c #2E2648",
"i  c #252B40",
"p  c #31254C",
"a  c #32294C",
"s  c #243946",
"d  c #283A45",
"f  c #253946",
"g  c #39304C",
"h  c #342750",
"j  c #3A2F5A",
"k  c #3C305D",
"l  c #442D6A",
"z  c #422B67",
"x  c #4D3777",
"c  c #4E3879",
"v  c #523C7A",
"b  c #29404E",
"n  c #2A4251",
"m  c #324C5D",
"M  c #365559",
"N  c #3A5C5D",
"B  c #334F61",
"V  c #375668",
"C  c #3E6073",
"Z  c #5C5245",
"A  c #595D44",
"S  c #575B43",
"D  c #655B46",
"F  c #616346",
"G  c #69614B",
"H  c #73684A",
"J  c #716748",
"K  c #7E744F",
"L  c #6F615D",
"P  c #456F70",
"I  c #477173",
"U  c #767462",
"Y  c #847830",
"T  c #897D35",
"R  c #8A7E3B",
"E  c #817751",
"W  c #63842D",
"Q  c #7E9A56",
"!  c #5AB648",
"~  c #5EBA49",
"^  c #62C04F",
"/  c #64C050",
"(  c #8D8039",
")  c #93853D",
"_  c #95883F",
"`  c #998D44",
"'  c #978A41",
"]  c #A19C4F",
"[  c #AB9E58",
"{  c #A49F52",
"}  c #AFA259",
"|  c #A7A355",
" . c #B4A65A",
".. c #B7A95C",
"X. c #BAAD5F",
"o. c #9C9B63",
"O. c #9B9B73",
"+. c #848368",
"@. c #ACA866",
"#. c #BCBA6A",
"$. c #A1A177",
"%. c #A6A77A",
"&. c #B5B17D",
"*. c #ACB56B",
"=. c #9CD46E",
"-. c #9FD970",
";. c #A5DB75",
":. c #B9E17E",
">. c #CCC674",
",. c #CBC679",
"<. c #D0C977",
"1. c #D3CD7A",
"2. c #D5D27E",
"3. c #553B85",
"4. c #573C88",
"5. c #66429E",
"6. c #4E7C80",
"7. c #6743A0",
"8. c #6A45A5",
"9. c #6F4BA0",
"0. c #856A84",
"q. c #896E86",
"w. c #8D7284",
"e. c #518083",
"r. c #5C938B",
"t. c #B9B580",
"y. c #BDB985",
"u. c #C1BE89",
"i. c #9BD781",
"p. c #ACDB8F",
"a. c #BFE69E",
"s. c #B5E197",
"d. c #CBC485",
"f. c #D3CB8D",
"g. c #D1CE81",
"h. c #D7D382",
"j. c #DAD682",
"k. c #DDDA86",
"l. c #DFDD88",
"z. c #ECF09E",
"x. c #F1F59E",
"c. c #F4F89F",
"v. c #E9EE9A",
"b. c #DFDBA3",
"n. c #E1DDA3",
"m. c #F6FBA1",
"M. c #FAFFA5",
"N. c #FAFFA8",
"B. c #F2F5A8",
"V. c #F6FAB5",
"C. c #FBFFB9",
"Z. c #F6FBBB",
"A. c #EBEEB5",
"S. c #ECEEC8",
"D. c #FCFFC1",
"F. c #F6F7CC",
"G. c #FCFDD3",
/* pixels */
"                    7.                                                    5.                    ",
"                  % 4.5.                                                8.v $                   ",
"                  u k 4.7.                                            8.3.j y                   ",
"                & j j k 8.5.                                        8.5.j j j #                 ",
"                $ j j k 4.8.7.                                    8.8.3.j j j $                 ",
"                & j j j j 4.8.7.                                8.8.3.j j j h %                 ",
"              $ r j j j j k 8.8.7.                            8.8.7.j j j j j % $               ",
"              $ t k j j j k 4.8.8.8.8.8.8.8.8.8.8.8.8.8.8.8.8.8.8.3.j j j j j r $               ",
"              $ t j j j j j k 8.8.3.3.3.3.3.3.3.4.4.3.3.3.3.3.8.7.j j j j j j % $               ",
"              $ r j j j a k c 4.3.j k j k j k j k k j j k k k 3.3.c j j j j j r #               ",
"              $ r h j h z k 3.k j j k j j j j j j j j j j j k k k 3.j h j j j r $               ",
"              $ r t h l 3.j j j j j j j j j j j k j j j j j j j j j j z h j h r $               ",
"              $ r r t 7.j j j j j j j j k j j k j k j k j j j j j j k 4.z h r r $               ",
"              @ % t l 3.j j j j j j k x c c x c x c c c x k j j j j j k 7.r r r .               ",
"                $ r 3.j j j j j k x c w.q.q.q.w.0.q.0.w.0.x x j j j j j 3.z % #                 ",
"                $ u j j j j k c v q.w. . . . . . ... . . .q.0.x c j j j j 3.y $                 ",
"                u j j j k k v q.w. ... . . . . . . . . . . . .q.0.c j j j j j r                 ",
"              $ j j j j k v w. . . ...>.) ' 1.<.1.<.) _  . . . .} 0.c j j j j j $               ",
"              u j j j j k 5. . ...<.2.c.] | M.M.M.c.] { 1.<. . . .@.7.j j j j j y               ",
"            u j j j k k k 9. ...2.M.M.M.M.M.M.M.M.M.M.M.m.m.1.<. .} 7.j j j j k j y             ",
"          u j j j j k k L w.1.<.#.#.:.*.Z.N.M.M.M.M.N.V.*.:.#.#.<.<.0.u j k j j j j y           ",
"        % h j j j j j g ..1.N.V.o.W ! 6 a.C.M.M.M.M.Z.p.5 ~ W @.C.m.>.Z a j j j j j p %         ",
"      @ % & h h j j g < X.M.N.D.Z.i.! 5 ^ a.M.M.M.M.s.! 5 ^ p.D.D.M.m.[ $ j j j p p % % .       ",
"        . @ & & h h a , K l.M.M.M.Z.=.Q -.;.M.C.Z.m.-.=.Q ;.D.M.M.M.h.H & h h p % % X .         ",
"            @ @ & & r r , K l.M.M.M.M.M.M.M.m.y.p.m.M.M.M.M.M.M.m.h.H % r r % % X .             ",
"                X @ % % % : K l.M.M.M.M.M.M.m.] [ m.M.M.M.M.M.M.h.H $ & % % X .                 ",
"                    X @ X @ # K $.%.M.M.M.M.M.M.M.M.M.M.M.m.$.O.J X X X X .                     ",
"                              . @ # $.$.$.$.$.$.$.$.$.$.$.O.. . .                               ",
"                                    % % ; i i > ; 1 > = % %                                     ",
"                                  % r > N B d * * n m M & & %                                   ",
"                                & r > N r.V d A A f C r.M & & %               N.Z.              ",
"                              % r r 3 r.6.B 3 ..} * V 6.r.= r & %           o.M.N.S.            ",
"                            $ r r & 1 P B d F  .} A d V P = r r r $           l.M.A.            ",
"                            y p p & > s d F X.<.<.} S s s ; r u t y           X.M.v.            ",
"                          $ j j j u & 1 F  .1.M.m.<.} S = r u k j j $         X.M.1.            ",
"                          u j j j j , D ..2.M.M.M.m.>.} Z & j j j j y         1.x.w             ",
"                        % j j k j a D ..1.M.M.M.M.M.m.<. .Z p k j j j $     T j.@.              ",
"                        u j j j j :  .1.M.M.M.M.M.M.M.m.<.[ % j j j j , q Y  .( O               ",
"                      $ j j j j k 2 1.M.M.M.M.M.M.M.M.M.m.>.$ j j j j j <  .( o                 ",
"                      $ j j j j a +.M.l.M.M.M.M.M.M.M.M.l.B.U u j j j j : R o                   ",
"                      & k j j j 2 M.c.X.M.M.C.k.l.C.N.m.X.M.z.$ j j j j % 4                     ",
"                    $ t k j j j 2 M.m. .#.N.F. .X.G.m.#.X.M.z.% j j j j r $                     ",
"                    % r j j j h 2 M.m.>.e C.F._ ` G.B.8 1.M.z.$ j j j j r %                     ",
"                  % r p j j j j 2 M.M.c.T u.F.9 e G.t.( M.M.z.$ j j j j p & %                   ",
"                % u u j j k j a G M.M.m.>.T t.9 8 t.T 1.M.M.x.Z u j j j j p & %                 ",
"              u p j j j a k j : X.M.M.M.m.>.Y Y Y R 1.N.M.M.m.[ $ j j h j j t p %               ",
"            y j j j j j u j j : X.M.M.M.M.M.1.<.1.1.M.M.M.M.c.[ % j j p j j j j u y             ",
"        y u j j h j j j j j j : X.M.M.M.M.M.M.M.M.M.M.M.M.M.m.[ $ j j j j j j p j j y y         ",
"    y u j j j j p j j p j j j : X.m.M.M.M.M.M.M.M.M.M.M.M.M.m.[ % k j j p j j p j j j j y y     ",
"  u j j j j p j j j j p j j j : X.M.M.M.M.M.M.M.M.M.M.M.M.M.m.[ % j j j a j j j j p j j j j y   ",
"@ a p j j h p k j j h j j j j & E M.M.M.M.M.C.C.C.C.M.M.M.M.x.H r k j j j h j j j p h j j u u . ",
"  X @ a a r p j j p t j j j j r 2 M.M.M.M.M.n.n.n.n.M.M.M.M.z.$ r k j j j r p j j h r p u . .   ",
"      @ @ % & h h r r h h h p r 2 k.M.M.M.j.) ) ) ' l.M.M.M.g.$ r h h h p r r h p % % @ .       ",
"          X @ % % % r r r r r r : X.l.M.x.R O O O + ` M.m.j.[ $ r r r r r r & & % @ .           ",
"              X @ @ & % % % % % # _ X.k.2.7         0 k.j. .R @ % % % & & % X X .               ",
"                    X X X X X .   8 f.f.d.7         8 f.f.d.7   X X X X X .                     ",
"                                  4 y.y.&.o         4 y.y.&.o                                   "
};
