/* XPM */
static char *_5816d9215c84e5585ee8866600eadc1bx1mio31twz2Irye[] = {
/* columns rows colors chars-per-pixel */
"48 57 140 2 ",
"   c None",
".  c #120F1C",
"X  c #14101E",
"o  c #19151D",
"O  c #342E0B",
"+  c #39320D",
"@  c #3B3511",
"#  c #181422",
"$  c #221C35",
"%  c #261B3B",
"&  c #281E39",
"*  c #1D2B36",
"=  c #1F2E39",
"-  c #1F2335",
";  c #212336",
":  c #2C2537",
">  c #24243C",
",  c #2B203C",
"<  c #2E283A",
"1  c #232836",
"2  c #302B3C",
"3  c #233339",
"4  c #423922",
"5  c #27531E",
"6  c #5C5112",
"7  c #625613",
"8  c #6A5E1B",
"9  c #675C1A",
"0  c #6C611E",
"q  c #625C33",
"w  c #6C6120",
"e  c #2A1B41",
"r  c #2E1E48",
"t  c #2D2445",
"y  c #262E42",
"u  c #2E2648",
"i  c #32254E",
"p  c #342C49",
"a  c #233643",
"s  c #253946",
"d  c #283A43",
"f  c #362454",
"g  c #3A2F5A",
"h  c #3C305D",
"j  c #472E6E",
"k  c #482F70",
"l  c #493072",
"z  c #513A7E",
"x  c #29404E",
"c  c #2B4251",
"v  c #324D5F",
"b  c #3A5B5D",
"n  c #334F60",
"m  c #355263",
"M  c #3B5C67",
"N  c #3E6363",
"B  c #3E6073",
"V  c #655B47",
"C  c #695F47",
"Z  c #6A5F48",
"A  c #626447",
"S  c #6E6448",
"D  c #6B6B48",
"F  c #746B4C",
"G  c #756B4D",
"H  c #77695D",
"J  c #436B6E",
"K  c #4C787E",
"L  c #867A35",
"P  c #8A7D35",
"I  c #886F7D",
"U  c #91787E",
"Y  c #5AB648",
"T  c #63BC4D",
"R  c #64C050",
"E  c #8E8139",
"W  c #91853C",
"Q  c #94883F",
"!  c #948842",
"~  c #AB9E58",
"^  c #8CA55F",
"/  c #ABA75A",
"(  c #AAA65A",
")  c #B4A65A",
"_  c #B5AB5D",
"`  c #BAAD5F",
"'  c #83836B",
"]  c #8A896A",
"[  c #908F6D",
"{  c #92926F",
"}  c #999973",
"|  c #95AC64",
" . c #ACA76F",
".. c #A7A96E",
"X. c #B0AD60",
"o. c #BAAD62",
"O. c #B4B263",
"+. c #AAA571",
"@. c #ADA871",
"#. c #B0AA74",
"$. c #B2AE78",
"%. c #B7B37D",
"&. c #A7D975",
"*. c #A9DD76",
"=. c #AEDD79",
"-. c #B4E27E",
";. c #CEC977",
":. c #CAC679",
">. c #CEC97B",
",. c #D3CE7B",
"<. c #D6D17E",
"1. c #533A81",
"2. c #66439F",
"3. c #4F7C81",
"4. c #6743A0",
"5. c #6A45A5",
"6. c #6F4BA0",
"7. c #8D7381",
"8. c #937A81",
"9. c #5C938B",
"0. c #ABDD8E",
"q. c #B5E294",
"w. c #D0C98D",
"e. c #DAD582",
"r. c #D8D196",
"t. c #DBD69A",
"y. c #E9EE9A",
"u. c #ECF09E",
"i. c #F1F59E",
"p. c #F2F7A1",
"a. c #F5FAA1",
"s. c #FAFFA5",
"d. c #FAFFA8",
"f. c #EBEEB2",
"g. c #F6FCB9",
"h. c #FBFFBC",
"j. c #F4F7B4",
"k. c #F5F6CB",
"l. c #F8F9CE",
"z. c #FBFDD2",
/* pixels */
"                  # 4.                                                        f 2.              ",
"                  $ 1.4.                                                  f 5.4.z $             ",
"                X u h 1.4.                                              f 5.5.1.h #             ",
"                % g h h 5.4.                                          f 5.5.1.g g $             ",
"                ; g g h 1.5.4.                                      f 5.4.z g g g $             ",
"              . % g g g h 1.5.4.                                  f 5.5.z g g g u               ",
"              $ e h g g h h 5.5.4.                              f 5.4.z g g g g %               ",
"              $ e g g h h h 1.5.5.5.5.5.5.5.5.5.5.5.5.5.5.5.5.5.5.4.1.g g g g g %               ",
"              $ r g g h g g h 5.5.1.1.1.1.1.1.1.1.1.z 1.1.1.1.5.4.z g h g g g i $               ",
"              $ e g g g i g 1.1.z g g g g g g g h h g h g g h 1.z z g g g g g e $               ",
"              $ e i g f k h z g g g g g g g g g h g g g g g g g h z g i g g i e $               ",
"              $ e e f k 1.g g g g g g g g g g g h g g g g h g g g g g j i i e % $               ",
"              $ e e r 4.g g g g g g g g g g g g g g g g g g g g g g g z j e e % #               ",
"              . % e k z g g g g g g g 1.z z z z 1.z z z z g g g g g g j 2.e e %                 ",
"                $ t z g g g g g g z 1.8.8.7.7.8.7.7.7.7.7.z z g g g g g 1.j % $                 ",
"                $ u g g h g h z z 7.U ) ) ) ) ) ) ) ) ) ( 7.7.z 1.g g g g z u $                 ",
"              . u g g g h h z U 8.) ) ) ) ) ) ) ) ) ) ) ) ) ) 8.7.1.g g g g g t                 ",
"              % g h g g h z U ) ) ) ` ,.P Q <.<.<.,.E W ) ) ) ) ) 7.1.f g g g g $               ",
"            X u g g g g h 6.` ) ` <.<.i./ X.s.s.s.a.) / <.,.) ) ) ~ 2.g g h g g t               ",
"          . t g g g g h h 6.) ) <.s.s.s.s.s.s.s.s.s.s.s.s.s.<.<.) ) 2.g g g g g g t             ",
"        . t g g g g g h H 8.<.e.s.s.s.s.s.s.s.s.s.s.s.s.s.s.s.i.<.,.I i g g g g g g t           ",
"      . & f g g g g g p ) e.s.g._ O.=.| -.h.s.s.s.s.g.=.| =.` O.h.a.,.V u g g g g g i %         ",
"      . & & i f g g g : o.s.d.g./ ..Y 5 R q.s.s.s.s.0.Y 5 T @.O.h.s.i.~ % h g g i t % %         ",
"        . . & & i i i : G e.s.s.d.g.&.^ *.=.s.h.h.a.*.&.^ =.h.s.s.s.,.A % i i i % % .           ",
"            . . % % e e & G e.s.s.s.s.s.s.s.a.$.%.s.s.s.s.s.s.s.s.,.C % e e % % .               ",
"                . . % % % , F e.s.s.s.s.s.s.a./ _ s.s.s.s.s.s.s.,.C $ % % % .                   ",
"                    . . X X o S { } s.s.s.s.s.s.s.s.s.s.s.p.{ [ C . . . .                       ",
"                              X X # { { { { { { { { { { { ] . .                                 ",
"                                  . % % ; y y ; ; y y - $ $                                     ",
"                                . % e > M n x * * c n b t e %                                   ",
"                              . % e > J 9.M d A A s B 9.b ; e %                 ' h.f.          ",
"                            . % e % 3 9.K n 3 ) ~ = n 3.9.* e e %               h.s.y.          ",
"                            $ e e e = J v d D ) ) V a m J - e e % $             s.s.y.          ",
"                          . u i i % > a d D ` <.,./ A a a > e i i t           q s.p.            ",
"                          % g g g i & 1 D ` <.s.a.,./ A ; e i g g g $         ` s.:.            ",
"                        X u g g h h , S ` <.s.s.s.a.,.) V & g g g g t       @ e.u.              ",
"                        $ g h g g u S ) e.s.s.s.s.s.a.<.) V i g g g g #   + E <.(               ",
"                      X u h g g g : ) e.s.s.s.s.s.s.s.s.,.~ $ g g g g t o E ) L                 ",
"                      $ g g g g g < e.s.s.s.s.s.s.s.s.s.a.;.% g g g g g : ) L 6                 ",
"                      $ g g g g p { s.e.s.s.s.s.s.s.s.s.e.p.' u g g g g ; P 7                   ",
"                    . e h g g g 2 s.a.` s.s.h.e.e.h.s.i.o.s.u.$ g g g g $ 4                     ",
"                    $ e h g g g 2 s.i.) o.d.l.) o.z.i._ ` s.u.% g g g g e $                     ",
"                  . % e g g g g 2 s.a.;.w h.l.P ! z.j.9 e.s.y.& g g g g e %                     ",
"                . % e i g g g g 2 s.s.i.W %.k.7 w z.#.Q s.s.y.& g g g g i % %                   ",
"              . % i u g g g g u G s.s.s.,.P @.7 9 #.W e.s.s.p.V i g g g g t e %                 ",
"            X t i g g g u g g : ` s.s.s.a.,.P P P W e.s.s.s.a.~ $ g g i g g i i %               ",
"          X t g g g g g u g g : ` s.s.s.s.s.<.<.,.e.s.s.s.s.a.~ $ g g i g g g g i t             ",
"      . t t h g f g h g g g g : o.s.s.s.s.s.s.s.s.s.s.s.s.s.a.~ $ g g g g g g i g g t t         ",
"  . t t h g g g i g g i g g g : ` s.s.s.s.s.s.s.s.s.s.s.s.s.a.~ & h g g i g g i g g g g t t     ",
"X u h g h g i g g g g i g g g < ` s.s.s.s.s.s.s.s.s.s.s.s.s.a.~ % g g g i g g g g i g g g g t   ",
"X t u h g i u g g g f g g g g & G s.s.s.s.d.h.h.h.h.s.s.s.s.p.Z e h g g g i g g g i i g g t t   ",
"  . X u t e f g g i e g g g g % 2 s.s.s.s.s.t.t.t.t.s.s.s.s.u.$ e h h g g e i g g i e u t .     ",
"      . X % % i i e e i i i i e < e.s.s.s.,.P W E W e.s.s.a.>.% e i i i i e e i i % % .         ",
"          . . % % % e e e e e e : ` e.s.i.L O O O + ! s.s.<.~ $ e e e e % e % % % .             ",
"              . . . % % % % % % o W ` <.,.6         9 e.<.) L . % % % % % & . .                 ",
"                    . . . . .     8 r.r.w.6         9 r.r.w.6   . . . . .                       ",
"                                  @ $.$.+.          @ $.$.+.                                    "
};
