/* XPM */
static char *result[] = {
/* columns rows colors chars-per-pixel */
"66 66 187 2 ",
"   c #302F1E",
".  c #30371F",
"X  c #191127",
"o  c #1D132D",
"O  c #1F1431",
"+  c #221C2A",
"@  c #231735",
"#  c #241A36",
"$  c #241738",
"%  c #261A3A",
"&  c #291B3E",
"*  c #252226",
"=  c #26222C",
"-  c #29242D",
";  c #2C2B2D",
":  c #2E3321",
">  c #333B23",
",  c #36382A",
"<  c #2A2233",
"1  c #24223B",
"2  c #272639",
"3  c #342939",
"4  c #28373D",
"5  c #3C3333",
"6  c #433A36",
"7  c #39451D",
"8  c #3B4A1D",
"9  c #394522",
"0  c #43561D",
"q  c #455A1C",
"w  c #517606",
"e  c #547B07",
"r  c #517609",
"t  c #4B631A",
"y  c #4E6918",
"u  c #516E17",
"i  c #557416",
"p  c #5B7E15",
"a  c #434D24",
"s  c #45512B",
"d  c #4E4435",
"f  c #554B3B",
"g  c #61593F",
"h  c #756925",
"j  c #757527",
"k  c #2B1C42",
"l  c #311F4C",
"z  c #2E2046",
"x  c #2F2449",
"c  c #342A43",
"v  c #32264E",
"b  c #33294E",
"n  c #293C46",
"m  c #342651",
"M  c #362A54",
"N  c #382D57",
"B  c #3A2F5A",
"V  c #3F3353",
"C  c #3C305D",
"Z  c #3E3161",
"A  c #423B4A",
"S  c #442F6A",
"D  c #423266",
"F  c #493862",
"G  c #45346C",
"H  c #4C3675",
"J  c #4F367A",
"K  c #533A7A",
"L  c #513A7C",
"P  c #2C414A",
"I  c #314857",
"U  c #365463",
"Y  c #3F6565",
"T  c #534F46",
"R  c #504949",
"E  c #5A5445",
"W  c #655C43",
"Q  c #605C4D",
"!  c #6C6B4B",
"~  c #726844",
"^  c #79774C",
"/  c #6E7952",
"(  c #6F745D",
")  c #405D61",
"_  c #584279",
"`  c #60487F",
"'  c #837E2D",
"]  c #897E35",
"[  c #847A4D",
"{  c #867B56",
"}  c #8D757A",
"|  c #937B7A",
" . c #5D8215",
".. c #65920B",
"X. c #68970D",
"o. c #6B9A0D",
"O. c #648C14",
"+. c #688814",
"@. c #718B16",
"#. c #669013",
"$. c #699612",
"%. c #6D9C11",
"&. c #6E971B",
"*. c #719313",
"=. c #709810",
"-. c #6FA00E",
";. c #73A50F",
":. c #74A710",
">. c #78A719",
",. c #718B3A",
"<. c #589642",
"1. c #6B9145",
"2. c #73AB53",
"3. c #6FB052",
"4. c #74C058",
"5. c #878139",
"6. c #8C833D",
"7. c #88A828",
"8. c #95AB35",
"9. c #8D8644",
"0. c #928844",
"q. c #9B9449",
"w. c #8B8254",
"e. c #958C59",
"r. c #9B9353",
"t. c #A2994D",
"y. c #A69D56",
"u. c #A9A656",
"i. c #B5A75A",
"p. c #B4A95F",
"a. c #AEB45D",
"s. c #968768",
"d. c #908E68",
"f. c #9A8475",
"g. c #AD9D62",
"h. c #AE9F70",
"j. c #9CB66D",
"k. c #B6AC62",
"l. c #B9AE61",
"z. c #BBB566",
"x. c #A8A876",
"c. c #B2B27C",
"v. c #C2B768",
"b. c #C5BC6C",
"n. c #C2B771",
"m. c #C8BF72",
"M. c #8AD166",
"N. c #B4CD73",
"B. c #C7C06E",
"V. c #CBC472",
"C. c #CAC871",
"Z. c #D3CE7B",
"A. c #D7D27F",
"S. c #553B84",
"D. c #563A86",
"F. c #6A4D91",
"G. c #644498",
"H. c #6B5093",
"J. c #785A90",
"K. c #507E82",
"L. c #6744A1",
"P. c #846887",
"I. c #BFE697",
"U. c #CBC989",
"Y. c #D9D583",
"T. c #DDDB86",
"R. c #D8D689",
"E. c #C8DD9C",
"W. c #E1DF8B",
"Q. c #DCE58B",
"!. c #D4EE9A",
"~. c #E3E38E",
"^. c #E5E691",
"/. c #E9EB96",
"(. c #ECED95",
"). c #E8F297",
"_. c #F2F69D",
"`. c #D7D6A1",
"'. c #DFDDAB",
"]. c #E2EBAC",
"[. c #F6FBA2",
"{. c #FAFFA5",
"}. c #F6FBAD",
"|. c #FAFEAB",
" X c #F7FCB4",
".X c #FBFFBB",
"XX c #F6F8C5",
/* pixels */
":.:.:.:.:.:.:.:.:.:.:.:.:.:.:.:.:.:.:.:.:.:.:.:.:.:.-.w X.w o.:.:.:.:.:.:.-.e ..w -.:.:.:.:.:.:.:.:.:.:.:.:.:.:.:.:.:.:.:.:.:.:.:.:.",
":.:.:.:.:.:.:.:.:.:.:.:.:.:.:.:.:.:.:.:.:.:.:.:.:.:.;.;.;.-.:.;.;.;.o.;.:.;.-.;.-.;.;.-.;.-.;.;.:.:.:.:.:.:.:.:.:.:.:.:.:.:.:.:.:.:.",
":.:.:.:.:.:.:.:.:.:.:.:.:.:.:.:.:.:.:.:.:.:.:.:.:.:.:.:.:.:.;.o.e ..e o.;.:.:.:.:.;.o.e ..e o.;.:.:.:.:.:.:.:.:.:.:.:.:.:.:.:.:.:.:.",
":.:.:.:.:.:.:.:.:.:.:.:.:.:.:.:.:.:.:.:.:.:.:.:.:.:.;.:.:.:.-.e ..e ..e -.:.:.:.;.-.e ..e ..e -.:.:.:.:.:.:.:.:.:.:.:.:.:.:.:.:.:.:.",
":.:.:.:.:.:.:.:.:.:.:.:.:.:.:.:.:.:.:.:.:.:.:.:.:.:.:.:.:.:.;.-.;.-.;.-.;.:.:.:.:.:.-.;.%.;.%.;.:.:.:.:.:.:.:.:.:.:.:.:.:.:.:.:.:.:.",
":.:.:.:.:.:.:.:.:.:.:.:.:.:.:.:.:.:.:.:.:.:.:.:.:.:.:.:.:.:.:.:.;.:.:.:.:.:.:.:.:.:.:.:.:.:.:.:.:.:.:.:.:.:.:.:.:.:.:.:.:.:.:.:.:.:.",
":.:.:.:.:.:.:.:.:.:.:.:.:.:.:.:.:.:.:.:.:.:.:.:.:.:.:.:.:.:.:.:.:.:.:.:.:.:.:.:.:.:.:.:.:.:.:.:.:.:.:.:.:.:.:.:.:.:.:.:.:.:.:.:.:.:.",
":.:.:.:.:.:.:.:.:.:.:.:.:.:.:.:.:.:.:.:.:.:.:.:.:.:.:.:.:.:.:.:.:.:.:.:.:.:.:.:.:.:.:.:.:.:.:.:.:.:.:.:.:.:.:.:.:.:.:.:.:.:.:.:.:.:.",
":.:.:.:.:.:.:.:.:.:.:.:.:.:.:.:.:.:.:.:.:.:.:.:.:.:.:.:.:.:.:.:.:.:.:.:.:.:.:.:.:.:.:.:.:.:.:.:.:.:.:.:.:.:.:.:.:.:.:.:.:.:.:.:.:.:.",
":.:.:.:.:.:.:.:.:.:.:.:.:.:.:.:.:.:.:.:.:.:.:.:.:.:.:.:.:.:.:.:.:.:.:.:.:.:.:.:.:.:.:.:.:.:.:.:.:.:.:.:.:.:.:.:.:.:.:.:.:.:.:.:.:.:.",
":.:.:.:.:.:.:.:.:.:.:.:.:.:.:.:.:.:.:.:.:.:.:.:.:.:.:.:.:.:.:.:.:.:.:.:.:.:.:.:.:.:.:.:.:.:.;.;.:.:.:.:.:.:.:.:.:.:.:.:.:.:.:.:.:.:.",
":.:.:.:.:.:.:.:.:.:.:.:.:.:.:.:.:.:.%.&.>.:.:.:.:.:.:.:.:.:.:.:.:.:.:.:.:.:.:.:.:.:.:.:.:.:.&.-.:.:.:.:.:.:.:.:.:.:.:.:.:.:.:.:.:.:.",
":.:.:.:.:.:.:.:.:.:.:.:.:.:.:.:.:.:.y F / &.:.:.:.:.:.:.:.:.:.:.:.:.:.:.:.:.:.:.:.:.:.:.>./ V i :.:.:.:.:.:.:.:.:.:.:.:.:.:.:.:.:.:.",
":.:.:.:.:.:.:.:.:.:.:.:.:.:.:.:.:.;.t B G.1.>.:.:.:.:.:.:.:.:.:.:.:.:.:.:.:.:.:.:.:.:.%./ S.z i :.:.:.:.:.:.:.:.:.:.:.:.:.:.:.:.:.:.",
":.:.:.:.:.:.:.:.:.:.:.:.:.:.:.:.:.%.9 z K G./ ,.:.:.:.:.:.:.:.:.:.:.:.:.:.:.:.:.:.>.,./ D.J z 8 -.:.:.:.:.:.:.:.:.:.:.:.:.:.:.:.:.:.",
":.:.:.:.:.:.:.:.:.:.:.:.:.:.:.:.:.i @ m C K D.F.( ,.:.:.:.:.:.>.:.:.:.:.:.:.:.:.,.( F.L Z B x O  .:.:.:.:.:.:.:.:.:.:.:.:.:.:.:.:.:.",
":.:.:.:.:.:.:.:.:.:.:.:.:.:.:.:.:.i O m C B C L L.F.( ( ( ( ( ( ( ( ( ( ( ( ( ( F.D.J B B B l o  .;.;.:.:.:.:.:.:.:.:.:.:.:.:.:.:.:.",
":.:.:.:.:.:.:.:.:.:.:.:.:.:.:.:.:.i O v B B B C L L.G.H H H H H H H H H H H H G.L.D B B B B v o  .;.:.:.:.:.:.:.:.:.:.:.:.:.:.:.:.:.",
":.:.:.:.:.:.:.:.:.:.;.-.;.-.;.:.:.i O m B B x B S.G D B B B B B C B B B B B B D H D.B B B B v o  .:.:.:.:.:.:.:.:.:.:.:.:.:.:.:.:.:.",
":.:.:.:.:.:.:.:.;.;.o.e ..e o.;.:.i O k m m J D D B B B B B B B M C C B B B B B B Z B v B B v o  .:.:.:.:.:.:.:.:.:.:.:.:.:.:.:.:.;.",
":.:.:.:.:.:.:.:.:.-.e ..e ..e -.;.i O k k D.G B B B B B B B B C C C B B C C C B B B Z J m m k @ p ;.:.:.:.:.;.:.:.:.:.:.:.:.:.:.:.:.",
":.:.:.:.:.:.:.:.:.;.-.;.-.;.-.;.:.p = & l D.D B B B B B D D D D D D D Z D D N C B B B G J & k +  .:.:.:.:.:.;.;.-.;.-.;.:.:.:.:.:.:.",
":.:.:.:.:.:.:.:.:.:.:.:.:.:.:.:.:.:.q O S G B B B B B G ` J.J.J.J.J.J.J.J._ G Z B B B G D.l o y ;.:.:.:.:.:.;.X. ...w X.:.:.:.:.:.:.",
":.:.:.:.:.:.:.:.:.:.:.:.:.:.:.:.:.:.t o m B B B D G _ P.f.i.i.i.i.i.i.i.i.| P.K G B B B D G o u :.:.:.:.:.:.%. ...w .. .-.:.:.:.:.:.",
";.;.-.;.:.:.:.:.:.:.:.:.;.-.;.:.:.#.9 b B B B C _ P.| i.i.i.i.i.i.i.i.i.i.i.i.| P.K B B B B x a o.:.:.:.:.:.;.-.-.-.;.-.;.;.-.-.-.;.",
"w ..e o.;.:.:.:.:.:.:.:.o.e o.;.:.i % C B B C _ } i.i.i.b.Y.A.A.A.Y.A.A.B.i.i.i.g.} K B B B B #  .:.:.:.:.:.:.:.:.;.:.:.;.-. ...e o.",
"o.e ..e -.:.;.;.:.:.:.-.e ..e -.#.> b C N C D H.i.i.v.W.(.{.{.{.{.{.{.{.(.W.b.i.i.g.F.B B B B v 7 ..:.:.:.:.:.:.:.:.:.:.o. ...w X.w ",
";.-.;.-.;.;.-.;.;.;.:.;.-.;.-.O., b B B C N D F.g.v.(._.{.a.0.~.{.{.~.6.v.{.(.~.v.g.F.B B B B B v 9 X.:.:.:.:.:.:.:.:.:.-.-.-.-.-.-.",
";.;.:.:.;.o.e ..e o.;.:.:.:.O.> b B B B B N { h.^.(._.[.{.Q.Y.[.{.{._.T./.{.[._.(.^.s.c B B B B B b 9 O.:.:.:.:.:.:.:.:.;.:.:.:.:.:.",
":.:.:.:.-.e ..e ..e -.:.:.-.9 % z B B B B 1 r.~.|.'.5.a.).[.{.{.{.{.{. X}.).u.9.^.{.T.^ # B B B N z 1 9 ;.:.:.:.:.:.:.:.;.:.:.:.:.:.",
":.:.:.:.;.-.;.-.;.-.;.:.:.:.O.: = & x B M # [ ~.{.}.E.4.<.N.).[.{.{.}.].j.<.3.E.XX{.~.^ O B N x 1 ; :  .:.:.:.:.:.:.:.:.:.:.:.;.:.:.",
":.:.:.:.:.:.:.:.;.;.;.:.:.:.:.%. .: - % k & 3 e.^.{.}.E.<.2.M.!.|.}.!.M.2.3.I. X{.~.w.# k k % = :  .-.:.:.:.:.:.:.:.:.:.:.:.:.:.:.:.",
":.:.:.:.:.:.:.:.:.:.:.:.:.:.:.:.:.;.i . < $ # = e./.{.{.[.[.{.[.'.`.{.{.{.{.{.{.^.w.+ $ % - . p :.:.:.:.:.:.:.:.:.:.:.:.:.:.:.:.:.:.",
":.:.:.:.:.:.:.:.:.:.:.:.:.:.:.:.:.:.:.:.t 7 7 7 a { x.U.{.{.{._.u.u._.{.{.{.U.x.[ a 7 7 7 u :.:.:.:.;.:.:.:.:.:.:.:.:.:.:.:.:.:.:.:.",
":.:.:.:.:.:.:.:.:.:.:.:.:.:.:.:.:.:.:.:.;.:.:.:.X.7 X R d.d.d.d.d.d.d.d.d.d.A X 8 o.:.:.;.:.:.:.:.:.:.:.:.:.:.:.:.:.:.:.:.:.:.:.:.:.",
":.:.:.:.:.:.:.:.:.:.:.:.:.:.:.:.:.:.:.:.:.:.:.;.$.7 # # P ) I 2 g g 2 I ) n # @ 9 %.:.:.;.:.:.:.:.:.:.:.:.:.:.:.:.:.:.:.:.:.:.:.:.:.",
":.:.:.:.:.:.:.:.:.:.:.:.:.:.:.:.:.:.:.:.:.:.:.%.9 # k % Y K.U 4 r.r.4 U <.U 1 l % 7 =.:.:.:.:.;.:.C.I.:.:.:.:.:.:.:.:.:.:.:.:.:.:.:.",
":.:.:.:.:.:.:.:.:.:.:.:.:.:.:.:.:.:.:.:.:.:.:.O.+ k k 1 P I n ^ i.u./ n U N 1 k & * $.:.:.:.:.N.Q.}.[.Q.:.:.:.:.:.:.:.:.:.:.:.:.:.:.",
":.:.:.:.:.:.:.:.:.:.:.:.:.:.:.:.:.:.:.:.:.:.%.> b M v k 2 4 [ p.^.W.k.^ 4 1 k v b c > -.:.:.8.~.}._.B.a.:.:.:.:.:.:.:.:.:.:.:.:.:.:.",
":.:.:.:.:.:.:.:.:.:.:.:.:.:.:.:.:.:.:.:.:.:.O.; M C N v < ^ l.^.[.[.~.k.Q 1 v B D N ; ..;.7.C.(.).z.7.:.:.:.:.:.:.:.:.:.:.:.:.:.:.:.",
":.:.:.:.:.:.:.:.:.:.:.:.:.:.:.:.:.:.:.:.:.;.> b B B B c ~ l.~.{.{.{.{.^.p.~ c N D N b . @.] i.u.7.>.:.:.:.:.:.:.:.:.:.:.:.:.:.:.:.:.",
":.:.:.:.:.:.:.:.:.:.:.:.:.:.:.:.:.:.:.:.:.O.; M B B x f v.^.{.{.{.{.{.{.^.l.6 b N N M ; h y.' @.:.:.:.:.:.:.:.:.:.:.:.:.:.:.:.:.:.:.",
":.:.:.:.:.:.:.:.:.:.:.:.:.:.:.:.:.:.:.:.;.. m C B B x W ~.{.{.{.{.{.{.{.{.~.f v B B D c , ' @.:.:.:.:.:.:.:.:.:.:.:.:.:.:.:.:.:.:.:.",
":.:.:.:.:.:.:.:.:.:.:.:.:.:.:.:.:.:.:.:.:.: b B B M A c.^._.{.{.{.{.{.{.(.(.x.A N N N v   @.;.:.:.:.:.:.:.:.:.:.:.:.;.;.-.:.:.:.:.:.",
";.;.-.-.:.-.-.:.:.:.:.:.:.:.:.:.:.:.:.:.i - M B B v Q {.Z.W.[.}.Y.W. X{.W.Y.{.T v N C b ; i :.:.:.:.:.:.:.:.:.:.;.o.e ..e o.;.:.:.:.",
":.;.o.e X. .o.;.:.:.:.:.:.:.:.:.:.:.:.:.7 $ M B B v Q {.Z.t.W.XXv.n.XXR.t.Y.{.T b C N N @ 0 :.:.:.:.:.:.:.:.:.:.-.e ..e ..e -.:.:.:.",
":.-. ...e ..e -.:.:.:.:.:.:.:.:.:.:.:.y = k B B B v Q {._.9.`.XX[ [ XXU.q._.{.T b C B M & + i :.:.:.:.:.:.:.:.:.;.-.;.-.;.-.;.:.:.:.",
":.;.-.-.-.;.-.;.:.:.:.:.:.:.:.:.:.:.:.8 $ v B B B v ! {.{.b.0.`.h ] `.0.V.{.{.E b N B N v @ 0 :.:.:.:.:.:.:.:.:.:.;.:.:.:.:.:.:.:.:.",
":.:.:.:.:.:.:.:.:.:.:.:.:.:.:.:.:.:.%.s m B N B m 5 z.|.{._.v.6.h h 6.b._.{.|.k.3 M B M B v < u ;.;.;.:.:.:.:.:.:.:.;.:.:.:.:.:.:.:.",
":.:.:.:.:.;.:.:.:.:.:.:.:.:.:.:.:.%.q c B B v M m 5 V.{.{.{._.b.p.l.b.[.{.{.{.b.5 M M v B B M <  .;.;.:.:.:.:.:.:.:.;.;.-.;.:.:.:.:.",
":.:.:.:.-.-.;.;.:.:.:.:.:.:.:.:.%.t 1 N B B B B M 5 V.{.{.{.{.[._.{.{.{.{.{.{.m.5 b B B B B N & q w o.;.:.:.:.:.:.:.;.o.e o.;.:.:.:.",
":.:.:.;... .X.-.:.:.:.:.:.:.:.:.p # N m B M B B b 5 V.{.{.{.{.{.{.{.{.{.{.{.{.b.5 M B B M B v N O r  .-.:.:.:.:.:.:.;.e ..e -.:.:.:.",
":.:.;.;. ... .-.:.:.:.;.:.:.:.-.0 k B B B v B B b 5 V.{.{.{.{.{.{.{.{.{.{.{.{.b.5 M B N v N B B % q $.;.;.-.;.o.;.:.;.-.;.-.;.;.o.-.",
"-.;.;.;.-.-.;.;.:.-.-.-.;.:.:...+ b B B m N B B M 3 d.{.{.{.{..X.X.X.X{.{.{.{.w.c N B B N N B B m * O.:.o.e ..e o.;.:.:.:.:.;.o. .o.",
"w ..;.;.;.:.:.;.X. ...w -.:.:.O.% v B M k M B B M $ Q {.{.{.{.R.U.U.R.{.{.{.{.T & N B B M k b C x 2 #.%.e ..e ..e -.:.:.:.:.-.e ..w ",
"o. .-.;.;.;.:.-. ...w .. .-.:. .o @ v k k k k l z % f Y.{.{.Z.' ' h ] Y.{.{.Y.6 $ k v k z k k z O = #.:.o.;.;.;.-.;.:.:.:.:.;.-.;.-.",
";.-.:.:.:.:.:.;.X.-.-.;.-.;.:.-.+.q + + # & & & k $ d k.m.V.] @.@.*.@.6.m.m.p.6 $ & & & k @ + + y O.;.:.:.:.:.:.:.:.:.:.:.:.:.:.:.:.",
":.:.:.:.:.:.:.:.;.;.:.:.:.:.:.:.:.:.O.#.7 * * * + > +.y.'.'.5.=.;.;.=.6.'.'.q.@.> * * * * 8 O.O.%.:.:.:.:.:.:.:.:.:.:.:.:.:.:.:.:.:.",
":.:.:.:.:.:.:.:.;.:.:.:.:.:.:.:.:.:.:.:.%.%.$.$.$.%.:.@.j j *.:.;.:.;.*.j j @.%.%.$.$.%.$.%.:.:.:.:.:.:.:.:.:.:.:.:.:.:.:.:.:.:.:.:.",
":.:.:.:.:.:.:.:.:.:.:.:.:.:.:.:.:.:.:.:.:.:.:.:.:.;.:.:.:.:.:.:.;.;.:.;.X.e ..e o.;.;.:.:.:.:.:.:.:.:.:.:.:.:.:.:.:.:.:.:.:.:.:.:.:.",
":.:.:.:.:.:.:.:.:.:.:.:.:.:.:.:.:.:.:.:.:.:.:.:.:.:.:.:.:.:.:.:.:.:.;.;.e ..e ..e -.;.:.:.:.:.:.:.:.:.:.:.:.:.:.:.:.:.:.:.:.:.:.:.:.",
":.:.:.:.:.:.:.:.:.:.:.:.:.:.:.:.:.:.:.:.:.:.:.:.:.:.:.:.:.:.:.:.:.:.;.;.%.;.;.;.;.;.:.:.:.:.:.:.:.:.:.:.:.:.:.:.:.:.:.:.:.:.:.:.:.:.",
":.:.:.:.:.:.:.:.:.:.:.:.:.:.:.:.:.:.:.:.:.:.:.:.:.:.:.:.:.:.:.:.:.:.:.:.:.:.;.;.:.:.:.:.:.:.:.:.:.:.:.:.:.:.:.:.:.:.:.:.:.:.:.:.:.:.",
":.:.:.:.:.:.:.:.:.:.:.:.:.:.:.:.:.:.:.:.:.:.:.:.:.:.:.:.:.:.:.:.:.:.:.:.:.:.:.;.:.:.:.:.:.:.:.:.:.:.:.:.:.:.:.:.:.:.:.:.:.:.:.:.:.:.",
":.:.:.:.:.:.:.:.:.:.:.:.:.:.:.:.:.:.:.:.:.:.:.:.:.:.o.-.-.-.;.;.:.:.:.:.:.:.;.-.;.;.;.:.:.:.:.:.:.:.:.:.:.:.:.:.:.:.:.:.:.:.:.:.:.:.",
":.:.:.:.:.:.:.:.:.:.:.:.:.:.:.:.:.:.:.:.:.:.:.:.:.-. .o. .X.;.;.:.:.:.:.:.:.o. .-.;.:.:.:.:.:.:.:.:.:.:.:.:.:.:.:.:.:.:.:.:.:.:.:.:."
};
