/* XPM */
static char *_6670e709ae543268f8b698febca03608UX7SmFKib7e8Wnu[] = {
/* columns rows colors chars-per-pixel */
"48 57 142 2 ",
"   c None",
".  c #3C350B",
"X  c #151221",
"o  c #1C1723",
"O  c #1D1926",
"+  c #221C35",
"@  c #261B3B",
"#  c #281C3E",
"$  c #1D2B36",
"%  c #1E2F38",
"&  c #1F2536",
"*  c #1F3039",
"=  c #212135",
"-  c #292237",
";  c #202836",
":  c #24233C",
">  c #2B243A",
",  c #252A3F",
"<  c #233137",
"1  c #423A0F",
"2  c #443D12",
"3  c #26501D",
"4  c #4A401F",
"5  c #5D5212",
"6  c #615613",
"7  c #675B18",
"8  c #695E1B",
"9  c #675B17",
"0  c #6D6436",
"q  c #2A1B41",
"w  c #2B2342",
"e  c #2F2249",
"r  c #30234B",
"t  c #32294D",
"y  c #263946",
"u  c #263B48",
"i  c #342750",
"p  c #342851",
"a  c #3A2F5A",
"s  c #3B305D",
"d  c #412A65",
"f  c #432B68",
"g  c #4C3775",
"h  c #4E3977",
"j  c #29404F",
"k  c #2A4150",
"l  c #314B5C",
"z  c #345155",
"x  c #365658",
"c  c #365265",
"v  c #3B5A6F",
"b  c #3E5F72",
"n  c #564D43",
"m  c #525743",
"M  c #5D5344",
"N  c #595C44",
"B  c #545943",
"V  c #605747",
"C  c #695C5C",
"Z  c #7A6F4A",
"A  c #7B704B",
"S  c #6F6C5E",
"D  c #456560",
"F  c #4A7575",
"G  c #787662",
"H  c #81752E",
"J  c #857932",
"K  c #81774F",
"L  c #83794F",
"P  c #857A50",
"I  c #74914F",
"U  c #5BB949",
"Y  c #61BC4B",
"T  c #63C04F",
"R  c #92863E",
"E  c #968940",
"W  c #9A8D43",
"Q  c #9A9549",
"!  c #9F994E",
"~  c #9A955A",
"^  c #AEA058",
"/  c #B4A65A",
"(  c #B6A85B",
")  c #B8AB5E",
"_  c #969963",
"`  c #B8AB60",
"'  c #B9B86A",
"]  c #ABAC7C",
"[  c #A3A478",
"{  c #ACBF73",
"}  c #C1BF6E",
"|  c #C6BF73",
" . c #96D46C",
".. c #9CD86F",
"X. c #9CD870",
"o. c #C2C16F",
"O. c #C4C471",
"+. c #CDC675",
"@. c #D0CA78",
"#. c #573C87",
"$. c #583D8A",
"%. c #66429E",
"&. c #507F82",
"*. c #6743A0",
"=. c #6A45A5",
"-. c #6E4AA1",
";. c #886C87",
":. c #836788",
">. c #866989",
",. c #866A88",
"<. c #528284",
"1. c #5C948C",
"2. c #BEBB88",
"3. c #C0BD89",
"4. c #BEE59F",
"5. c #CAC282",
"6. c #C4C28E",
"7. c #CFC788",
"8. c #DDDA86",
"9. c #DFDD88",
"0. c #D7D584",
"q. c #C6C491",
"w. c #E1DF89",
"e. c #C0E583",
"r. c #C3E886",
"t. c #E2E08B",
"y. c #EEF39D",
"u. c #F4F89F",
"i. c #E3DFA8",
"p. c #C5E8A3",
"a. c #E4E0A8",
"s. c #F0F4A0",
"d. c #F6FAA1",
"f. c #FAFFA5",
"g. c #F4F7AF",
"h. c #FBFFB6",
"j. c #F6F9BB",
"k. c #F7FDC0",
"l. c #FCFFC3",
"z. c #F6F7CD",
"x. c #F8FACF",
"c. c #FCFDD3",
/* pixels */
"                    *.                                                          %.              ",
"                  : $.*.                                                    =.=.#.+             ",
"                  e s $.*.                                                =.=.#.a +             ",
"                + a a s =.*.                                            =.=.$.a a +             ",
"                + s s s $.=.*.                                        =.=.#.a a a O             ",
"                # s a a s $.=.*.                                    =.=.#.a a a t X             ",
"              + q s a a a s =.=.*.                                =.=.#.a a a a #               ",
"              + q a a a a s $.=.=.=.=.=.=.=.=.=.=.=.=.=.=.=.=.=.=.=.#.a a a a a #               ",
"              + q a a a a a s =.=.$.$.$.$.$.$.$.$.$.$.$.$.$.$.=.=.#.a a a a a t @               ",
"              + q s a a t s g $.#.a a a a a a a a s a a a a s $.$.g a a a a a q +             D ",
"              + q p a p d s #.a a a a s a a a a a a a a a a a a a $.a p a a p q +               ",
"              + q q p f #.a a a a a a a a a a a a a a s a s a a a a a f p p q # +               ",
"              + q q q =.s s a a a a a a a a a a a a a a a a a a a a a $.d q # # +         D     ",
"              X q q d #.a s a a s a a g g g h g h g g g g a s a a a a s %.q q @ X               ",
"                + q $.a a a a s a h h >.>.>.>.>.>.>.>.>.:.g g a a a a a #.d @ +                 ",
"                @ w s s a a a g h >.;./ / ( / / / / / / / >.:.g g a a a a #.w +         D       ",
"                w a a a a s h >.;.( / / ) ( ( ( ( ( ( ( ( ( / ;.:.g a a a a a q                 ",
"              - a s a a a h ;./ / / ( +.R R @.+.+.+.R R ( ( / / ` :.g a a a a a +               ",
"              w a a a a s -.( / ( +.@.u.Q ! f.f.u.u.Q ! +.+./ / / ^ *.a a a a a :               ",
"            w a s a a s d -./ / @.f.f.f.f.f.f.f.f.f.f.f.f.f.+.+./ / =.a a a a a a w         D   ",
"          e a a a a a a C ;.+.@.f.f.u.u.u.u.f.f.f.f.f.f.f.f.f.f.+.+.:.t a a a a a a q           ",
"        @ p a a a a a t ( @.f.h.o.o.4.{ r.h.f.f.f.f.j.@.{ e.} O.h.f.| n t a a a a a t @         ",
"      X # # p p s s a > ` f.f.j.Q ~ U 3 T p.f.f.f.f.p.U 3 Y ~ ! l.f.d.^ + a a a p p @ @ X       ",
"        X X # # t t t - P t.f.f.f.l. .I ....f.h.h.d. . .I ..l.f.f.f.8.A @ p p p # @ X X         ",
"            X X # @ q q @ L t.f.f.f.f.f.f.f.f.3.6.f.f.f.f.f.f.f.f.8.Z @ q q @ @ X X             ",
"                X X @ q @ - K t.f.f.f.f.f.f.d.Q ! f.f.f.f.f.f.f.8.A + @ @ @ X X                 ",
"                    X X X X o K ] ] f.f.f.f.f.f.f.f.f.f.f.f.] [ Z X X X X X                     ",
"                              X X O ] ] ] ] ] ] ] ] ] ] ] [ X X X                               ",
"                                    @ @ & , , & & w , & + +                                     ",
"                                  # # , z l u % % u l z w q @                                   ",
"                                @ q : x 1.v u m m u b 1.z # q +                   l.j.          ",
"                              @ q q < 1.<.c < / ^ % c <.1.$ q q @               l.f.y.          ",
"                            + q # q ; F c y N ( / m y c F $ q q q +             f.f.y.          ",
"                            e r r # , y y N ( +.+./ m y y : q q r w             f.d._           ",
"                          + s s a e @ ; N ( @.f.d.+.^ m & q r a a a +         ( f.0.            ",
"                          w a a a a # M ( @.f.f.f.f.+.^ n q a a a a w         @.d.0             ",
"                        + a a a a t V ( @.f.f.f.f.f.d.+./ n t a a a a O     J 9.'               ",
"                        e s a a a - / @.f.f.f.f.f.f.f.f.+.^ + a a a a :   J / R .               ",
"                      + a a a a a - @.f.f.f.f.f.f.f.f.f.d.| + a a a a a - / R 5                 ",
"                      = a a a a t G f.t.f.f.f.f.f.f.f.f.w.d.S t a a a a - R 6 .                 ",
"                      # s a a a > f.u.) f.f.h.w.w.h.f.d.( f.s.+ a a a a # 2 .                   ",
"                    + q s a a a > f.u.) +.f.c./ ` c.f.} ` f.s.+ a a a a q +                     ",
"                    @ q a a a a > f.f.| 8 h.x.E Q c.g.8 @.f.s.@ a a a a q @                     ",
"                  @ q r a a a a > f.f.u.J q.z.6 8 c.3.J f.f.s.+ a a a a r q +                   ",
"                @ r e a a a a t V f.f.f.+.J 3.6 7 3.J @.f.f.d.n t a a a a r q @                 ",
"              w e a a a t a a - ) f.f.f.d.| H H H J @.f.f.f.d.^ + a a p a a e e @               ",
"            e a s a a a w a a - ) f.f.f.f.f.+.@.+.@.f.f.f.f.d.^ + a a r a a a a e :             ",
"        w w s a t a a a a a a - ) f.f.f.f.f.f.f.f.f.f.f.f.f.d.^ @ a a a a a a p a a w w         ",
"    : e a a a a r a a p a a a - ( f.f.f.f.f.f.f.f.f.f.f.f.f.d.^ + s a a t a a e a a a a w w     ",
"  e s s a s t a a a a r a a a - ( f.f.f.f.f.f.f.f.f.f.f.f.f.d./ @ a a a e s a a a p a a a a :   ",
"X t t s a t r a a a p a a a a # P f.f.f.f.f.h.h.h.h.f.f.f.f.d.A q s a a s i s a a e p a a t r X ",
"  X X t t q p a a p q a a a a q > f.f.f.f.f.i.i.i.a.f.f.f.f.s.@ q s a a a q i a a p q t r X X   ",
"      X X @ q p p q q p p p p q > t.f.f.f.8.E E R W t.f.f.f.0.+ q p p p t q q p p @ @ X X       ",
"          X X @ @ # q q q q q q - ( t.f.d.E 1 . . 2 W f.f.8.^ + q q q q q q @ @ @ X X           ",
"              X X X # @ # @ @ @ o W ( w.8.5         8 w.8./ R X @ @ @ q @ @ X X X               ",
"                    X X X X X X   9 7.7.5.5         7 7.7.5.5   X X X X X X                     ",
"                                  2 6.6.2..         2 6.6.2..                                   "
};
