/* XPM */
static char *_acdfb33194d4f759ef63c489cfe2da7lgJymNySzqXKk729[] = {
/* columns rows colors chars-per-pixel */
"48 58 150 2 ",
"   c None",
".  c #181426",
"X  c #1C172C",
"o  c #1E192F",
"O  c #1F1930",
"+  c #231C36",
"@  c #261C3B",
"#  c #281C3F",
"$  c #1E2936",
"%  c #1F2E39",
"&  c #1F2637",
"*  c #1F303B",
"=  c #2B2332",
"-  c #26213C",
";  c #2A233B",
":  c #202A3A",
">  c #322A3B",
",  c #312D37",
"<  c #20323D",
"1  c #3D363D",
"2  c #463D0E",
"3  c #40393E",
"4  c #37423E",
"5  c #39433C",
"6  c #4F460F",
"7  c #4C4218",
"8  c #584E18",
"9  c #584E14",
"0  c #625613",
"q  c #665A18",
"w  c #6C601C",
"e  c #5E5320",
"r  c #615823",
"t  c #746A24",
"y  c #7A6D27",
"u  c #756A2B",
"i  c #776B28",
"p  c #7D742D",
"a  c #7F7434",
"s  c #2B1C42",
"d  c #2A2141",
"f  c #2F2148",
"g  c #32294E",
"h  c #283C45",
"j  c #273A49",
"k  c #293E4D",
"l  c #233643",
"z  c #3C3743",
"x  c #362454",
"c  c #362B54",
"v  c #382D56",
"b  c #3A2F5A",
"n  c #3B305C",
"m  c #3F3161",
"M  c #443645",
"N  c #413264",
"B  c #44336A",
"V  c #4A3373",
"C  c #29404F",
"Z  c #294046",
"A  c #2D4554",
"S  c #304A59",
"D  c #375467",
"F  c #3C5D6E",
"G  c #3F6271",
"H  c #4E4641",
"J  c #4B464A",
"K  c #5A554E",
"L  c #605E55",
"P  c #446A78",
"I  c #4B7775",
"U  c #527772",
"Y  c #547B75",
"T  c #81762F",
"R  c #857B33",
"E  c #807638",
"W  c #847A3B",
"Q  c #8B7F50",
"!  c #51817E",
"~  c #8E873D",
"^  c #8E8643",
"/  c #8D844D",
"(  c #92874A",
")  c #9B8E45",
"_  c #898450",
"`  c #998C53",
"'  c #91845A",
"]  c #999050",
"[  c #A1944A",
"{  c #A7994E",
"}  c #A69A56",
"|  c #AB9D51",
" . c #A3985B",
".. c #A0955A",
"X. c #AEA255",
"o. c #B4A75A",
"O. c #B7A95C",
"+. c #9E8A6E",
"@. c #AC9B63",
"#. c #A79468",
"$. c #B3A964",
"%. c #B9AE60",
"&. c #B9AC6E",
"*. c #BCB162",
"=. c #BEB269",
"-. c #B2B575",
";. c #C1B667",
":. c #C3B969",
">. c #C3B872",
",. c #C9C070",
"<. c #C9C078",
"1. c #573988",
"2. c #5B3D8E",
"3. c #5D3D91",
"4. c #603E95",
"5. c #614197",
"6. c #63429B",
"7. c #725391",
"8. c #785897",
"9. c #6743A1",
"0. c #6A45A5",
"q. c #588C87",
"w. c #5C948C",
"e. c #BCBE85",
"r. c #CACB88",
"t. c #D5D582",
"y. c #D4D686",
"u. c #D2D590",
"i. c #D6D992",
"p. c #DFE08B",
"a. c #E5E58F",
"s. c #EBED96",
"d. c #E6E898",
"f. c #EEF098",
"g. c #F2F59D",
"h. c #D8D6A5",
"j. c #DEDDAA",
"k. c #DFDFB1",
"l. c #DEE0B4",
"z. c #F5FAA2",
"x. c #FAFFA5",
"c. c #F7FBAF",
"v. c #FAFFAB",
"b. c #E2E2B4",
"n. c #EEEEBD",
"m. c #E7E9B8",
"M. c #F0F0BB",
"N. c #F4F4C6",
"B. c #FCFFCA",
"V. c #FDFFD1",
/* pixels */
"                    V                                                     V                     ",
"                  . 3.4.                                                V 0.f                   ",
"                  X b 5.4.                                            V 0.V @                   ",
"                . g b n 5.4.                                        V 9.V b v +                 ",
"                X c v b 5.0.4.                                    V 9.0.B b n -                 ",
"                X x n b N 5.0.4.                                V 9.0.V n b n -                 ",
"              . @ v b b b N 5.0.4.                            V 9.0.V n b b n s +               ",
"              X # c b b b b 5.0.0.4.3.3.3.3.3.3.3.3.3.3.3.3.3.9.0.0.N b b b n s +               ",
"              X # c b b b b m 5.0.0.0.0.0.0.0.0.0.0.0.0.0.0.0.0.0.B n b b b n f +               ",
"              X # c b b b b b 5.0.V m N N N m N N N N N N N N 5.0.B n n b b n s @         U     ",
"              X s v b b f b 2.V m n b b b b b b b b b b b b b n N 3.B b b b b f +       U   Y   ",
"              X # s c f 1.N m b n n b b b b b b b b b b b b b b b m b f v b b s +         Y     ",
"              X # s s 1.V b b b n b b b b b b b b b b b b b b b b b b 2.x c f s @               ",
"              X # # s 3.N b b b b b b b b b b b b b b b b b b b b b b m 2.x s # +               ",
"                X # 1.V b b b b n n b 2.6.9.6.9.6.6.6.6.6.B b b b b b b 5.x s @         U     U ",
"                X + b b b b b b n 2.6.+.@.@.@.@.@.@.@.@.@.7.6.B b b b b m 2.f +                 ",
"                X g v b b b b 2.5.+.@.o.o.o.o.o.o.o.o.o.o.@.@.7.6.B n v n N v -                 ",
"              . g v n b b b 3.+.@.o.o.o.o.o.o.o.O.o.o.o.o.o.o.o.@.7.N n n v n v +               ",
"              X c n b n n 2.+.o.o.o.o.a.R w t.g.g.g.R w { o.o.o.o.@.7.B v v n n -               ",
"            . g v n b b n 5.#.o.o.a.g.x.s.s.x.x.x.x.s.s.g.g.;.o.o.o.8.N n n n v v +             ",
"          . g b n n v n b 5.#.o.a.x.x.x.x.x.x.x.x.x.x.x.x.x.g.g.;.O.8.N b b n b n v +           ",
"        . g b b v n v n ' @.a.g.>.f.x.x.x.x.x.x.x.x.x.x.x.x.x.>.a.g.&.M c b b b b b v +         ",
"      . @ s v b b b n - ` a.x.x.M.^ i i X.f.x.x.x.x.x.,.T t i j.v.x.g.$.3 c b b b n f # +       ",
"        X + # s v n n - ` s.x.x.v.M.s.d.g.z.x.x.x.x.x.g.s.s.m.c.x.x.x.;.1 c b n f s @ +         ",
"            X + s s s s >  .f.x.x.v.x.x.x.x.x.B.B.v.x.x.x.x.v.x.x.x.,.H s s s s @ +             ",
"                X + s s s >  .f.x.x.x.x.x.x.x.^ u a.x.x.x.x.x.x.x.,.H ; s s @ +                 ",
"                    X + + + >  .f.x.x.x.x.x.x.s.s.z.x.x.x.x.x.x.,.H + + + +                     ",
"                              = z z i.x.x.x.x.x.x.x.x.x.x.x.L z >                               ",
"                                    , z z z z z z z z z z z                                     ",
"                                  . @ s & j k % $ h k % # s +                                   ",
"                                . @ s & I G S < $ j D ! h s # O               -.l.              ",
"                              . # s & I w.P l _ ] 4 D q.q.h @ s +           -.z.v.m.            ",
"                            . # s s & ! P S % ` o.5 C F q.Z @ s # O           y.x.B.            ",
"                            X # s s & A A < _ o.o.} 5 C S * d s s O           ] f.v.            ",
"                          . g v v s s : % _ o.a.g.=.} 4 $ - s c v v @         ( s.x.            ",
"                          X c b b b s + / X.a.x.x.g.=.} 1 # c v b b -         ( f.>.            ",
"                        . g v n n b - Q o.a.x.x.x.x.g.;.} 1 x b b b v +     2 t.x.              ",
"                        X c b b n - Q o.a.x.x.x.x.x.x.g.;.} 1 c b b n @ 7 9 ) %.R               ",
"                      . g b b b v - ` a.z.x.x.x.x.x.x.x.g.;.1 c b b b b = ( o.y                 ",
"                      X c b b b n # r.x.x.x.x.x.x.x.x.x.x.z.J c b b b b - ` y                   ",
"                      X c b b b d e.z.,.f.x.x.x.x.v.x.x.>.g.d.J v v v n @ e                     ",
"                    . @ c b b b @ u.x.:.s.x.B.<.;.M.v.x.:.s.v.J c n n b f =                     ",
"                    X # c b b b - u.x.:.T a.B.>.o.n.v.~ | f.x.J c v b b s @                     ",
"                  . # # c b b b - u.x.g.p k.V.W q k.V.R t.g.x.J c b n n s s +                   ",
"                . @ s c b b b b # u.x.x.*.T b.E q k.( [ s.x.x.J c b b b v s s O                 ",
"              . @ c v v b b b d Q s.x.x.z.O.E q 0 t [ a.x.x.x.$.1 c b b b v s s +               ",
"            . g v b v n f v b # ` s.x.x.x.g.%.| | | a.z.x.x.x.:.1 c b f v b v v s O             ",
"        . X g v b b n n v v n - ` f.x.x.x.x.g.g.g.g.z.x.x.x.x.;.1 c b v n b b b v v @ X         ",
"    . X g c v n f v b b b b b - ` s.x.x.x.x.x.x.x.x.x.x.x.x.x.:.1 c b b b b b f c b v v + X     ",
"  . g c n n n v b b b f v b n - ` f.x.x.x.x.x.x.x.x.x.x.x.x.x.:.1 c b b f v b v b b b b v v +   ",
". g v n n n f v b b b b b b b # ` s.x.x.x.x.x.x.x.x.x.x.x.x.x.:.z v b b v b b b b f v n n n v + ",
"  + @ c v f c v b b s v b b b s > i.x.x.x.x.B.V.V.V.v.x.x.x.x.K - v b b b f v b b v f v b - @   ",
"      + - # s v b f s v n n b s + u.x.x.x.x.,.;.=.=.f.x.x.x.x.J # v b b b s s b n f s @ @       ",
"          X + s s s s s s s s s + ..s.x.x.>.T w w w X.f.x.x.,.M # s s s s s s s s @ +           ",
"              X + + # s s s s s + ` *.g.x.R         9 a.x.,.O.1 # s s s s s @ + +               ",
"                    X + + + + +   8 { *.*.t         6 X.*.o.y   X + + + + +                     ",
"                                  6 h.N.N.E         6 h.N.N.a                                   ",
"                                    r u u             r u u                                     "
};
