/* XPM */
static char *_ea2e438d0c24fd88d3b6e737a4da2d8rlq7SgkfwDNne7uU[] = {
/* columns rows colors chars-per-pixel */
"66 66 110 2 ",
"   c #517606",
".  c #547B07",
"X  c #547A09",
"o  c #6F7C3E",
"O  c #6B5C5F",
"+  c #6D6D4D",
"@  c #6E7545",
"#  c #6E7841",
"$  c #6D7248",
"%  c #6C6655",
"&  c #6D6951",
"*  c #6C615A",
"=  c #787B55",
"-  c #694E6E",
";  c #6A5665",
":  c #6B5A62",
">  c #6B536A",
",  c #6F596E",
"<  c #715B6F",
"1  c #6A4A74",
"2  c #6E4D79",
"3  c #714E7C",
"4  c #6E5273",
"5  c #73517E",
"6  c #75646B",
"7  c #65920B",
"8  c #68970C",
"9  c #6B9A0D",
"0  c #699214",
"q  c #6E9718",
"w  c #739F17",
"e  c #729C1B",
"r  c #6FA00E",
"t  c #73A50F",
"y  c #74A710",
"u  c #76A11E",
"i  c #79A71B",
"p  c #688623",
"a  c #6D8C24",
"s  c #6D862B",
"d  c #718D2B",
"f  c #729522",
"g  c #779E23",
"h  c #719028",
"j  c #6F8237",
"k  c #6F8039",
"l  c #70803A",
"z  c #7CA725",
"x  c #7E8E48",
"c  c #86A73D",
"v  c #82865A",
"b  c #8BA849",
"n  c #765281",
"m  c #795585",
"M  c #775981",
"N  c #7A5986",
"B  c #7C5788",
"V  c #7D5B89",
"C  c #7E6188",
"Z  c #815D8D",
"A  c #82628D",
"S  c #83608F",
"D  c #85678E",
"F  c #876E8E",
"G  c #846090",
"H  c #846190",
"J  c #856291",
"K  c #866392",
"L  c #876393",
"P  c #876493",
"I  c #886394",
"U  c #896695",
"Y  c #8A6596",
"T  c #876B90",
"R  c #896A92",
"E  c #896A93",
"W  c #886C91",
"Q  c #8B6996",
"!  c #8C6C96",
"~  c #8C6898",
"^  c #8E6B9A",
"/  c #916E9C",
"(  c #8C7296",
")  c #93749D",
"_  c #94769E",
"`  c #92789B",
"'  c #967A9F",
"]  c #957C9E",
"[  c #9677A0",
"{  c #977AA1",
"}  c #9B7CA5",
"|  c #9B7DA5",
" . c #A2A981",
".. c #9A80A2",
"X. c #9B80A4",
"o. c #9D81A6",
"O. c #A185AB",
"+. c #A288AB",
"@. c #A38CAB",
"#. c #A58AAE",
"$. c #A68CAD",
"%. c #A68FAE",
"&. c #A790AF",
"*. c #AA91B2",
"=. c #AB93B3",
"-. c #AC97B3",
";. c #AB93B4",
":. c #AD97B4",
">. c #AE98B4",
",. c #B099B7",
/* pixels */
"y y y y y y y y y y y y y y y y y y y y y y y y y y 9 X 8 . 9 y y y y y y r   8   r y y y y y y y y y y y y y y y y y y y y y y y y ",
"y y y y y y y y y y y y y y y y y y y y y y y y y y y 9 t r t t r t r t y t r t r t t r t r t y y y y y y y y y y y y y y y y y y y ",
"y y y y y y y y y y y y y y y y y y y y y y y y y y y y y y t 9 . 7 . 9 t y y y y t 9 . 7 . 9 t y y y y y y y y y y y y y y y y y y ",
"y y y y y y y y y y y y y y y y y y y y y y y y y y y y y y r . 7 . 7 . r y y y y r . 7 . 7 . 9 y y y y y y y y y y y y y y y y y y ",
"y y y y y y y y y y y y y y y y y y y y y y y y y y y y y y t r t r t r t y y y y t r t r t r t y y y y y y y y y y y y y y y y y y ",
"y y y y y y y y y y y y y y y y y y y y y y y y y y y y y y y y y y y y y y y y y y y y y y y y y y y y y y y y y y y y y y y y y y ",
"y y y y y y y y y y y y y y y y y y y y y y y y y y y y y y y y y y y y y y y y y y y y y y y y y y y y y y y y y y y y y y y y y y ",
"y y y y y y y y y y y y y y y y y y y e y y y y y y y y y y y y y y y y y y y y y y y y y y y y y y y y y y y y y y y y y y y y y y ",
"y y y y y y y y y y y y y y y y y y e + f y y y y y y y y y y y t y y y y y y y y y y y y y y y y y y y y y y y y y y y y y y y y y ",
"y y y y y y y y y y y y y y y y y y y j y y y y y y y y y y y o + + @ w y y y y y y t y y y y y y y y y y y y y y y y y y y y y y y ",
"y y y y y y y y y y y y y y y y y y y y y y y y y y y y y y k ; 2 2 , o u y y y y y y y y y y y y y y y y y y y y y y y y y y y y y ",
"y y y y y y y y y y y y y y y y y y y y y y y y y y y t u j > 1 n B N 4 o e y y y y y y y y y y y y y y y y y y y y y y y y y y y y ",
"y y y y y y y y y y y y y y y y y y y y y y y y y y y y d > 1 2 Z ^ Y N 4 l y y y y y y y y y y y y y y y y y y y y y y y y y y y y ",
"y y y y y y y y y y y y y y y y y y y y y y y y y y y t d - 1 5 S } *.^ 5 o t t y y y y y y y y y y y y y y y y y y y y y y y y y y ",
"y y y y y y y y y y y y y y y y y y y y y y y y y y y d O 1 n S } O.D Z S 6 o u + & d t y y y y y y y y y y y y y y y y y y y y y y ",
"y y y y y y y y y y y y y y y y y y y y y y y y y y y o 1 1 n P ) T 3 3 H M + f ; 1 j t y y y y y y y y y y y y y y y y y y y y y y ",
"y y y y y y y y t y y y y y y y y y y y y y y y y y y # 1 1 n V m 3 n 2 V n + e + * h e f y y y y y y y y y y y y y y y y y y y y y ",
"y y y y y y y y y y y y y y y y y y y y y y y y y t e $ 1 2 m 2 3 n n n 2 2 & q w t t j + y y y y y y y y y y y y y y y y y y y y y ",
"y y y y y y y y y y t t t r t y y y y y y y y y y t $ - 2 n n 2 3 m m n 1 N C % w y y u e y y y y y y y y y y y y y y y y y y y y y ",
"y y y y y y y y t t 9 . 7 . 9 t y y y y y y y y y t & 1 1 n 2 2 n n n m n 5 2 O w y y y y y y y y y y y y y y y y y y y y y y y y y ",
"y y y y y y y y y t . 7 . 7 . 9 y y y y y y y y y w & 1 2 V 2 5 m B Z m m 2 1 : w y y y y y y y y y y y y y t y y y t t y y y y y y ",
"y y y y y y y y y t 9 t r t t t y y y y y y y y y y & 1 n H 2 n V G Y Z m 2 1 : e y y y y y y y y y y y y y t t r t r r y y y y y y ",
"y y y y y y y y y y y y y y y y y y y y y y y y y y & 1 5 P 2 n G ~ Y I V 2 1 : w y y y y y y y y y y y y y y 7 7 7   7 y y y y y y ",
"y y y y y y y y y y y y t y y y y y y y y y y y y y & 1 5 P 2 M G G m m H M 1 : w y y y y y y y y y y y y y t 7 7   7 7 r y y y t r ",
"t t r t y y y y y y y y t r t y y y y y y y y y y y % 1 2 P 5 ..[ n 1 2 m m n ; u t t y y y y y y y y y y y t r 9 r t r t t r t 8 r ",
"  8 . 8 t t y y y y y t 8 . 9 t y y y y y y y y y # ; 3 V V ] { V n 3 n 2 m B 4 @ e t y y y y y y y y y y y y y t r y y t 9 7 7 7 8 ",
"8 . 7 7 r y y r y s u r . 7 X t y y y y y y y y e : 1 N H N >.! 3 2 n n 1 Z H 5 > f y y y y y y y y y y y y y y y y y y r . 7   7   ",
"t 9 r 8 t t r 9 q + f t t t 9 y t r t r y y y y e : 1 N C N :.Q 2 3 m n 3 N Z m , f y y y y y y y y y y y y y y y y y y r r r 8 t r ",
"t t y y t 9   7 X 0 y y y y y y 9 . 7 . 8 t y y e : 1 N C m &.C 3 m N N n 3 n H ; f y y y y y y y y y y y y y y y y y y y y y y y y ",
"y y y y 8 7 7 7 7 X 9 y y y y 9 . 7 . 7 . r y y e : 1 N H 2 C 2 3 B Y U B 3 B H , f y y y y y y y y y y y y y y y y y y y y y y y y ",
"y y y y r r t r y 9 y y y y y y r t r t r t y y e : 1 m H 2 n 2 3 Y %./ Q n n H ; f y y y y y y y y y y y y y y y y y y y y y y y y ",
"y y y y t t t t y y y y y y y y y y y y y y y y e ; 1 n N 2 n 1 S } o.Y ~ n S { , e y y y y y y y y y y y y y y y y y y y y y y y y ",
"y y y y y y y y y y y y y y y y y y y y y y y y e O 1 3 2 2 n 2 ] ;.Y m H n W ;.< f y y y y y y y y y y y y y y y y y y y y y y y y ",
"y y y y y y y y y y y y y y y y y y y y y y y y e ; 1 3 n 1 n 2 ` +.N n m 3 F $., f y y y y y y y y y y y y y y y y y y y y y y y y ",
"y y y y y y y y y y y y y y y y y y y y y y y y e : 1 2 5 2 5 1 S E n 2 n n n 5 > f y y y y y y y y y y y y y y y y y y y y y y y y ",
"y y y y y y y y y y y y y y y y y y y y y y y y u ; 1 3 n 1 n 2 N S 3 3 2 5 5 1 > f y y y y y y y y y y y y y y y y y y y y y y y y ",
"y y y y y y y y y y y y y y y y y y y y y y y y e O 1 2 n 1 n 2 V V 2 n 2 3 5 1 > f t t y y y y y y y y y y y y y y y y y y y y y y ",
"y y y y y y y y y y y y y y y y y y y y y y y y e ; 1 2 5 2 N 2 m V 2 M 2 3 3 1 ; f t t y y y y y y y y y y y y y y y y y y y y y y ",
"y y y y y y y y y y y y y y f y y y y y y y y y e : 1 2 n 2 P 2 3 5 2 P 3 5 5 1 > f y y y y y y y y y y y y y y y y y y y y y y y y ",
"y y y y y y y y y y y y y e & h y y y y y y y y e : 1 3 n 2 H n 3 5 2 P 5 V V 1 > e y y y y y y y y y y y y y y y y y y y y y y y y ",
"y y y y y y y y y y y y y y f y y y y y y y y y e : 1 m V 2 P n 3 n N I 2 V V 1 > f y y y y y y y y y y y y y y y y y y y y y y y y ",
"y y y y y y y y y y y y y y y y y y y y y y y y e : 1 m S 2 P S n n H U 5 V A 1 > f y y y y y y y y y y y y y y y y y y y y y y y y ",
"y y y y y y y y y y y y y y y y y y y y y y y y e : 1 N H 2 T ^ N n Y Z n m N 1 > f y y y y y y y y y y y y y y y y y y y y y y y y ",
"y y y y y y y y y y y y y y y y y y y y y y y y e ; 1 N P n H ~ N n H 2 n n 3 1 > f y y y y y y y y y y y y y y y y r t r y y y y y ",
"y y t r y r t y y y y y y y y y y y y y y y y y e O - N Q H 5 S N 2 n 1 n 5 2 5 : f y y y y y y y y y y y y y y r 7   7 7 7 r t y y ",
"y y 8 . 7 . 8 y y y y y y y y y y y y y y y y y y a * 1 N P 5 A N 2 n 2 A n 1 : d y y y y y y y y y y y y y y y r   7 7 7 . r t y y ",
"y r . 7 . 7 . r y y y y y y y y y y y y y y y y y y + 1 5 H 5 N n 2 n 2 ..D 1 O u y y y y y y y y y y y y y y y t r t r t r t t y y ",
"y t r y r r r y y y y y y y y y y y y y y y y y y y & 1 N { 5 5 S A 3 n =.( 1 O u r y y y y y y y y y y y y y y y y y y y y y y y y ",
"y y y y y y y y y y y y y y y y y y y y y t y y y y & 1 S -.5 n { o.C R *.W 1 O t y y y y y t r y y y y y y y y y y t t t y y y y y ",
"y y y y y y y y y y y y y y y y y y y y y y y y y y & 1 C $.C 5 H } >.;.{ N 1 O u y y y y y r 8 t r t y y y y y y y t r r t y y y y ",
"y y y y t r t y y y y y y y y y y y y y y y y y y y & 1 5 T @.V n H ) S n n 2 O u t y y y y r 7 7 . r t y y y y y y t 7   7 t y y y ",
"y y y t 8 . 9 t y y y y y y y y y y y y y y y y y y & 1 1 V { m 2 B V n 2 2 2 : r y y y y y r r . 7 . r y y y t y y r 7 7 7 r y y t ",
"y t y r 7 7 . r y y t t y y y y y y y y y y y y y w j * 1 n Y V n n n 2 5 5 , k u y y y y y y y r r r t t r t r t y t r r r t t r t ",
"r t y t 9 9 r t t r r 9 t y y y y y y y y y y y y y y o 1 2 G ^ V n n 2 n n $ t y y y y y y y y y y y t 7 7 7 . 9 t y y t t t 9 . 8 ",
"  9 t y t y y t 9 7 7   9 t y y y y y y y y y y y y t o 1 1 n H Q V 2 m E N @ y y y y y y y y y y y y r   7 . 7 7 8 y y t t r 7 8   ",
"9 . r t y y t r   7   7 7 r y y y y y y y y y y y y y o - 1 n m m N m ^ &.D $ y y y y y y y y y y y y t r r r r r r y y t t r 8 t r ",
"t r t y y y y y 9 r r r r t y y y y y y y y y y y y y f # > 2 n m V ~ &.( = f y y y y y y y y y y y y y y y y y t t y y y y y y y y ",
"y y y y y y y y y t y y y y y y y y y y y y y g x u y y d 1 1 5 m m P ) n k y y y y y y y y y y y y y y y y y y y t y y y y y y y y ",
"y y y y y y y y y y y y y y y y y y y y c z y z v e y y f % - 2 n m n 5 * s y r t y y y y y y y y y y y y y y y y y y y y y y y y y ",
"y y y y y y y y y y y y y y y y y y y i  .b y y i y y y y e * - 2 n n : p X 7 . 8 t y y y y y y y y y y y y y y y y y y y y y y y y ",
"y y y y y y y y y y y y y y y y y y y y z i y y y y y y y y f % > 4 : a X 7 . 7 7 8 r y y y y y y y y y y y y y y y y y y y y y y y ",
"y y y y y y y y y y y y y y y y y y y y y y y y t y y y y y y f d h f y t y 9 r r y y y y y y y y y y y y y y y y y y y y y y y y y ",
"y y y y y y y y y y y y y y y y y y y y y y y y y y y y y y y y y y y y y y y y y y y y y y y y y y y y y y y y y y y y y y y y y y ",
"y y y y y y y y y y y y y y y y y y y y y y y y y y y y y y y y y y y y y y y y y y y y y y y y y y y y y y y y y y y y y y y y y y ",
"y y y y y y y y y y y y y y y y y y y y y y y y y y r t r t t y y y y y y y t r t t y y y y y y y y y y y y y y y y y y y y y y y y ",
"y y y y y y y y y y y y y y y y y y y y y y y y y r . 8   r y y y y y y y y r . r t y y y y y y y y y y y y y y y y y y y y y y y y "
};
