/* XPM */
static char *_1693267372[] = {
/* columns rows colors chars-per-pixel */
"66 66 185 2 ",
"   c #32371E",
".  c #323A1E",
"X  c #1B1326",
"o  c #1C122C",
"O  c #1F1530",
"+  c #211A2A",
"@  c #211534",
"#  c #251B35",
"$  c #261A38",
"%  c #261B3B",
"&  c #291A3F",
"*  c #252226",
"=  c #2B2B27",
"-  c #26222A",
";  c #2A252B",
":  c #2E3223",
">  c #2D3029",
",  c #343C22",
"<  c #34362A",
"1  c #2A2432",
"2  c #292535",
"3  c #23243B",
"4  c #342B35",
"5  c #25343C",
"6  c #36373D",
"7  c #473D2F",
"8  c #413736",
"9  c #443A33",
"0  c #36411D",
"q  c #38451C",
"w  c #3D4C1E",
"e  c #384224",
"r  c #394324",
"t  c #43571B",
"y  c #45591B",
"u  c #517606",
"i  c #547B07",
"p  c #496119",
"a  c #4E6918",
"s  c #516D19",
"d  c #557417",
"f  c #597B16",
"g  c #6F631F",
"h  c #424B27",
"j  c #435521",
"k  c #554D3A",
"l  c #655A3F",
"z  c #756927",
"x  c #757527",
"c  c #2B1D42",
"v  c #2F1E49",
"b  c #2D2146",
"n  c #2F2249",
"m  c #31254C",
"M  c #33294D",
"N  c #293B44",
"B  c #3C334B",
"V  c #342751",
"C  c #362A53",
"Z  c #382D57",
"A  c #3A2F5A",
"S  c #3D305D",
"D  c #3F2C63",
"F  c #3F3162",
"G  c #442D6A",
"H  c #423266",
"J  c #45346B",
"K  c #4F3C6B",
"L  c #4C3775",
"P  c #4F357A",
"I  c #513B78",
"U  c #2F434F",
"Y  c #324A58",
"T  c #35535C",
"R  c #3C5A64",
"E  c #4C4744",
"W  c #4A434C",
"Q  c #544F46",
"!  c #5A5347",
"~  c #685E40",
"^  c #6C6746",
"/  c #766C49",
"(  c #77754A",
")  c #716E57",
"_  c #6D7852",
"`  c #6F745C",
"'  c #787559",
"]  c #405D61",
"[  c #5A437A",
"{  c #497375",
"}  c #817E2B",
"|  c #857C36",
" . c #837B4E",
".. c #867C59",
"X. c #89717B",
"o. c #937B7A",
"O. c #5E8314",
"+. c #65920B",
"@. c #68970C",
"#. c #6B9A0D",
"$. c #658615",
"%. c #648C13",
"&. c #718917",
"*. c #6A9512",
"=. c #6A9517",
"-. c #6D9B11",
";. c #719413",
":. c #719B10",
">. c #6FA00E",
",. c #73A50F",
"<. c #74A710",
"1. c #78A31A",
"2. c #718C39",
"3. c #708346",
"4. c #8D853B",
"5. c #908539",
"6. c #8BAF2E",
"7. c #88B42C",
"8. c #938B44",
"9. c #938B49",
"0. c #928953",
"q. c #948B50",
"w. c #9B925A",
"e. c #A59B4F",
"r. c #A59C54",
"t. c #99BE45",
"y. c #ADA75B",
"u. c #B4A65A",
"i. c #B4A95D",
"p. c #908E68",
"a. c #998F6C",
"s. c #A69369",
"d. c #ABA464",
"f. c #BAAE61",
"g. c #BCB264",
"h. c #BDBA65",
"j. c #BCB368",
"k. c #AAA574",
"l. c #C1B667",
"z. c #C4BB6C",
"x. c #C4BB74",
"c. c #C8BF72",
"v. c #BFC165",
"b. c #C4CE6E",
"n. c #C3C270",
"m. c #CAC472",
"M. c #CFC977",
"N. c #D0CA78",
"B. c #D7D27F",
"V. c #543B83",
"C. c #573B88",
"Z. c #5E3F92",
"A. c #664993",
"S. c #65449B",
"D. c #725390",
"F. c #785A90",
"G. c #7F6090",
"H. c #6945A4",
"J. c #846887",
"K. c #528284",
"L. c #CAC586",
"P. c #D7D586",
"I. c #DEDC87",
"U. c #DDDC8A",
"Y. c #CED494",
"T. c #E0DF8A",
"R. c #E2E38D",
"E. c #E6E691",
"W. c #EAEC95",
"Q. c #EEEF98",
"!. c #EFF199",
"~. c #F2F59C",
"^. c #F4F89F",
"/. c #D8D7A2",
"(. c #DFDDAB",
"). c #DEEBA0",
"_. c #F0F5A0",
"`. c #F7FBA2",
"'. c #FAFFA5",
"]. c #FAFFAD",
"[. c #E9EFB2",
"{. c #FAFDB5",
"}. c #FBFFBC",
"|. c #F8FAC4",
" X c #FBFED1",
/* pixels */
"<.<.<.<.<.<.<.<.<.<.<.<.<.<.<.<.<.<.<.<.<.<.<.<.<.<.>.u @.u >.<.<.<.<.<.<.>.u @.u >.<.<.<.<.,.<.<.<.<.<.<.<.<.<.<.<.<.<.<.<.<.<.<.<.",
"<.<.<.<.<.<.<.<.<.<.<.<.<.<.<.<.<.<.<.<.<.<.<.<.<.<.<.>.<.>.>.<.>.<.>.<.<.>.>.<.>.,.,.>.,.>.,.>.<.<.<.<.<.<.<.<.<.<.<.<.<.<.<.<.<.<.",
"<.<.<.<.<.<.<.<.<.<.<.<.<.<.<.<.<.<.<.<.<.<.<.<.<.<.<.<.<.<.<.@.i +.i @.<.<.<.<.,.,.@.i +.u @.>.<.<.<.<.<.<.<.<.<.<.<.<.<.<.<.<.<.<.",
"<.<.<.<.<.<.<.<.<.<.<.<.<.<.<.<.<.<.<.<.<.<.<.<.<.<.<.<.<.<.>.i +.i +.i >.<.<.<.>.>.O.+.O.+.O.>.<.<.<.<.<.<.<.<.<.<.<.<.<.<.<.<.<.<.",
"<.<.<.<.<.<.<.<.<.<.<.<.<.<.<.<.<.<.<.<.<.<.<.<.<.<.<.<.<.<.<.>.>.>.<.>.>.<.<.<.<.<.>.>.>.<.>.<.<.<.<.<.<.<.<.<.<.<.<.<.<.<.<.<.<.<.",
"<.<.<.<.<.<.<.<.<.<.<.<.<.<.<.<.<.<.<.<.<.<.<.<.<.<.<.<.<.<.<.<.<.<.<.<.<.<.<.<.<.<.<.<.<.<.<.<.<.<.<.<.<.<.<.<.<.<.<.<.<.<.<.<.<.<.",
"<.<.<.<.<.<.<.<.<.<.<.<.<.<.<.<.<.<.<.<.<.<.<.<.<.<.<.<.<.<.<.<.<.<.<.<.<.<.<.<.<.<.<.<.<.<.<.<.<.<.<.<.<.<.<.<.<.<.<.<.<.<.<.<.<.<.",
"<.<.<.<.<.<.<.<.<.<.<.<.<.<.<.<.<.<.<.<.<.<.<.<.<.<.<.<.<.<.<.<.<.<.<.<.<.<.<.<.<.<.<.<.<.<.<.<.<.<.<.<.<.<.<.<.<.<.<.<.<.<.<.<.<.<.",
"<.<.<.<.<.<.<.<.<.<.<.<.<.<.<.<.<.<.<.<.<.<.<.<.<.<.<.<.<.<.<.<.<.<.<.<.<.<.<.<.<.<.<.<.<.<.<.<.<.<.<.<.<.<.<.<.<.<.<.<.<.<.<.<.<.<.",
"<.<.<.<.<.<.<.<.<.<.<.<.<.<.<.<.<.<.<.<.<.<.<.<.<.<.<.<.<.<.<.<.<.<.<.<.<.<.<.<.<.<.<.<.<.<.<.<.<.<.<.<.<.<.<.<.<.<.<.<.<.<.<.<.<.<.",
"<.<.<.<.<.<.<.<.<.<.<.<.<.<.<.<.<.<.<.<.<.<.<.<.<.<.<.<.<.<.<.<.<.<.<.<.<.<.<.<.<.<.<.<.<.<.<.<.<.<.<.<.<.<.<.<.<.<.<.<.<.<.<.<.<.<.",
"<.<.<.<.<.<.<.<.<.<.<.<.<.<.<.<.<.<.-.=.<.<.<.<.<.<.<.<.<.<.<.<.<.<.<.<.<.<.<.<.<.<.<.<.<.1.=.-.<.<.<.<.<.<.<.<.<.<.<.<.<.<.<.<.<.<.",
"<.<.<.<.<.<.<.<.<.<.<.<.<.<.<.<.<.<.p [ 3.1.<.<.<.<.<.<.<.<.<.<.<.<.<.<.<.<.<.<.<.<.<.<.-.` B f <.<.<.<.<.<.<.<.<.<.<.<.<.<.<.<.<.<.",
"<.<.<.<.<.<.<.<.<.<.<.<.<.<.<.<.<.<.w F S.3.1.<.<.<.<.<.<.<.<.<.<.<.<.<.<.<.<.<.<.<.<.1.` V.3 O.<.<.<.<.<.<.<.<.<.<.<.<.<.<.<.<.<.<.",
"<.<.<.<.<.<.<.<.<.<.<.<.<.<.<.<.<.=.e n V.S.3.2.<.<.<.<.<.<.<.<.<.<.<.<.<.<.<.<.<.1.2._ Z.L b w >.<.<.<.<.<.<.<.<.<.<.<.<.<.<.<.<.<.",
"<.<.<.<.<.<.<.<.<.<.<.<.<.<.<.<.<.a O M A [ C.A._ 2.<.<.<.<.<.<.<.<.<.<.<.<.<.<.3._ S.I Z Z n o +.<.<.<.<.<.<.<.<.<.<.<.<.<.<.<.<.<.",
"<.<.<.<.<.<.<.<.<.<.<.<.<.<.<.<.<.u O C A A F V.H.D.` ` ` ` ` ` ` ` ` ` ` ` ` ` A.V.I A A A v o O.<.<.<.<.<.<.<.<.<.<.<.<.<.<.<.<.<.",
"<.<.<.<.<.<.<.<.<.<.<.<.<.<.<.<.<.a O M A A Z F V.H.Z.L L L L L L L L L L L L S.S.H A A A A m o O.>.<.<.<.<.<.<.<.<.<.<.<.<.<.<.<.<.",
"<.<.<.<.<.<.<.<.<.<.>.@.,.@.,.,.<.a O M A Z n F C.J H A A A A A S A S A Z S S H L V.A A A A m @ O.<.<.<.<.<.<.<.<.<.<.<.<.<.<.<.<.<.",
"<.<.<.<.<.<.<.<.,.,.@.O.@.O.@.,.<.a O b C C P F H A A S A A A S A A Z S S Z Z S A H Z m A Z v o O.<.<.<.<.<.<.<.<.<.<.<.<.<.<.<.<.<.",
"<.<.<.<.<.<.<.<.<.>.O.+.O.+.O.>.<.a @ c c V.D S A A A A A A A Z A S S A Z S Z Z Z A H P V m c o O.<.<.<.<.<.<.<.<.<.<.>.<.<.<.<.<.<.",
"<.<.<.<.<.<.<.<.<.,.>.>.>.>.>.,.<.d - % m C.F A A A A A H H H H F H H F H S S S A A Z L P c & + +.<.<.<.<.<.<.>.>.,.>.>.<.<.<.<.<.<.",
"<.<.<.<.<.<.<.<.<.<.<.<.>.>.<.<.<.,.w # V.F S A A A D J [ F.F.F.F.F.F.F.F.[ J S A A A J P v o d >.<.<.<.<.<.<.+.O.+.O.+.,.<.<.<.<.<.",
"<.<.<.<.<.<.<.<.<.<.<.<.<.,.<.<.<.<.w o m A A A A L [ J.s.i.u.u.u.u.u.i.u.o.G.I L A A Z J H o f <.<.<.<.<.<.>.O.+.O.+.O.>.<.<.<.<.<.",
",.,.>.,.<.<.<.<.<.<.<.<.,.>.,.<.<.%.e V A A A S [ J.a.u.u.u.u.u.u.u.u.u.u.u.u.o.J.K A A A A n j #.<.<.<.<.<.<.>.@.#.,.>.,.<.>.,.>.,.",
"u +.i #.,.<.<.<.<.<.<.,.@.u @.,.<.a b A A A D [ o.u.u.u.m.P.B.B.B.B.B.P.z.u.u.u.u.X.I A A A A @ +.<.<.<.<.<.<.<.,.,.<.<.,.@.O.@.i #.",
"@.i +.i >.<.<.,.<.<.<.>.O.+.O.>.%.< M A A A G D.u.u.z.T.!.'.'.'.'.'.'.'.W.T.l.u.u.s.S.A A A A m q @.<.<.<.<.<.<.<.<.<.<.@.O.+.O.+.u ",
",.>.,.>.,.,.>.,.>.,.<.,.>.>.>.O.< V A A A Z H D.d.l.Q.'.'.y.8.E.'.'.I.4.m.'.W.R.g.s.A.A A A A A N e @.<.<.<.<.<.<.<.<.<.>.>.#.@.>.>.",
"<.<.<.<.,.@.u +.O.@.,.<.<.,.%.< M A A A A A ..k.E.Q.'.'.'.T.I.^.'.'.~.P.E.'.'.'.W.U.p.2 A A A A Z m e =.<.<.<.<.<.<.<.<.<.<.<.<.<.<.",
"<.<.<.<.>.O.+.O.@.u >.<.<.#.. # n Z Z A S 3 r.W.`.'.`.^.'.'.'.'.'.'.'.'.'.'.^.'.'.`.P./ % A A Z Z c 3 w <.<.<.<.<.<.<.<.<.<.<.<.<.<.",
"<.<.<.<.>.>.,.>.>.>.,.<.<.,.O.: - c n C C 2 0.E.'.'.E.P.R.E.Q.`.'.'.^.W.R.R.M.Q.'.'.T./ % Z Z b b = : +.<.<.<.<.<.<.<.<.<.<.<.<.<.<.",
"<.<.<.<.,.,.,.<.<.<.<.<.<.<.,.>.O.> 1 % c % 4 w.W.'.`.z.5.4.j.~.].].Q.y.4.5.I.^.'.T. .# % c % = : O.-.<.<.<.<.<.<.<.<.<.<.<.<.<.<.<.",
"<.<.<.<.<.<.<.<.<.<.<.<.<.<.<.<.<.<.a   1 % @ ; w.W.'.'.`.'.`.`././.^.'.'.'.'.^.R. .+ # $ ; : $.,.<.<.<.<.<.<.<.<.<.<.<.<.<.<.<.<.<.",
"<.<.<.<.<.<.<.<.<.<.<.<.<.<.<.<.<.<.<.<.y q q q h 0.k.Y.'.'.'.`.y.i.'.^.'.'.L.k.( r q q q d <.<.<.<.<.<.<.<.<.<.<.<.<.<.<.<.<.<.<.<.",
"<.<.<.<.<.<.<.<.<.<.<.<.<.<.<.<.<.<.<.<.<.<.<.<.*.. o ! p.p.p.p.p.p.p.p.p.p.6 X t #.<.<.,.<.<.<.<.<.<.<.<.<.<.<.<.<.<.<.<.<.<.<.<.<.",
"<.<.<.<.<.<.<.<.<.<.<.<.<.<.<.<.<.<.<.<.<.<.<.<.*., % # U R N 5 l k 3 Y ] N # % j #.<.<.<.t.P.7.<.<.<.<.<.<.<.<.<.<.<.<.<.<.<.<.<.<.",
"<.<.<.<.<.<.<.<.<.<.<.<.<.<.<.<.<.<.<.<.<.<.<.=., % c 3 { { T 5 r.0.N R K.T 3 & # h #.<.t._.{.).7.<.<.<.<.<.<.<.<.<.<.<.<.<.<.<.<.<.",
"<.<.<.<.<.<.<.<.<.<.<.<.<.<.<.<.<.<.<.<.<.<.<.%.o c & 3 U Y N 0.u.r.) N Y N % c c = #.<.6.z.R.].).7.<.<.<.<.<.<.<.<.<.<.<.<.<.<.<.<.",
"<.<.<.<.<.<.<.<.<.<.<.<.<.<.<.<.<.<.<.<.<.<.*., M C m c 2 5  .f.E.T.u.^ 5 3 c V C M q ,.1.1.b.'._.7.<.<.<.<.<.<.<.<.<.<.<.<.<.<.<.<.",
"<.<.<.<.<.<.<.<.<.<.<.<.<.<.<.<.<.<.<.<.<.<.O.1 Z S Z b #  .g.W.'.'.T.f.~ 2 M Z A V > *.1.&.n.^.v.1.<.<.<.<.<.<.<.<.<.<.<.<.<.<.<.<.",
"<.<.<.<.<.<.<.<.<.<.<.<.<.<.<.<.<.<.<.<.<.-.: C C S C 6 / f.W.'.'.'.'.T.f.l m C S Z M . &.5.m.h.7.<.<.<.<.<.<.<.<.<.<.<.<.<.<.<.<.<.",
"<.<.<.<.<.<.<.<.<.<.<.<.<.<.<.<.<.<.<.<.<.O.> A A A b ~ g.W.'.'.'.'.'.'.I.f.9 m Z S M ; z e.} ;.,.<.<.<.<.<.<.<.<.<.<.<.<.<.<.<.<.<.",
"<.<.<.<.<.<.<.<.<.<.<.<.<.<.<.<.<.<.<.<.<.: V A A F n ) E.'.'.'.'.'.'.'.`.U.k m A A S m 7 } #.<.,.,.<.<.<.<.<.<.<.<.<.<.<.<.<.<.<.<.",
"<.<.<.<.<.<.<.<.<.<.<.<.<.<.<.<.<.<.<.<.,.: V A A C W j.E.~.'.'.'.'.'.'.W.~.a.B C S A b . &.<.<.<.,.<.<.<.<.<.<.<.<.<.<.>.<.<.<.<.<.",
"<.<.<.>.<.,.,.<.<.<.<.<.<.<.<.<.<.<.<.<.a 1 V A A m ) '.N.W.'.[.P.U.}.'.P.T.'.E M S A M > f <.<.<.<.<.<.<.<.<.<.<.@.i +.i @.<.<.<.<.",
"<.,.#.i +.i @.<.<.<.<.<.<.<.<.<.<.<.<.<., % Z A A m ) '.N.9.E.|.j.x.|.P.e.T.'.E M A A C @ t <.<.<.<.<.<.<.<.<.<.>.i +.i +.i >.<.<.<.",
"<.>.i +.i +.i #.<.<.<.<.<.<.<.<.<.<.<.p 1 c Z A A M ) '.Q.| /.|.| 0. Xx.e.^.'.k M A A C & ; d <.<.<.<.<.<.<.<.<.,.>.<.>.>.>.<.<.<.<.",
"<.>.>.,.,.#.,.<.<.<.<.<.<.<.<.<.<.<.,.q % V Z A A m ' '.'.l.9.Y.z | /. .N.'.'.Q M S A A m # y <.<.<.<.<.<.<.<.<.<.<.<.<.<.<.<.<.<.<.",
"<.<.<.<.<.<.<.<.<.<.<.<.<.<.<.<.<.<.,.h C Z Z A V 8 x.].'.^.g.| g z 4.m.^.'.'.d.4 Z A Z Z n 2 d ,.,.<.<.<.<.<.<.<.<.<.<.<.<.<.<.<.<.",
"<.<.<.<.<.<.<.<.<.<.<.<.<.<.<.<.,.-.j m A Z m A m 9 M.`.'.'.~.z.g.i.m.^.'.'.'.j.4 Z Z n S Z C 2 O.>.,.<.<.<.<.<.<.<.<.,.#.,.<.<.<.<.",
"<.<.<.<.,.>.,.<.<.<.<.<.<.<.<.<.-.y b Z A A A A m 9 M.'.'.'.'.`.`.`.'.'.'.'.'.j.4 C A A A A C % p i #.,.<.<.<.<.<.<.,.#.i #.,.<.<.<.",
"<.<.<.<.#.i @.,.<.<.<.<.<.<.<.<.f $ M V A C Z A M 9 N.'.'.'.'.'.'.'.'.'.'.'.'.j.4 C A C Z S n Z + i i >.<.<.<.<.<.<.,.i +.i ,.<.<.<.",
"<.<.<.>.i +.i >.<.<.<.<.<.<.<.#.r 3 A Z S M C S m 9 M.'.'.'.'.'.'.'.'.'.'.'.'.j.6 Z A Z V Z S S % y @.<.,.#.<.#.,.<.,.,.,.,.,.,.>.,.",
">.<.<.,.>.,.>.,.<.>.<.>.<.<.<.O.@ C S S M C S Z V 4 s.'.'.'.'.}.}.|.{.'.'.'.'...4 Z A A Z C S Z M - *.,.#.i +.u #.,.,.<.,.<.,.@.i #.",
"u @.<.<.<.<.<.<.@.i +.i @.<.<.$.% m S V c C Z S C % ) `.'.'.`.P.L.L.T.].'.'.`.k c Z A A V c M S m 2 -.,.i +.i +.i #.<.<.<.<.#.i +.u ",
"@.i >.<.<.<.<.>.i +.i +.i >.<.O.o # b c & v v M b % ! T.'.'.m.| } z 5.P.'.].N.6 & c v v c c c v @ - =.,.#.<.,.,.,.,.<.<.<.<.,.,.>.>.",
"<.>.<.<.<.<.<.<.>.,.>.,.#.<.<.>.$.y + X % % % c c $ k f.m.m.4.&.;.;.&.5.M.c.u.9 % % c % c # + + s %.,.<.<.<.<.<.,.<.<.<.<.<.<.<.<.<.",
"<.<.<.<.<.<.<.<.<.<.<.<.<.<.<.<.<.:.*.%.e * * * + , &.d.(.(.x :.,.,.:.9.(.(.8.f : * * * * t *.%.<.<.<.<.<.<.<.<.<.<.<.<.<.<.<.<.<.<.",
"<.<.<.<.<.<.<.<.<.<.<.<.<.<.<.<.<.<.<.<.-.*.*.*.#.-.<.&.x x ;.<.,.,.,.&.x x ;.:.*.*.*.*.*.:.<.<.<.<.<.<.<.<.<.<.<.<.<.<.<.<.<.<.<.<.",
"<.<.<.<.<.<.<.<.<.<.<.<.<.<.<.<.<.<.<.<.<.<.<.<.<.<.<.<.<.<.<.<.,.,.,.,.#.i @.i #.,.<.<.<.<.<.<.<.<.<.<.<.<.<.<.<.<.<.<.<.<.<.<.<.<.",
"<.<.<.<.<.<.<.<.<.<.<.<.<.<.<.<.<.<.<.<.<.<.<.<.<.<.<.<.<.<.<.<.<.<.,.,.i +.i +.i ,.<.<.<.<.<.<.<.<.<.<.<.<.<.<.<.<.<.<.<.<.<.<.<.<.",
"<.<.<.<.<.<.<.<.<.<.<.<.<.<.<.<.<.<.<.<.<.<.<.<.<.<.<.<.<.<.<.<.<.<.,.,.:.,.:.,.#.,.<.<.<.<.<.<.<.<.<.<.<.<.<.<.<.<.<.<.<.<.<.<.<.<.",
"<.<.<.<.<.<.<.<.<.<.<.<.<.<.<.<.<.<.<.<.<.<.<.<.<.<.<.<.<.<.<.<.<.<.<.<.<.<.,.,.<.<.<.<.<.<.<.<.<.<.<.<.<.<.<.<.<.<.<.<.<.<.<.<.<.<.",
"<.<.<.<.<.<.<.<.<.<.<.<.<.<.<.<.<.<.<.<.<.<.<.<.<.,.<.<.<.<.<.<.<.<.<.<.<.<.<.,.<.<.<.<.<.<.<.<.<.<.<.<.<.<.<.<.<.<.<.<.<.<.<.<.<.<.",
"<.<.<.<.<.<.<.<.<.<.<.<.<.<.<.<.<.<.<.<.<.<.<.<.<.,.>.,.>.,.<.<.<.<.<.<.<.<.,.>.,.<.<.<.<.<.<.<.<.<.<.<.<.<.<.<.<.<.<.<.<.<.<.<.<.<.",
"<.<.<.<.<.<.<.<.<.<.<.<.<.<.<.<.<.<.<.<.<.<.<.<.<.>.u @.u >.<.<.<.<.<.<.<.<.>.u >.<.<.<.<.<.<.<.<.<.<.<.<.<.<.<.<.<.<.<.<.<.<.<.<.<."
};
