/* XPM */
static char *_3fa39945de54b399b3f1a40671ce753588GrAcs23Z2QZIg[] = {
/* columns rows colors chars-per-pixel */
"66 66 240 2 ",
"   c #243917",
".  c #293D08",
"X  c #1B182C",
"o  c #273A25",
"O  c #323F25",
"+  c #28243B",
"@  c #283A35",
"#  c #353837",
"$  c #1A2E1A",
"%  c #284406",
"&  c #344A0D",
"*  c #385609",
"=  c #294318",
"-  c #32421D",
";  c #334716",
":  c #3C591C",
">  c #274022",
",  c #2C4329",
"<  c #354625",
"1  c #395426",
"2  c #334837",
"3  c #3C5439",
"4  c #445E18",
"5  c #4C7607",
"6  c #4B681A",
"7  c #557919",
"8  c #4C6C0D",
"9  c #415C29",
"0  c #455A39",
"q  c #4C6B23",
"w  c #4B6628",
"e  c #52692A",
"r  c #506826",
"t  c #53732A",
"y  c #597D2D",
"u  c #547424",
"i  c #4D6738",
"p  c #526B3B",
"a  c #5A7C31",
"s  c #5B783A",
"d  c #617B32",
"f  c #39354A",
"g  c #3D3857",
"h  c #2C3A45",
"j  c #4A3F5F",
"k  c #354846",
"l  c #3B4B51",
"z  c #455A45",
"x  c #52564B",
"c  c #464759",
"v  c #465757",
"b  c #545255",
"n  c #4D6548",
"m  c #556948",
"M  c #5B7545",
"N  c #586956",
"B  c #566D58",
"V  c #627845",
"C  c #657757",
"Z  c #616B5B",
"A  c #444A67",
"S  c #4B5577",
"D  c #4F566E",
"F  c #6A5C73",
"G  c #635B66",
"H  c #596568",
"J  c #576875",
"K  c #4F6067",
"L  c #68796A",
"P  c #6B6879",
"I  c #667777",
"U  c #6C7171",
"Y  c #558401",
"T  c #598603",
"R  c #5A8B01",
"E  c #5D8A0B",
"W  c #588805",
"Q  c #5E9103",
"!  c #5C8416",
"~  c #608C06",
"^  c #639402",
"/  c #6C9D04",
"(  c #6C9D0C",
")  c #679508",
"_  c #648B19",
"`  c #6C9C13",
"'  c #6E9C1B",
"]  c #6A9518",
"[  c #739D14",
"{  c #729D1C",
"}  c #719F09",
"|  c #6EA20B",
" . c #6DA204",
".. c #73A504",
"X. c #74AA05",
"o. c #79A905",
"O. c #73A50D",
"+. c #79A60C",
"@. c #75A80D",
"#. c #7AAA0C",
"$. c #78A700",
"%. c #6FA112",
"&. c #6FA219",
"*. c #75A612",
"=. c #79A514",
"-. c #75A912",
";. c #79AB14",
":. c #75A51C",
">. c #79A41C",
",. c #76A919",
"<. c #7AAA1A",
"1. c #7DB218",
"2. c #5E8229",
"3. c #698B25",
"4. c #668629",
"5. c #6D9426",
"6. c #749C24",
"7. c #72962C",
"8. c #759C2B",
"9. c #759925",
"0. c #668537",
"q. c #769B31",
"w. c #7A9C3C",
"e. c #779A36",
"r. c #6D9136",
"t. c #75A422",
"y. c #7AA324",
"u. c #7BAA23",
"i. c #7CA32B",
"p. c #76A229",
"a. c #7CA133",
"s. c #79A331",
"d. c #6B894B",
"f. c #789A43",
"g. c #758D4F",
"h. c #72856E",
"j. c #81AF12",
"k. c #81AB2A",
"l. c #82A639",
"z. c #88957B",
"x. c #555A89",
"c. c #5E688E",
"v. c #656D89",
"b. c #687689",
"n. c #757488",
"m. c #6C7696",
"M. c #797B93",
"N. c #6B6A8A",
"B. c #797FAF",
"V. c #817991",
"C. c #758688",
"Z. c #768598",
"A. c #7A8E8A",
"S. c #7C86A9",
"D. c #858887",
"F. c #8B928B",
"G. c #889687",
"H. c #878599",
"J. c #8B9797",
"K. c #95989D",
"L. c #908A96",
"P. c #98A598",
"I. c #94A187",
"U. c #8A99A8",
"Y. c #999AA9",
"T. c #8A96B7",
"R. c #838AB1",
"E. c #A58FA8",
"W. c #9CA6A5",
"Q. c #97A5B6",
"!. c #A5AAA7",
"~. c #B4B4B7",
"^. c #A9AEB4",
"/. c #C2BCBE",
"(. c #B7C0BD",
"). c #C1C0BE",
"_. c #8B96C1",
"`. c #9298CA",
"'. c #9CA8C7",
"]. c #9CA7D3",
"[. c #ABB7D6",
"{. c #B1BBD5",
"}. c #A8B1C7",
"|. c #ABB4E1",
" X c #B4BAF3",
".X c #C5ABCA",
"XX c #D6BCD5",
"oX c #CCB7CE",
"OX c #BAC7D9",
"+X c #B9C8C8",
"@X c #B9C5E4",
"#X c #B9C5E8",
"$X c #BBC7F6",
"%X c #C4C3C6",
"&X c #C8C9D7",
"*X c #D5CAD8",
"=X c #D6D6DB",
"-X c #C4CCE9",
";X c #C5D3ED",
":X c #CCDBEC",
">X c #CAD3E9",
",X c #D4DBEE",
"<X c #D9DAE4",
"1X c #C3CEF7",
"2X c #C4D4F3",
"3X c #CAD5F4",
"4X c #CCDBF4",
"5X c #C7D4FC",
"6X c #CBD5FD",
"7X c #CCDBFC",
"8X c #C6DAF7",
"9X c #D2DCF5",
"0X c #D2DCFD",
"qX c #D5DAFB",
"wX c #DFC2E0",
"eX c #E9D7E8",
"rX c #E7DEF8",
"tX c #F0D8EF",
"yX c #DEE3ED",
"uX c #DDE3E7",
"iX c #CEE1FD",
"pX c #CEE0F4",
"aX c #D2E1F4",
"sX c #D3E2FD",
"dX c #DAE4FC",
"fX c #DDE4F7",
"gX c #E7E9EB",
"hX c #E4ECFC",
"jX c #E8E9F7",
"kX c #FDECFF",
"lX c #F8E7F8",
"zX c #ECF3FE",
"xX c #EDF5F7",
"cX c #FCFDF5",
"vX c #F4F5FD",
"bX c #FDF5FE",
"nX c #F5FCFD",
"mX c #FDFEFE",
"MX c #F5F8F5",
"NX c #F6F1EB",
/* pixels */
"*.*.*.-.*.*.-.*.-.*.-.*.*.*.*.-.&.,.,.&.-.-.*.@.-. .| R Q R | | | ;.-...-.^ T ^ 5 / ..j.=.j.[ =.=.*.-.*.-.*.*.-.*.*.*.O.-.-.@.@.+.-.",
"*.-.*.*.-.*.+.*.-.*.+.*.-.*.-.=.,.-.,.-.*.-.+.+.@.O.@.^ | %.&.-.( -.| %.j.=.^ O.( *.<.) [ ` *.=.*.*.-.:.-.=.:.-.*.-.+.-.@.@.+.-.*.@.",
"*.+.*.-.-.*.-.*.*.-.*.*.*.-.*.*.@.-.@.@.@.@.@.*.-.@.-.*.,.t.&.) Y E W E t.:.[ <.,.%.) Y ^ R ) *.-.*.*.-.-.*.*.-.*.*.O.-.*.+.-.@.-.*.",
"*.-.*.*.*.*.*.*.*.*.*.-.*.*.*.@.@.@.X.@.X.@.@.X.@.-.-.:.t.&.` W W E W E ' t.{ u.&.| W R T R R / +.-.O.*.O.-.*.O.+.-.-.O.@.-.O.-.O.-.",
"-.*.@.*.*.-.*.-.*.-.-.*.-.*.-.+.X.@.X.X.@.X.@.@.X.-.@.-.-.&.%.%.&.t.&.] :.&.:.:.:.&.) | | | / @.*.@.@.@.*.@.+.-.@.-.-.O.*.*.O.-.*.O.",
"-.*.*.*.*.*.*.+.*.*.*.*.*.*.*.-.-.@.| -.| @.@.@.| -.@.-.| 1.-.,.,.,.,.-.%.-.,.:.1.,.1.| 1.| -.-.-.@.-.@.@.@.-.*.-.@.@.@.*.@.-.+.-.+.",
"*.-.*.*.-.*.-.-.*.-.-.*.+.*.*.-.-.%.-.-.-.@.*.-.@.;.@.@. .X...X. . .X.X.X.X.@.@.| -.-. .-.| @.@.@.@.@.@.@.@.@.@.+.@.+.-.*.-.*.*.O.-.",
"*.*.*.-.*.*.*.*.*.+.*.*.-.*.-.*.-.-.&.-.&.-.=.=.-.,.| -.| 1.O.O.@.X.#.X.@.@.;.|  .1.@.-.| 1.| @.+.-.O.@.+.@.X.+.@.@.-.@.@.O.*.-.-.O.",
"@.*.-.*.+.*.*.-.-.*.O.*.;.;.=.-.~ j.[ { k.( y.>.>.>.>.>.>.>.{ j.,.=.,.=.=.=.=.*.:.-.%.O.*.O. .-.-.O.O.O.#.-.@.@...-.+.-.O.*.-.*.*.-.",
"*.*.*.*.*.-.*.*.*.*.*.*.-.-.*.*.j.j.} j.>.{ k.9.8.8.q.q.q.q.q.q.p.8.8.8.8.p.8.8.6.' u.u.,.<.1.*.-.-.-.-.-.@.@.X.X.@.-.@.-.*.=.*.*.+.",
"*.-.*.-.-.*.-.*.O.*.-.*.*.*.*.| j.j.) j.] 9.l.7 6 6 r r r r r r e i e e r r 6 6 q 7 5.8.] 6.u.' :.<.:.-.*.@.@.@.@.@.-.@.*.-.-.-.*.-.",
"*.*.*.*.-.*.*.*.*.-.-.*.*.*.=.*.7 j.k.k.l.e.d r & ; . ; O O   O O O O O > < - = % 4 0.f.w.q.7.8.:.:.=.*.*.+.-.-.+.@.+.-.*.*.*.*.*.@.",
"-.*.-.*.*.O.-.*.=.;.=.O.O.-.;.:.9.7 8 4 6 q e g.z.z.G.G.F.F.F.F.L.F.F.F.F.F.G.G.z.h.m 9 e 6 6 2.8.t.:.:.*.-.-.@.@.@.@.-.-.*.*.-.*.*.",
"*.*.-.*.-.*.*.-.*.-.-.O.*.-.-.{ l.d 4 . ; < x ~.NXMXvXcXvXbXbXbXvXvXvXMXvXnXvXvXnX).N o O O - w 3.&.t.:.:.-.=.O.@.O.@.+.O.-.=.*.-.O.",
"-.=.*.+.-.*.*.-.*.-.-.*.-.;.| _ 9 C I.P.!.P.Y.=XbXmXmXmXmXmXmXmXmXcXmXmXmXmXmXmXmX<X^.K.J.J.h.C 8 E t.u.:.*.*.+.-.@.@.-.@.*.-.*.*.-.",
"-.*.-.=.:.*.-.O.*.-.=.*.;.;.` 7   z.gXnXbXmXbXmXmXmXmXmXmXmXmXmXmXmXmXmXmXmXmXmXmXbXnXnX<X<X&XA.% 5 5.u.:.*.=.-.*.X.@.@.*.*.*.-.+.-.",
"+.*.*.:.t.&.@.X.@.@.*.[ +.=.l.d O V.gXmXmXmXmXmXmXmXmXmXmXmXmXmXmXmXmXmXmXmXmXmXmXmXmXmXzXhX;XM.2 i a.t.=.-.( ;.......X.*.:.@.+.*.*.",
"X.+.-.:.p.t.X.X.#.;.,.*.+.) d s x E.gXmXmXmXmXcXcXmXmXmXmXmXmXmXmXmXmXcXmXmXmXmXmXmXcXcXnXhX7XT.l B 0.{ ;.-.O.*.;.#.#.-.:.*.O.O.+.*.",
"o.@.*.:.t.,.@.X./ -.>.>.j._ 4 V !.*XbXmXmXmXmXmXcXmXmXmXmXmXmXmXmXmXnXmXmXcXmXmXmXmXcXmXnXzX0X{.U.Z 6 7 <.=.-.:.X.X.X.O.*.*.*.O.-.@.",
"o...+.:.&.&.X.X.@.=.E 5 7 8 . L NXNXmXmXcXmXmXmXmXmXmXmXmXmXmXmXmXmXmXmXcXmXmXmXmXmXmXmXnXzX9X3X>XL . 5 i.:.t.-.| O.O.*.&.=.@.-.@.@.",
"X.X.| -.,.-.X.X.X.*.E ! 7 6   U gXbXmXmXmXmXmXcXmXmXmXmXmXmXmXmXmXmXmXmXmXnXmXmXmXmXmXmXnXxX4XsX-XI % u a.t.t.&.-.-.;.-.=.:.*.@.-.@.",
"X.X.-.-.,.-.X.X. .[ 5.7.r.s Z K.xXcXmXmXmXmXmXmXmXmXmXmXmXmXmXmXmXmXmXcXcXcXmXmXbXmXmXcXmXhX3XsX-XU.B s 2._ p.:.( | | %.*.:.*.-.O.-.",
"X.-.-.-.-.-.| X.1.,.9._ 4 V (.jXmXmXmXmXcXmXmXmXmXmXmXmXmXmXmXmXmXmXcXmXmXmXmXmXmXmXmXcXmXzX4X7X0X@XP.M * ! 8.] R R R ^ %.:.;.=.*.*.",
"-.-.,.&.-.-.| X...[ k.4.& x <XbXmXmXmXmXmXmXmXmXmXmXmXmXmXmXmXmXmXmXmXcXmXmXmXmXmXmXcXmXnXzX9X7X6X0X+XB % 2.5.Y R R R Q ( =.=.*.*.*.",
"| %.&.&.,.,.-.-.X.-.t.3.& N =XmXmXmXMXcXmXbXmXbXnXmXbXmXmXcXmXmXmXmXcXcXmXmXvXmXmXkXmXmXnXhXdX7X7X7XOXB % y q.t.=.` ( *.*.| *.=.| *.",
"W Y R Q %.&.-.-.| | &.2.; N =XmXmXmXmXbXmXbXvX%XK.K.~.gXmXbXmXmXmXmXmXcXmXxX}.Y.Y.~.NXbXnXjXaX7X0XiX@XH = y s.:.,.:.:.,.%.^ R R E Q ",
"E W W Q | ,.,.,.-.-.u.4.& x =XmXmXmXmXcXmXmXgXH.f f P *XmXmXmXmXmXmXcXmXmXuXV.f g P =XmXnXxXpX3X7X7X#XK > y s.&.=.*.:.*.| ^ R Y R Y ",
"t.&.&.&.&.&.&.&...O.u.3.O N =XmXcXmXmXbXmXmXrXP + X b &XmXmXmXmXmXmXcXmXmXuXP X X G *XmXmXjX9X7X7XqX#XJ > y p.*.-.%.%.*.*...( ` :.*.",
",.,.,.,.| Q W R T ^ [ d ; G =XmXmXcXmXmXmXmXjXn.+ + G &XmXbXmXmXmXmXmXmXnXyXn.+ + F wXmXnXhXaX7X7X6X@XJ > y p.*.<.-.-.=.*.O.=.,.*.&.",
"| -.,.-.| Q W W T ^ j.d 4 G =XmXmXcXmXmXmXmXjXV.# f N.&XmXmXmXmXbXmXmXmXmXyXM.f f N.<XmXmXjXsX7XqXqX@XJ > y p.-.-.*.-.-.-.+.*.*.*.*.",
"@.X.-.@.| | ` &.} O.{ 3.O G *XmXmXmXmXmXmXbXjXH.g j n.<XmXmXmXmXmXmXmXnXmXqXM.g g n.<XmXmXhX9X3X9X9X@XJ > y t.@...O.*.-.-.-.=.:.*.@.",
"@.X.| @.@.-.&.t.<.>.k.d O G =XcXmXmXmXmXmXbXlXV.b c P *XmXmXmXmXmXmXbXmXmXhXH.j j M.eXmXmXjX9XqX4X9X#XJ o a y.+.#.-.-.-.O.O.*.*.+.@.",
"..@.@.-.-.-.:.%.>.[ k.4.. Z =XmXbXmXcXbXkXkXwXE.F G L.eXmXmXcXmXbXmXmXnXnXgXY.F F V.wXlXlXrXqXqX0X;X@XJ   s a.=.+.+.*.>.=.*.-.@.-.@.",
"#.X.-.%.&.-.-.-.=.{ l.d ; N *XmXmXmXkXwXoXoXoXoX*X*X=XxXbXcXmXcXcXmXmXnXnXxX<X&XXXXXXX.X.XXX*XqX6X7X@XJ o V a.y.+.+.=.*.:.:.| @.@.O.",
"+.+.-.-.-.@.@.-.>.6.4.e m z.=XmXmXmXkXeX/.~.*XtXkXmXmXmXmXmXgX).oX/.eXmXnXnXmXmXbXlXXX.X.X&X1X9X3X7X-XZ.x M 4.9.=.+.=.=.&.-.@.@.-.*.",
"+.*.-.-.@.@.X.@.>.] 6 i z.%XxXmXmXmXcXbXtXtXtXkXbXmXmXmXmXmX~.b # x W.xXnXnXmXmXkXkXlXlXrXrXqXqX7X3X2X{.J.p 4 ] =.+.+.+.-.-.-.@.@.+.",
"*.+.=.-.-.X.X.@.:.3.& 0 !.gXnXnXmXmXmXbXmXbXbXmXmXmXbXbXmXmX~.Z b G !.xXmXnXmXmXbXbXbXbXbXjXsX2X7X3X7XsX+Xn % 4.>.+.+.+.@.@.@.@.-.-.",
"*.=.*.*.+.X.X.O.p.r.; z ^.yXMXnXmXmXmXmXbXmXmXbXbXmXmXnXnXnXMX=X=X=XgXmXmXMXmXmXmXbXbXmXmXzXsX8X4XiX7X7XOXv   4.8.=.+.X.@.@.@.-.O.*.",
"-.=.=.*.X.X.X.-.s.d.2 l Q.yXxXnXMXmXmXmXmXbXcXbXmXmXmXmXmXmXmXmXmXbXnXmXnXcXcXcXmXmXbXbXzXhXiX8X4XiX2X8X[.K , d.e.>.@.X.X.@.| -.*.@.",
"=.=.=.*.@.X.X.,.e.d.2 v }.fXnXmXmXmXcXmXmXbXmXmXmXmXnXnXnXmXmXmXbXmXmXmXmXcXcXcXcXmXmXvXdX3X8XiX4XiX3X7X[.K 2 M f.y.=.X.X.@.-.-.*.+.",
":.,.<.-...+.*.' 0.3 I R.[.fXnXnXnXmXmXcXmXmXcXmXmXmXmXnXnXmXmXmXmXmXmXmXcXcXcXcXmXmXmXzXpXiX8X8X8X8XiXiX#XT.I n d 7.[ o.#.@.;.*.*.-.",
"*.=.*.*.-.<.{ r.w n U.OX4XsXnXnXnXmXmXmXmXcXcXmXmXnXnXmXmXmXmXmXmXmXmXmXmXmXcXmXmXmXnXhXpXpX8XiX;X4X7X7X6X2XU.N 9 4.i.*./ ..<.` *.@.",
"*.*.*.O.-.[ ! q M A.OX9XdX9XzXnXnXnXmXmXmXmXcXcXmXcXmXnXmXmXmXmXmXmXmXmXmXmXcXmXmXmXnXzXsXiX8XiXpXiX7X$X7XsX@XJ.C w ! :.=...<.=.*.*.",
":.=.O.+.<.] 6 = G.OXsX3X9XdXzXnXxXmXmXmXmXcXmXcXmXcXnXmXnXmXmXmXmXmXmXmXmXmXmXmXnXnXnXhXdXiX$XiXiXiXiX6X5X8X2X:XP.1 * _ :.[ :.=.-.*.",
"<.+.} ..>.3.w , J.8X9X2XaXdXdXhXvXnXmXmXmXmXmXmXmXmXnXmXmXmXmXmXnXmXmXmXmXmXmXmXmXvXzXdXsXiX2X7XiX$XpXiXsX7X5X7XU.1 * 7 5 ) { *.*.+.",
"=.} ^ ^ ~ 7 1 @ T.3X3XaXaX:X0XhXnXMXgXlXmXbXmXbXcXmXmXnXmXmXmXmXmXmXnXmXmXmXmXbXjX9XfX9X3X7X7X7X8X8XpXiX4X7X7X7XU.2 ; u ~ ) ` >.-.*.",
"=./ ^ R Y q 3 h `.7X4XaXaX>X7XdXvX&XY.%XbXbXmXcXcXmXmXmXmXmXmXmXnXnXmXmXmXmXbXjX^.Q.-XqX;X4XsX7X8XiXiX8X;X7X7XiX'.k : 0.8.{ ) <.-.+.",
"=.O./ ( 5.0.B A _.9X3X:X:XaX0X6X0XY.D Y.vXmXmXmXmXmXcXmXmXmXmXmXmXmXmXmXmXmXkX,XN.m.[.qX3XsXsX2XiXiX$XpXiX7X7X7XQ.K n V 7.k.{ >.*.-.",
"<.=.{ 7.2.1 h.Q.#XiXiX7XiX2XsX[.B.x.S E.bXbXmXmXcXcXcXmXmXmXmXmXmXbXmXmXNXcXmX>Xm.c. XqX7X4X:X4X8XiX6X8XpXpX8XpXOX^.h.9 u p.t.&.;.@.",
"/ +.i.w.e = I }.@XiXiX7XiX5X7X].x.x.c.|.vXnXnXmXmXmXcXmXmXmXcXmXmXmXmXmXcXmX<X{.c.c. X6X7X4XaX9X8X7X6XiXsXpX;X;XiXpXJ.3 : 5.u.1.@.O.",
"j.#.[ w.a 2 v b.].iXiX$XsXsX8X].x.m.'.9XnXnXnXmXmXmXmXmXmXmXmXmXbXbXmXbXcXgXY.b.S c. X5X6X6X4X4X7XiX8X;X;X2X7XdXiXiXQ.k : _ *...,.,.",
"$.o.[ i.y 3 k K Q.$XiX6XsX$X].S.S V.-XjXzXnXgXmXmXmXmXmXmXmXmXmXmXmXmXbXgX}.U v A N.@X0X0X6X7X3X;XaXiXpXiX7X6X7X$X'.C.B t ! ( ..-.=.",
"..;.=.] 7 y i v Q.5XqX6X7X|.m.S A R.-X,X,XjXyXvXnXmXmXmXmXmXmXcXcXcXMXMX^.H h.Z v I (.;XsX7X7X:X:X:X;X7X0X7XiX7X].C.B d.4.] :.-.( *.",
"[ >.>.{ ] e.d i A.Q.T._.`.R.x.S m.].1X3X>X,X9XhXvXnXmXmXmXmXmXcXMXcXcXMXH.2 d.g.M L G.^.2X7X4XaX:X4X0X0X$X]._.Q.A.B 2.f.8.&.,.Q R R ",
"5 E k.<.<.{ 9.f.i x f l A A A c.[.6XqXqX0X3X9XqXdXhXbXnXnXmXmXcXmXmXnXuXJ.n d.a.d.M C A.#X8XpXpX3X3X6X7X].v.k k 0.2.5.p.,.,.| Y Y Y ",
"] Y ` / j.,.` 5.8 w 1 0 h @ h v. X6X5X7XqX3XqX9XqXhXzXzXvXnXmXMXvXhX&XW.h.M 3.p.f.0.z h.#X7XiXpX7X].S.Z.A.N 1 t 7 r.t.&.,.-.| | *.%.",
"-.-.,.&.t.,.,.&.] 6.7.d ; $ O H @X#X2X$X;X;X#X2X3XqXqX9XfXzXnXnXhX-XT.H C g.e.y.p.0.n b.|.5X$X$X@Xm.h   9 u 5.8.t.t.t.&.,.| @.X.*.-.",
"X.@.-.-.t.t.t.,.+.*.[ ] 7 e 0 N I C.C.C.C.C.C.C.Z.{.fX9X9XzXzX9X$XR.x.v M f.i.y.t.0.k K m.Z.b.Z.b.H n q 7 ) O.*.,.&.t.,.,.-.X.X.@.*.",
"X.X.@.&.:.t.&.,.*.;.+.[ { q.r.s = = =     > @ @ H U.OXOXOX>X-XOXR.D l z y 7.[ ( %.5.i 2 k @ o > ; t r.9.} } #.X.-.-.,.t.&.,.-.-.-.+.",
"X.X.X.-.-.,.,.&.O.-.;.+.[ u.>.5.7 q 6 6 q w i i B B L I I I I I c o z M _ R R R Q ] 0.m i i 0 q 8 _ 6.=.+.j.#. .-.&.,.&.&.,.&.-.@.@.",
"X.X.@.@.-.@.-.-.,.,.1.&.*.+.@.;.i.p.8.8.s.e.f.f.0.1 % = =     =   % u r.E ~ R R R ( 8.w.w.w.e.i.-.X.+.*.=.,.*.*.*.-.@.@.-.,.&.,.*.-.",
"-.&.-.@.X.X.X.-.,.&.&.,.<.@. .X.[ *.=.=.*.>.y.9.q.4.7 t u u t q 7 5 5.6.) } .. ./ *.>.:.{ { =...o.X...-.:.:.:.=.+.X.X.X.-.-.,.&.*.@.",
"t.&.&.-.| X.X.@.-.-.-.%.,.-.@.| =.;.;.#.+.#.#.;.[ >.p.8.p.l.l.i.i.:.u.=.t.u.=.<.:.:.+.+.+.j.j.o.....*.<.t.:.>.,.*.X.X.X.X.@.-.,.*.@.",
",.,.&.-.-.-.@.@.X.-.-.-.| ,.,.-.*.#.+.$.....$.#...*.*.=.[ [ =.>.,.*.-.*.:.t.%.:.y.>.+.o...$.$...;.-.*.:.:.t.=.=.*.*.@.X.@.@.-.-.*.*.",
",.&.-.-.@.-.@.| -.@.-.-.-.-.-.-.-.-.| @...@.@.@.*.=.^ 1.~ <.<.*.*.*.| -.=.=.:.^ &.*.-.O.+.@.@.X.*.*.-.*.*.=.-.*.O.-.@.@.-.O.O.-.O.-.",
"-.@.-.@.-.@.-.-.@.-.@.| | -.-.-.-.-.-.@.-.X.@.-.*.*.5 ` 5 | *.+.O.@.O.-.-.%.| R | =.-.*.O.-.-.+.@.*.*.*.-.+.*.-.-.O.-.+.+.-.-.*.-.+."
};
