/* XPM */
static char *_07e4ad524434d8b993a0fc12a521c9eCWHsijIxtLJoscKZ[] = {
/* columns rows colors chars-per-pixel */
"66 66 234 2 ",
"   c #4D7E00",
".  c #558500",
"X  c #5B8700",
"o  c #568A00",
"O  c #5B8C00",
"+  c #5E9100",
"@  c #5D9905",
"#  c #4C8200",
"$  c #638E00",
"%  c #639302",
"&  c #699604",
"*  c #649805",
"=  c #6A9B06",
"-  c #659D09",
";  c #6C9D0C",
":  c #6A9708",
">  c #729E0C",
",  c #7C9E05",
"<  c #6E9F10",
"1  c #739E10",
"2  c #7E9D11",
"3  c #6BAA04",
"4  c #6DA30C",
"5  c #6DAB0D",
"6  c #67AE0C",
"7  c #75A206",
"8  c #7CA306",
"9  c #72AA05",
"0  c #74A50E",
"q  c #7BA50D",
"w  c #74A90E",
"e  c #79A90E",
"r  c #7BA904",
"t  c #6DA412",
"y  c #6EAA13",
"u  c #6EA91A",
"i  c #66A510",
"p  c #75A711",
"a  c #79A512",
"s  c #74A912",
"d  c #79A915",
"f  c #74A618",
"g  c #7AA61A",
"h  c #75AA19",
"j  c #7AAB1A",
"k  c #7AB119",
"l  c #67B009",
"z  c #7CB020",
"x  c #839D03",
"c  c #8C9D03",
"v  c #8B9D0C",
"b  c #899B07",
"n  c #949700",
"m  c #929C03",
"M  c #9C9D04",
"N  c #999A08",
"B  c #849D15",
"V  c #A29B01",
"C  c #AB9D04",
"Z  c #A99C0A",
"A  c #B79E01",
"S  c #BB9E04",
"D  c #82A305",
"F  c #8BA204",
"G  c #8BA803",
"H  c #83A30B",
"J  c #8BA30B",
"K  c #80A90F",
"L  c #94A205",
"P  c #9BA204",
"I  c #93A30B",
"U  c #9CA50C",
"Y  c #81A312",
"T  c #82AB18",
"R  c #8FAA17",
"E  c #ADA305",
"W  c #A4A50C",
"Q  c #ACA40C",
"!  c #ACA90D",
"~  c #A5A506",
"^  c #B3A507",
"/  c #BCA104",
"(  c #BCA50B",
")  c #B3A90C",
"_  c #BBAA0C",
"`  c #B8A607",
"'  c #ACA812",
"]  c #BAA913",
"[  c #9E9820",
"{  c #BB9E20",
"}  c #C79E06",
"|  c #CC9F12",
" . c #FF9E02",
".. c #FF9E0B",
"X. c #F69F0B",
"o. c #FD9E15",
"O. c #C3A205",
"+. c #CBA203",
"@. c #C4A30B",
"#. c #CCA50B",
"$. c #C3A90C",
"%. c #CBAB0C",
"&. c #C4AD05",
"*. c #DBA403",
"=. c #D3A50A",
"-. c #D3A90C",
";. c #DAA908",
":. c #DBB30A",
">. c #C4AD12",
",. c #CBAC13",
"<. c #C7A213",
"1. c #D1AC13",
"2. c #DCAD11",
"3. c #DBA516",
"4. c #DDB215",
"5. c #ECA503",
"6. c #E6AB03",
"7. c #ECAA03",
"8. c #E4A40B",
"9. c #EDA50A",
"0. c #E2AC0D",
"q. c #ECAA0B",
"w. c #F4A402",
"e. c #FDA301",
"r. c #F4AB01",
"t. c #FBAB02",
"y. c #F4A60C",
"u. c #FDA40B",
"i. c #F2AC0B",
"p. c #FCAB09",
"a. c #E4B302",
"s. c #ECB302",
"d. c #E3B30B",
"f. c #EBB409",
"g. c #F3B201",
"h. c #FCB402",
"j. c #F5BA05",
"k. c #FCBC03",
"l. c #F6B30D",
"z. c #F5B90C",
"x. c #FEBC0C",
"c. c #F9B30F",
"v. c #E3AB13",
"b. c #EBAB12",
"n. c #EAA719",
"m. c #F4A913",
"M. c #F7A517",
"N. c #E9B215",
"B. c #F5B413",
"V. c #F5BB11",
"C. c #FDBC12",
"Z. c #FEB41B",
"A. c #FCBE1A",
"S. c #F7B51A",
"D. c #F39F22",
"F. c #F9B827",
"G. c #FEBC31",
"H. c #FFBC3F",
"J. c #FFB63F",
"K. c #EEB329",
"L. c #F3C20B",
"P. c #FDC30D",
"I. c #F9C709",
"U. c #FED50F",
"Y. c #ECC810",
"T. c #FCC213",
"R. c #FECC14",
"E. c #F9C718",
"W. c #FED313",
"Q. c #FED41B",
"!. c #FEDA1B",
"~. c #FFDE16",
"^. c #FFE31D",
"/. c #FBEC1F",
"(. c #F8F01F",
"). c #FCC925",
"_. c #FFD423",
"`. c #FFDB24",
"'. c #FCD32C",
"]. c #FEDD2B",
"[. c #FBC837",
"{. c #FFDE3A",
"}. c #FAD633",
"|. c #EDC432",
" X c #FEE424",
".X c #FEEB24",
"XX c #FFE42B",
"oX c #FFEB2A",
"OX c #F6E728",
"+X c #FCF222",
"@X c #FFF02E",
"#X c #FFE431",
"$X c #FFEB31",
"%X c #FFEA3A",
"&X c #FFF035",
"*X c #FFBE4F",
"=X c #FACA4B",
"-X c #FFDA4A",
";X c #FBDA4B",
":X c #F9CE5B",
">X c #FAD557",
",X c #FEE648",
"<X c #FFE353",
"1X c #FED564",
"2X c #F4C873",
"3X c #FFDD7C",
"4X c #FFC265",
"5X c #FCE866",
"6X c #FFE874",
"7X c #FBF377",
"8X c #FFDF91",
"9X c #FFEB84",
"0X c #FFE788",
"qX c #FFF085",
"wX c #FFF689",
"eX c #FFEA9D",
"rX c #FFE894",
"tX c #FDF598",
"yX c #FFEAA8",
"uX c #FFF2A5",
"iX c #FFFBAB",
"pX c #FFEFB6",
"aX c #FFFCB1",
"sX c #FFFBBD",
"dX c #FFF6B8",
"fX c #FFFCC3",
"gX c #FFFDCC",
"hX c #FFF5C8",
"jX c #FFF7D2",
"kX c #FFFFD3",
"lX c #FFFDDB",
"zX c #FEFEE3",
"xX c #FDFFE9",
"cX c #F5FFE7",
/* pixels */
"p p w p p w p a w p p p 0 e p w s w p s p p a a a 1 1 X O X ; < < g h t f % . @   - t z y h 4 y s p 0 s p p w p p w 0 p p w p p p p ",
"w p w p p w p w p 0 w p p p p p 5 s w t p p p a a 2 a : p < g f ; f < t z p % t < p h * y - s f s p p 0 w p a w 0 p p p e p a w 0 p ",
"p p p p e p p p p p e p p w w p 5 s w s p p d a g f g p g f p * o O X % f f p h j 4 * . + o * 5 p p p w p e p 0 p p p w p 0 w p w p ",
"w w p e p p 0 w w p p w p p w p s w s 0 p p p a g a a p g p - o X O o O < f p g > ; X $ . $ X ; p p w p p w p p p e w p p p w p a w ",
"p w w p p w e p p w 0 w w w a w s w p p a s a p 0 p s s s h 5 ; p p > ; 1 a 1 g a g & a ; a & p p p p w p p p w e p p w e w p w w p ",
"p p p e p p p p p p p a p p w p w s w p s p s p 0 p t s t h h h g d g a p a g g T d g > T 1 a j p p e p a w p e p p 0 p p p p p p p ",
"e p p p w p 0 w e p w p p e p p 0 p p p p s p p p h w d 4 s 5 p 0 0 p 0 0 p d w e p j ; T 1 a a p w w p w w p p w p w p p w 0 p a w ",
"p w 0 p a w p p p w p p w p p 0 p 0 p p a s p p p h 5 f 4 h t 5 s p p p 0 d d > > j p g 1 T 1 a p d p w p p 0 p w p a w p p e p w p ",
"p w w p p w 0 p p w a w 0 w p p p p p p p p p p s w 0 0 w d d p 0 s w 5 5 0 0 w s 0 s p p p s s p p w p p w p q p p 0 p p p e p w p ",
"0 p p e p p p w p p p w p p p e p s s p p a 5 s d h p e s p p p w w w w 0 0 s s w s p s s s s s p 0 p p p p p p p 0 p w w p p w p w ",
"p p p p e p w a 0 e p p 0 p w p p a p s t 0 s w w w 0 w w w e w w w w w w w 0 w s w y w s s p p p e a w w p p w p w p a p p p w p p ",
"p e 0 p p w p p p p w p p p w p p a p p s s w s 0 0 0 0 q w q p 0 r 7 0 q e p w 0 s 0 s s s p p w p w p p w p w e p p w e 0 p p e p ",
"p w p p w a w w e p p w p w p p p s s s w p p w p w d q H q Y H 8 8 r q q q p e p w p p p p p p p a w p p w p p 0 p p p p p w a p w ",
"w p a w p w p p p 0 p p e p p w a s a p p p w p d e e q q q q H x 8 H H H 8 8 w q e q p a p a p p w w p p w p e p p e w w p p w p w ",
"e p w p p p 0 p p w w p w p a w a p p p p e p p 0 a q q H Y Y J J J J J J K H H Y q a a a a a a p w p w p p p p w p p p w p w p p p ",
"p p 0 p e p p w p p a w p p p p s p p p p p p p 8 8 J I U W ' ! ' ! ! ' ' ! U U b v v q a q p p w p p a p p p p e p w w p p w p w p ",
"w q 0 p e a w p p d 0 j p d 1 d p p s 5 s p p e H J M V } ;.q.5.5.r.q.6.0.0.-./ V N I H 8 0 w 5 0 s h h s < f p a > 0 0 0 w s y s p ",
"w w e p 0 w e p 0 > p 0 g 1 p p d p s y y 5 e v I Q ` +.*.7.t.e.w.w.w.w.w.r.6.*.| ( Q m x r w 4 3 t w s f f f a j d p w w 0 y t p p ",
"0 0 e 0 p e p q k p g ; g 4 d d Y Y h 5 6 5 D N S <.2.d.6.a.g.x.x.z.j.j.j.g.r.7.B.v.| Z I 8 w 3 4 0 4 y u f f p p 0 q 0 0 5 s p p w ",
"p e p e 0 w p p d = & X O X & > Y Y s l 3 8 P S 3.8.b.q.a.a.L._.`.!.Q.!.W.I.g.r.t.y.b.1.' v 0 w w w 5 p f f f s > p 0 q 0 p u s p w ",
"e p p p p p e p w = O O . O $ > H B 5 3 9 G ` =.y.X.i.V.Y.Y.!.XX$XXXoXoX XU.I.k.t.e.i.b.,.Q v H 8 r p f f s h h d d d a p p s s w w ",
"p w p p e p p 0 p g > p : p > d Y 8 7 r G E =.9.u.e.x.Q.`.`. X$X#XoXoX.X/.^.~.~.R.x.w.5.2.,.Q c D 8 8 g h h u u ; > > > q g f f p p ",
"p a p a p p p p p 0 p d g p p p w 8 D L E %.9.e.t.x.Q. XOXoXXXXX`.XXXX X/..X.X.X XW.k.7.q.d.-.A M D 8 p h u i @ o O $ % > a g f p p ",
"p p a p a a p a d 0 g p d 0 d w w 7 F E #.q.t.w.h.R.^..XoX.XXX]._.XXXXXXXXXX.X^. X^.W.j.r.7.w.*.Q m , , d h - o o o X $ > g f a f f ",
"> ; 0 a j g a f p d d d p 0 0 d 9 D ! ,.9.y.t.j.W.^..X/. XoX_.x.x.x.x.T.E._.#X$X@X.X^.W.k.r.e.t.%.' c , w y i i s t > 2 p 1 1 g < f ",
"X . X % ; 1 a f f p p = $ O % > r G _ 0.y.p.x.U./.+X+X.X XQ.x.r.r.t.t.i.B.A.'.#XoXoX+X^.U.k.e.X.2.] P c Y k u y h s a d 1 & X X + % ",
"O X o % < f d j p g p ; O . % 7 D ~ %.b.w.x.`.^.+X(./. XQ.x.g.r.7.r.w.e.u.M.F.'.#XoX.X.X^.W.h.r.d.,.C c H p h y y t a p 1 % O o . # ",
"a < < p p p p t : 0 d d 0 & = H M A v.i.5.T. X.X+X/.^.Q.C.t.r.r.r.t.t. ...u.Z.T.]. X.X.X X`.E.m.b.-./ M x 0 y 5 s t 0 2 p ; < t g f ",
"g g g f 1 % O X X % > d d p w v C +.q.q.7.R.oX.X+X XQ.x.t.e.w.w.t.t.e. .....e.t.P.Q..X$X%X,X|.3.n.8.1.) c 7 s y j d q a q 0 s h p t ",
"p f g f < $ X X + % = p d d p J O.5.i.l.C._.XXoX X!.P.t.e.e.e.e.w.e. .e. .u.e.e.g.I.Q.#X,X<X>X=XF.y.v.>.m 8 w 5 w w p a g 0 t y p p ",
"f f f f a < ; ; 0 ; 0 p g p p v +.q.i.c._.].].XX!.I.g.w.e.e.u.u.e.e.e.e.e.e.e.t.r.g.L.'.<X7XqX9XG.u.v.>.m 8 d 3 4 5 0 q d p y y p w ",
"g f < p f f a h g p g d d 0 w c } r.r.V.#X#X`.XX`.x.w.w.t. . .e. .e.e.e.e.e.e.t.t.r.T.-X7XtXdXtX*Xu.v.>.L D k 4 s p e e w p s 0 w w ",
"p p p p p p p p w p p w w w d F } i.7.x.].XXXX X~.k.w.e.e. .u.u.u. .e.w.t.t.e.e.e.w.F.3XiXgXcXhXJ.u.b.>.c H p i h h a 2 d a q p w e ",
"p e p p p p w p e p w e w e w F +.r.7.z.'.XXXXoXQ.P.w. .e. .w.w.u. .w.w.t.w. .e.e.y.*X0XgXzXxXsXJ.w.v.( m q s i u h a a a a a w p p ",
"p p w p p e p w w p w w e w w F +.i.5.V.`.XXOXoX!.I.r.e.e. .e.e. .e.e.p.M.o. .e.r.z.1XuXlXlXsXqXG.w.0.( c H h i u s a a a q w p p w ",
"a p p w p p e p w w w w w e w c #.b.q.C.`. X.X.X`.L.t.e. .e.e.e. .e.e.u.M.M.u.t.j.[.0XsXlXhXqX;XF.i.N.( F 8 5 y y u a p q a w p w p ",
"a s p s p p w p p e w p w p d J <.n.8.V.R.!..X.XoXQ.z.y. . .e.e.e. . .o...X.t.z.}.5XiXkXhXeX>XT.c.y.4._ L 8 5 h y s p p a 0 w w w p ",
"p s s a g p p w p p w w e p w J ] v.8.q.j.I..X.XoXXXE.C.p.e. . .e. . .....u.B.).5XtXgXlXpX0X).r.i.6.1.^ J q 4 y s p e p q w 0 p s w ",
"p s p s p p w p p w p p w w d H Z <.*.5.r.k.!..X@XoX].'.x.t.e.e.e. . .e.u.S.[.5XiXgXzXlXyX>XT.r.q.-.$.M I K 0 h y p w 8 w w w s 0 p ",
"s p a s p p p p 0 p p e w d w q b Z #.q.t.k.!.^.oX$X$X].R.h.h.t.e.e.e.u.S.[.3XiXkXzXzXgX0X-Xx.g.a.O.E n D K 4 s y s 0 w e w 5 w s p ",
"p 1 s s p s s p p p w d w w w e , P $.q.e.t.k.W.oXOXOXOX XW.j.g.w.5.7.S.=X0XpXjXxXzXgXeX:XK.j.s.:._ ~ c x q p y 0 w 9 T w e 5 w p w ",
"h h h a p a f a f p p w p p p w w G ` ;.w.e.h.k.W./.@X@XoX XW.z.N.|.|.>X0XdXlXzXlXsXrX1X[.B.g.6.&.~ M c 2 w s t k 0 w 4 e 4 d d e p ",
"a s a f d f p p p p w p w p p w l r P +.5. .e.r.Y.^.oX.XoXoXXX].;X5X9XuXsXgXkXfXiX6X=XF.m.i.b.3.E P c , q p s p w 4 w 7 d 4 w w p p ",
"p t s f h p p f p p p p p e w w l 3 c C } 8.q.s.s.L.!. X].#X%X,X7XuXfXkXkXsXiXtX7X-XA.r.7.8.3.<.N G D B a d s t s w 4 e 7 j s j p w ",
"j p t p 0 0 p h s s p p p p p 5 6 3 H v Z <.#.v.a.s.P.Q.{.#X,X5XtXsXzXzXhXrX5X,X}.).r.r.7.;.{ [ H 8 q e g a u p 0 = X $ . & > j p p ",
"j < % O o O * 4 s d p p p p p w 6 5 w 2 v N Q %.d.7.t.x.).[.,X7XaXgXlXhXeX1X}.Y.V.c.t.5.:.` U B Y d p a f f s t = % O   O O < a p p ",
"g - O O o X % ; p p d p p f p s 5 5 y f f 2 I ^ :.w. . ...F.>XqXaXsXyX8X:XG.N.6.i.m.9.=./ P r 3 w p p s u f f s p 4 e > d > g g p e ",
"g p ; 0 p ; 4 f p p p p p p p w y 5 u u f f H P A *.u...X.n.K.:X2X2X2X*XG.S.q.7.b.v.3.} V x 9 3 5 t s u f f u a d p 0 d > g 1 g p w ",
"h p t p a h f s p p p p p 0 0 p 5 p y y y s w D L ! %.-.3.b.n.n.D.D.M.M.m.q.d.;.%.>.) M x D e s f f f h s p p j f s a f f h a p h w ",
"p p p a p p 0 0 f p p f f w p j p p 5 t 5 y s w H I W E O.2.N.b.m.y.m.q.b.4.%.>.V P I H H d 0 * 0 t 0 f f p p f f g h a t 1 s a p 0 ",
"p j h f p p h g p s p s p p p s p s p s s y s p a J c n V ( #.#.#.#.+.$.$.) E P c c 8 8 d p i o + + % 4 f h p t p f p * O % < f h j ",
"f p f : + O * < f p p p p s p p a a f s s s f s a Y H c N M V V V V P P P L L D H D r 5 w h i @ o X + ; f h a a s f 4 O . + ; h f g ",
"f j h ; O o O ; j f h a f f f g a p a s y f y f ; p a H H v J F D x D D D r r r 9 w w 4 y h u u - ; 0 p p ; 4 t p j f 4 ; 4 p a < < ",
"- p g h p < < p < < ; ; < f h p a p a a a f f f t a f p 0 0 q q e w 0 0 w 0 p p w s s s p s u h h f p 4 % o o O % 0 p p f j t * O O ",
". $ ; f f a f f + + O O * < a p a q p a s f f f h h h s 0 y 5 y p t w s y t 0 p p p d d a > > p j f s 4 % . . O + ; f s p f ; O . . ",
"+ * < a j f s p X X . . O t f a w w p p p a f s f t y u h y y y y u s s s s a g p a a e q a Y T e p p f p ; 4 a ; s j p p j p ; s < ",
"f f a f f f s f t p < p < f p p w 9 w w e w p p s a s p y y y y h s p p p a a a q 0 q > q Y K a a p s p s p p a p p p s s a s s a a ",
"a s f s s a f s p p f p f p f t 9 9 9 w w w q e p p p p p 5 s s t s f f a f g h e d g 8 e q 8 0 p p p p a s s a p p a s s p s p p e ",
"s p f p s a a a f s s s d p f p w 3 w 9 r w w e p e e 0 w p p p p s f t 4 4 ; - 4 w p p w w 9 w p a s p s p p p p p a s p p a p w p ",
"p p p s p s p p s a s a p f p s w 9 5 w s w w 0 w 0 p 0 e e q p p s p 4 @ + + o @ 4 w 5 w 5 9 9 t p a s p s p p s p s p s p p p w w ",
"s p p p w p e w p p w p p p p p t s w w 0 5 w w w w p w e e 0 w p s p ; + O + + + - y y 5 5 w 5 s p w p p p w e w p p e p p 0 p e w ",
"p p w p p p p p p w p p w w w w a a f s s p s s p 0 p w p w a q d s p 1 4 - - t - f y s s y s 0 s w w p 0 p p p p p w p p p w p p w ",
"p w p w p w w w d e w e e w w p a f f f s f y y y y s w p p p p w e a a g g g g 2 g g f a a a 0 p p p w p e w p e p w p p p p p p p ",
"w w p w w e w w d w p p w p 0 p g f f a f y y s y y s y p p w 0 p q a a g g f p g g g f a g g a e w p p p w p p 0 p p p w w p w p p ",
"p e w p a 0 p p p w p p 0 p w p a a s p w w p s s f + z + j f w 0 w 0 g p p f * 1 a f s p a s w p p p w p p p e 0 p p e p p p e p p ",
"p p p w w p p w e p p w e p p p a s p 0 w 0 w p p t   <   < p w 0 p 0 p p 0 0 . ; a a p p s p w p w p w p w w p p p w p p w p 0 p w "
};
