/* XPM */
static char *_c86d93191c54100bda4987ac0a1847f7tM3plBzcHhn3mPh[] = {
/* columns rows colors chars-per-pixel */
"66 66 180 2 ",
"   c #261C0F",
".  c #261610",
"X  c #251A11",
"o  c #2D1C13",
"O  c #311F16",
"+  c #0B2C0D",
"@  c #0B320E",
"#  c #11340E",
"$  c #163C0E",
"%  c #1A3D0E",
"&  c #132E11",
"*  c #0C3510",
"=  c #0E3C13",
"-  c #123D12",
";  c #2D3F0F",
":  c #252615",
">  c #2C2314",
",  c #2E2E10",
"<  c #342317",
"1  c #322B14",
"2  c #352319",
"3  c #39261B",
"4  c #362B1B",
"5  c #3C2A1C",
"6  c #2D3313",
"7  c #313511",
"8  c #383415",
"9  c #333B12",
"0  c #422C1E",
"q  c #43331E",
"w  c #453B1D",
"e  c #452E20",
"r  c #463121",
"t  c #4C3423",
"y  c #4E3B23",
"u  c #513726",
"i  c #523A26",
"p  c #563B28",
"a  c #593E2A",
"s  c #1E450E",
"d  c #1E490F",
"f  c #0F4115",
"g  c #124416",
"h  c #1A4412",
"j  c #1E4A14",
"k  c #124718",
"l  c #154C19",
"z  c #1A4F1B",
"x  c #1B531C",
"c  c #1E591F",
"v  c #20470D",
"b  c #244B0D",
"n  c #26510F",
"m  c #2B550E",
"M  c #335D0E",
"N  c #395F09",
"B  c #274511",
"V  c #2E4210",
"C  c #224F15",
"Z  c #304510",
"A  c #354916",
"S  c #275211",
"D  c #2A5914",
"F  c #22551C",
"G  c #235A1D",
"H  c #3C5414",
"J  c #325C13",
"K  c #3F5A14",
"L  c #3A650E",
"P  c #36730E",
"I  c #356112",
"U  c #3C6512",
"Y  c #3E6A12",
"T  c #3A7711",
"R  c #215D20",
"E  c #256222",
"W  c #2A6623",
"Q  c #276824",
"!  c #2B6B26",
"~  c #326C25",
"^  c #3D662B",
"/  c #2D7027",
"(  c #2E7228",
")  c #357127",
"_  c #32752A",
"`  c #347B2C",
"'  c #397D2D",
"]  c #3A723D",
"[  c #415517",
"{  c #405A15",
"}  c #416C0E",
"|  c #4C6E09",
" . c #46720E",
".. c #49760E",
"X. c #4E7B0E",
"o. c #507506",
"O. c #547B07",
"+. c #466314",
"@. c #496714",
"#. c #416F11",
"$. c #4A6A14",
"%. c #487710",
"&. c #4B4020",
"*. c #454B28",
"=. c #5E412C",
"-. c #445D3F",
";. c #62442E",
":. c #664730",
">. c #674830",
",. c #6C4C33",
"<. c #704F35",
"1. c #725136",
"2. c #755338",
"3. c #436426",
"4. c #3B6147",
"5. c #3E850F",
"6. c #3D950A",
"7. c #3A822F",
"8. c #3E8630",
"9. c #3F8831",
"0. c #47890F",
"q. c #55830F",
"w. c #59860F",
"e. c #5C8B0F",
"r. c #528910",
"t. c #5D8A10",
"y. c #638F0F",
"u. c #64920D",
"i. c #65950F",
"p. c #67980F",
"a. c #6B9A0D",
"s. c #699A0F",
"d. c #628E11",
"f. c #659211",
"g. c #689611",
"h. c #6B9A10",
"j. c #6FA00E",
"k. c #73A50F",
"l. c #73A510",
"z. c #73A610",
"x. c #74A710",
"c. c #418731",
"v. c #418A32",
"b. c #438C33",
"n. c #458F34",
"m. c #4E843E",
"M. c #55883F",
"N. c #469135",
"B. c #499235",
"V. c #4A9536",
"C. c #4C9536",
"Z. c #4C9737",
"A. c #4C9837",
"S. c #4D9938",
"D. c #4E9A38",
"F. c #4F9B39",
"G. c #4F9C39",
"H. c #509C39",
"J. c #519D3A",
"K. c #519E3A",
"L. c #529F3A",
"P. c #53A03B",
"I. c #649A5E",
"U. c #6D9269",
"Y. c #628D76",
"T. c #659579",
"R. c #7CA47C",
"E. c #CBE75B",
"W. c #D1E856",
"Q. c #7CB794",
"!. c #83BD9C",
"~. c #93CDB9",
"^. c #87C4C1",
"/. c #91D0CB",
"(. c #9BD9D1",
"). c #A1DFD2",
"_. c #B8EBC1",
"`. c #BEF0C6",
"'. c #B4EDD0",
"]. c #B8F0D1",
/* pixels */
"x.x.x.x.x.x.x.x.x.x.x.x.x.x.x.x.x.x.x.z.z.f.u.y.y.a.i.m G 8.F.F.B._ j C X.w.j h h j } h.x.x.z.z.x.x.x.x.x.x.x.x.x.x.x.x.x.x.x.x.x.x.",
"x.x.x.x.x.x.x.x.x.x.x.x.x.x.x.x.x.x.x.z.u.S h j g ..L G 9.L.L.L.G.L.C._ S h ! b.C.C.~ U f.d.f.a.z.z.x.x.x.x.x.x.x.x.x.x.x.x.x.x.x.x.",
"x.x.x.x.x.x.x.x.x.x.x.x.x.x.x.x.x.x.z.y.S ( v.N.' D E 7.G.P.P.P.L.P.L.G.V.` B.L.L.P.F.~ $ s h m i.z.x.x.x.x.x.x.x.x.x.x.x.x.x.x.x.x.",
"x.x.x.x.x.x.x.x.x.x.x.x.x.x.x.x.x.x.i.b Q B.L.P.G.B.c.n.G.P.P.P.P.P.P.P.L.7.V.L.L.L.L.~ F n.c.W m i.z.x.x.x.x.x.x.x.x.x.x.x.x.x.x.x.",
"x.x.x.x.x.x.x.x.x.x.x.x.x.x.x.z.z.j.f.s ( F.P.P.P.P.G.n.n.P.P.P.P.P.P.P.L.F.L.L.P.P.P.F.V.P.L.n.! m g.x.x.x.x.x.x.x.x.x.x.x.x.x.x.x.",
"x.x.x.x.x.x.x.x.x.x.x.x.x.x.x.e.s B h g x V.P.L.P.P.P.G.F.P.P.P.P.P.P.P.L.L.L.L.P.P.P.P.L.P.L.C.! h i.z.x.x.x.x.x.x.x.x.x.x.x.x.x.x.",
"x.x.x.x.x.x.x.x.x.x.x.x.x.x.e.S E R l ' 8.9.F.L.P.P.P.P.L.P.P.P.P.P.P.P.P.P.P.P.P.P.P.P.L.L.P.V.x h m g.x.x.x.x.x.x.x.x.x.x.x.x.x.x.",
"x.x.x.x.x.x.x.x.x.x.x.x.x.e.D ! B.c._ Z.L.V.L.P.P.P.P.P.P.P.P.P.P.P.P.P.P.P.P.P.P.P.P.P.P.P.V.! ' _ h u.x.z.x.x.x.x.x.x.x.x.x.x.x.x.",
"x.x.x.x.x.x.x.x.x.x.x.x.x...z V.P.L.V.L.L.L.P.P.P.P.P.P.P.P.P.P.P.P.P.P.P.P.P.P.P.P.P.P.P.P.A.7.L.V.W L h.x.x.x.x.x.x.x.x.x.x.x.x.x.",
"x.x.x.x.x.x.x.x.x.x.z.z.e.J ~ L.P.P.L.L.P.P.P.P.P.P.P.P.P.P.P.G.P.P.P.P.P.L.P.N.A.P.P.P.P.P.P.P.P.F._ g y.x.x.x.x.x.x.x.x.x.x.x.x.x.",
"x.x.x.z.x.x.x.x.x.x.x.t.I E 7.V.P.P.P.P.P.P.P.P.P.P.P.P.P.P.A.V.b.' N.L.N.' v.v.A.P.P.P.P.P.P.P.P.L.9.F Y a.x.x.x.x.x.x.x.x.x.x.x.x.",
"x.x.x.x.x.x.x.x.x.x.x.L z ` ` 7.L.P.P.P.P.P.P.P.P.P.P.P.P.P.F.9.' G ! _ ! R ( B.P.P.P.P.P.P.P.P.P.P.A.` g t.x.x.x.x.x.x.x.x.x.x.x.x.",
"x.x.x.x.x.x.x.x.x.x.y.I R ` ' 9.L.L.L.P.P.P.P.P.P.P.P.P.P.P.P.P.G.7.W x l ! 7.F.P.P.P.P.P.P.P.P.P.P.L.7.h e.k.x.x.x.x.x.x.x.x.x.x.x.",
"x.x.x.x.x.x.x.x.x.x.M x ' 7.9.P.L.P.P.P.P.P.P.P.P.P.P.P.P.P.P.P.L.P.G.7.R ' F.P.P.P.P.P.P.P.P.P.P.P.L.F.x %.h.z.x.x.x.x.x.x.x.x.x.x.",
"x.z.x.x.x.x.x.x.x.x.M G N.V.9.G.L.G.V.L.P.P.P.P.P.P.P.P.P.P.P.P.L.P.L.L.c.F.G.P.P.P.P.P.P.P.P.P.P.P.P.L.7.h q.x.x.x.x.x.x.x.x.x.x.x.",
"x.x.x.x.x.x.x.x.x.x.M W A.P.V.7.V.8.R V.P.P.P.P.P.P.P.P.P.P.P.P.P.P.P.L.L.L.P.P.P.P.P.P.P.P.P.P.P.P.P.L.L.h q.x.x.x.x.x.x.x.x.x.x.x.",
"x.x.x.x.x.x.x.x.x.x.M G b.G.N.` Q x R A.L.L.P.P.P.P.P.P.P.P.P.P.P.P.P.P.P.P.P.P.P.P.P.P.P.P.P.P.P.P.P.L.C.h q.x.x.x.x.x.x.x.x.x.x.x.",
"x.x.x.x.x.x.x.x.x.x.L F _ ` ` Q l x _ V.L.L.P.P.P.P.P.P.P.P.P.P.P.P.P.P.P.P.P.P.P.P.P.P.P.P.P.P.P.P.L.L.' j w.z.x.x.x.x.x.x.x.x.x.x.",
"x.x.x.x.x.x.x.x.x.x.u.M g l x l x ( 7.7.G.P.P.P.P.P.P.P.P.P.P.P.P.P.P.P.P.P.P.P.P.P.P.P.P.P.P.P.P.P.L.V.z X.k.x.x.x.x.x.x.x.x.x.x.x.",
"x.x.x.x.x.x.x.x.k.a.L h g c E z _ V.V.7.F.L.P.P.P.P.P.P.P.P.P.P.P.P.P.P.P.P.P.P.P.P.P.P.P.P.P.P.P.L.L.7.h q.k.k.x.x.x.x.x.x.x.x.x.x.",
"x.x.x.x.x.x.x.x.x.L f W v.8.Q x 7.L.L.V.8.F.P.P.P.P.P.P.P.P.P.P.P.P.P.P.P.P.P.P.P.P.P.P.P.P.P.P.P.P.L.V.) C e.k.x.k.k.k.x.x.x.x.x.x.",
"x.x.x.x.x.x.x.x.k.m x v.P.N.Q x ` 9.L.L.V.L.P.P.P.P.P.P.P.P.P.P.P.P.P.P.P.P.P.P.P.P.P.P.P.P.P.P.P.P.P.L.' - s q.j.k.k.k.x.x.x.x.x.x.",
"x.x.x.x.x.x.x.x.q.D ' F.V.7.Q l R 7.L.L.P.P.P.P.P.P.P.P.P.P.P.P.P.P.P.P.P.P.P.P.P.P.P.P.P.P.P.F.n.L.L.L.V.! - } O.u.O.a.z.x.x.x.k.x.",
"x.x.x.x.x.x.x.x.Y E N.P.A.N.7.G x 7.L.P.P.P.P.P.V.V.P.P.P.P.P.P.P.P.P.P.P.P.P.P.P.P.P.P.P.L.F.9.` ) A.P.L.7.h N u.O.i.O.j.x.x.x.k.k.",
"a.k.k.k.x.x.x.x.} G B.P.P.P.A.7.E 7.G.L.P.P.P.L.9.( b.P.P.P.P.P.P.P.L.P.P.P.P.P.P.P.P.P.P.P.N.E R l ! c.9.' h ..k.a.k.k.k.k.j.k.k.k.",
"o.i.O.a.k.k.x.x.} x 7.A.P.P.P.V._ Q ` G.P.P.L.V.7.Q ! ` 8.V.P.P.P.L.N.N.G.P.P.P.P.P.P.P.P.P.B.W z ! ! ` ` E J e.x.x.x.x.k.a.O.u.o.a.",
"a.O.u.O.k.k.x.k.q.s x 7.N.A.P.F.7.E x ' G.L.V.9.9.9._ c x _ V.G.L.n.` ' A.P.P.P.P.P.P.P.P.P.P.V.W F.L.v.` = q.z.x.x.x.x.j.O.u.O.u.o.",
"k.j.k.j.k.k.a.k.j.m * G ! _ v.A.G.V.R x ' N.7.V.P.P.P.' c R _ V.n.' ` 9.G.P.P.P.P.P.P.P.P.P.P.F.v.V.L.L.' x #.p.x.x.x.x.k.j.k.j.k.k.",
"k.k.x.x.k.a.O.u.O.M h f l x E ` F.L.V.c x ( 7.F.P.P.P.P.V.( c ` ` 8.9.G.P.P.P.P.P.P.P.P.P.P.P.P.F.7.N.V.7.` g X.x.x.x.x.k.x.x.x.x.x.",
"x.x.x.x.k.O.u.O.u.O.m * E b.7.G 7.V.V.( ( 8.A.P.P.P.P.P.L.V.` ` 9.G.G.P.P.P.P.P.P.P.P.P.P.P.P.P.F.' ` ` ` / - X.x.x.x.x.k.x.x.x.x.x.",
"x.x.x.x.k.a.k.k.z.u.m = ! P.V.` ' ( / x _ V.P.G.P.P.P.P.L.L.N.8.G.G.P.P.P.P.P.P.P.P.P.P.L.F.P.G.n.` ` ` ` x * } a.x.x.x.x.x.x.x.x.x.",
"x.x.x.x.k.x.x.x.k.M g g ! A.A.n.Q l x x ( V.G.9.V.P.P.P.P.V.` 8.F.P.P.P.P.P.P.P.P.P.P.P.V.9.V.8.R ` ` ` ` x g $ X.x.x.x.x.x.x.x.x.x.",
"x.x.x.z.x.x.x.x.z.m = E Q Q ` Q l c 9.` c ` 7.7.V.P.P.P.G.V.` 7.8.F.L.G.P.P.F.F.P.P.P.G.G.9.x R _ ` ` ` ( x k * T z.x.x.x.x.x.x.x.x.",
"x.x.x.x.x.x.x.x.x.m x c.V.` x l x V.G.G.N.7.` N.P.P.G.P.V.8.F.V.7.8.F.9.V.F.! v.P.G.V.N.F.8.c V.V.' ` ( c k k @ } x.x.x.x.x.x.x.x.x.",
"x.x.x.x.x.x.x.x.x.m x n.L.v.E k c F.G.L.L.V.7.V.L.n.N.L.G.G.P.L.V.F.G.V.E c Q N.G.N.n.N.8.' ` F.G.V.7._ ( x k *  .x.x.x.x.x.x.x.x.x.",
"x.x.x.x.x.x.x.x.x.m g ! 8.( l f k Q V.9.G.L.7.7.8.` ' N.P.P.P.P.P.P.P.G.b.x / ' 7.b.F.G.v.` ` 9.L.G.7.` _ / l @  .x.x.x.x.x.x.x.x.x.",
"x.x.x.x.x.z.x.x.x.y.m g x z k x E l R R 7.7.` ` ` ` ` 7.9.n.L.P.P.P.P.P.G._ _ ' 9.G.P.P.N.` ` 7.8.8._ R ( ` k L g.x.x.x.x.x.x.x.x.x.",
"x.x.x.x.x.x.x.x.x.x.t.m f f z ( b._ z E ` ` ` R / ` 9.N.9.9.L.P.P.P.P.P.L.' ` ` 7.9.V.P.9.E ` ( R _ ( x c c = X.x.x.x.x.x.x.x.x.x.x.",
"z.x.x.x.x.x.x.x.x.x.x.L * = g ! L.V./ 8.` ` ` x x ` V.L.N.( ` L.P.P.P.P.L.V.' ` Q / 7.7.Q Q ` _ Q R c k k = M i.x.x.x.x.x.x.x.x.x.x.",
"x.x.x.x.x.x.x.x.x.x.x.q.S @ @ k _ v.N.L.N.` 9./ l 7.P.V.9.Q E L.P.P.G.V.G.G.8.Q l x E x c ` ` ` ( k k k = D u.z.x.x.x.x.x.x.x.x.x.x.",
"x.x.x.x.x.x.x.x.x.x.x.x.e.v @ = l ! F.F.8.c.F.N.Q ` N.9.` Q c N.L.F.n.' 9.n.7.Q l = = k c ` ( E E l * - M i.x.x.x.x.x.x.x.x.x.x.x.x.",
"x.x.x.x.x.x.x.x.x.x.x.x.k.X.@ f k z ' ' E B.L.L.9.! ( ` ( R R 7.V.n.' ` ` ! _ ` c * * k l Q E k = g @ m i.x.x.x.x.x.x.x.x.x.x.x.x.x.",
"x.x.x.x.x.x.x.x.x.x.x.x.x.q.d f g k = k _ N.V.V.` x x Q R c ` ` ` ` / _ _ x E ! x * * = f k f k g f $ i.x.x.x.x.x.z.x.k.x.x.x.x.x.x.",
"x.x.x.x.x.x.x.x.x.x.z.x.x.x.q.d = = + k Q / / / x * * f k c ` ` ` Q l Q ! l k k f * + + * = f k f g b p.x.x.x.x.x.z.k.k.j.k.x.x.x.x.",
"x.k.k.j.x.j.x.x.x.x.x.x.x.z.j.e.s % @ f g k k k = * + * k x / ( Q k = k k k k = * + + + + + + = g n i.k.x.x.x.x.k.a.O.u.O.a.k.k.x.x.",
"x.k.a.O.u.O.a.k.x.x.x.x.x.x.x.k.a.e.d g = f f f * + + * f k k k k = * = f f f * + + # + + + # # s e.k.x.x.x.x.x.a.O.u.O.u.O.k.x.x.x.",
"x.j.O.u.O.u.O.j.x.x.x.x.x.x.x.x.z.k.t.d # @ @ + + + + + * f - g = & & + + & + : X 6 H C @ % H H K $.g.k.x.x.x.x.k.k.k.j.k.k.k.k.x.x.",
"x.k.j.k.j.k.j.k.x.x.x.x.x.x.x.x.x.z.h.t.K A > . o 2 5 6 & @ @ # & : > 2 : 2 > 2 X 6 H H m H K K K K $.g.k.x.x.x.x.k.x.z.k.x.x.k.x.x.",
"x.x.x.x.x.x.x.x.x.x.x.x.x.x.x.x.k.g.$.@.H , a u 3 0 u t 5 > 4 r e 3 2 2 O e 3 3 0 2 9 K { { K K K K K $.h.x.x.x.x.x.x.x.x.x.x.x.x.x.",
"x.x.x.x.k.k.x.x.x.x.x.x.x.x.x.k.a.@.{ [ 1 a <.q < 0 0 0 0 e ,.>.u e 2 3 t u 5 O p e 6 K { { K K K K { K g.k.x.x.x.x.z.k.a.k.x.x.x.x.",
"x.x.x.x.k.k.k.x.x.x.x.x.x.x.x.a.$.{ { H > ;.0 < p a u 0 u ,.2.<.:.t 3 e :.p t 3 t =.e 7 { { K V H V H { $.a.x.k.x.x.x.a.O.a.k.x.x.x.",
"x.x.x.k.a.O.a.k.x.x.x.x.x.k.g.$.{ { { H   < O i <.<.a 0 u 2.2.2.,.u t u ,.,.p 5 3 y e A ^ m.M.3.V H Z H { a.x.x.x.x.k.O.u.O.k.x.z.k.",
"x.x.x.j.O.u.O.a.k.k.x.k.x.x.d.{ { [ { H Z   u ,.;.;.p 0 5 :.<.a a p ;.p ,.2.a 3 O u :.U.~.(.).I.H H H { { d.k.a.k.x.k.j.k.k.k.k.a.k.",
"j.k.x.k.k.k.k.k.k.k.k.j.k.x.d.{ { { { H 8 t ,.2.,.p 0 O 0 >.<.=.p :.1.:.<.2.a 5 2 t >.R.].W._.!.U { { { H | u.O.a.k.x.x.k.x.k.a.O.a.",
"o.a.k.x.k.x.x.k.a.O.u.O.a.k.d.{ { { [ H > ;.2.2.2.a 5 O u 2.2.<.p <.a 1.2.2.>.t O 3 u Y.'.E.`.Q.{ { { H Z w.O.u.O.j.x.x.x.x.a.O.u.o.",
"a.O.j.k.k.x.x.j.O.u.O.u.O.j.d.{ { { { H > >.2.2.,.u O 0 >.<.2.<.;.p 5 ;.1.>.1.>.3 . 5 -./.(.^.T.J { { { { u.j.z.j.k.x.x.x.k.k.k.k.k.",
"k.k.k.x.x.x.x.k.k.k.k.k.a.k.d.{ { { { H o a ,.,.u < O u 2.2.<.,.:.3 O e :.=.<.2.u o 1 *.4.] ) +.{ { { { { g.x.x.x.x.x.x.x.x.x.x.x.x.",
"k.x.x.x.x.x.x.x.k.k.x.x.x.x.d.{ { { { H 1 w &.w q o 0 >.2.<.;.p =.2 . O t ,.2.2.2.i 8 K 5.r.0.5.U { { { $.h.x.x.x.x.x.x.x.x.x.x.x.x.",
"x.x.x.x.x.x.x.x.k.x.x.x.x.x.g.+.{ { { { K { { { K , u <.2.>.u t e O X O t :.1.2.2.<.0 V P 5.6.P { { { { h.x.x.x.x.x.x.x.x.x.x.x.x.x.",
"x.x.x.x.x.x.x.x.k.x.x.x.x.x.k.f.{ { { { { { { { K , r <.<.;.u t 2 X X : e u :.<.,.;.3 1 K K U { { { { $.h.x.x.x.x.x.x.x.x.x.x.x.x.x.",
"x.x.x.x.x.x.x.x.x.x.x.x.x.x.x.g.+.{ { { { { { { { 7 5 y i y y w 4 H H H > q y y y y 5 7 { { { { { { +.g.k.x.x.x.x.x.x.x.x.x.x.x.x.x.",
"x.x.x.x.x.x.x.x.x.x.x.x.x.x.x.k.u.{ { { { { { { { H [ [ [ [ [ [ [ K K [ A K H [ H [ H H { { { { { { $.a.x.x.x.x.x.x.x.x.x.x.x.x.x.x.",
"x.x.x.x.x.x.x.x.x.x.x.x.x.x.x.x.g.+.{ { { K { { { { { { { { K { { { { { { { [ { { { { { { { { { { $.g.x.x.x.x.x.x.x.x.x.x.x.x.x.x.x.",
"x.x.x.x.x.x.x.x.x.x.x.x.x.x.x.x.k.y.+.{ { { { { { { { { { { { { { { { { { { { { { { { { { { { { @.g.z.x.x.x.x.x.x.x.x.x.x.x.x.x.x.x.",
"x.x.x.x.x.x.x.x.x.x.x.x.x.x.x.x.x.z.d.+.{ { { { { K H K H K K [ { { { { { K K H K { { { { { { +.g.k.x.x.x.x.x.x.x.x.x.x.x.x.x.x.x.x.",
"x.x.x.x.x.x.x.x.x.x.x.x.x.x.x.x.x.x.z.d.+.{ { { K K ; H V K K [ { { { { { { K V H { [ { { $.g.g.x.x.x.x.x.x.x.x.x.x.x.x.x.x.x.x.x.x."
};
