/* XPM */
static char *_d7850ed0c4e4bf7901b1e1be15baa5dp9s9xFNNLtgfoks0[] = {
/* columns rows colors chars-per-pixel */
"66 66 172 2 ",
"   c #261C0F",
".  c #281F0F",
"X  c #261610",
"o  c #251A11",
"O  c #2D1C13",
"+  c #311F16",
"@  c #0B2C0D",
"#  c #0B320E",
"$  c #11340E",
"%  c #163C0E",
"&  c #1A3D0E",
"*  c #132E11",
"=  c #0C3510",
"-  c #0E3C13",
";  c #123D12",
":  c #252615",
">  c #2C2314",
",  c #2E2E10",
"<  c #342317",
"1  c #322B14",
"2  c #352319",
"3  c #39261B",
"4  c #362B1B",
"5  c #3C2A1C",
"6  c #2E3010",
"7  c #2D3811",
"8  c #2B3018",
"9  c #313511",
"0  c #383415",
"q  c #333B12",
"w  c #3B3519",
"e  c #422C1E",
"r  c #43331E",
"t  c #453B1D",
"y  c #452E20",
"u  c #463121",
"i  c #4C3423",
"p  c #4E3B23",
"a  c #513726",
"s  c #523A26",
"d  c #563B28",
"f  c #593E2A",
"g  c #1E450E",
"h  c #1E490F",
"j  c #0F4115",
"k  c #124416",
"l  c #1A4412",
"z  c #1E4A14",
"x  c #124718",
"c  c #154C19",
"v  c #1A4F1B",
"b  c #1B531C",
"n  c #1E591F",
"m  c #20470D",
"M  c #244B0D",
"N  c #26510F",
"B  c #2B550E",
"V  c #335D0E",
"C  c #395F09",
"Z  c #274511",
"A  c #2E4210",
"S  c #224F15",
"D  c #304510",
"F  c #354916",
"G  c #275211",
"H  c #2A5914",
"J  c #22551C",
"K  c #235A1D",
"L  c #3C5414",
"P  c #325C13",
"I  c #3F5A14",
"U  c #3A650E",
"Y  c #36730E",
"T  c #356112",
"R  c #3C6512",
"E  c #3E6A12",
"W  c #347110",
"Q  c #3F7C12",
"!  c #215D20",
"~  c #256222",
"^  c #2A6623",
"/  c #276824",
"(  c #2B6B26",
")  c #326C25",
"_  c #3D662B",
"`  c #2D7027",
"'  c #2E7228",
"]  c #307027",
"[  c #397127",
"{  c #32752A",
"}  c #347B2C",
"|  c #397D2D",
" . c #3A723D",
".. c #415517",
"X. c #405A15",
"o. c #416C0E",
"O. c #4C6E09",
"+. c #46720E",
"@. c #49760E",
"#. c #4E7B0E",
"$. c #507506",
"%. c #547B07",
"&. c #466314",
"*. c #496714",
"=. c #416F11",
"-. c #4A6A14",
";. c #467510",
":. c #497810",
">. c #4B4020",
",. c #454B28",
"<. c #5E412C",
"1. c #445D3F",
"2. c #62442E",
"3. c #664730",
"4. c #674830",
"5. c #6C4C33",
"6. c #704F35",
"7. c #725136",
"8. c #755338",
"9. c #436426",
"0. c #3B6147",
"q. c #3E8A0F",
"w. c #3D950A",
"e. c #3A822F",
"r. c #3E8630",
"t. c #3F8831",
"y. c #47890F",
"u. c #55830F",
"i. c #59860F",
"p. c #5C8B0F",
"a. c #548310",
"s. c #508F10",
"d. c #5D8A10",
"f. c #638F0F",
"g. c #64930D",
"h. c #67980F",
"j. c #6A9A0E",
"k. c #628E11",
"l. c #659211",
"z. c #689611",
"x. c #6B9A10",
"c. c #6FA00E",
"v. c #73A50F",
"b. c #74A710",
"n. c #418731",
"m. c #438C33",
"M. c #4E843E",
"N. c #55883F",
"B. c #469135",
"V. c #4A9436",
"C. c #4C9837",
"Z. c #4E9A38",
"A. c #519E3A",
"S. c #53A03B",
"D. c #649A5E",
"F. c #6D9269",
"G. c #628D76",
"H. c #659579",
"J. c #7CA47C",
"K. c #CBE75B",
"L. c #D1E856",
"P. c #7CB794",
"I. c #83BD9C",
"U. c #93CDB9",
"Y. c #87C4C1",
"T. c #91D0CB",
"R. c #98D7D1",
"E. c #9EDBD1",
"W. c #B8EBC1",
"Q. c #BEF0C6",
"!. c #B4EDD0",
"~. c #B8F0D1",
/* pixels */
"b.b.b.b.b.b.b.b.b.b.b.b.b.b.b.b.b.b.b.b.v.g.f.f.p.c.g.B K t.C.Z.V.{ z m u.i.h l l l =.x.b.b.b.b.b.b.b.b.b.b.b.b.b.b.b.b.b.b.b.b.b.b.",
"b.b.b.b.b.b.b.b.b.b.b.b.b.b.b.b.b.b.b.v.p.G g z l ;.U K n.Z.S.S.S.Z.V.} S l ( m.V.C.) R g.k.g.j.b.b.b.b.b.b.b.b.b.b.b.b.b.b.b.b.b.b.",
"b.b.b.b.b.b.b.b.b.b.b.b.b.b.b.b.b.b.v.f.H ( m.B.e.K ! t.Z.S.S.S.S.S.S.Z.V.} V.A.S.S.C.) % l l B g.b.b.b.b.b.b.b.b.b.b.b.b.b.b.b.b.b.",
"b.b.b.b.b.b.b.b.b.b.b.b.b.b.b.b.b.b.h.N ( V.S.S.Z.V.e.m.S.S.S.S.S.S.S.S.A.e.C.A.S.A.A.[ J B.n.^ H l.b.b.b.b.b.b.b.b.b.b.b.b.b.b.b.b.",
"b.b.b.b.b.b.b.b.b.b.b.b.b.b.b.b.v.c.k.l ' Z.S.S.S.S.Z.B.B.S.S.S.S.S.S.S.A.Z.A.S.S.S.S.C.V.S.A.m.^ B x.b.b.b.b.b.b.b.b.b.b.b.b.b.b.b.",
"b.b.b.b.b.b.b.b.b.b.b.b.b.b.b.p.Z Z z j b V.S.S.S.S.S.Z.Z.S.S.S.S.S.S.S.A.A.S.S.S.S.S.S.A.S.S.C.( g g.b.b.b.b.b.b.b.b.b.b.b.b.b.b.b.",
"b.b.b.b.b.b.b.b.b.b.b.b.b.v.p.H ! ! c | r.r.Z.A.S.S.S.S.S.S.S.S.S.S.S.S.S.S.S.S.S.S.S.S.A.S.A.V.n k B g.b.b.b.b.b.b.b.b.b.b.b.b.b.b.",
"b.b.b.b.b.b.b.b.b.b.b.b.b.i.H ( B.m.' Z.A.C.A.S.S.S.S.S.S.S.S.S.S.S.S.S.S.S.S.S.S.S.S.S.S.S.V.( | [ l f.b.b.b.b.b.b.b.b.b.b.b.b.b.b.",
"b.b.b.b.b.b.b.b.b.b.b.b.b.@.v V.S.A.C.A.S.S.S.S.S.S.S.S.S.S.S.S.S.S.S.S.S.S.S.S.S.S.S.S.S.S.V.r.A.C.~ U x.b.b.b.b.b.b.b.b.b.b.b.b.b.",
"b.b.b.b.b.b.b.b.b.b.b.b.p.T ) A.S.S.A.A.S.S.S.S.S.S.S.S.S.S.S.S.S.S.S.S.S.S.S.V.Z.S.S.S.S.S.S.S.A.C.{ l p.b.b.b.b.b.b.b.b.b.b.b.b.b.",
"b.b.b.b.b.b.b.b.b.b.b.p.T ! e.V.A.S.S.S.S.S.S.S.S.S.S.S.S.S.Z.B.m.| B.A.B.| t.m.C.S.S.S.S.S.S.S.S.A.m.K E j.b.b.b.b.b.b.b.b.b.b.b.b.",
"b.b.b.b.b.b.b.b.b.b.b.U v } } r.S.S.S.S.S.S.S.S.S.S.S.S.S.S.Z.t.| ! ^ { ( n ' V.S.S.S.S.S.S.S.S.S.A.Z.} k p.b.b.b.b.b.b.b.b.b.b.b.b.",
"b.b.b.b.b.b.b.b.b.b.g.T ! } | m.A.S.S.S.S.S.S.S.S.S.S.S.S.S.S.S.A.e.^ b c ( r.C.S.S.S.S.S.S.S.S.S.S.A.r.l i.b.b.b.b.b.b.b.b.b.b.b.b.",
"b.b.b.b.b.b.b.b.b.b.V b | e.r.S.S.A.S.S.S.S.S.S.S.S.S.S.S.S.S.S.S.A.A.e.! | C.S.S.S.S.S.S.S.S.S.S.S.A.A.J :.j.b.b.b.b.b.b.b.b.b.b.b.",
"b.b.b.b.b.b.b.b.b.b.V n B.V.t.Z.A.Z.B.A.S.S.S.S.S.S.S.S.S.S.S.S.S.S.A.A.n.C.A.S.S.S.S.S.S.S.S.S.S.S.A.A.e.l d.b.b.b.b.b.b.b.b.b.b.b.",
"b.b.b.b.b.b.b.b.b.b.V ^ Z.S.V.e.C.t.! V.S.S.S.S.S.S.S.S.S.S.S.S.S.S.S.S.A.A.S.S.S.S.S.S.S.S.S.S.S.S.A.A.Z.x u.b.b.b.b.b.b.b.b.b.b.b.",
"b.b.b.b.b.b.b.b.b.b.V n m.C.m.} ` v n Z.S.S.S.S.S.S.S.S.S.S.S.S.S.S.S.S.S.S.S.S.S.S.S.S.S.S.S.S.S.S.S.A.C.l a.b.b.b.b.b.b.b.b.b.b.b.",
"b.b.b.b.b.b.b.b.b.b.U J { } } / x b ' Z.S.S.S.S.S.S.S.S.S.S.S.S.S.S.S.S.S.S.S.S.S.S.S.S.S.S.S.S.S.S.S.A.| l u.b.b.b.b.b.b.b.b.b.b.b.",
"b.b.b.b.b.b.b.b.b.b.g.V k v v c b ' } e.Z.S.S.S.S.S.S.S.S.S.S.S.S.S.S.S.S.S.S.S.S.S.S.S.S.S.S.S.A.A.A.C.v #.j.b.b.b.b.b.b.b.b.b.b.b.",
"b.b.b.b.b.b.b.b.b.c.U l x n ~ v } V.V.r.Z.S.S.S.S.S.S.S.S.S.S.S.S.S.S.S.S.S.S.S.S.S.S.S.S.S.S.S.S.A.A.r.l d.b.b.b.b.b.b.b.b.b.b.b.b.",
"b.b.b.b.b.b.b.b.b.E ; ^ m.r./ b e.S.S.V.t.Z.S.S.S.S.S.S.S.S.S.S.S.S.S.S.S.S.S.S.S.S.S.S.S.S.S.S.S.S.S.C.] S d.b.v.v.v.v.b.b.b.b.b.b.",
"b.b.b.b.b.b.b.b.b.B b n.A.B./ b } t.Z.S.V.S.S.S.S.S.S.S.S.S.S.S.S.S.S.S.S.S.S.S.S.S.S.S.S.S.S.S.S.S.S.A.| ; g i.c.v.v.v.b.b.b.b.b.b.",
"b.b.b.b.b.b.b.b.#.H | C.C.r./ c ! e.S.S.S.S.S.S.S.S.S.S.S.S.S.S.S.S.S.S.S.S.S.S.S.S.S.S.S.S.A.Z.B.A.A.A.V.^ ; ;.%.g.%.j.b.b.b.b.v.b.",
"b.b.b.b.b.b.b.b.=.~ B.A.C.m.e.n c e.Z.S.S.S.S.S.B.C.S.S.S.S.S.S.S.S.S.S.S.S.S.S.S.S.S.S.S.S.Z.m.} [ C.S.A.r.; C g.%.f.%.b.b.b.b.v.v.",
"c.v.v.v.b.b.b.b.o.K V.S.S.S.C.e./ e.Z.S.S.S.S.S.t.' t.S.S.S.S.S.S.S.S.S.S.S.S.S.S.S.S.S.S.S.V.! n v ( t.m.e.k @.v.j.v.v.v.v.c.v.c.v.",
"$.g.%.j.v.b.b.b.o.b | C.S.S.S.C.{ / e.Z.S.S.S.V.e./ ` | r.V.S.S.A.A.B.B.Z.S.S.S.S.S.S.S.S.S.V./ b / ) { } ! P d.b.b.b.b.v.j.%.g.%.j.",
"j.%.g.%.v.v.v.v.#.g b e.B.C.S.C.e.~ b } Z.S.Z.t.t.t.' n b { C.Z.A.m.| | Z.S.S.S.S.S.S.S.S.S.S.B./ C.A.m.} ; a.b.b.b.b.b.c.%.g.%.g.$.",
"v.v.v.j.v.v.j.v.c.B - n / { m.C.Z.V.~ v | B.e.V.A.A.A.r.n n } V.B.| } t.Z.S.S.S.S.S.S.S.S.S.S.Z.m.C.A.A.| v ;.g.b.b.b.b.v.c.v.c.v.v.",
"v.v.b.b.v.j.%.g.%.U l j x b ^ } Z.S.V.n b ' e.V.A.S.S.S.C.' ! } } e.t.Z.S.S.S.S.S.S.S.S.S.S.S.S.C.r.B.C.e.} k #.b.b.b.b.v.b.b.b.b.b.",
"b.v.b.b.v.%.g.%.g.%.V = ! m.e.K e.Z.V.' } e.Z.S.S.S.S.S.A.V.| } t.Z.S.S.S.S.S.S.S.S.S.S.S.S.S.S.C.| } } } ` ; #.b.b.b.b.v.v.b.b.b.b.",
"b.b.b.b.v.v.v.v.v.g.B - ` A.V.| } ' ` b } V.S.Z.A.S.S.S.A.Z.B.| Z.S.S.S.S.S.S.S.S.S.S.S.A.Z.A.Z.m.| } } } b = o.v.v.b.b.b.b.b.b.b.b.",
"b.b.b.b.v.v.v.v.v.V - k ( C.C.m./ c b b ` B.Z.t.C.A.S.S.A.C.| r.Z.S.S.S.S.S.S.S.S.S.S.A.C.t.C.t.~ ' } } } b j % #.v.b.b.b.b.b.b.b.b.",
"b.b.b.b.b.b.b.b.v.B - ~ / / } ` c n t.} ! { e.e.V.S.S.S.S.V.} e.t.Z.S.Z.S.S.Z.Z.S.S.A.S.S.r.b ~ { } } } ' b j = ;.v.b.b.b.b.b.b.b.b.",
"b.b.b.b.b.b.b.b.b.B n t.V.} c c b B.S.Z.t.e.} B.S.Z.S.S.V.t.Z.V.e.t.Z.t.C.C./ t.S.A.B.t.A.r.n B.V.| } } n x x = ;.v.b.b.b.b.b.b.b.b.",
"b.b.b.b.b.b.b.b.b.B K m.S.m.~ j n Z.Z.S.S.Z.e.B.S.t.B.S.Z.Z.S.Z.V.Z.Z.V./ n ( B.S.B.t.B.e.e.} Z.A.V.} } ` v j = +.b.b.b.b.b.b.b.b.b.",
"b.b.b.b.b.b.b.b.v.B j ( r.` c x x / Z.t.Z.S.e.e.e.e.e.B.S.S.S.S.S.S.S.S.m.b ( e.e.B.A.Z.t.} } t.A.Z.e.} } ` b = +.b.b.b.b.b.b.b.b.b.",
"b.b.b.b.b.b.b.b.b.p.B k b v j v ~ v n ! e.e.} } } } } e.r.m.S.S.S.S.S.S.Z.' { } t.Z.S.S.B.} } e.e.e.} n ' } c U l.b.b.b.b.b.b.b.b.b.",
"b.b.b.b.b.b.b.b.b.b.d.B - j b ' m.{ v / } } } ~ ` } t.B.t.r.S.S.S.S.S.S.A.r.} } e.t.C.S.t.~ } ' ! } ' b b n - :.b.b.b.b.b.b.b.b.b.b.",
"b.b.b.b.b.b.b.b.b.b.b.U - - k ( A.B.` r.e.} } b b } V.S.B.} } S.S.S.A.S.A.V.| } / ( e.e./ / } ' / ! n x x - T g.b.b.b.b.b.b.b.b.b.b.",
"b.b.b.b.b.b.b.b.b.b.v.d.N # # x } m.B.Z.t.e.t./ c e.S.C.t./ ! S.S.S.A.V.Z.A.r./ b b ! b n } } } ' x x x - H g.b.b.b.b.b.b.b.b.b.b.b.",
"b.b.b.b.b.b.b.b.b.b.b.b.i.M # - c ` Z.Z.| n.Z.B./ | B.t.} / n B.A.A.m.e.m.m.e./ c - j x b } ' / ! k = - V j.b.b.b.b.b.b.b.b.b.b.b.b.",
"b.b.b.b.b.b.b.b.b.b.b.b.v.:.= j j v | | ^ V.S.A.t./ ' } ` / ! e.V.m.} } } / { } n = = x v / ~ x x k # B g.b.b.b.b.b.b.b.b.b.b.b.b.b.",
"b.b.b.b.b.b.b.b.b.b.b.b.v.i.h - x j - x { B.C.C.} b b / n n } } } } ' } { b ~ ( b = = - j x x x k j % g.v.b.b.b.b.b.b.b.b.b.b.b.b.b.",
"b.b.b.b.b.b.b.b.b.b.b.b.b.b.i.z - - = x / ( ` ( b = = j x b } } { / c / ( c x k - = @ @ = - - x j k N h.b.b.b.b.b.v.c.c.c.v.b.b.b.b.",
"v.v.v.c.b.c.v.v.b.b.b.b.b.b.b.i.g g # k x x x x j = @ = x b ` ` / x j x x x x k = @ @ @ @ @ @ - j N g.b.b.b.b.b.v.j.%.g.u.j.v.b.b.b.",
"b.v.j.%.g.%.j.v.b.b.b.b.b.b.b.v.j.i.g j - j j j @ @ @ = j x x c x - = - j - - * @ @ # = @ @ $ $ m p.v.b.b.b.b.b.j.%.g.%.g.%.c.b.b.b.",
"b.c.%.g.%.g.%.c.b.b.b.b.b.b.b.b.b.v.f.h # # # @ @ @ * @ = j ; j - * * @ @ * @ * o 7 L Z @ & L L L -.j.v.b.b.b.b.v.c.v.c.v.c.v.b.b.b.",
"b.v.c.v.c.v.c.v.b.b.b.b.b.b.b.b.v.v.x.p.I F > X > 2 5 8 @ # = $ * : > 2 : 2 2 2 o 8 L I B L I I I X.-.z.b.b.b.b.b.b.b.b.b.b.b.b.b.b.",
"b.b.b.b.b.b.b.b.b.b.b.b.b.b.b.b.v.j.-.&.L 1 f a 3 e i i 5 > 4 u y 3 2 + 3 u 3 + e 2 q X.X.X.I I X.X.X.-.x.b.b.b.b.b.b.b.b.v.b.b.b.b.",
"b.b.b.b.b.v.b.b.b.b.b.b.b.b.b.b.j.-.X.L 1 f 6.r 3 e e e e y 5.4.a y 3 3 u a 3 2 f y 9 L X.X.I I I L I &.z.v.b.b.b.b.v.v.v.v.b.b.b.b.",
"b.b.b.b.v.c.b.b.b.b.b.b.v.v.b.j.-.X...L . 2.e 2 d f a e a 5.8.6.3.i 3 i 3.d i 3 i f y 7 X.X.I A L A L L -.j.b.v.b.b.v.j.%.j.v.b.b.b.",
"b.b.b.v.j.%.j.v.b.b.b.b.b.v.j.-.X.X.X.L . 2 + s 5.5.<.e a 8.8.7.6.a u a 5.5.f 3 5 i y F _ M.N.9.A L D L X.j.b.v.b.b.v.%.g.%.c.b.v.v.",
"b.b.b.c.%.g.%.c.v.v.b.b.b.b.k.X.X.X.X...q   a 7.4.<.s e 3 4.5.<.f d <.d 6.7.f 3 2 a 3.F.U.E.E.D.L I L X.X.g.v.c.v.b.v.c.v.v.v.v.c.v.",
"c.b.b.v.v.v.c.v.v.v.v.j.v.b.k.X.X.X.X.L q i 5.8.5.f u + 3 5.6.2.d 3.7.4.7.7.f 5 2 i 4.J.~.L.W.I.R I X.X.L O.f.%.j.v.b.b.v.v.v.j.%.j.",
"$.j.v.b.v.b.b.v.j.%.f.%.j.v.k.X.X.X...L > 4.8.8.7.<.3 + a 8.8.6.f 5.<.7.8.7.3.i 2 3 a G.!.K.Q.P.I X.X.L D i.%.g.%.v.b.b.b.b.c.%.g.$.",
"j.%.c.v.b.b.b.c.%.g.%.g.%.v.k.X.X.X.X.L > 2.7.7.5.a + 5 4.8.8.6.<.d 5 <.6.5.6.3.2 X 5 1.T.R.Y.H.P X.X...X.g.c.v.c.v.b.b.b.v.v.c.v.j.",
"v.v.v.b.b.b.b.v.v.v.v.v.j.v.f.X.X.X.X.L O f 5.5.a 2 + a 8.8.7.5.4.3 + y <.<.6.8.s O < ,.0. .) &.X.X.X.X.X.z.b.b.v.v.b.b.b.b.b.b.b.b.",
"v.b.b.b.b.b.b.b.v.v.b.b.b.b.f.X.X.X.X.L , t >.t w O e 3.8.7.2.s <.2 X 2 a 5.8.8.8.s 0 R Q s.y.y.R X.X.X.-.c.b.b.b.b.b.b.b.b.b.b.b.b.",
"b.b.b.b.b.b.b.b.v.b.b.b.b.b.l.*.X.X.X.X.X.X...X.X., i 7.8.5.a i y > X + i 3.7.8.8.7.u 7 W q.w.Y X.X.X.X.x.b.b.b.b.b.b.b.b.b.b.b.b.b.",
"b.b.b.b.b.b.b.b.b.b.b.b.b.v.v.l.X.X.X.I X.X.I X.X., i 6.5.2.a u 2 o o > 5 a 3.6.5.<.3 6 X.I R X.X.X.X.-.x.b.b.b.b.b.b.b.b.b.b.b.b.b.",
"b.b.b.b.b.b.b.b.b.b.b.b.b.b.b.z.*.X.X.X.X.X.X.X.X.9 5 s s p p i w L ..F > u p p p p 5 9 X.X.X.X.X.X.&.z.b.b.b.b.b.b.b.b.b.b.b.b.b.b.",
"b.b.b.b.b.b.b.b.b.b.b.b.b.b.b.b.k.X.X.X.X.X.X.X.X.L ..X.....X...L X.X.L L L L ....X.L L X.X.X.X.X.X.-.x.b.b.b.b.b.b.b.b.b.b.b.b.b.b.",
"b.b.b.b.b.b.b.b.b.b.b.b.b.b.b.b.j.&.X.X.X...X.X.X.X.X.X.X.X.X.X.X.X.X.X.X.X.X.X.X.X.X.X.X.X.X.X.I &.z.b.b.b.b.b.b.b.b.b.b.b.b.b.b.b.",
"b.b.b.b.b.b.b.b.b.b.b.b.b.b.b.b.v.f.&.X.X.I X.X.X.X.X.X.X.X.X.X.X.X.X.X.X.X.X.X.X.X.X.X.X.L I I -.z.b.b.b.b.b.b.b.b.b.b.b.b.b.b.b.b.",
"b.b.b.b.b.b.b.b.b.b.b.b.b.b.b.b.b.b.k.&.X.X.X.X.X...L I L I X.X.X.X.X.X.X.X.I L X.X.X.X.X.X.X.-.z.b.b.b.b.b.b.b.b.b.b.b.b.b.b.b.b.b.",
"b.b.b.b.b.b.b.b.b.b.b.b.b.b.b.b.b.b.b.k.&.X.X.X.X.L A L A L X.X.X.X.X.X.X.X.L A I I X.X.X.-.g.z.b.b.b.b.b.b.b.b.b.b.b.b.b.b.b.b.b.b."
};
